<?xml version="1.0" encoding="UTF-8" standalone="no"?>
<svg xmlns="http://www.w3.org/2000/svg" xmlns:xlink="http://www.w3.org/1999/xlink" contentScriptType="application/ecmascript" contentStyleType="text/css" height="2123px" preserveAspectRatio="none" style="width:2827px;height:2123px;" version="1.1" viewBox="0 0 2827 2123" width="2827px" zoomAndPan="magnify"><defs><filter height="300%" id="fb7qdsnlgthm3" width="300%" x="-1" y="-1"><feGaussianBlur result="blurOut" stdDeviation="2.0"/><feColorMatrix in="blurOut" result="blurOut2" type="matrix" values="0 0 0 0 0 0 0 0 0 0 0 0 0 0 0 0 0 0 .4 0"/><feOffset dx="4.0" dy="4.0" in="blurOut2" result="blurOut3"/><feBlend in="SourceGraphic" in2="blurOut3" mode="normal"/></filter></defs><g><text fill="#000000" font-family="sans-serif" font-size="18" lengthAdjust="spacingAndGlyphs" textLength="213" x="1313" y="16.708">SingularityNet Java SDK</text><!--MD5=[c9a0bda5db5f5c41db91654b4e5ef6b4]
cluster io.singularitynet.sdk.ethereum--><polygon fill="#FFFFFF" filter="url(#fb7qdsnlgthm3)" points="855,1328.9531,1103,1328.9531,1110,1351.25,1260,1351.25,1260,1869.9531,855,1869.9531,855,1328.9531" style="stroke: #000000; stroke-width: 1.5;"/><line style="stroke: #000000; stroke-width: 1.5;" x1="855" x2="1110" y1="1351.25" y2="1351.25"/><text fill="#000000" font-family="sans-serif" font-size="14" font-weight="bold" lengthAdjust="spacingAndGlyphs" textLength="242" x="859" y="1343.9482">io.singularitynet.sdk.ethereum</text><!--MD5=[fbeaa37b65443cc49c19f7a5ff8e9e60]
cluster io.singularitynet.sdk.registry--><polygon fill="#FFFFFF" filter="url(#fb7qdsnlgthm3)" points="2076,1636.9531,2309,1636.9531,2316,1659.25,2805,1659.25,2805,2111.9531,2076,2111.9531,2076,1636.9531" style="stroke: #000000; stroke-width: 1.5;"/><line style="stroke: #000000; stroke-width: 1.5;" x1="2076" x2="2316" y1="1659.25" y2="1659.25"/><text fill="#000000" font-family="sans-serif" font-size="14" font-weight="bold" lengthAdjust="spacingAndGlyphs" textLength="227" x="2080" y="1651.9482">io.singularitynet.sdk.registry</text><!--MD5=[7a4376249cecd8eed7d6851d37ef4d2a]
cluster io.singularitynet.sdk.daemon--><polygon fill="#FFFFFF" filter="url(#fb7qdsnlgthm3)" points="1334,1150.4531,1568,1150.4531,1575,1172.75,2221,1172.75,2221,1612.9531,1334,1612.9531,1334,1150.4531" style="stroke: #000000; stroke-width: 1.5;"/><line style="stroke: #000000; stroke-width: 1.5;" x1="1334" x2="1575" y1="1172.75" y2="1172.75"/><text fill="#000000" font-family="sans-serif" font-size="14" font-weight="bold" lengthAdjust="spacingAndGlyphs" textLength="228" x="1338" y="1165.4482">io.singularitynet.sdk.daemon</text><!--MD5=[1cef9e114abc99c09a733caef85cc9b6]
cluster io.singularitynet.sdk.mpe--><polygon fill="#FFFFFF" filter="url(#fb7qdsnlgthm3)" points="1167,829.4531,1372,829.4531,1379,851.75,2445,851.75,2445,1126.4531,1167,1126.4531,1167,829.4531" style="stroke: #000000; stroke-width: 1.5;"/><line style="stroke: #000000; stroke-width: 1.5;" x1="1167" x2="1379" y1="851.75" y2="851.75"/><text fill="#000000" font-family="sans-serif" font-size="14" font-weight="bold" lengthAdjust="spacingAndGlyphs" textLength="199" x="1171" y="844.4482">io.singularitynet.sdk.mpe</text><!--MD5=[20d8be066390a5d4368908ca2ae678f3]
cluster io.singularitynet.sdk.client--><polygon fill="#FFFFFF" filter="url(#fb7qdsnlgthm3)" points="22,45.4531,236,45.4531,243,67.75,1143,67.75,1143,973.4531,22,973.4531,22,45.4531" style="stroke: #000000; stroke-width: 1.5;"/><line style="stroke: #000000; stroke-width: 1.5;" x1="22" x2="243" y1="67.75" y2="67.75"/><text fill="#000000" font-family="sans-serif" font-size="14" font-weight="bold" lengthAdjust="spacingAndGlyphs" textLength="208" x="26" y="60.4482">io.singularitynet.sdk.client</text><!--MD5=[02f5c4a709c8c80aaf14170cabfdbf15]
class WithAddress--><rect fill="#FEFECE" filter="url(#fb7qdsnlgthm3)" height="60.8047" id="WithAddress" style="stroke: #A80036; stroke-width: 1.5;" width="140" x="1104" y="1363.9531"/><ellipse cx="1132.95" cy="1379.9531" fill="#B4A7E5" rx="11" ry="11" style="stroke: #A80036; stroke-width: 1.0;"/><path d="M1133.9031,1376.7344 L1133.9031,1383.25 L1135.6219,1383.25 C1136.075,1383.25 1136.2156,1383.2813 1136.3875,1383.4063 C1136.6219,1383.5781 1136.7313,1383.8281 1136.7313,1384.1094 C1136.7313,1384.6719 1136.3719,1384.9531 1135.6219,1384.9531 L1130.4813,1384.9531 C1130.075,1384.9531 1129.8719,1384.9063 1129.7156,1384.7813 C1129.4969,1384.625 1129.3563,1384.3594 1129.3563,1384.1094 C1129.3563,1383.8125 1129.5125,1383.5313 1129.7625,1383.375 C1129.9188,1383.2656 1130.0438,1383.25 1130.4813,1383.25 L1132.2,1383.25 L1132.2,1376.7344 L1130.4813,1376.7344 C1130.0594,1376.7344 1129.8719,1376.7031 1129.7156,1376.5938 C1129.4969,1376.4219 1129.3563,1376.1719 1129.3563,1375.8906 C1129.3563,1375.6094 1129.5125,1375.3125 1129.7625,1375.1563 C1129.9188,1375.0625 1130.0438,1375.0469 1130.4813,1375.0469 L1135.6219,1375.0469 C1136.075,1375.0469 1136.2156,1375.0781 1136.3875,1375.1875 C1136.6219,1375.3594 1136.7313,1375.625 1136.7313,1375.8906 C1136.7313,1376.1875 1136.5906,1376.4688 1136.325,1376.625 C1136.2,1376.7031 1136.0125,1376.7344 1135.6219,1376.7344 Z "/><text fill="#000000" font-family="sans-serif" font-size="12" font-style="italic" lengthAdjust="spacingAndGlyphs" textLength="77" x="1150.05" y="1384.1074">WithAddress</text><line style="stroke: #A80036; stroke-width: 1.5;" x1="1105" x2="1243" y1="1395.9531" y2="1395.9531"/><line style="stroke: #A80036; stroke-width: 1.5;" x1="1105" x2="1243" y1="1403.9531" y2="1403.9531"/><text fill="#000000" font-family="sans-serif" font-size="11" lengthAdjust="spacingAndGlyphs" textLength="128" x="1110" y="1418.1636">Address getAddress();</text><!--MD5=[d89522dc17e4c35c83a603e675ef016b]
class Identity--><rect fill="#FEFECE" filter="url(#fb7qdsnlgthm3)" height="60.8047" id="Identity" style="stroke: #A80036; stroke-width: 1.5;" width="196" x="1048" y="1542.4531"/><ellipse cx="1117.75" cy="1558.4531" fill="#B4A7E5" rx="11" ry="11" style="stroke: #A80036; stroke-width: 1.0;"/><path d="M1118.7031,1555.2344 L1118.7031,1561.75 L1120.4219,1561.75 C1120.875,1561.75 1121.0156,1561.7813 1121.1875,1561.9063 C1121.4219,1562.0781 1121.5313,1562.3281 1121.5313,1562.6094 C1121.5313,1563.1719 1121.1719,1563.4531 1120.4219,1563.4531 L1115.2813,1563.4531 C1114.875,1563.4531 1114.6719,1563.4063 1114.5156,1563.2813 C1114.2969,1563.125 1114.1563,1562.8594 1114.1563,1562.6094 C1114.1563,1562.3125 1114.3125,1562.0313 1114.5625,1561.875 C1114.7188,1561.7656 1114.8438,1561.75 1115.2813,1561.75 L1117,1561.75 L1117,1555.2344 L1115.2813,1555.2344 C1114.8594,1555.2344 1114.6719,1555.2031 1114.5156,1555.0938 C1114.2969,1554.9219 1114.1563,1554.6719 1114.1563,1554.3906 C1114.1563,1554.1094 1114.3125,1553.8125 1114.5625,1553.6563 C1114.7188,1553.5625 1114.8438,1553.5469 1115.2813,1553.5469 L1120.4219,1553.5469 C1120.875,1553.5469 1121.0156,1553.5781 1121.1875,1553.6875 C1121.4219,1553.8594 1121.5313,1554.125 1121.5313,1554.3906 C1121.5313,1554.6875 1121.3906,1554.9688 1121.125,1555.125 C1121,1555.2031 1120.8125,1555.2344 1120.4219,1555.2344 Z "/><text fill="#000000" font-family="sans-serif" font-size="12" font-style="italic" lengthAdjust="spacingAndGlyphs" textLength="48" x="1138.25" y="1562.6074">Identity</text><line style="stroke: #A80036; stroke-width: 1.5;" x1="1049" x2="1243" y1="1574.4531" y2="1574.4531"/><line style="stroke: #A80036; stroke-width: 1.5;" x1="1049" x2="1243" y1="1582.4531" y2="1582.4531"/><text fill="#000000" font-family="sans-serif" font-size="11" lengthAdjust="spacingAndGlyphs" textLength="184" x="1054" y="1596.6636">Signature sign(byte[] message);</text><!--MD5=[b6d80437076b002e054c1b4fb05a77ff]
class PrivateKeyIdentity--><rect fill="#FEFECE" filter="url(#fb7qdsnlgthm3)" height="60.8047" id="PrivateKeyIdentity" style="stroke: #A80036; stroke-width: 1.5;" width="176" x="1058" y="1678.4531"/><ellipse cx="1088.3" cy="1694.4531" fill="#ADD1B2" rx="11" ry="11" style="stroke: #A80036; stroke-width: 1.0;"/><path d="M1090.6438,1690.125 L1090.8156,1690.2031 C1091.0344,1689.8906 1091.2375,1689.7969 1091.5344,1689.7969 C1091.8313,1689.7969 1092.1125,1689.9375 1092.2688,1690.2031 C1092.3625,1690.3594 1092.3781,1690.4844 1092.3781,1690.9219 L1092.3781,1692.3438 C1092.3781,1692.7656 1092.3469,1692.9531 1092.2375,1693.1094 C1092.0656,1693.3281 1091.8,1693.4688 1091.5344,1693.4688 C1091.3156,1693.4688 1091.0813,1693.3594 1090.9406,1693.2188 C1090.8,1693.0938 1090.7688,1692.9688 1090.7063,1692.5625 C1090.6125,1692.1563 1090.4406,1691.9375 1089.9563,1691.6563 C1089.4875,1691.4063 1088.8781,1691.25 1088.3,1691.25 C1086.5656,1691.25 1085.3156,1692.5625 1085.3156,1694.3438 L1085.3156,1695.4375 C1085.3156,1697.1406 1086.6125,1698.2344 1088.6594,1698.2344 C1089.425,1698.2344 1090.1125,1698.1094 1090.5344,1697.8438 C1090.7219,1697.75 1090.7219,1697.75 1091.175,1697.2656 C1091.3625,1697.0781 1091.5656,1697 1091.7844,1697 C1092.2531,1697 1092.6438,1697.3906 1092.6438,1697.8438 C1092.6438,1698.2344 1092.3156,1698.6875 1091.7375,1699.0938 C1090.9875,1699.6406 1089.8313,1699.9375 1088.6125,1699.9375 C1085.7219,1699.9375 1083.6125,1698.0469 1083.6125,1695.4688 L1083.6125,1694.3438 C1083.6125,1691.625 1085.6125,1689.5469 1088.2375,1689.5469 C1089.1125,1689.5469 1089.7063,1689.6875 1090.6438,1690.125 Z "/><text fill="#000000" font-family="sans-serif" font-size="12" lengthAdjust="spacingAndGlyphs" textLength="110" x="1105.7" y="1698.6074">PrivateKeyIdentity</text><line style="stroke: #A80036; stroke-width: 1.5;" x1="1059" x2="1233" y1="1710.4531" y2="1710.4531"/><line style="stroke: #A80036; stroke-width: 1.5;" x1="1059" x2="1233" y1="1718.4531" y2="1718.4531"/><text fill="#000000" font-family="sans-serif" font-size="11" lengthAdjust="spacingAndGlyphs" textLength="164" x="1064" y="1732.6636">Credentials getCredentials();</text><!--MD5=[0e3850bbd7a0c73dc417b72efd437f75]
class MnemonicIdentity--><rect fill="#FEFECE" filter="url(#fb7qdsnlgthm3)" height="48" id="MnemonicIdentity" style="stroke: #A80036; stroke-width: 1.5;" width="141" x="1075.5" y="1805.9531"/><ellipse cx="1090.5" cy="1821.9531" fill="#ADD1B2" rx="11" ry="11" style="stroke: #A80036; stroke-width: 1.0;"/><path d="M1092.8438,1817.625 L1093.0156,1817.7031 C1093.2344,1817.3906 1093.4375,1817.2969 1093.7344,1817.2969 C1094.0313,1817.2969 1094.3125,1817.4375 1094.4688,1817.7031 C1094.5625,1817.8594 1094.5781,1817.9844 1094.5781,1818.4219 L1094.5781,1819.8438 C1094.5781,1820.2656 1094.5469,1820.4531 1094.4375,1820.6094 C1094.2656,1820.8281 1094,1820.9688 1093.7344,1820.9688 C1093.5156,1820.9688 1093.2813,1820.8594 1093.1406,1820.7188 C1093,1820.5938 1092.9688,1820.4688 1092.9063,1820.0625 C1092.8125,1819.6563 1092.6406,1819.4375 1092.1563,1819.1563 C1091.6875,1818.9063 1091.0781,1818.75 1090.5,1818.75 C1088.7656,1818.75 1087.5156,1820.0625 1087.5156,1821.8438 L1087.5156,1822.9375 C1087.5156,1824.6406 1088.8125,1825.7344 1090.8594,1825.7344 C1091.625,1825.7344 1092.3125,1825.6094 1092.7344,1825.3438 C1092.9219,1825.25 1092.9219,1825.25 1093.375,1824.7656 C1093.5625,1824.5781 1093.7656,1824.5 1093.9844,1824.5 C1094.4531,1824.5 1094.8438,1824.8906 1094.8438,1825.3438 C1094.8438,1825.7344 1094.5156,1826.1875 1093.9375,1826.5938 C1093.1875,1827.1406 1092.0313,1827.4375 1090.8125,1827.4375 C1087.9219,1827.4375 1085.8125,1825.5469 1085.8125,1822.9688 L1085.8125,1821.8438 C1085.8125,1819.125 1087.8125,1817.0469 1090.4375,1817.0469 C1091.3125,1817.0469 1091.9063,1817.1875 1092.8438,1817.625 Z "/><text fill="#000000" font-family="sans-serif" font-size="12" lengthAdjust="spacingAndGlyphs" textLength="109" x="1104.5" y="1826.1074">MnemonicIdentity</text><line style="stroke: #A80036; stroke-width: 1.5;" x1="1076.5" x2="1215.5" y1="1837.9531" y2="1837.9531"/><line style="stroke: #A80036; stroke-width: 1.5;" x1="1076.5" x2="1215.5" y1="1845.9531" y2="1845.9531"/><!--MD5=[fc5834a53f6a05e1e3284f858e1067a1]
class Ethereum--><rect fill="#FEFECE" filter="url(#fb7qdsnlgthm3)" height="60.8047" id="Ethereum" style="stroke: #A80036; stroke-width: 1.5;" width="197" x="871.5" y="1363.9531"/><ellipse cx="935.25" cy="1379.9531" fill="#ADD1B2" rx="11" ry="11" style="stroke: #A80036; stroke-width: 1.0;"/><path d="M937.5938,1375.625 L937.7656,1375.7031 C937.9844,1375.3906 938.1875,1375.2969 938.4844,1375.2969 C938.7813,1375.2969 939.0625,1375.4375 939.2188,1375.7031 C939.3125,1375.8594 939.3281,1375.9844 939.3281,1376.4219 L939.3281,1377.8438 C939.3281,1378.2656 939.2969,1378.4531 939.1875,1378.6094 C939.0156,1378.8281 938.75,1378.9688 938.4844,1378.9688 C938.2656,1378.9688 938.0313,1378.8594 937.8906,1378.7188 C937.75,1378.5938 937.7188,1378.4688 937.6563,1378.0625 C937.5625,1377.6563 937.3906,1377.4375 936.9063,1377.1563 C936.4375,1376.9063 935.8281,1376.75 935.25,1376.75 C933.5156,1376.75 932.2656,1378.0625 932.2656,1379.8438 L932.2656,1380.9375 C932.2656,1382.6406 933.5625,1383.7344 935.6094,1383.7344 C936.375,1383.7344 937.0625,1383.6094 937.4844,1383.3438 C937.6719,1383.25 937.6719,1383.25 938.125,1382.7656 C938.3125,1382.5781 938.5156,1382.5 938.7344,1382.5 C939.2031,1382.5 939.5938,1382.8906 939.5938,1383.3438 C939.5938,1383.7344 939.2656,1384.1875 938.6875,1384.5938 C937.9375,1385.1406 936.7813,1385.4375 935.5625,1385.4375 C932.6719,1385.4375 930.5625,1383.5469 930.5625,1380.9688 L930.5625,1379.8438 C930.5625,1377.125 932.5625,1375.0469 935.1875,1375.0469 C936.0625,1375.0469 936.6563,1375.1875 937.5938,1375.625 Z "/><text fill="#000000" font-family="sans-serif" font-size="12" lengthAdjust="spacingAndGlyphs" textLength="61" x="955.75" y="1384.1074">Ethereum</text><line style="stroke: #A80036; stroke-width: 1.5;" x1="872.5" x2="1067.5" y1="1395.9531" y2="1395.9531"/><line style="stroke: #A80036; stroke-width: 1.5;" x1="872.5" x2="1067.5" y1="1403.9531" y2="1403.9531"/><text fill="#000000" font-family="sans-serif" font-size="11" lengthAdjust="spacingAndGlyphs" textLength="185" x="877.5" y="1418.1636">BigInteger getEthBlockNumber();</text><!--MD5=[108749fa12a1baf8beb812f2eb0b4ce9]
class MetadataStorage--><rect fill="#FEFECE" filter="url(#fb7qdsnlgthm3)" height="60.8047" id="MetadataStorage" style="stroke: #A80036; stroke-width: 1.5;" width="142" x="2092" y="1920.4531"/><ellipse cx="2107" cy="1936.4531" fill="#B4A7E5" rx="11" ry="11" style="stroke: #A80036; stroke-width: 1.0;"/><path d="M2107.9531,1933.2344 L2107.9531,1939.75 L2109.6719,1939.75 C2110.125,1939.75 2110.2656,1939.7813 2110.4375,1939.9063 C2110.6719,1940.0781 2110.7813,1940.3281 2110.7813,1940.6094 C2110.7813,1941.1719 2110.4219,1941.4531 2109.6719,1941.4531 L2104.5313,1941.4531 C2104.125,1941.4531 2103.9219,1941.4063 2103.7656,1941.2813 C2103.5469,1941.125 2103.4063,1940.8594 2103.4063,1940.6094 C2103.4063,1940.3125 2103.5625,1940.0313 2103.8125,1939.875 C2103.9688,1939.7656 2104.0938,1939.75 2104.5313,1939.75 L2106.25,1939.75 L2106.25,1933.2344 L2104.5313,1933.2344 C2104.1094,1933.2344 2103.9219,1933.2031 2103.7656,1933.0938 C2103.5469,1932.9219 2103.4063,1932.6719 2103.4063,1932.3906 C2103.4063,1932.1094 2103.5625,1931.8125 2103.8125,1931.6563 C2103.9688,1931.5625 2104.0938,1931.5469 2104.5313,1931.5469 L2109.6719,1931.5469 C2110.125,1931.5469 2110.2656,1931.5781 2110.4375,1931.6875 C2110.6719,1931.8594 2110.7813,1932.125 2110.7813,1932.3906 C2110.7813,1932.6875 2110.6406,1932.9688 2110.375,1933.125 C2110.25,1933.2031 2110.0625,1933.2344 2109.6719,1933.2344 Z "/><text fill="#000000" font-family="sans-serif" font-size="12" font-style="italic" lengthAdjust="spacingAndGlyphs" textLength="110" x="2121" y="1940.6074">MetadataStorage</text><line style="stroke: #A80036; stroke-width: 1.5;" x1="2093" x2="2233" y1="1952.4531" y2="1952.4531"/><line style="stroke: #A80036; stroke-width: 1.5;" x1="2093" x2="2233" y1="1960.4531" y2="1960.4531"/><text fill="#000000" font-family="sans-serif" font-size="11" lengthAdjust="spacingAndGlyphs" textLength="103" x="2098" y="1974.6636">byte[] get(URI uri);</text><!--MD5=[0b8b14870791f9141f0f6a23b1b388b1]
class IpfsMetadataStorage--><rect fill="#FEFECE" filter="url(#fb7qdsnlgthm3)" height="48" id="IpfsMetadataStorage" style="stroke: #A80036; stroke-width: 1.5;" width="164" x="2092" y="2047.9531"/><ellipse cx="2107" cy="2063.9531" fill="#ADD1B2" rx="11" ry="11" style="stroke: #A80036; stroke-width: 1.0;"/><path d="M2109.3438,2059.625 L2109.5156,2059.7031 C2109.7344,2059.3906 2109.9375,2059.2969 2110.2344,2059.2969 C2110.5313,2059.2969 2110.8125,2059.4375 2110.9688,2059.7031 C2111.0625,2059.8594 2111.0781,2059.9844 2111.0781,2060.4219 L2111.0781,2061.8438 C2111.0781,2062.2656 2111.0469,2062.4531 2110.9375,2062.6094 C2110.7656,2062.8281 2110.5,2062.9688 2110.2344,2062.9688 C2110.0156,2062.9688 2109.7813,2062.8594 2109.6406,2062.7188 C2109.5,2062.5938 2109.4688,2062.4688 2109.4063,2062.0625 C2109.3125,2061.6563 2109.1406,2061.4375 2108.6563,2061.1563 C2108.1875,2060.9063 2107.5781,2060.75 2107,2060.75 C2105.2656,2060.75 2104.0156,2062.0625 2104.0156,2063.8438 L2104.0156,2064.9375 C2104.0156,2066.6406 2105.3125,2067.7344 2107.3594,2067.7344 C2108.125,2067.7344 2108.8125,2067.6094 2109.2344,2067.3438 C2109.4219,2067.25 2109.4219,2067.25 2109.875,2066.7656 C2110.0625,2066.5781 2110.2656,2066.5 2110.4844,2066.5 C2110.9531,2066.5 2111.3438,2066.8906 2111.3438,2067.3438 C2111.3438,2067.7344 2111.0156,2068.1875 2110.4375,2068.5938 C2109.6875,2069.1406 2108.5313,2069.4375 2107.3125,2069.4375 C2104.4219,2069.4375 2102.3125,2067.5469 2102.3125,2064.9688 L2102.3125,2063.8438 C2102.3125,2061.125 2104.3125,2059.0469 2106.9375,2059.0469 C2107.8125,2059.0469 2108.4063,2059.1875 2109.3438,2059.625 Z "/><text fill="#000000" font-family="sans-serif" font-size="12" lengthAdjust="spacingAndGlyphs" textLength="132" x="2121" y="2068.1074">IpfsMetadataStorage</text><line style="stroke: #A80036; stroke-width: 1.5;" x1="2093" x2="2255" y1="2079.9531" y2="2079.9531"/><line style="stroke: #A80036; stroke-width: 1.5;" x1="2093" x2="2255" y1="2087.9531" y2="2087.9531"/><!--MD5=[c96f5c1a2d64b984efda073a5aae009b]
class RegistryContract--><rect fill="#FEFECE" filter="url(#fb7qdsnlgthm3)" height="73.6094" id="RegistryContract" style="stroke: #A80036; stroke-width: 1.5;" width="519" x="2269.5" y="1913.9531"/><ellipse cx="2472.75" cy="1929.9531" fill="#ADD1B2" rx="11" ry="11" style="stroke: #A80036; stroke-width: 1.0;"/><path d="M2475.0938,1925.625 L2475.2656,1925.7031 C2475.4844,1925.3906 2475.6875,1925.2969 2475.9844,1925.2969 C2476.2813,1925.2969 2476.5625,1925.4375 2476.7188,1925.7031 C2476.8125,1925.8594 2476.8281,1925.9844 2476.8281,1926.4219 L2476.8281,1927.8438 C2476.8281,1928.2656 2476.7969,1928.4531 2476.6875,1928.6094 C2476.5156,1928.8281 2476.25,1928.9688 2475.9844,1928.9688 C2475.7656,1928.9688 2475.5313,1928.8594 2475.3906,1928.7188 C2475.25,1928.5938 2475.2188,1928.4688 2475.1563,1928.0625 C2475.0625,1927.6563 2474.8906,1927.4375 2474.4063,1927.1563 C2473.9375,1926.9063 2473.3281,1926.75 2472.75,1926.75 C2471.0156,1926.75 2469.7656,1928.0625 2469.7656,1929.8438 L2469.7656,1930.9375 C2469.7656,1932.6406 2471.0625,1933.7344 2473.1094,1933.7344 C2473.875,1933.7344 2474.5625,1933.6094 2474.9844,1933.3438 C2475.1719,1933.25 2475.1719,1933.25 2475.625,1932.7656 C2475.8125,1932.5781 2476.0156,1932.5 2476.2344,1932.5 C2476.7031,1932.5 2477.0938,1932.8906 2477.0938,1933.3438 C2477.0938,1933.7344 2476.7656,1934.1875 2476.1875,1934.5938 C2475.4375,1935.1406 2474.2813,1935.4375 2473.0625,1935.4375 C2470.1719,1935.4375 2468.0625,1933.5469 2468.0625,1930.9688 L2468.0625,1929.8438 C2468.0625,1927.125 2470.0625,1925.0469 2472.6875,1925.0469 C2473.5625,1925.0469 2474.1563,1925.1875 2475.0938,1925.625 Z "/><text fill="#000000" font-family="sans-serif" font-size="12" lengthAdjust="spacingAndGlyphs" textLength="104" x="2493.25" y="1934.1074">RegistryContract</text><line style="stroke: #A80036; stroke-width: 1.5;" x1="2270.5" x2="2787.5" y1="1945.9531" y2="1945.9531"/><line style="stroke: #A80036; stroke-width: 1.5;" x1="2270.5" x2="2787.5" y1="1953.9531" y2="1953.9531"/><text fill="#000000" font-family="sans-serif" font-size="11" lengthAdjust="spacingAndGlyphs" textLength="400" x="2275.5" y="1968.1636">Optional&lt;OrganizationRegistration&gt; getOrganizationById(String orgId);</text><text fill="#000000" font-family="sans-serif" font-size="11" lengthAdjust="spacingAndGlyphs" textLength="507" x="2275.5" y="1980.9683">Optional&lt;ServiceRegistration&gt; getServiceRegistrationById(String orgId, String serviceId);</text><!--MD5=[7de846d6b480f97ff8e018abb55faf3d]
class MetadataProvider--><rect fill="#FEFECE" filter="url(#fb7qdsnlgthm3)" height="73.6094" id="MetadataProvider" style="stroke: #A80036; stroke-width: 1.5;" width="292" x="2167" y="1671.9531"/><ellipse cx="2253.75" cy="1687.9531" fill="#B4A7E5" rx="11" ry="11" style="stroke: #A80036; stroke-width: 1.0;"/><path d="M2254.7031,1684.7344 L2254.7031,1691.25 L2256.4219,1691.25 C2256.875,1691.25 2257.0156,1691.2813 2257.1875,1691.4063 C2257.4219,1691.5781 2257.5313,1691.8281 2257.5313,1692.1094 C2257.5313,1692.6719 2257.1719,1692.9531 2256.4219,1692.9531 L2251.2813,1692.9531 C2250.875,1692.9531 2250.6719,1692.9063 2250.5156,1692.7813 C2250.2969,1692.625 2250.1563,1692.3594 2250.1563,1692.1094 C2250.1563,1691.8125 2250.3125,1691.5313 2250.5625,1691.375 C2250.7188,1691.2656 2250.8438,1691.25 2251.2813,1691.25 L2253,1691.25 L2253,1684.7344 L2251.2813,1684.7344 C2250.8594,1684.7344 2250.6719,1684.7031 2250.5156,1684.5938 C2250.2969,1684.4219 2250.1563,1684.1719 2250.1563,1683.8906 C2250.1563,1683.6094 2250.3125,1683.3125 2250.5625,1683.1563 C2250.7188,1683.0625 2250.8438,1683.0469 2251.2813,1683.0469 L2256.4219,1683.0469 C2256.875,1683.0469 2257.0156,1683.0781 2257.1875,1683.1875 C2257.4219,1683.3594 2257.5313,1683.625 2257.5313,1683.8906 C2257.5313,1684.1875 2257.3906,1684.4688 2257.125,1684.625 C2257,1684.7031 2256.8125,1684.7344 2256.4219,1684.7344 Z "/><text fill="#000000" font-family="sans-serif" font-size="12" font-style="italic" lengthAdjust="spacingAndGlyphs" textLength="110" x="2274.25" y="1692.1074">MetadataProvider</text><line style="stroke: #A80036; stroke-width: 1.5;" x1="2168" x2="2458" y1="1703.9531" y2="1703.9531"/><line style="stroke: #A80036; stroke-width: 1.5;" x1="2168" x2="2458" y1="1711.9531" y2="1711.9531"/><text fill="#000000" font-family="sans-serif" font-size="11" lengthAdjust="spacingAndGlyphs" textLength="222" x="2173" y="1726.1636">ServiceMetadata getServiceMetadata();</text><text fill="#000000" font-family="sans-serif" font-size="11" lengthAdjust="spacingAndGlyphs" textLength="280" x="2173" y="1738.9683">OrganizationMetadata getOrganizationMetadata();</text><!--MD5=[7d6c47076f660fce1d354ac67d286524]
class RegistryMetadataProvider--><rect fill="#FEFECE" filter="url(#fb7qdsnlgthm3)" height="48" id="RegistryMetadataProvider" style="stroke: #A80036; stroke-width: 1.5;" width="193" x="2216.5" y="1805.9531"/><ellipse cx="2231.5" cy="1821.9531" fill="#ADD1B2" rx="11" ry="11" style="stroke: #A80036; stroke-width: 1.0;"/><path d="M2233.8438,1817.625 L2234.0156,1817.7031 C2234.2344,1817.3906 2234.4375,1817.2969 2234.7344,1817.2969 C2235.0313,1817.2969 2235.3125,1817.4375 2235.4688,1817.7031 C2235.5625,1817.8594 2235.5781,1817.9844 2235.5781,1818.4219 L2235.5781,1819.8438 C2235.5781,1820.2656 2235.5469,1820.4531 2235.4375,1820.6094 C2235.2656,1820.8281 2235,1820.9688 2234.7344,1820.9688 C2234.5156,1820.9688 2234.2813,1820.8594 2234.1406,1820.7188 C2234,1820.5938 2233.9688,1820.4688 2233.9063,1820.0625 C2233.8125,1819.6563 2233.6406,1819.4375 2233.1563,1819.1563 C2232.6875,1818.9063 2232.0781,1818.75 2231.5,1818.75 C2229.7656,1818.75 2228.5156,1820.0625 2228.5156,1821.8438 L2228.5156,1822.9375 C2228.5156,1824.6406 2229.8125,1825.7344 2231.8594,1825.7344 C2232.625,1825.7344 2233.3125,1825.6094 2233.7344,1825.3438 C2233.9219,1825.25 2233.9219,1825.25 2234.375,1824.7656 C2234.5625,1824.5781 2234.7656,1824.5 2234.9844,1824.5 C2235.4531,1824.5 2235.8438,1824.8906 2235.8438,1825.3438 C2235.8438,1825.7344 2235.5156,1826.1875 2234.9375,1826.5938 C2234.1875,1827.1406 2233.0313,1827.4375 2231.8125,1827.4375 C2228.9219,1827.4375 2226.8125,1825.5469 2226.8125,1822.9688 L2226.8125,1821.8438 C2226.8125,1819.125 2228.8125,1817.0469 2231.4375,1817.0469 C2232.3125,1817.0469 2232.9063,1817.1875 2233.8438,1817.625 Z "/><text fill="#000000" font-family="sans-serif" font-size="12" lengthAdjust="spacingAndGlyphs" textLength="161" x="2245.5" y="1826.1074">RegistryMetadataProvider</text><line style="stroke: #A80036; stroke-width: 1.5;" x1="2217.5" x2="2408.5" y1="1837.9531" y2="1837.9531"/><line style="stroke: #A80036; stroke-width: 1.5;" x1="2217.5" x2="2408.5" y1="1845.9531" y2="1845.9531"/><!--MD5=[06bc73c308419be41e333edfccb18056]
class DaemonConnection--><rect fill="#FEFECE" filter="url(#fb7qdsnlgthm3)" height="99.2188" id="DaemonConnection" style="stroke: #A80036; stroke-width: 1.5;" width="351" x="1853.5" y="1344.9531"/><ellipse cx="1963.25" cy="1360.9531" fill="#B4A7E5" rx="11" ry="11" style="stroke: #A80036; stroke-width: 1.0;"/><path d="M1964.2031,1357.7344 L1964.2031,1364.25 L1965.9219,1364.25 C1966.375,1364.25 1966.5156,1364.2813 1966.6875,1364.4063 C1966.9219,1364.5781 1967.0313,1364.8281 1967.0313,1365.1094 C1967.0313,1365.6719 1966.6719,1365.9531 1965.9219,1365.9531 L1960.7813,1365.9531 C1960.375,1365.9531 1960.1719,1365.9063 1960.0156,1365.7813 C1959.7969,1365.625 1959.6563,1365.3594 1959.6563,1365.1094 C1959.6563,1364.8125 1959.8125,1364.5313 1960.0625,1364.375 C1960.2188,1364.2656 1960.3438,1364.25 1960.7813,1364.25 L1962.5,1364.25 L1962.5,1357.7344 L1960.7813,1357.7344 C1960.3594,1357.7344 1960.1719,1357.7031 1960.0156,1357.5938 C1959.7969,1357.4219 1959.6563,1357.1719 1959.6563,1356.8906 C1959.6563,1356.6094 1959.8125,1356.3125 1960.0625,1356.1563 C1960.2188,1356.0625 1960.3438,1356.0469 1960.7813,1356.0469 L1965.9219,1356.0469 C1966.375,1356.0469 1966.5156,1356.0781 1966.6875,1356.1875 C1966.9219,1356.3594 1967.0313,1356.625 1967.0313,1356.8906 C1967.0313,1357.1875 1966.8906,1357.4688 1966.625,1357.625 C1966.5,1357.7031 1966.3125,1357.7344 1965.9219,1357.7344 Z "/><text fill="#000000" font-family="sans-serif" font-size="12" font-style="italic" lengthAdjust="spacingAndGlyphs" textLength="123" x="1983.75" y="1365.1074">DaemonConnection</text><line style="stroke: #A80036; stroke-width: 1.5;" x1="1854.5" x2="2203.5" y1="1376.9531" y2="1376.9531"/><line style="stroke: #A80036; stroke-width: 1.5;" x1="1854.5" x2="2203.5" y1="1384.9531" y2="1384.9531"/><text fill="#000000" font-family="sans-serif" font-size="11" lengthAdjust="spacingAndGlyphs" textLength="318" x="1859.5" y="1399.1636">&lt;T&gt; T getGrpcStub(Function&lt;Channel, T&gt; constructor);</text><text fill="#000000" font-family="sans-serif" font-size="11" lengthAdjust="spacingAndGlyphs" textLength="339" x="1859.5" y="1411.9683">void setClientCallsInterceptor(ClientInterceptor interceptor);</text><text fill="#000000" font-family="sans-serif" font-size="11" lengthAdjust="spacingAndGlyphs" textLength="185" x="1859.5" y="1424.7729">String getEndpointGroupName();</text><text fill="#000000" font-family="sans-serif" font-size="11" lengthAdjust="spacingAndGlyphs" textLength="118" x="1859.5" y="1437.5776">void shutdownNow();</text><!--MD5=[9ec37cfa5c7f981b10567b17b624fe61]
class RandomEndpointDaemonConnection--><rect fill="#FEFECE" filter="url(#fb7qdsnlgthm3)" height="48" id="RandomEndpointDaemonConnection" style="stroke: #A80036; stroke-width: 1.5;" width="262" x="1920" y="1548.9531"/><ellipse cx="1935" cy="1564.9531" fill="#ADD1B2" rx="11" ry="11" style="stroke: #A80036; stroke-width: 1.0;"/><path d="M1937.3438,1560.625 L1937.5156,1560.7031 C1937.7344,1560.3906 1937.9375,1560.2969 1938.2344,1560.2969 C1938.5313,1560.2969 1938.8125,1560.4375 1938.9688,1560.7031 C1939.0625,1560.8594 1939.0781,1560.9844 1939.0781,1561.4219 L1939.0781,1562.8438 C1939.0781,1563.2656 1939.0469,1563.4531 1938.9375,1563.6094 C1938.7656,1563.8281 1938.5,1563.9688 1938.2344,1563.9688 C1938.0156,1563.9688 1937.7813,1563.8594 1937.6406,1563.7188 C1937.5,1563.5938 1937.4688,1563.4688 1937.4063,1563.0625 C1937.3125,1562.6563 1937.1406,1562.4375 1936.6563,1562.1563 C1936.1875,1561.9063 1935.5781,1561.75 1935,1561.75 C1933.2656,1561.75 1932.0156,1563.0625 1932.0156,1564.8438 L1932.0156,1565.9375 C1932.0156,1567.6406 1933.3125,1568.7344 1935.3594,1568.7344 C1936.125,1568.7344 1936.8125,1568.6094 1937.2344,1568.3438 C1937.4219,1568.25 1937.4219,1568.25 1937.875,1567.7656 C1938.0625,1567.5781 1938.2656,1567.5 1938.4844,1567.5 C1938.9531,1567.5 1939.3438,1567.8906 1939.3438,1568.3438 C1939.3438,1568.7344 1939.0156,1569.1875 1938.4375,1569.5938 C1937.6875,1570.1406 1936.5313,1570.4375 1935.3125,1570.4375 C1932.4219,1570.4375 1930.3125,1568.5469 1930.3125,1565.9688 L1930.3125,1564.8438 C1930.3125,1562.125 1932.3125,1560.0469 1934.9375,1560.0469 C1935.8125,1560.0469 1936.4063,1560.1875 1937.3438,1560.625 Z "/><text fill="#000000" font-family="sans-serif" font-size="12" lengthAdjust="spacingAndGlyphs" textLength="230" x="1949" y="1569.1074">RandomEndpointDaemonConnection</text><line style="stroke: #A80036; stroke-width: 1.5;" x1="1921" x2="2181" y1="1580.9531" y2="1580.9531"/><line style="stroke: #A80036; stroke-width: 1.5;" x1="1921" x2="2181" y1="1588.9531" y2="1588.9531"/><!--MD5=[49163365a2d8a8492303b83ddbd98154]
class PaymentChannelStateService--><rect fill="#FEFECE" filter="url(#fb7qdsnlgthm3)" height="60.8047" id="PaymentChannelStateService" style="stroke: #A80036; stroke-width: 1.5;" width="393" x="1602.5" y="1185.4531"/><ellipse cx="1702.75" cy="1201.4531" fill="#ADD1B2" rx="11" ry="11" style="stroke: #A80036; stroke-width: 1.0;"/><path d="M1705.0938,1197.125 L1705.2656,1197.2031 C1705.4844,1196.8906 1705.6875,1196.7969 1705.9844,1196.7969 C1706.2813,1196.7969 1706.5625,1196.9375 1706.7188,1197.2031 C1706.8125,1197.3594 1706.8281,1197.4844 1706.8281,1197.9219 L1706.8281,1199.3438 C1706.8281,1199.7656 1706.7969,1199.9531 1706.6875,1200.1094 C1706.5156,1200.3281 1706.25,1200.4688 1705.9844,1200.4688 C1705.7656,1200.4688 1705.5313,1200.3594 1705.3906,1200.2188 C1705.25,1200.0938 1705.2188,1199.9688 1705.1563,1199.5625 C1705.0625,1199.1563 1704.8906,1198.9375 1704.4063,1198.6563 C1703.9375,1198.4063 1703.3281,1198.25 1702.75,1198.25 C1701.0156,1198.25 1699.7656,1199.5625 1699.7656,1201.3438 L1699.7656,1202.4375 C1699.7656,1204.1406 1701.0625,1205.2344 1703.1094,1205.2344 C1703.875,1205.2344 1704.5625,1205.1094 1704.9844,1204.8438 C1705.1719,1204.75 1705.1719,1204.75 1705.625,1204.2656 C1705.8125,1204.0781 1706.0156,1204 1706.2344,1204 C1706.7031,1204 1707.0938,1204.3906 1707.0938,1204.8438 C1707.0938,1205.2344 1706.7656,1205.6875 1706.1875,1206.0938 C1705.4375,1206.6406 1704.2813,1206.9375 1703.0625,1206.9375 C1700.1719,1206.9375 1698.0625,1205.0469 1698.0625,1202.4688 L1698.0625,1201.3438 C1698.0625,1198.625 1700.0625,1196.5469 1702.6875,1196.5469 C1703.5625,1196.5469 1704.1563,1196.6875 1705.0938,1197.125 Z "/><text fill="#000000" font-family="sans-serif" font-size="12" lengthAdjust="spacingAndGlyphs" textLength="184" x="1723.25" y="1205.6074">PaymentChannelStateService</text><line style="stroke: #A80036; stroke-width: 1.5;" x1="1603.5" x2="1994.5" y1="1217.4531" y2="1217.4531"/><line style="stroke: #A80036; stroke-width: 1.5;" x1="1603.5" x2="1994.5" y1="1225.4531" y2="1225.4531"/><text fill="#000000" font-family="sans-serif" font-size="11" lengthAdjust="spacingAndGlyphs" textLength="381" x="1608.5" y="1239.6636">PaymentChannelStateReply getChannelState(BigInteger channelId);</text><!--MD5=[21705c80423a45734a535470c58d7091]
class MultiPartyEscrowContract--><rect fill="#FEFECE" filter="url(#fb7qdsnlgthm3)" height="176.0469" id="MultiPartyEscrowContract" style="stroke: #A80036; stroke-width: 1.5;" width="468" x="1350" y="1306.4531"/><ellipse cx="1500.25" cy="1322.4531" fill="#ADD1B2" rx="11" ry="11" style="stroke: #A80036; stroke-width: 1.0;"/><path d="M1502.5938,1318.125 L1502.7656,1318.2031 C1502.9844,1317.8906 1503.1875,1317.7969 1503.4844,1317.7969 C1503.7813,1317.7969 1504.0625,1317.9375 1504.2188,1318.2031 C1504.3125,1318.3594 1504.3281,1318.4844 1504.3281,1318.9219 L1504.3281,1320.3438 C1504.3281,1320.7656 1504.2969,1320.9531 1504.1875,1321.1094 C1504.0156,1321.3281 1503.75,1321.4688 1503.4844,1321.4688 C1503.2656,1321.4688 1503.0313,1321.3594 1502.8906,1321.2188 C1502.75,1321.0938 1502.7188,1320.9688 1502.6563,1320.5625 C1502.5625,1320.1563 1502.3906,1319.9375 1501.9063,1319.6563 C1501.4375,1319.4063 1500.8281,1319.25 1500.25,1319.25 C1498.5156,1319.25 1497.2656,1320.5625 1497.2656,1322.3438 L1497.2656,1323.4375 C1497.2656,1325.1406 1498.5625,1326.2344 1500.6094,1326.2344 C1501.375,1326.2344 1502.0625,1326.1094 1502.4844,1325.8438 C1502.6719,1325.75 1502.6719,1325.75 1503.125,1325.2656 C1503.3125,1325.0781 1503.5156,1325 1503.7344,1325 C1504.2031,1325 1504.5938,1325.3906 1504.5938,1325.8438 C1504.5938,1326.2344 1504.2656,1326.6875 1503.6875,1327.0938 C1502.9375,1327.6406 1501.7813,1327.9375 1500.5625,1327.9375 C1497.6719,1327.9375 1495.5625,1326.0469 1495.5625,1323.4688 L1495.5625,1322.3438 C1495.5625,1319.625 1497.5625,1317.5469 1500.1875,1317.5469 C1501.0625,1317.5469 1501.6563,1317.6875 1502.5938,1318.125 Z "/><text fill="#000000" font-family="sans-serif" font-size="12" lengthAdjust="spacingAndGlyphs" textLength="159" x="1520.75" y="1326.6074">MultiPartyEscrowContract</text><line style="stroke: #A80036; stroke-width: 1.5;" x1="1351" x2="1817" y1="1338.4531" y2="1338.4531"/><line style="stroke: #A80036; stroke-width: 1.5;" x1="1351" x2="1817" y1="1346.4531" y2="1346.4531"/><text fill="#000000" font-family="sans-serif" font-size="11" lengthAdjust="spacingAndGlyphs" textLength="380" x="1356" y="1360.6636">Optional&lt;PaymentChannel&gt; getChannelById(BigInteger channelId);</text><text fill="#000000" font-family="sans-serif" font-size="11" lengthAdjust="spacingAndGlyphs" textLength="176" x="1356" y="1373.4683">Address getContractAddress();</text><text fill="#000000" font-family="sans-serif" font-size="11" lengthAdjust="spacingAndGlyphs" textLength="376" x="1356" y="1386.2729">PaymentChannel openChannel(Address signer, Address recipient,</text><text fill="#000000" font-family="sans-serif" font-size="11" lengthAdjust="spacingAndGlyphs" textLength="375" x="1388" y="1399.0776">PaymentGroupId groupId, BigInteger value, BigInteger expiration);</text><text fill="#000000" font-family="sans-serif" font-size="11" lengthAdjust="spacingAndGlyphs" textLength="282" x="1356" y="1411.8823">void transfer(Address receiver, BigInteger value);</text><text fill="#000000" font-family="sans-serif" font-size="11" lengthAdjust="spacingAndGlyphs" textLength="303" x="1356" y="1424.687">Stream&lt;PaymentChannel&gt; getChannelOpenEvents();</text><text fill="#000000" font-family="sans-serif" font-size="11" lengthAdjust="spacingAndGlyphs" textLength="402" x="1356" y="1437.4917">BigInteger channelAddFunds(BigInteger channelId, BigInteger amount);</text><text fill="#000000" font-family="sans-serif" font-size="11" lengthAdjust="spacingAndGlyphs" textLength="398" x="1356" y="1450.2964">BigInteger channelExtend(BigInteger channelId, BigInteger expiration);</text><text fill="#000000" font-family="sans-serif" font-size="11" lengthAdjust="spacingAndGlyphs" textLength="456" x="1356" y="1463.1011">ExtendAndAddFundsResponse channelExtendAndAddFunds(BigInteger channelId,</text><text fill="#000000" font-family="sans-serif" font-size="11" lengthAdjust="spacingAndGlyphs" textLength="239" x="1388" y="1475.9058">BigInteger expiration, BigInteger amount);</text><!--MD5=[764fca796ce7f635542948d8fc39db5e]
class Payment--><rect fill="#FEFECE" filter="url(#fb7qdsnlgthm3)" height="60.8047" id="Payment" style="stroke: #A80036; stroke-width: 1.5;" width="217" x="1350.5" y="1185.4531"/><ellipse cx="1427.75" cy="1201.4531" fill="#B4A7E5" rx="11" ry="11" style="stroke: #A80036; stroke-width: 1.0;"/><path d="M1428.7031,1198.2344 L1428.7031,1204.75 L1430.4219,1204.75 C1430.875,1204.75 1431.0156,1204.7813 1431.1875,1204.9063 C1431.4219,1205.0781 1431.5313,1205.3281 1431.5313,1205.6094 C1431.5313,1206.1719 1431.1719,1206.4531 1430.4219,1206.4531 L1425.2813,1206.4531 C1424.875,1206.4531 1424.6719,1206.4063 1424.5156,1206.2813 C1424.2969,1206.125 1424.1563,1205.8594 1424.1563,1205.6094 C1424.1563,1205.3125 1424.3125,1205.0313 1424.5625,1204.875 C1424.7188,1204.7656 1424.8438,1204.75 1425.2813,1204.75 L1427,1204.75 L1427,1198.2344 L1425.2813,1198.2344 C1424.8594,1198.2344 1424.6719,1198.2031 1424.5156,1198.0938 C1424.2969,1197.9219 1424.1563,1197.6719 1424.1563,1197.3906 C1424.1563,1197.1094 1424.3125,1196.8125 1424.5625,1196.6563 C1424.7188,1196.5625 1424.8438,1196.5469 1425.2813,1196.5469 L1430.4219,1196.5469 C1430.875,1196.5469 1431.0156,1196.5781 1431.1875,1196.6875 C1431.4219,1196.8594 1431.5313,1197.125 1431.5313,1197.3906 C1431.5313,1197.6875 1431.3906,1197.9688 1431.125,1198.125 C1431,1198.2031 1430.8125,1198.2344 1430.4219,1198.2344 Z "/><text fill="#000000" font-family="sans-serif" font-size="12" font-style="italic" lengthAdjust="spacingAndGlyphs" textLength="54" x="1448.25" y="1205.6074">Payment</text><line style="stroke: #A80036; stroke-width: 1.5;" x1="1351.5" x2="1566.5" y1="1217.4531" y2="1217.4531"/><line style="stroke: #A80036; stroke-width: 1.5;" x1="1351.5" x2="1566.5" y1="1225.4531" y2="1225.4531"/><text fill="#000000" font-family="sans-serif" font-size="11" lengthAdjust="spacingAndGlyphs" textLength="205" x="1356.5" y="1239.6636">void toMetadata(Metadata headers);</text><!--MD5=[9a7ddd9d661dd90da44c2de0b629398d]
class PaymentChannelStateProvider--><rect fill="#FEFECE" filter="url(#fb7qdsnlgthm3)" height="60.8047" id="PaymentChannelStateProvider" style="stroke: #A80036; stroke-width: 1.5;" width="357" x="1861.5" y="902.9531"/><ellipse cx="1941.25" cy="918.9531" fill="#B4A7E5" rx="11" ry="11" style="stroke: #A80036; stroke-width: 1.0;"/><path d="M1942.2031,915.7344 L1942.2031,922.25 L1943.9219,922.25 C1944.375,922.25 1944.5156,922.2813 1944.6875,922.4063 C1944.9219,922.5781 1945.0313,922.8281 1945.0313,923.1094 C1945.0313,923.6719 1944.6719,923.9531 1943.9219,923.9531 L1938.7813,923.9531 C1938.375,923.9531 1938.1719,923.9063 1938.0156,923.7813 C1937.7969,923.625 1937.6563,923.3594 1937.6563,923.1094 C1937.6563,922.8125 1937.8125,922.5313 1938.0625,922.375 C1938.2188,922.2656 1938.3438,922.25 1938.7813,922.25 L1940.5,922.25 L1940.5,915.7344 L1938.7813,915.7344 C1938.3594,915.7344 1938.1719,915.7031 1938.0156,915.5938 C1937.7969,915.4219 1937.6563,915.1719 1937.6563,914.8906 C1937.6563,914.6094 1937.8125,914.3125 1938.0625,914.1563 C1938.2188,914.0625 1938.3438,914.0469 1938.7813,914.0469 L1943.9219,914.0469 C1944.375,914.0469 1944.5156,914.0781 1944.6875,914.1875 C1944.9219,914.3594 1945.0313,914.625 1945.0313,914.8906 C1945.0313,915.1875 1944.8906,915.4688 1944.625,915.625 C1944.5,915.7031 1944.3125,915.7344 1943.9219,915.7344 Z "/><text fill="#000000" font-family="sans-serif" font-size="12" font-style="italic" lengthAdjust="spacingAndGlyphs" textLength="189" x="1961.75" y="923.1074">PaymentChannelStateProvider</text><line style="stroke: #A80036; stroke-width: 1.5;" x1="1862.5" x2="2217.5" y1="934.9531" y2="934.9531"/><line style="stroke: #A80036; stroke-width: 1.5;" x1="1862.5" x2="2217.5" y1="942.9531" y2="942.9531"/><text fill="#000000" font-family="sans-serif" font-size="11" lengthAdjust="spacingAndGlyphs" textLength="345" x="1867.5" y="957.1636">PaymentChannel getChannelStateById(BigInteger channelId);</text><!--MD5=[07b5ccda0566067c4cd653ad8d5fc568]
class AskDaemonFirstPaymentChannelProvider--><rect fill="#FEFECE" filter="url(#fb7qdsnlgthm3)" height="48" id="AskDaemonFirstPaymentChannelProvider" style="stroke: #A80036; stroke-width: 1.5;" width="289" x="1895.5" y="1062.4531"/><ellipse cx="1910.5" cy="1078.4531" fill="#ADD1B2" rx="11" ry="11" style="stroke: #A80036; stroke-width: 1.0;"/><path d="M1912.8438,1074.125 L1913.0156,1074.2031 C1913.2344,1073.8906 1913.4375,1073.7969 1913.7344,1073.7969 C1914.0313,1073.7969 1914.3125,1073.9375 1914.4688,1074.2031 C1914.5625,1074.3594 1914.5781,1074.4844 1914.5781,1074.9219 L1914.5781,1076.3438 C1914.5781,1076.7656 1914.5469,1076.9531 1914.4375,1077.1094 C1914.2656,1077.3281 1914,1077.4688 1913.7344,1077.4688 C1913.5156,1077.4688 1913.2813,1077.3594 1913.1406,1077.2188 C1913,1077.0938 1912.9688,1076.9688 1912.9063,1076.5625 C1912.8125,1076.1563 1912.6406,1075.9375 1912.1563,1075.6563 C1911.6875,1075.4063 1911.0781,1075.25 1910.5,1075.25 C1908.7656,1075.25 1907.5156,1076.5625 1907.5156,1078.3438 L1907.5156,1079.4375 C1907.5156,1081.1406 1908.8125,1082.2344 1910.8594,1082.2344 C1911.625,1082.2344 1912.3125,1082.1094 1912.7344,1081.8438 C1912.9219,1081.75 1912.9219,1081.75 1913.375,1081.2656 C1913.5625,1081.0781 1913.7656,1081 1913.9844,1081 C1914.4531,1081 1914.8438,1081.3906 1914.8438,1081.8438 C1914.8438,1082.2344 1914.5156,1082.6875 1913.9375,1083.0938 C1913.1875,1083.6406 1912.0313,1083.9375 1910.8125,1083.9375 C1907.9219,1083.9375 1905.8125,1082.0469 1905.8125,1079.4688 L1905.8125,1078.3438 C1905.8125,1075.625 1907.8125,1073.5469 1910.4375,1073.5469 C1911.3125,1073.5469 1911.9063,1073.6875 1912.8438,1074.125 Z "/><text fill="#000000" font-family="sans-serif" font-size="12" lengthAdjust="spacingAndGlyphs" textLength="257" x="1924.5" y="1082.6074">AskDaemonFirstPaymentChannelProvider</text><line style="stroke: #A80036; stroke-width: 1.5;" x1="1896.5" x2="2183.5" y1="1094.4531" y2="1094.4531"/><line style="stroke: #A80036; stroke-width: 1.5;" x1="1896.5" x2="2183.5" y1="1102.4531" y2="1102.4531"/><!--MD5=[5c8ce949bc8c9f89b0b30c1e80feca4d]
class EscrowPayment--><rect fill="#FEFECE" filter="url(#fb7qdsnlgthm3)" height="48" id="EscrowPayment" style="stroke: #A80036; stroke-width: 1.5;" width="130" x="2299" y="909.4531"/><ellipse cx="2314" cy="925.4531" fill="#ADD1B2" rx="11" ry="11" style="stroke: #A80036; stroke-width: 1.0;"/><path d="M2316.3438,921.125 L2316.5156,921.2031 C2316.7344,920.8906 2316.9375,920.7969 2317.2344,920.7969 C2317.5313,920.7969 2317.8125,920.9375 2317.9688,921.2031 C2318.0625,921.3594 2318.0781,921.4844 2318.0781,921.9219 L2318.0781,923.3438 C2318.0781,923.7656 2318.0469,923.9531 2317.9375,924.1094 C2317.7656,924.3281 2317.5,924.4688 2317.2344,924.4688 C2317.0156,924.4688 2316.7813,924.3594 2316.6406,924.2188 C2316.5,924.0938 2316.4688,923.9688 2316.4063,923.5625 C2316.3125,923.1563 2316.1406,922.9375 2315.6563,922.6563 C2315.1875,922.4063 2314.5781,922.25 2314,922.25 C2312.2656,922.25 2311.0156,923.5625 2311.0156,925.3438 L2311.0156,926.4375 C2311.0156,928.1406 2312.3125,929.2344 2314.3594,929.2344 C2315.125,929.2344 2315.8125,929.1094 2316.2344,928.8438 C2316.4219,928.75 2316.4219,928.75 2316.875,928.2656 C2317.0625,928.0781 2317.2656,928 2317.4844,928 C2317.9531,928 2318.3438,928.3906 2318.3438,928.8438 C2318.3438,929.2344 2318.0156,929.6875 2317.4375,930.0938 C2316.6875,930.6406 2315.5313,930.9375 2314.3125,930.9375 C2311.4219,930.9375 2309.3125,929.0469 2309.3125,926.4688 L2309.3125,925.3438 C2309.3125,922.625 2311.3125,920.5469 2313.9375,920.5469 C2314.8125,920.5469 2315.4063,920.6875 2316.3438,921.125 Z "/><text fill="#000000" font-family="sans-serif" font-size="12" lengthAdjust="spacingAndGlyphs" textLength="98" x="2328" y="929.6074">EscrowPayment</text><line style="stroke: #A80036; stroke-width: 1.5;" x1="2300" x2="2428" y1="941.4531" y2="941.4531"/><line style="stroke: #A80036; stroke-width: 1.5;" x1="2300" x2="2428" y1="949.4531" y2="949.4531"/><ellipse cx="2259" cy="933.4531" fill="#FEFECE" filter="url(#fb7qdsnlgthm3)" rx="5" ry="5" style="stroke: #A80036; stroke-width: 1.5;"/><text fill="#000000" font-family="sans-serif" font-size="12" lengthAdjust="spacingAndGlyphs" textLength="54" x="2232" y="949.5918">Payment</text><!--MD5=[57a5482518aa6177c9f6611790c0a97a]
class PaymentChannelManager--><rect fill="#FEFECE" filter="url(#fb7qdsnlgthm3)" height="137.6328" id="PaymentChannelManager" style="stroke: #A80036; stroke-width: 1.5;" width="643" x="1183.5" y="864.4531"/><ellipse cx="1420.75" cy="880.4531" fill="#B4A7E5" rx="11" ry="11" style="stroke: #A80036; stroke-width: 1.0;"/><path d="M1421.7031,877.2344 L1421.7031,883.75 L1423.4219,883.75 C1423.875,883.75 1424.0156,883.7813 1424.1875,883.9063 C1424.4219,884.0781 1424.5313,884.3281 1424.5313,884.6094 C1424.5313,885.1719 1424.1719,885.4531 1423.4219,885.4531 L1418.2813,885.4531 C1417.875,885.4531 1417.6719,885.4063 1417.5156,885.2813 C1417.2969,885.125 1417.1563,884.8594 1417.1563,884.6094 C1417.1563,884.3125 1417.3125,884.0313 1417.5625,883.875 C1417.7188,883.7656 1417.8438,883.75 1418.2813,883.75 L1420,883.75 L1420,877.2344 L1418.2813,877.2344 C1417.8594,877.2344 1417.6719,877.2031 1417.5156,877.0938 C1417.2969,876.9219 1417.1563,876.6719 1417.1563,876.3906 C1417.1563,876.1094 1417.3125,875.8125 1417.5625,875.6563 C1417.7188,875.5625 1417.8438,875.5469 1418.2813,875.5469 L1423.4219,875.5469 C1423.875,875.5469 1424.0156,875.5781 1424.1875,875.6875 C1424.4219,875.8594 1424.5313,876.125 1424.5313,876.3906 C1424.5313,876.6875 1424.3906,876.9688 1424.125,877.125 C1424,877.2031 1423.8125,877.2344 1423.4219,877.2344 Z "/><text fill="#000000" font-family="sans-serif" font-size="12" font-style="italic" lengthAdjust="spacingAndGlyphs" textLength="160" x="1441.25" y="884.6074">PaymentChannelManager</text><line style="stroke: #A80036; stroke-width: 1.5;" x1="1184.5" x2="1825.5" y1="896.4531" y2="896.4531"/><line style="stroke: #A80036; stroke-width: 1.5;" x1="1184.5" x2="1825.5" y1="904.4531" y2="904.4531"/><text fill="#000000" font-family="sans-serif" font-size="11" lengthAdjust="spacingAndGlyphs" textLength="631" x="1189.5" y="918.6636">Stream&lt;PaymentChannel&gt; getChannelsAccessibleBy(PaymentGroupId paymentGroupId, WithAddress identity);</text><text fill="#000000" font-family="sans-serif" font-size="11" lengthAdjust="spacingAndGlyphs" textLength="422" x="1189.5" y="931.4683">PaymentChannel openPaymentChannel(PaymentGroupId paymentGroupId,</text><text fill="#000000" font-family="sans-serif" font-size="11" lengthAdjust="spacingAndGlyphs" textLength="452" x="1221.5" y="944.2729">Address recipient, WithAddress signer, BigInteger value, BigInteger expiration);</text><text fill="#000000" font-family="sans-serif" font-size="11" lengthAdjust="spacingAndGlyphs" textLength="482" x="1189.5" y="957.0776">PaymentChannel addFundsToChannel(PaymentChannel channel, BigInteger amount);</text><text fill="#000000" font-family="sans-serif" font-size="11" lengthAdjust="spacingAndGlyphs" textLength="464" x="1189.5" y="969.8823">PaymentChannel extendChannel(PaymentChannel channel, BigInteger expiration);</text><text fill="#000000" font-family="sans-serif" font-size="11" lengthAdjust="spacingAndGlyphs" textLength="424" x="1189.5" y="982.687">PaymentChannel extendAndAddFundsToChannel(PaymentChannel channel,</text><text fill="#000000" font-family="sans-serif" font-size="11" lengthAdjust="spacingAndGlyphs" textLength="239" x="1221.5" y="995.4917">BigInteger expiration, BigInteger amount);</text><!--MD5=[f869c6f8ed00168efcbf3104d5bedd64]
class MpePaymentChannelManager--><rect fill="#FEFECE" filter="url(#fb7qdsnlgthm3)" height="48" id="MpePaymentChannelManager" style="stroke: #A80036; stroke-width: 1.5;" width="218" x="1519" y="1062.4531"/><ellipse cx="1534" cy="1078.4531" fill="#ADD1B2" rx="11" ry="11" style="stroke: #A80036; stroke-width: 1.0;"/><path d="M1536.3438,1074.125 L1536.5156,1074.2031 C1536.7344,1073.8906 1536.9375,1073.7969 1537.2344,1073.7969 C1537.5313,1073.7969 1537.8125,1073.9375 1537.9688,1074.2031 C1538.0625,1074.3594 1538.0781,1074.4844 1538.0781,1074.9219 L1538.0781,1076.3438 C1538.0781,1076.7656 1538.0469,1076.9531 1537.9375,1077.1094 C1537.7656,1077.3281 1537.5,1077.4688 1537.2344,1077.4688 C1537.0156,1077.4688 1536.7813,1077.3594 1536.6406,1077.2188 C1536.5,1077.0938 1536.4688,1076.9688 1536.4063,1076.5625 C1536.3125,1076.1563 1536.1406,1075.9375 1535.6563,1075.6563 C1535.1875,1075.4063 1534.5781,1075.25 1534,1075.25 C1532.2656,1075.25 1531.0156,1076.5625 1531.0156,1078.3438 L1531.0156,1079.4375 C1531.0156,1081.1406 1532.3125,1082.2344 1534.3594,1082.2344 C1535.125,1082.2344 1535.8125,1082.1094 1536.2344,1081.8438 C1536.4219,1081.75 1536.4219,1081.75 1536.875,1081.2656 C1537.0625,1081.0781 1537.2656,1081 1537.4844,1081 C1537.9531,1081 1538.3438,1081.3906 1538.3438,1081.8438 C1538.3438,1082.2344 1538.0156,1082.6875 1537.4375,1083.0938 C1536.6875,1083.6406 1535.5313,1083.9375 1534.3125,1083.9375 C1531.4219,1083.9375 1529.3125,1082.0469 1529.3125,1079.4688 L1529.3125,1078.3438 C1529.3125,1075.625 1531.3125,1073.5469 1533.9375,1073.5469 C1534.8125,1073.5469 1535.4063,1073.6875 1536.3438,1074.125 Z "/><text fill="#000000" font-family="sans-serif" font-size="12" lengthAdjust="spacingAndGlyphs" textLength="186" x="1548" y="1082.6074">MpePaymentChannelManager</text><line style="stroke: #A80036; stroke-width: 1.5;" x1="1520" x2="1736" y1="1094.4531" y2="1094.4531"/><line style="stroke: #A80036; stroke-width: 1.5;" x1="1520" x2="1736" y1="1102.4531" y2="1102.4531"/><!--MD5=[9b7eb76f801c309757ef5968cb2349d9]
class Configuration--><rect fill="#FEFECE" filter="url(#fb7qdsnlgthm3)" height="137.6328" id="Configuration" style="stroke: #A80036; stroke-width: 1.5;" width="301" x="822.5" y="316.4531"/><ellipse cx="926.75" cy="332.4531" fill="#B4A7E5" rx="11" ry="11" style="stroke: #A80036; stroke-width: 1.0;"/><path d="M927.7031,329.2344 L927.7031,335.75 L929.4219,335.75 C929.875,335.75 930.0156,335.7813 930.1875,335.9063 C930.4219,336.0781 930.5313,336.3281 930.5313,336.6094 C930.5313,337.1719 930.1719,337.4531 929.4219,337.4531 L924.2813,337.4531 C923.875,337.4531 923.6719,337.4063 923.5156,337.2813 C923.2969,337.125 923.1563,336.8594 923.1563,336.6094 C923.1563,336.3125 923.3125,336.0313 923.5625,335.875 C923.7188,335.7656 923.8438,335.75 924.2813,335.75 L926,335.75 L926,329.2344 L924.2813,329.2344 C923.8594,329.2344 923.6719,329.2031 923.5156,329.0938 C923.2969,328.9219 923.1563,328.6719 923.1563,328.3906 C923.1563,328.1094 923.3125,327.8125 923.5625,327.6563 C923.7188,327.5625 923.8438,327.5469 924.2813,327.5469 L929.4219,327.5469 C929.875,327.5469 930.0156,327.5781 930.1875,327.6875 C930.4219,327.8594 930.5313,328.125 930.5313,328.3906 C930.5313,328.6875 930.3906,328.9688 930.125,329.125 C930,329.2031 929.8125,329.2344 929.4219,329.2344 Z "/><text fill="#000000" font-family="sans-serif" font-size="12" font-style="italic" lengthAdjust="spacingAndGlyphs" textLength="84" x="947.25" y="336.6074">Configuration</text><line style="stroke: #A80036; stroke-width: 1.5;" x1="823.5" x2="1122.5" y1="348.4531" y2="348.4531"/><line style="stroke: #A80036; stroke-width: 1.5;" x1="823.5" x2="1122.5" y1="356.4531" y2="356.4531"/><text fill="#000000" font-family="sans-serif" font-size="11" lengthAdjust="spacingAndGlyphs" textLength="203" x="828.5" y="370.6636">URL getEthereumJsonRpcEndpoint();</text><text fill="#000000" font-family="sans-serif" font-size="11" lengthAdjust="spacingAndGlyphs" textLength="125" x="828.5" y="383.4683">URL getIpfsEndpoint();</text><text fill="#000000" font-family="sans-serif" font-size="11" lengthAdjust="spacingAndGlyphs" textLength="170" x="828.5" y="396.2729">IdentityType getIdentityType();</text><text fill="#000000" font-family="sans-serif" font-size="11" lengthAdjust="spacingAndGlyphs" textLength="231" x="828.5" y="409.0776">Optional&lt;String&gt; getIdentityMnemonic();</text><text fill="#000000" font-family="sans-serif" font-size="11" lengthAdjust="spacingAndGlyphs" textLength="231" x="828.5" y="421.8823">Optional&lt;byte[]&gt; getIdentityPrivateKey();</text><text fill="#000000" font-family="sans-serif" font-size="11" lengthAdjust="spacingAndGlyphs" textLength="239" x="828.5" y="434.687">Optional&lt;Address&gt; getRegistryAddress();</text><text fill="#000000" font-family="sans-serif" font-size="11" lengthAdjust="spacingAndGlyphs" textLength="289" x="828.5" y="447.4917">Optional&lt;Address&gt; getMultiPartyEscrowAddress();</text><!--MD5=[02eef48ffe125c1dc248af72b951f714]
class ConfigurationUtils--><rect fill="#FEFECE" filter="url(#fb7qdsnlgthm3)" height="73.6094" id="ConfigurationUtils" style="stroke: #A80036; stroke-width: 1.5;" width="321" x="805.5" y="131.4531"/><ellipse cx="906.25" cy="147.4531" fill="#ADD1B2" rx="11" ry="11" style="stroke: #A80036; stroke-width: 1.0;"/><path d="M908.5938,143.125 L908.7656,143.2031 C908.9844,142.8906 909.1875,142.7969 909.4844,142.7969 C909.7813,142.7969 910.0625,142.9375 910.2188,143.2031 C910.3125,143.3594 910.3281,143.4844 910.3281,143.9219 L910.3281,145.3438 C910.3281,145.7656 910.2969,145.9531 910.1875,146.1094 C910.0156,146.3281 909.75,146.4688 909.4844,146.4688 C909.2656,146.4688 909.0313,146.3594 908.8906,146.2188 C908.75,146.0938 908.7188,145.9688 908.6563,145.5625 C908.5625,145.1563 908.3906,144.9375 907.9063,144.6563 C907.4375,144.4063 906.8281,144.25 906.25,144.25 C904.5156,144.25 903.2656,145.5625 903.2656,147.3438 L903.2656,148.4375 C903.2656,150.1406 904.5625,151.2344 906.6094,151.2344 C907.375,151.2344 908.0625,151.1094 908.4844,150.8438 C908.6719,150.75 908.6719,150.75 909.125,150.2656 C909.3125,150.0781 909.5156,150 909.7344,150 C910.2031,150 910.5938,150.3906 910.5938,150.8438 C910.5938,151.2344 910.2656,151.6875 909.6875,152.0938 C908.9375,152.6406 907.7813,152.9375 906.5625,152.9375 C903.6719,152.9375 901.5625,151.0469 901.5625,148.4688 L901.5625,147.3438 C901.5625,144.625 903.5625,142.5469 906.1875,142.5469 C907.0625,142.5469 907.6563,142.6875 908.5938,143.125 Z "/><text fill="#000000" font-family="sans-serif" font-size="12" lengthAdjust="spacingAndGlyphs" textLength="111" x="926.75" y="151.6074">ConfigurationUtils</text><line style="stroke: #A80036; stroke-width: 1.5;" x1="806.5" x2="1125.5" y1="163.4531" y2="163.4531"/><line style="stroke: #A80036; stroke-width: 1.5;" x1="806.5" x2="1125.5" y1="171.4531" y2="171.4531"/><text fill="#000000" font-family="sans-serif" font-size="11" lengthAdjust="spacingAndGlyphs" textLength="309" x="811.5" y="185.6636">static Configuration fromProperties(Properties props);</text><text fill="#000000" font-family="sans-serif" font-size="11" lengthAdjust="spacingAndGlyphs" textLength="240" x="811.5" y="198.4683">static Configuration fromJson(String json);</text><!--MD5=[9d399695d42212ed2a4fd85ec725c8c7]
class StaticConfiguration--><rect fill="#FEFECE" filter="url(#fb7qdsnlgthm3)" height="48" id="StaticConfiguration" style="stroke: #A80036; stroke-width: 1.5;" width="152" x="901" y="514.4531"/><ellipse cx="916" cy="530.4531" fill="#ADD1B2" rx="11" ry="11" style="stroke: #A80036; stroke-width: 1.0;"/><path d="M918.3438,526.125 L918.5156,526.2031 C918.7344,525.8906 918.9375,525.7969 919.2344,525.7969 C919.5313,525.7969 919.8125,525.9375 919.9688,526.2031 C920.0625,526.3594 920.0781,526.4844 920.0781,526.9219 L920.0781,528.3438 C920.0781,528.7656 920.0469,528.9531 919.9375,529.1094 C919.7656,529.3281 919.5,529.4688 919.2344,529.4688 C919.0156,529.4688 918.7813,529.3594 918.6406,529.2188 C918.5,529.0938 918.4688,528.9688 918.4063,528.5625 C918.3125,528.1563 918.1406,527.9375 917.6563,527.6563 C917.1875,527.4063 916.5781,527.25 916,527.25 C914.2656,527.25 913.0156,528.5625 913.0156,530.3438 L913.0156,531.4375 C913.0156,533.1406 914.3125,534.2344 916.3594,534.2344 C917.125,534.2344 917.8125,534.1094 918.2344,533.8438 C918.4219,533.75 918.4219,533.75 918.875,533.2656 C919.0625,533.0781 919.2656,533 919.4844,533 C919.9531,533 920.3438,533.3906 920.3438,533.8438 C920.3438,534.2344 920.0156,534.6875 919.4375,535.0938 C918.6875,535.6406 917.5313,535.9375 916.3125,535.9375 C913.4219,535.9375 911.3125,534.0469 911.3125,531.4688 L911.3125,530.3438 C911.3125,527.625 913.3125,525.5469 915.9375,525.5469 C916.8125,525.5469 917.4063,525.6875 918.3438,526.125 Z "/><text fill="#000000" font-family="sans-serif" font-size="12" lengthAdjust="spacingAndGlyphs" textLength="120" x="930" y="534.6074">StaticConfiguration</text><line style="stroke: #A80036; stroke-width: 1.5;" x1="902" x2="1052" y1="546.4531" y2="546.4531"/><line style="stroke: #A80036; stroke-width: 1.5;" x1="902" x2="1052" y1="554.4531" y2="554.4531"/><!--MD5=[4b934e359fed50ed512d3d2d3ad10faa]
class DependencyFactory--><rect fill="#FEFECE" filter="url(#fb7qdsnlgthm3)" height="112.0234" id="DependencyFactory" style="stroke: #A80036; stroke-width: 1.5;" width="238" x="124" y="329.4531"/><ellipse cx="175.75" cy="345.4531" fill="#B4A7E5" rx="11" ry="11" style="stroke: #A80036; stroke-width: 1.0;"/><path d="M176.7031,342.2344 L176.7031,348.75 L178.4219,348.75 C178.875,348.75 179.0156,348.7813 179.1875,348.9063 C179.4219,349.0781 179.5313,349.3281 179.5313,349.6094 C179.5313,350.1719 179.1719,350.4531 178.4219,350.4531 L173.2813,350.4531 C172.875,350.4531 172.6719,350.4063 172.5156,350.2813 C172.2969,350.125 172.1563,349.8594 172.1563,349.6094 C172.1563,349.3125 172.3125,349.0313 172.5625,348.875 C172.7188,348.7656 172.8438,348.75 173.2813,348.75 L175,348.75 L175,342.2344 L173.2813,342.2344 C172.8594,342.2344 172.6719,342.2031 172.5156,342.0938 C172.2969,341.9219 172.1563,341.6719 172.1563,341.3906 C172.1563,341.1094 172.3125,340.8125 172.5625,340.6563 C172.7188,340.5625 172.8438,340.5469 173.2813,340.5469 L178.4219,340.5469 C178.875,340.5469 179.0156,340.5781 179.1875,340.6875 C179.4219,340.8594 179.5313,341.125 179.5313,341.3906 C179.5313,341.6875 179.3906,341.9688 179.125,342.125 C179,342.2031 178.8125,342.2344 178.4219,342.2344 Z "/><text fill="#000000" font-family="sans-serif" font-size="12" font-style="italic" lengthAdjust="spacingAndGlyphs" textLength="126" x="196.25" y="349.6074">DependencyFactory</text><line style="stroke: #A80036; stroke-width: 1.5;" x1="125" x2="361" y1="361.4531" y2="361.4531"/><line style="stroke: #A80036; stroke-width: 1.5;" x1="125" x2="361" y1="369.4531" y2="369.4531"/><text fill="#000000" font-family="sans-serif" font-size="11" lengthAdjust="spacingAndGlyphs" textLength="100" x="130" y="383.6636">Web3j getWeb3j();</text><text fill="#000000" font-family="sans-serif" font-size="11" lengthAdjust="spacingAndGlyphs" textLength="79" x="130" y="396.4683">IPFS getIpfs();</text><text fill="#000000" font-family="sans-serif" font-size="11" lengthAdjust="spacingAndGlyphs" textLength="116" x="130" y="409.2729">Identity getIdentity();</text><text fill="#000000" font-family="sans-serif" font-size="11" lengthAdjust="spacingAndGlyphs" textLength="126" x="130" y="422.0776">Registry getRegistry();</text><text fill="#000000" font-family="sans-serif" font-size="11" lengthAdjust="spacingAndGlyphs" textLength="226" x="130" y="434.8823">MultiPartyEscrow getMultiPartyEscrow();</text><!--MD5=[fd8e04aa5f52fe45763ddf04aafe8c4e]
class ConfigurationDependencyFactory--><rect fill="#FEFECE" filter="url(#fb7qdsnlgthm3)" height="48" id="ConfigurationDependencyFactory" style="stroke: #A80036; stroke-width: 1.5;" width="240" x="123" y="514.4531"/><ellipse cx="138" cy="530.4531" fill="#ADD1B2" rx="11" ry="11" style="stroke: #A80036; stroke-width: 1.0;"/><path d="M140.3438,526.125 L140.5156,526.2031 C140.7344,525.8906 140.9375,525.7969 141.2344,525.7969 C141.5313,525.7969 141.8125,525.9375 141.9688,526.2031 C142.0625,526.3594 142.0781,526.4844 142.0781,526.9219 L142.0781,528.3438 C142.0781,528.7656 142.0469,528.9531 141.9375,529.1094 C141.7656,529.3281 141.5,529.4688 141.2344,529.4688 C141.0156,529.4688 140.7813,529.3594 140.6406,529.2188 C140.5,529.0938 140.4688,528.9688 140.4063,528.5625 C140.3125,528.1563 140.1406,527.9375 139.6563,527.6563 C139.1875,527.4063 138.5781,527.25 138,527.25 C136.2656,527.25 135.0156,528.5625 135.0156,530.3438 L135.0156,531.4375 C135.0156,533.1406 136.3125,534.2344 138.3594,534.2344 C139.125,534.2344 139.8125,534.1094 140.2344,533.8438 C140.4219,533.75 140.4219,533.75 140.875,533.2656 C141.0625,533.0781 141.2656,533 141.4844,533 C141.9531,533 142.3438,533.3906 142.3438,533.8438 C142.3438,534.2344 142.0156,534.6875 141.4375,535.0938 C140.6875,535.6406 139.5313,535.9375 138.3125,535.9375 C135.4219,535.9375 133.3125,534.0469 133.3125,531.4688 L133.3125,530.3438 C133.3125,527.625 135.3125,525.5469 137.9375,525.5469 C138.8125,525.5469 139.4063,525.6875 140.3438,526.125 Z "/><text fill="#000000" font-family="sans-serif" font-size="12" lengthAdjust="spacingAndGlyphs" textLength="208" x="152" y="534.6074">ConfigurationDependencyFactory</text><line style="stroke: #A80036; stroke-width: 1.5;" x1="124" x2="362" y1="546.4531" y2="546.4531"/><line style="stroke: #A80036; stroke-width: 1.5;" x1="124" x2="362" y1="554.4531" y2="554.4531"/><!--MD5=[86df7a6fab1c4b6b56ced8510e72833b]
class PaymentStrategy--><rect fill="#FEFECE" filter="url(#fb7qdsnlgthm3)" height="60.8047" id="PaymentStrategy" style="stroke: #A80036; stroke-width: 1.5;" width="671" x="455.5" y="622.4531"/><ellipse cx="732.75" cy="638.4531" fill="#B4A7E5" rx="11" ry="11" style="stroke: #A80036; stroke-width: 1.0;"/><path d="M733.7031,635.2344 L733.7031,641.75 L735.4219,641.75 C735.875,641.75 736.0156,641.7813 736.1875,641.9063 C736.4219,642.0781 736.5313,642.3281 736.5313,642.6094 C736.5313,643.1719 736.1719,643.4531 735.4219,643.4531 L730.2813,643.4531 C729.875,643.4531 729.6719,643.4063 729.5156,643.2813 C729.2969,643.125 729.1563,642.8594 729.1563,642.6094 C729.1563,642.3125 729.3125,642.0313 729.5625,641.875 C729.7188,641.7656 729.8438,641.75 730.2813,641.75 L732,641.75 L732,635.2344 L730.2813,635.2344 C729.8594,635.2344 729.6719,635.2031 729.5156,635.0938 C729.2969,634.9219 729.1563,634.6719 729.1563,634.3906 C729.1563,634.1094 729.3125,633.8125 729.5625,633.6563 C729.7188,633.5625 729.8438,633.5469 730.2813,633.5469 L735.4219,633.5469 C735.875,633.5469 736.0156,633.5781 736.1875,633.6875 C736.4219,633.8594 736.5313,634.125 736.5313,634.3906 C736.5313,634.6875 736.3906,634.9688 736.125,635.125 C736,635.2031 735.8125,635.2344 735.4219,635.2344 Z "/><text fill="#000000" font-family="sans-serif" font-size="12" font-style="italic" lengthAdjust="spacingAndGlyphs" textLength="108" x="753.25" y="642.6074">PaymentStrategy</text><line style="stroke: #A80036; stroke-width: 1.5;" x1="456.5" x2="1125.5" y1="654.4531" y2="654.4531"/><line style="stroke: #A80036; stroke-width: 1.5;" x1="456.5" x2="1125.5" y1="662.4531" y2="662.4531"/><text fill="#000000" font-family="sans-serif" font-size="11" lengthAdjust="spacingAndGlyphs" textLength="659" x="461.5" y="676.6636">&lt;ReqT, RespT&gt; Payment getPayment(GrpcCallParameters&lt;ReqT, RespT&gt; parameters, ServiceClient serviceClient);</text><!--MD5=[ce3af407c2e29fd4efd23ebc2cb7fa1a]
class EscrowPaymentStrategy--><rect fill="#FEFECE" filter="url(#fb7qdsnlgthm3)" height="60.8047" id="EscrowPaymentStrategy" style="stroke: #A80036; stroke-width: 1.5;" width="412" x="585" y="743.4531"/><ellipse cx="710.75" cy="759.4531" fill="#A9DCDF" rx="11" ry="11" style="stroke: #A80036; stroke-width: 1.0;"/><path d="M712.3281,761.2656 L708.2813,761.2656 L707.8906,762.25 L708.2813,762.25 C708.7344,762.25 708.875,762.2813 709.0469,762.4063 C709.2656,762.5781 709.3906,762.8281 709.3906,763.1094 C709.3906,763.3906 709.25,763.6875 708.9844,763.8281 C708.8594,763.9219 708.6406,763.9531 708.2813,763.9531 L706.0156,763.9531 C705.2656,763.9531 704.8906,763.6719 704.8906,763.1094 C704.8906,762.8125 705.0469,762.5313 705.2969,762.375 C705.4531,762.2656 705.6094,762.25 706.0313,762.25 L708.6719,755.7344 L707.5938,755.7344 C707.1563,755.7344 706.9844,755.7031 706.8125,755.5938 C706.5938,755.4219 706.4531,755.1719 706.4531,754.8906 C706.4531,754.6094 706.6094,754.3281 706.8594,754.1563 C707.0156,754.0625 707.1406,754.0469 707.5938,754.0469 L711.2656,754.0469 L714.6563,762.25 C715.125,762.25 715.2813,762.2813 715.4531,762.4219 C715.6719,762.5781 715.8125,762.8281 715.8125,763.1094 C715.8125,763.3906 715.6563,763.6875 715.4063,763.8281 C715.2656,763.9219 715.0469,763.9531 714.6875,763.9531 L712.3281,763.9531 C711.9063,763.9531 711.7031,763.9063 711.5625,763.7813 C711.3438,763.625 711.2031,763.375 711.2031,763.1094 C711.2031,762.8125 711.3594,762.5313 711.6094,762.375 C711.7656,762.2656 711.875,762.25 712.3281,762.25 L712.7188,762.25 Z M711.625,759.5625 L710.2969,756.2969 L708.9531,759.5625 Z "/><text fill="#000000" font-family="sans-serif" font-size="12" font-style="italic" lengthAdjust="spacingAndGlyphs" textLength="152" x="731.25" y="763.6074">EscrowPaymentStrategy</text><line style="stroke: #A80036; stroke-width: 1.5;" x1="586" x2="996" y1="775.4531" y2="775.4531"/><line style="stroke: #A80036; stroke-width: 1.5;" x1="586" x2="996" y1="783.4531" y2="783.4531"/><text fill="#000000" font-family="sans-serif" font-size="11" lengthAdjust="spacingAndGlyphs" textLength="400" x="591" y="797.6636">protected PaymentChannel selectChannel(ServiceClient serviceClient);</text><!--MD5=[f0bc2daf9303fe741b6d54a0ca59617f]
class FixedPaymentChannelPaymentStrategy--><rect fill="#FEFECE" filter="url(#fb7qdsnlgthm3)" height="48" id="FixedPaymentChannelPaymentStrategy" style="stroke: #A80036; stroke-width: 1.5;" width="276" x="502" y="909.4531"/><ellipse cx="517" cy="925.4531" fill="#ADD1B2" rx="11" ry="11" style="stroke: #A80036; stroke-width: 1.0;"/><path d="M519.3438,921.125 L519.5156,921.2031 C519.7344,920.8906 519.9375,920.7969 520.2344,920.7969 C520.5313,920.7969 520.8125,920.9375 520.9688,921.2031 C521.0625,921.3594 521.0781,921.4844 521.0781,921.9219 L521.0781,923.3438 C521.0781,923.7656 521.0469,923.9531 520.9375,924.1094 C520.7656,924.3281 520.5,924.4688 520.2344,924.4688 C520.0156,924.4688 519.7813,924.3594 519.6406,924.2188 C519.5,924.0938 519.4688,923.9688 519.4063,923.5625 C519.3125,923.1563 519.1406,922.9375 518.6563,922.6563 C518.1875,922.4063 517.5781,922.25 517,922.25 C515.2656,922.25 514.0156,923.5625 514.0156,925.3438 L514.0156,926.4375 C514.0156,928.1406 515.3125,929.2344 517.3594,929.2344 C518.125,929.2344 518.8125,929.1094 519.2344,928.8438 C519.4219,928.75 519.4219,928.75 519.875,928.2656 C520.0625,928.0781 520.2656,928 520.4844,928 C520.9531,928 521.3438,928.3906 521.3438,928.8438 C521.3438,929.2344 521.0156,929.6875 520.4375,930.0938 C519.6875,930.6406 518.5313,930.9375 517.3125,930.9375 C514.4219,930.9375 512.3125,929.0469 512.3125,926.4688 L512.3125,925.3438 C512.3125,922.625 514.3125,920.5469 516.9375,920.5469 C517.8125,920.5469 518.4063,920.6875 519.3438,921.125 Z "/><text fill="#000000" font-family="sans-serif" font-size="12" lengthAdjust="spacingAndGlyphs" textLength="244" x="531" y="929.6074">FixedPaymentChannelPaymentStrategy</text><line style="stroke: #A80036; stroke-width: 1.5;" x1="503" x2="777" y1="941.4531" y2="941.4531"/><line style="stroke: #A80036; stroke-width: 1.5;" x1="503" x2="777" y1="949.4531" y2="949.4531"/><!--MD5=[f434819d9f9081e79b430203a12162d8]
class OnDemandPaymentChannelPaymentStrategy--><rect fill="#FEFECE" filter="url(#fb7qdsnlgthm3)" height="48" id="OnDemandPaymentChannelPaymentStrategy" style="stroke: #A80036; stroke-width: 1.5;" width="313" x="813.5" y="909.4531"/><ellipse cx="828.5" cy="925.4531" fill="#ADD1B2" rx="11" ry="11" style="stroke: #A80036; stroke-width: 1.0;"/><path d="M830.8438,921.125 L831.0156,921.2031 C831.2344,920.8906 831.4375,920.7969 831.7344,920.7969 C832.0313,920.7969 832.3125,920.9375 832.4688,921.2031 C832.5625,921.3594 832.5781,921.4844 832.5781,921.9219 L832.5781,923.3438 C832.5781,923.7656 832.5469,923.9531 832.4375,924.1094 C832.2656,924.3281 832,924.4688 831.7344,924.4688 C831.5156,924.4688 831.2813,924.3594 831.1406,924.2188 C831,924.0938 830.9688,923.9688 830.9063,923.5625 C830.8125,923.1563 830.6406,922.9375 830.1563,922.6563 C829.6875,922.4063 829.0781,922.25 828.5,922.25 C826.7656,922.25 825.5156,923.5625 825.5156,925.3438 L825.5156,926.4375 C825.5156,928.1406 826.8125,929.2344 828.8594,929.2344 C829.625,929.2344 830.3125,929.1094 830.7344,928.8438 C830.9219,928.75 830.9219,928.75 831.375,928.2656 C831.5625,928.0781 831.7656,928 831.9844,928 C832.4531,928 832.8438,928.3906 832.8438,928.8438 C832.8438,929.2344 832.5156,929.6875 831.9375,930.0938 C831.1875,930.6406 830.0313,930.9375 828.8125,930.9375 C825.9219,930.9375 823.8125,929.0469 823.8125,926.4688 L823.8125,925.3438 C823.8125,922.625 825.8125,920.5469 828.4375,920.5469 C829.3125,920.5469 829.9063,920.6875 830.8438,921.125 Z "/><text fill="#000000" font-family="sans-serif" font-size="12" lengthAdjust="spacingAndGlyphs" textLength="281" x="842.5" y="929.6074">OnDemandPaymentChannelPaymentStrategy</text><line style="stroke: #A80036; stroke-width: 1.5;" x1="814.5" x2="1125.5" y1="941.4531" y2="941.4531"/><line style="stroke: #A80036; stroke-width: 1.5;" x1="814.5" x2="1125.5" y1="949.4531" y2="949.4531"/><!--MD5=[2fb101d943835b3444fac9786607c7ca]
class Sdk--><rect fill="#FEFECE" filter="url(#fb7qdsnlgthm3)" height="176.0469" id="Sdk" style="stroke: #A80036; stroke-width: 1.5;" width="732" x="38" y="80.4531"/><ellipse cx="388.25" cy="96.4531" fill="#ADD1B2" rx="11" ry="11" style="stroke: #A80036; stroke-width: 1.0;"/><path d="M390.5938,92.125 L390.7656,92.2031 C390.9844,91.8906 391.1875,91.7969 391.4844,91.7969 C391.7813,91.7969 392.0625,91.9375 392.2188,92.2031 C392.3125,92.3594 392.3281,92.4844 392.3281,92.9219 L392.3281,94.3438 C392.3281,94.7656 392.2969,94.9531 392.1875,95.1094 C392.0156,95.3281 391.75,95.4688 391.4844,95.4688 C391.2656,95.4688 391.0313,95.3594 390.8906,95.2188 C390.75,95.0938 390.7188,94.9688 390.6563,94.5625 C390.5625,94.1563 390.3906,93.9375 389.9063,93.6563 C389.4375,93.4063 388.8281,93.25 388.25,93.25 C386.5156,93.25 385.2656,94.5625 385.2656,96.3438 L385.2656,97.4375 C385.2656,99.1406 386.5625,100.2344 388.6094,100.2344 C389.375,100.2344 390.0625,100.1094 390.4844,99.8438 C390.6719,99.75 390.6719,99.75 391.125,99.2656 C391.3125,99.0781 391.5156,99 391.7344,99 C392.2031,99 392.5938,99.3906 392.5938,99.8438 C392.5938,100.2344 392.2656,100.6875 391.6875,101.0938 C390.9375,101.6406 389.7813,101.9375 388.5625,101.9375 C385.6719,101.9375 383.5625,100.0469 383.5625,97.4688 L383.5625,96.3438 C383.5625,93.625 385.5625,91.5469 388.1875,91.5469 C389.0625,91.5469 389.6563,91.6875 390.5938,92.125 Z "/><text fill="#000000" font-family="sans-serif" font-size="12" lengthAdjust="spacingAndGlyphs" textLength="23" x="408.75" y="100.6074">Sdk</text><line style="stroke: #A80036; stroke-width: 1.5;" x1="39" x2="769" y1="112.4531" y2="112.4531"/><line style="stroke: #A80036; stroke-width: 1.5;" x1="39" x2="769" y1="120.4531" y2="120.4531"/><text fill="#000000" font-family="sans-serif" font-size="11" lengthAdjust="spacingAndGlyphs" textLength="147" x="44" y="134.6636">Sdk(Configuration config);</text><text fill="#000000" font-family="sans-serif" font-size="11" lengthAdjust="spacingAndGlyphs" textLength="186" x="44" y="147.4683">Sdk(DependencyFactory factory);</text><text fill="#000000" font-family="sans-serif" font-size="11" lengthAdjust="spacingAndGlyphs" textLength="0" x="48" y="160.2729"/><text fill="#000000" font-family="sans-serif" font-size="11" lengthAdjust="spacingAndGlyphs" textLength="720" x="44" y="173.0776">ServiceClient newServiceClient(String orgId, String serviceId, String endpointGroupName, PaymentStrategy paymentStrategy);</text><text fill="#000000" font-family="sans-serif" font-size="11" lengthAdjust="spacingAndGlyphs" textLength="144" x="44" y="185.8823">Ethereum getEthereum();</text><text fill="#000000" font-family="sans-serif" font-size="11" lengthAdjust="spacingAndGlyphs" textLength="307" x="44" y="198.687">void transfer(Address toAddress, BigInteger amount);</text><text fill="#000000" font-family="sans-serif" font-size="11" lengthAdjust="spacingAndGlyphs" textLength="116" x="44" y="211.4917">Identity getIdentity();</text><text fill="#000000" font-family="sans-serif" font-size="11" lengthAdjust="spacingAndGlyphs" textLength="396" x="44" y="224.2964">MetadataProvider getMetadataProvider(String orgId, String serviceId);</text><text fill="#000000" font-family="sans-serif" font-size="11" lengthAdjust="spacingAndGlyphs" textLength="322" x="44" y="237.1011">PaymentChannelManager getPaymentChannelManager();</text><text fill="#000000" font-family="sans-serif" font-size="11" lengthAdjust="spacingAndGlyphs" textLength="94" x="44" y="249.9058">void shutdown();</text><!--MD5=[454092b3ab12a575f0516fcdf124b80a]
class ServiceClient--><rect fill="#FEFECE" filter="url(#fb7qdsnlgthm3)" height="112.0234" id="ServiceClient" style="stroke: #A80036; stroke-width: 1.5;" width="390" x="397" y="329.4531"/><ellipse cx="547.75" cy="345.4531" fill="#B4A7E5" rx="11" ry="11" style="stroke: #A80036; stroke-width: 1.0;"/><path d="M548.7031,342.2344 L548.7031,348.75 L550.4219,348.75 C550.875,348.75 551.0156,348.7813 551.1875,348.9063 C551.4219,349.0781 551.5313,349.3281 551.5313,349.6094 C551.5313,350.1719 551.1719,350.4531 550.4219,350.4531 L545.2813,350.4531 C544.875,350.4531 544.6719,350.4063 544.5156,350.2813 C544.2969,350.125 544.1563,349.8594 544.1563,349.6094 C544.1563,349.3125 544.3125,349.0313 544.5625,348.875 C544.7188,348.7656 544.8438,348.75 545.2813,348.75 L547,348.75 L547,342.2344 L545.2813,342.2344 C544.8594,342.2344 544.6719,342.2031 544.5156,342.0938 C544.2969,341.9219 544.1563,341.6719 544.1563,341.3906 C544.1563,341.1094 544.3125,340.8125 544.5625,340.6563 C544.7188,340.5625 544.8438,340.5469 545.2813,340.5469 L550.4219,340.5469 C550.875,340.5469 551.0156,340.5781 551.1875,340.6875 C551.4219,340.8594 551.5313,341.125 551.5313,341.3906 C551.5313,341.6875 551.3906,341.9688 551.125,342.125 C551,342.2031 550.8125,342.2344 550.4219,342.2344 Z "/><text fill="#000000" font-family="sans-serif" font-size="12" font-style="italic" lengthAdjust="spacingAndGlyphs" textLength="80" x="568.25" y="349.6074">ServiceClient</text><line style="stroke: #A80036; stroke-width: 1.5;" x1="398" x2="786" y1="361.4531" y2="361.4531"/><line style="stroke: #A80036; stroke-width: 1.5;" x1="398" x2="786" y1="369.4531" y2="369.4531"/><text fill="#000000" font-family="sans-serif" font-size="11" lengthAdjust="spacingAndGlyphs" textLength="232" x="403" y="383.6636">MetadataProvider getMetadataProvider();</text><text fill="#000000" font-family="sans-serif" font-size="11" lengthAdjust="spacingAndGlyphs" textLength="378" x="403" y="396.4683">PaymentChannelStateProvider getPaymentChannelStateProvider();</text><text fill="#000000" font-family="sans-serif" font-size="11" lengthAdjust="spacingAndGlyphs" textLength="289" x="403" y="409.2729">T getGrpcStub(Function&lt;Channel, T&gt; constructor);</text><text fill="#000000" font-family="sans-serif" font-size="11" lengthAdjust="spacingAndGlyphs" textLength="185" x="403" y="422.0776">String getEndpointGroupName();</text><text fill="#000000" font-family="sans-serif" font-size="11" lengthAdjust="spacingAndGlyphs" textLength="118" x="403" y="434.8823">void shutdownNow();</text><!--MD5=[791a636acfc599c1abdb09fdc478ec4b]
class BaseServiceClient--><rect fill="#FEFECE" filter="url(#fb7qdsnlgthm3)" height="48" id="BaseServiceClient" style="stroke: #A80036; stroke-width: 1.5;" width="143" x="722.5" y="514.4531"/><ellipse cx="737.5" cy="530.4531" fill="#ADD1B2" rx="11" ry="11" style="stroke: #A80036; stroke-width: 1.0;"/><path d="M739.8438,526.125 L740.0156,526.2031 C740.2344,525.8906 740.4375,525.7969 740.7344,525.7969 C741.0313,525.7969 741.3125,525.9375 741.4688,526.2031 C741.5625,526.3594 741.5781,526.4844 741.5781,526.9219 L741.5781,528.3438 C741.5781,528.7656 741.5469,528.9531 741.4375,529.1094 C741.2656,529.3281 741,529.4688 740.7344,529.4688 C740.5156,529.4688 740.2813,529.3594 740.1406,529.2188 C740,529.0938 739.9688,528.9688 739.9063,528.5625 C739.8125,528.1563 739.6406,527.9375 739.1563,527.6563 C738.6875,527.4063 738.0781,527.25 737.5,527.25 C735.7656,527.25 734.5156,528.5625 734.5156,530.3438 L734.5156,531.4375 C734.5156,533.1406 735.8125,534.2344 737.8594,534.2344 C738.625,534.2344 739.3125,534.1094 739.7344,533.8438 C739.9219,533.75 739.9219,533.75 740.375,533.2656 C740.5625,533.0781 740.7656,533 740.9844,533 C741.4531,533 741.8438,533.3906 741.8438,533.8438 C741.8438,534.2344 741.5156,534.6875 740.9375,535.0938 C740.1875,535.6406 739.0313,535.9375 737.8125,535.9375 C734.9219,535.9375 732.8125,534.0469 732.8125,531.4688 L732.8125,530.3438 C732.8125,527.625 734.8125,525.5469 737.4375,525.5469 C738.3125,525.5469 738.9063,525.6875 739.8438,526.125 Z "/><text fill="#000000" font-family="sans-serif" font-size="12" lengthAdjust="spacingAndGlyphs" textLength="111" x="751.5" y="534.6074">BaseServiceClient</text><line style="stroke: #A80036; stroke-width: 1.5;" x1="723.5" x2="864.5" y1="546.4531" y2="546.4531"/><line style="stroke: #A80036; stroke-width: 1.5;" x1="723.5" x2="864.5" y1="554.4531" y2="554.4531"/><!--MD5=[7333db4fc39f16c2f02f2dda9890190f]
reverse link WithAddress to Identity--><path d="M1166.12,1445.1251 C1161.15,1476.4351 1154.91,1515.8111 1150.7,1542.3141 " fill="none" id="WithAddress&lt;-Identity" style="stroke: #A80036; stroke-width: 1.0;"/><polygon fill="none" points="1159.27,1443.6511,1169.31,1424.9951,1173.09,1445.8451,1159.27,1443.6511" style="stroke: #A80036; stroke-width: 1.0;"/><!--MD5=[f908c46b029621f97af57ec9c262af47]
reverse link Identity to PrivateKeyIdentity--><path d="M1146,1623.9721 C1146,1642.2581 1146,1662.3511 1146,1678.2971 " fill="none" id="Identity&lt;-PrivateKeyIdentity" style="stroke: #A80036; stroke-width: 1.0; stroke-dasharray: 7.0,7.0;"/><polygon fill="none" points="1139,1623.6921,1146,1603.6921,1153,1623.6921,1139,1623.6921" style="stroke: #A80036; stroke-width: 1.0;"/><!--MD5=[70d2d8ea03716a1c981ea3b57f74daf2]
reverse link PrivateKeyIdentity to MnemonicIdentity--><path d="M1146,1759.7931 C1146,1775.8261 1146,1792.8221 1146,1805.9521 " fill="none" id="PrivateKeyIdentity&lt;-MnemonicIdentity" style="stroke: #A80036; stroke-width: 1.0;"/><polygon fill="none" points="1139,1759.6751,1146,1739.6751,1153,1759.6751,1139,1759.6751" style="stroke: #A80036; stroke-width: 1.0;"/><!--MD5=[71e65807e472cdd22e4afb5f3f077edb]
reverse link MetadataStorage to IpfsMetadataStorage--><path d="M2167.61,2001.7931 C2169.09,2017.8261 2170.66,2034.8218 2171.87,2047.9525 " fill="none" id="MetadataStorage&lt;-IpfsMetadataStorage" style="stroke: #A80036; stroke-width: 1.0; stroke-dasharray: 7.0,7.0;"/><polygon fill="none" points="2160.62,2002.2341,2165.75,1981.6751,2174.56,2000.9461,2160.62,2002.2341" style="stroke: #A80036; stroke-width: 1.0;"/><!--MD5=[2a4a970764f918ae0badbe6919defd20]
reverse link MetadataProvider to RegistryMetadataProvider--><path d="M2313,1766.0211 C2313,1780.0761 2313,1794.3871 2313,1805.8031 " fill="none" id="MetadataProvider&lt;-RegistryMetadataProvider" style="stroke: #A80036; stroke-width: 1.0; stroke-dasharray: 7.0,7.0;"/><polygon fill="none" points="2306,1765.9801,2313,1745.9801,2320,1765.9801,2306,1765.9801" style="stroke: #A80036; stroke-width: 1.0;"/><!--MD5=[020c7b64572ad0d5dd83b48937953d6f]
reverse link RegistryMetadataProvider to RegistryContract--><path d="M2366.57,1860.4651 C2395.87,1876.6081 2432.41,1896.7391 2463.41,1913.8171 " fill="none" id="RegistryMetadataProvider&lt;-RegistryContract" style="stroke: #A80036; stroke-width: 1.0;"/><polygon fill="#A80036" points="2354.9,1854.0381,2358.2198,1860.4396,2365.4057,1859.8373,2362.0859,1853.4358,2354.9,1854.0381" style="stroke: #A80036; stroke-width: 1.0;"/><!--MD5=[d47a745ee1ad0799f82e44bd048299bb]
reverse link RegistryMetadataProvider to MetadataStorage--><path d="M2273.42,1862.3561 C2250.74,1880.3461 2222.46,1902.7841 2200.19,1920.4471 " fill="none" id="RegistryMetadataProvider&lt;-MetadataStorage" style="stroke: #A80036; stroke-width: 1.0;"/><polygon fill="#A80036" points="2283.72,1854.1801,2276.5337,1854.7782,2274.3219,1861.6417,2281.5081,1861.0436,2283.72,1854.1801" style="stroke: #A80036; stroke-width: 1.0;"/><!--MD5=[5f50259719ab8f6c811c43ac4d0a7ffa]
reverse link DaemonConnection to RandomEndpointDaemonConnection--><path d="M2037.57,1464.1851 C2041.3,1494.1151 2045.42,1527.1981 2048.1,1548.7101 " fill="none" id="DaemonConnection&lt;-RandomEndpointDaemonConnection" style="stroke: #A80036; stroke-width: 1.0; stroke-dasharray: 7.0,7.0;"/><polygon fill="none" points="2030.6,1464.8621,2035.07,1444.1501,2044.49,1463.1301,2030.6,1464.8621" style="stroke: #A80036; stroke-width: 1.0;"/><!--MD5=[63c37948cfe9a1c42efe96eb17d1b3c9]
reverse link RandomEndpointDaemonConnection to MetadataProvider--><path d="M2107.84,1603.0241 C2147.34,1623.2241 2200.24,1650.2831 2242.44,1671.8641 " fill="none" id="RandomEndpointDaemonConnection&lt;-MetadataProvider" style="stroke: #A80036; stroke-width: 1.0;"/><polygon fill="#FFFFFF" points="2096.04,1596.9881,2099.5566,1603.2836,2106.7204,1602.4588,2103.2038,1596.1633,2096.04,1596.9881" style="stroke: #A80036; stroke-width: 1.0;"/><!--MD5=[fef4e350e15d9bf678618c0a72d0aa88]
reverse link PaymentChannelStateService to Identity--><path d="M1589.15,1247.7641 C1475.04,1266.1761 1352.91,1289.2531 1332,1306.4531 C1266.86,1360.0361 1311.81,1415.1251 1261,1482.4531 C1243.17,1506.0811 1217.62,1526.8061 1195.12,1542.3461 " fill="none" id="PaymentChannelStateService&lt;-Identity" style="stroke: #A80036; stroke-width: 1.0;"/><polygon fill="#FFFFFF" points="1602.3,1245.6571,1595.7426,1242.657,1590.4512,1247.5561,1597.0086,1250.5562,1602.3,1245.6571" style="stroke: #A80036; stroke-width: 1.0;"/><!--MD5=[b80a4aa035819691ed0efc2eebc22bdf]
reverse link PaymentChannelStateService to Ethereum--><path d="M1589.27,1245.9011 C1587.84,1246.0861 1586.42,1246.2701 1585,1246.4531 C1363.46,1275.0391 1293.31,1223.2701 1086,1306.4531 C1053.53,1319.4831 1022.12,1344.0131 1000.192,1363.7121 " fill="none" id="PaymentChannelStateService&lt;-Ethereum" style="stroke: #A80036; stroke-width: 1.0;"/><polygon fill="#FFFFFF" points="1602.24,1244.2091,1595.772,1241.0208,1590.3413,1245.765,1596.8093,1248.9533,1602.24,1244.2091" style="stroke: #A80036; stroke-width: 1.0;"/><!--MD5=[222ec36a6792f1b1b2a58bde18b610ea]
reverse link PaymentChannelStateService to MultiPartyEscrowContract--><path d="M1752.86,1254.8321 C1734.37,1270.0121 1712.24,1288.1811 1690.18,1306.2891 " fill="none" id="PaymentChannelStateService&lt;-MultiPartyEscrowContract" style="stroke: #A80036; stroke-width: 1.0;"/><polygon fill="#FFFFFF" points="1763.01,1246.4951,1755.8342,1247.2078,1753.7322,1254.1058,1760.908,1253.3931,1763.01,1246.4951" style="stroke: #A80036; stroke-width: 1.0;"/><!--MD5=[18e29076eb626ade2b5bddfb0a0f2f05]
link PaymentChannelStateService to DaemonConnection--><path d="M1837.5,1246.4951 C1872.41,1273.2861 1924.54,1313.2881 1965.59,1344.7961 " fill="none" id="PaymentChannelStateService-DaemonConnection" style="stroke: #A80036; stroke-width: 1.0;"/><!--MD5=[b39fc00f97e708bb90c4e392c13a5293]
reverse link PaymentChannelStateProvider to AskDaemonFirstPaymentChannelProvider--><path d="M2040,984.4431 C2040,1010.6331 2040,1041.4631 2040,1062.1131 " fill="none" id="PaymentChannelStateProvider&lt;-AskDaemonFirstPaymentChannelProvider" style="stroke: #A80036; stroke-width: 1.0; stroke-dasharray: 7.0,7.0;"/><polygon fill="none" points="2033,984.2831,2040,964.2831,2047,984.2831,2033,984.2831" style="stroke: #A80036; stroke-width: 1.0;"/><!--MD5=[a423174016401f42057dff165ffb576c]
reverse link AskDaemonFirstPaymentChannelProvider to MultiPartyEscrowContract--><path d="M2054.86,1123.1431 C2066.83,1158.1571 2077.7,1211.2771 2051,1246.4531 C1991.01,1325.4701 1930.71,1276.9191 1836,1306.4531 C1830.15,1308.2791 1824.22,1310.1481 1818.25,1312.0531 " fill="none" id="AskDaemonFirstPaymentChannelProvider&lt;-MultiPartyEscrowContract" style="stroke: #A80036; stroke-width: 1.0;"/><polygon fill="#FFFFFF" points="2050.3,1110.6831,2048.6091,1117.6932,2054.4295,1121.9502,2056.1204,1114.9402,2050.3,1110.6831" style="stroke: #A80036; stroke-width: 1.0;"/><!--MD5=[46c699d0e4e8b327f5eae6508979f714]
reverse link AskDaemonFirstPaymentChannelProvider to PaymentChannelStateService--><path d="M1984.74,1116.6831 C1945.89,1137.2391 1894.09,1164.6461 1855.06,1185.2941 " fill="none" id="AskDaemonFirstPaymentChannelProvider&lt;-PaymentChannelStateService" style="stroke: #A80036; stroke-width: 1.0;"/><polygon fill="#A80036" points="1996.36,1110.5431,1989.1862,1109.8108,1985.751,1116.1511,1992.9248,1116.8834,1996.36,1110.5431" style="stroke: #A80036; stroke-width: 1.0;"/><!--MD5=[b15335b9901c38e200b6b3cd7b8dae9b]
link EscrowPaymentlol78594 to EscrowPayment--><path d="M2264.33,933.4531 C2275.88,933.4531 2287.43,933.4531 2298.98,933.4531 " fill="none" id="EscrowPaymentlol78594-EscrowPayment" style="stroke: #A80036; stroke-width: 1.0;"/><!--MD5=[0baa9fa319c9c489b958077dabf0c9d5]
reverse link PaymentChannelManager to MpePaymentChannelManager--><path d="M1573.42,1018.4531 C1586.6,1034.6331 1599.35,1050.2731 1609.2,1062.3731 " fill="none" id="PaymentChannelManager&lt;-MpePaymentChannelManager" style="stroke: #A80036; stroke-width: 1.0; stroke-dasharray: 7.0,7.0;"/><polygon fill="none" points="1567.95,1022.8131,1560.74,1002.8831,1578.8,1013.9731,1567.95,1022.8131" style="stroke: #A80036; stroke-width: 1.0;"/><!--MD5=[68ede00cd4399fc0f14f271634312163]
reverse link MpePaymentChannelManager to MultiPartyEscrowContract--><path d="M1747.19,1113.0431 C1788.45,1121.0531 1835.09,1129.1701 1878,1134.4531 C1892.91,1136.2891 2002.69,1131.5181 2013,1142.4531 C2044.7,1176.0901 2039.93,1208.8871 2013,1246.4531 C1964.6,1313.9611 1914.59,1279.5661 1836,1306.4531 C1830.09,1308.4761 1824.1,1310.5271 1818.06,1312.5981 " fill="none" id="MpePaymentChannelManager&lt;-MultiPartyEscrowContract" style="stroke: #A80036; stroke-width: 1.0;"/><polygon fill="#FFFFFF" points="1734.29,1110.5131,1739.4033,1115.5978,1746.0635,1112.8335,1740.9502,1107.7488,1734.29,1110.5131" style="stroke: #A80036; stroke-width: 1.0;"/><!--MD5=[dbf96ee61079c6dd5a7ee7aa9badf003]
link ConfigurationUtils to Configuration--><path d="M967.187,205.9231 C968.167,235.9931 969.583,279.4931 970.772,316.0131 " fill="none" id="ConfigurationUtils-Configuration" style="stroke: #A80036; stroke-width: 1.0;"/><!--MD5=[28453fa89348e94deabda022ce5a5972]
reverse link Configuration to StaticConfiguration--><path d="M975.344,474.9431 C975.73,489.5031 976.098,503.4031 976.389,514.3731 " fill="none" id="Configuration&lt;-StaticConfiguration" style="stroke: #A80036; stroke-width: 1.0; stroke-dasharray: 7.0,7.0;"/><polygon fill="none" points="968.345,475.0631,974.813,454.8831,982.34,474.6931,968.345,475.0631" style="stroke: #A80036; stroke-width: 1.0;"/><!--MD5=[1742506f867320e7ba4ab5301cd79a0c]
reverse link DependencyFactory to ConfigurationDependencyFactory--><path d="M243,461.9531 C243,481.0931 243,500.2231 243,514.4431 " fill="none" id="DependencyFactory&lt;-ConfigurationDependencyFactory" style="stroke: #A80036; stroke-width: 1.0; stroke-dasharray: 7.0,7.0;"/><polygon fill="none" points="236,461.8231,243,441.8231,250,461.8231,236,461.8231" style="stroke: #A80036; stroke-width: 1.0;"/><!--MD5=[98de2292ecc3431998af22d63bcd022c]
reverse link PaymentStrategy to EscrowPaymentStrategy--><path d="M791,703.7831 C791,717.1831 791,731.2631 791,743.1931 " fill="none" id="PaymentStrategy&lt;-EscrowPaymentStrategy" style="stroke: #A80036; stroke-width: 1.0; stroke-dasharray: 7.0,7.0;"/><polygon fill="none" points="784,703.6731,791,683.6731,798,703.6731,784,703.6731" style="stroke: #A80036; stroke-width: 1.0;"/><!--MD5=[997fe4ace0401307b5aa52264d1338b4]
reverse link EscrowPaymentStrategy to Identity--><path d="M572.081,789.6131 C532.185,796.5131 498.556,806.6231 484,821.4531 C401.085,905.9131 449,967.0931 449,1085.4531 C449,1085.4531 449,1085.4531 449,1216.9531 C449,1482.6081 856.007,1549.5561 1047.98,1566.3581 " fill="none" id="EscrowPaymentStrategy&lt;-Identity" style="stroke: #A80036; stroke-width: 1.0;"/><polygon fill="#FFFFFF" points="584.942,787.5331,578.3795,784.5443,573.0965,789.4524,579.659,792.4413,584.942,787.5331" style="stroke: #A80036; stroke-width: 1.0;"/><!--MD5=[59fe3e00ef0686ee61b35f5c8ceb7d28]
reverse link EscrowPaymentStrategy to PaymentChannelManager--><path d="M1010.23,798.1831 C1054.42,804.4631 1100.38,812.1731 1143,821.4531 C1195.83,832.9631 1252.08,848.5331 1304.1,864.3631 " fill="none" id="EscrowPaymentStrategy&lt;-PaymentChannelManager" style="stroke: #A80036; stroke-width: 1.0;"/><polygon fill="#FFFFFF" points="997.206,796.3531,1002.5942,801.1456,1009.0904,798.0151,1003.7022,793.2227,997.206,796.3531" style="stroke: #A80036; stroke-width: 1.0;"/><!--MD5=[fd3118a20272e24e3fec719c15a0c0af]
reverse link EscrowPaymentStrategy to FixedPaymentChannelPaymentStrategy--><path d="M748.749,819.0231 C720.725,848.2531 685.064,885.4531 662.377,909.1131 " fill="none" id="EscrowPaymentStrategy&lt;-FixedPaymentChannelPaymentStrategy" style="stroke: #A80036; stroke-width: 1.0;"/><polygon fill="none" points="743.704,814.1731,762.598,804.5731,753.81,823.8631,743.704,814.1731" style="stroke: #A80036; stroke-width: 1.0;"/><!--MD5=[33e6871d03d34c9b74d85dca5a137191]
reverse link EscrowPaymentStrategy to OnDemandPaymentChannelPaymentStrategy--><path d="M839.766,817.8631 C873.294,847.3631 916.515,885.3931 943.752,909.3531 " fill="none" id="EscrowPaymentStrategy&lt;-OnDemandPaymentChannelPaymentStrategy" style="stroke: #A80036; stroke-width: 1.0;"/><polygon fill="none" points="835.06,823.0431,824.669,804.5731,844.308,812.5331,835.06,823.0431" style="stroke: #A80036; stroke-width: 1.0;"/><!--MD5=[2f98a0a9c2a33e1b1ab2e9e205c68054]
reverse link OnDemandPaymentChannelPaymentStrategy to Ethereum--><path d="M970,970.6931 C970,1058.7531 970,1282.7261 970,1363.6821 " fill="none" id="OnDemandPaymentChannelPaymentStrategy&lt;-Ethereum" style="stroke: #A80036; stroke-width: 1.0;"/><polygon fill="#FFFFFF" points="970,957.5331,966,963.5331,970,969.5331,974,963.5331,970,957.5331" style="stroke: #A80036; stroke-width: 1.0;"/><!--MD5=[959240fecb5b0486cb7559d2b7d506db]
link Sdk to Configuration--><path d="M644.516,256.5031 C697.182,275.9331 752.559,296.6531 804,316.4531 C810.051,318.7831 816.216,321.1731 822.439,323.6031 " fill="none" id="Sdk-Configuration" style="stroke: #A80036; stroke-width: 1.0;"/><!--MD5=[44ca6029f689837145a834a0e7728181]
link Sdk to ServiceClient--><path d="M480.196,256.5931 C501.672,281.1531 524.435,307.1831 543.778,329.3031 " fill="none" id="Sdk-ServiceClient" style="stroke: #A80036; stroke-width: 1.0;"/><!--MD5=[f1e16a21a2bf7a887235661116c6ef9f]
link Sdk to DependencyFactory--><path d="M338.747,256.5931 C320.355,281.1531 300.861,307.1831 284.297,329.3031 " fill="none" id="Sdk-DependencyFactory" style="stroke: #A80036; stroke-width: 1.0;"/><!--MD5=[3dd61a7060afbecf34cd84d0ea871382]
reverse link ServiceClient to BaseServiceClient--><path d="M682.187,453.8731 C711.207,475.5631 741.432,498.1531 763.129,514.3731 " fill="none" id="ServiceClient&lt;-BaseServiceClient" style="stroke: #A80036; stroke-width: 1.0; stroke-dasharray: 7.0,7.0;"/><polygon fill="none" points="677.612,459.1931,665.784,441.6131,685.994,447.9731,677.612,459.1931" style="stroke: #A80036; stroke-width: 1.0;"/><!--MD5=[f1810e1cc92e9d243ab972feb76830f3]
reverse link BaseServiceClient to DaemonConnection--><path d="M878.472,561.5531 C879.992,561.8631 881.502,562.1631 883,562.4531 C1058.91,596.6331 2482,593.7531 2482,772.9531 C2482,772.9531 2482,772.9531 2482,1087.4531 C2482,1227.2041 2332.13,1307.4271 2204.79,1350.3661 " fill="none" id="BaseServiceClient&lt;-DaemonConnection" style="stroke: #A80036; stroke-width: 1.0;"/><polygon fill="#A80036" points="865.72,558.7931,870.737,563.9728,877.4479,561.334,872.4309,556.1542,865.72,558.7931" style="stroke: #A80036; stroke-width: 1.0;"/><!--MD5=[fee83ce824a62f471aff6274595972c2]
reverse link BaseServiceClient to MetadataProvider--><path d="M878.442,561.7231 C879.971,561.9831 881.491,562.2231 883,562.4531 C1427.19,645.0731 1578.13,525.8131 2120,622.4531 C2320.57,658.2231 2553,569.2131 2553,772.9531 C2553,772.9531 2553,772.9531 2553,1395.4531 C2553,1516.7051 2437.95,1619.8621 2367.16,1671.8541 " fill="none" id="BaseServiceClient&lt;-MetadataProvider" style="stroke: #A80036; stroke-width: 1.0;"/><polygon fill="#A80036" points="865.63,559.3031,870.7848,564.3458,877.4221,561.527,872.2674,556.4844,865.63,559.3031" style="stroke: #A80036; stroke-width: 1.0;"/><!--MD5=[e521b98228211bfb565b989b631bd5cc]
reverse link BaseServiceClient to PaymentChannelStateProvider--><path d="M878.515,561.3531 C880.021,561.7231 881.517,562.0931 883,562.4531 C998.63,590.6831 1028.72,592.8331 1144,622.4531 C1457.27,702.9331 1545.61,696.6531 1844,821.4531 C1898.12,844.0831 1956.11,878.3031 1994.85,902.7631 " fill="none" id="BaseServiceClient&lt;-PaymentChannelStateProvider" style="stroke: #A80036; stroke-width: 1.0;"/><polygon fill="#A80036" points="865.849,558.1931,870.7045,563.5245,877.4933,561.093,872.6378,555.7616,865.849,558.1931" style="stroke: #A80036; stroke-width: 1.0;"/><!--MD5=[42a8c2d7d8694453bdc05839364c455e]
reverse link BaseServiceClient to PaymentStrategy--><path d="M793.038,575.5231 C792.637,590.5531 792.177,607.8031 791.796,622.1031 " fill="none" id="BaseServiceClient&lt;-PaymentStrategy" style="stroke: #A80036; stroke-width: 1.0;"/><polygon fill="#A80036" points="793.386,562.4931,789.2291,568.3855,793.0695,574.489,797.2264,568.5965,793.386,562.4931" style="stroke: #A80036; stroke-width: 1.0;"/><!--MD5=[49bf576e362c748f40dad57e42e86d69]
@startuml
title SingularityNet Java SDK

package io.singularitynet.sdk.ethereum {

    interface WithAddress {
        Address getAddress();
    }

    interface Identity {
        Signature sign(byte[] message);
    }
    WithAddress <|- - Identity

    class PrivateKeyIdentity {
        Credentials getCredentials();
    }
    Identity <|.. PrivateKeyIdentity

    class MnemonicIdentity
    PrivateKeyIdentity <|- - MnemonicIdentity

    class Ethereum {
        BigInteger getEthBlockNumber();
    }

}


package io.singularitynet.sdk.registry {

    interface MetadataStorage {
        byte[] get(URI uri);
    }
    class IpfsMetadataStorage
    MetadataStorage <|.. IpfsMetadataStorage

    class RegistryContract {
        Optional<OrganizationRegistration> getOrganizationById(String orgId);
        Optional<ServiceRegistration> getServiceRegistrationById(String orgId, String serviceId);
    }

    interface MetadataProvider {
        ServiceMetadata getServiceMetadata();
        OrganizationMetadata getOrganizationMetadata();
    }
    class RegistryMetadataProvider
    MetadataProvider <|.. RegistryMetadataProvider
    RegistryMetadataProvider *- - RegistryContract
    RegistryMetadataProvider *- - MetadataStorage

}

package io.singularitynet.sdk.daemon {
    
    interface DaemonConnection {
        <T> T getGrpcStub(Function<Channel, T> constructor);
        void setClientCallsInterceptor(ClientInterceptor interceptor);
        String getEndpointGroupName();
        void shutdownNow();
    }

    class RandomEndpointDaemonConnection
    DaemonConnection <|.. RandomEndpointDaemonConnection
    RandomEndpointDaemonConnection o- - MetadataProvider

    class PaymentChannelStateService {
        PaymentChannelStateReply getChannelState(BigInteger channelId);
    }
    PaymentChannelStateService o- - Identity
    PaymentChannelStateService o- - Ethereum
    PaymentChannelStateService o- - MultiPartyEscrowContract
    PaymentChannelStateService - - DaemonConnection

    interface Payment {
        void toMetadata(Metadata headers);
    }

}

package io.singularitynet.sdk.mpe {
    class MultiPartyEscrowContract {
        Optional<PaymentChannel> getChannelById(BigInteger channelId);
        Address getContractAddress();
        PaymentChannel openChannel(Address signer, Address recipient,\n\tPaymentGroupId groupId, BigInteger value, BigInteger expiration);
        void transfer(Address receiver, BigInteger value);
        Stream<PaymentChannel> getChannelOpenEvents();
        BigInteger channelAddFunds(BigInteger channelId, BigInteger amount);
        BigInteger channelExtend(BigInteger channelId, BigInteger expiration);
        ExtendAndAddFundsResponse channelExtendAndAddFunds(BigInteger channelId,\n\tBigInteger expiration, BigInteger amount);
    }

    interface PaymentChannelStateProvider {
        PaymentChannel getChannelStateById(BigInteger channelId);
    }

    class AskDaemonFirstPaymentChannelProvider
    PaymentChannelStateProvider <|.. AskDaemonFirstPaymentChannelProvider
    AskDaemonFirstPaymentChannelProvider o- - MultiPartyEscrowContract
    AskDaemonFirstPaymentChannelProvider *- - PaymentChannelStateService

    class EscrowPayment
    Payment ()- EscrowPayment

    interface PaymentChannelManager {
        Stream<PaymentChannel> getChannelsAccessibleBy(PaymentGroupId paymentGroupId, WithAddress identity);
        PaymentChannel openPaymentChannel(PaymentGroupId paymentGroupId,\n\tAddress recipient, WithAddress signer, BigInteger value, BigInteger expiration);
        PaymentChannel addFundsToChannel(PaymentChannel channel, BigInteger amount);
        PaymentChannel extendChannel(PaymentChannel channel, BigInteger expiration);
        PaymentChannel extendAndAddFundsToChannel(PaymentChannel channel,\n\tBigInteger expiration, BigInteger amount);
    }

    class MpePaymentChannelManager
    PaymentChannelManager <|.. MpePaymentChannelManager
    MpePaymentChannelManager o- - MultiPartyEscrowContract

}

package io.singularitynet.sdk.client {

    interface Configuration {
        URL getEthereumJsonRpcEndpoint();
        URL getIpfsEndpoint();
        IdentityType getIdentityType();
        Optional<String> getIdentityMnemonic();
        Optional<byte[]> getIdentityPrivateKey();
        Optional<Address> getRegistryAddress();
        Optional<Address> getMultiPartyEscrowAddress();
    }

    class ConfigurationUtils {
        static Configuration fromProperties(Properties props);
        static Configuration fromJson(String json);
    }
    
    ConfigurationUtils - - Configuration

    class StaticConfiguration
    Configuration <|.. StaticConfiguration

    interface DependencyFactory {
        Web3j getWeb3j();
        IPFS getIpfs();
        Identity getIdentity();
        Registry getRegistry();
        MultiPartyEscrow getMultiPartyEscrow();
    }

    class ConfigurationDependencyFactory
    DependencyFactory <|.. ConfigurationDependencyFactory

    interface PaymentStrategy {
        <ReqT, RespT> Payment getPayment(GrpcCallParameters<ReqT, RespT> parameters, ServiceClient serviceClient);
    }

    abstract class EscrowPaymentStrategy {
        protected PaymentChannel selectChannel(ServiceClient serviceClient);
    }
    PaymentStrategy <|.. EscrowPaymentStrategy
    EscrowPaymentStrategy o- - Identity
    EscrowPaymentStrategy o- - PaymentChannelManager

    class FixedPaymentChannelPaymentStrategy
    EscrowPaymentStrategy <|- - FixedPaymentChannelPaymentStrategy
    
    class OnDemandPaymentChannelPaymentStrategy
    EscrowPaymentStrategy <|- - OnDemandPaymentChannelPaymentStrategy
    OnDemandPaymentChannelPaymentStrategy o- - Ethereum

    class Sdk {
        Sdk(Configuration config);
        Sdk(DependencyFactory factory);

        ServiceClient newServiceClient(String orgId, String serviceId, String endpointGroupName, PaymentStrategy paymentStrategy);
        Ethereum getEthereum();
        void transfer(Address toAddress, BigInteger amount);
        Identity getIdentity();
        MetadataProvider getMetadataProvider(String orgId, String serviceId);
        PaymentChannelManager getPaymentChannelManager();
        void shutdown();
    }
    Sdk - - Configuration
    Sdk - - ServiceClient
    Sdk - - DependencyFactory

    interface ServiceClient {
        MetadataProvider getMetadataProvider();
        PaymentChannelStateProvider getPaymentChannelStateProvider();
        T getGrpcStub(Function<Channel, T> constructor);
        String getEndpointGroupName();
        void shutdownNow();
    }

    class BaseServiceClient
    ServiceClient <|.. BaseServiceClient
    BaseServiceClient *- - DaemonConnection
    BaseServiceClient *- - MetadataProvider
    BaseServiceClient *- - PaymentChannelStateProvider
    BaseServiceClient *- - PaymentStrategy

}
@enduml

PlantUML version 1.2020.01beta5(Unknown compile time)
(GPL source distribution)
Java Runtime: Java(TM) SE Runtime Environment
JVM: Java HotSpot(TM) 64-Bit Server VM
Java Version: 1.7.0_25-b15
Operating System: Linux
Default Encoding: UTF-8
Language: en
Country: US
--></g></svg>