<?xml version="1.0" encoding="UTF-8" standalone="no"?>
<svg xmlns="http://www.w3.org/2000/svg" xmlns:xlink="http://www.w3.org/1999/xlink" contentScriptType="application/ecmascript" contentStyleType="text/css" height="1637px" preserveAspectRatio="none" style="width:2654px;height:1637px;" version="1.1" viewBox="0 0 2654 1637" width="2654px" zoomAndPan="magnify"><defs><filter height="300%" id="f8mtzwwlpsg1n" width="300%" x="-1" y="-1"><feGaussianBlur result="blurOut" stdDeviation="2.0"/><feColorMatrix in="blurOut" result="blurOut2" type="matrix" values="0 0 0 0 0 0 0 0 0 0 0 0 0 0 0 0 0 0 .4 0"/><feOffset dx="4.0" dy="4.0" in="blurOut2" result="blurOut3"/><feBlend in="SourceGraphic" in2="blurOut3" mode="normal"/></filter></defs><g><text fill="#000000" font-family="sans-serif" font-size="18" lengthAdjust="spacingAndGlyphs" textLength="213" x="1226.5" y="16.708">SingularityNet Java SDK</text><!--MD5=[c9a0bda5db5f5c41db91654b4e5ef6b4]
cluster io.singularitynet.sdk.ethereum--><polygon fill="#FFFFFF" filter="url(#f8mtzwwlpsg1n)" points="662,767.4531,910,767.4531,917,789.75,920,789.75,920,1269.4531,662,1269.4531,662,767.4531" style="stroke: #000000; stroke-width: 1.5;"/><line style="stroke: #000000; stroke-width: 1.5;" x1="662" x2="917" y1="789.75" y2="789.75"/><text fill="#000000" font-family="sans-serif" font-size="14" font-weight="bold" lengthAdjust="spacingAndGlyphs" textLength="242" x="666" y="782.4482">io.singularitynet.sdk.ethereum</text><!--MD5=[fbeaa37b65443cc49c19f7a5ff8e9e60]
cluster io.singularitynet.sdk.registry--><polygon fill="#FFFFFF" filter="url(#f8mtzwwlpsg1n)" points="1903,1163.9531,2136,1163.9531,2143,1186.25,2632,1186.25,2632,1625.9531,1903,1625.9531,1903,1163.9531" style="stroke: #000000; stroke-width: 1.5;"/><line style="stroke: #000000; stroke-width: 1.5;" x1="1903" x2="2143" y1="1186.25" y2="1186.25"/><text fill="#000000" font-family="sans-serif" font-size="14" font-weight="bold" lengthAdjust="spacingAndGlyphs" textLength="227" x="1907" y="1178.9482">io.singularitynet.sdk.registry</text><!--MD5=[7a4376249cecd8eed7d6851d37ef4d2a]
cluster io.singularitynet.sdk.daemon--><polygon fill="#FFFFFF" filter="url(#f8mtzwwlpsg1n)" points="1546,767.4531,1780,767.4531,1787,789.75,2224,789.75,2224,1139.9531,1546,1139.9531,1546,767.4531" style="stroke: #000000; stroke-width: 1.5;"/><line style="stroke: #000000; stroke-width: 1.5;" x1="1546" x2="1787" y1="789.75" y2="789.75"/><text fill="#000000" font-family="sans-serif" font-size="14" font-weight="bold" lengthAdjust="spacingAndGlyphs" textLength="228" x="1550" y="782.4482">io.singularitynet.sdk.daemon</text><!--MD5=[1cef9e114abc99c09a733caef85cc9b6]
cluster io.singularitynet.sdk.mpe--><polygon fill="#FFFFFF" filter="url(#f8mtzwwlpsg1n)" points="952,523.4531,1157,523.4531,1164,545.75,1522,545.75,1522,885.9531,952,885.9531,952,523.4531" style="stroke: #000000; stroke-width: 1.5;"/><line style="stroke: #000000; stroke-width: 1.5;" x1="952" x2="1164" y1="545.75" y2="545.75"/><text fill="#000000" font-family="sans-serif" font-size="14" font-weight="bold" lengthAdjust="spacingAndGlyphs" textLength="199" x="956" y="538.4482">io.singularitynet.sdk.mpe</text><!--MD5=[20d8be066390a5d4368908ca2ae678f3]
cluster io.singularitynet.sdk.client--><polygon fill="#FFFFFF" filter="url(#f8mtzwwlpsg1n)" points="22,45.4531,236,45.4531,243,67.75,928,67.75,928,743.4531,22,743.4531,22,45.4531" style="stroke: #000000; stroke-width: 1.5;"/><line style="stroke: #000000; stroke-width: 1.5;" x1="22" x2="243" y1="67.75" y2="67.75"/><text fill="#000000" font-family="sans-serif" font-size="14" font-weight="bold" lengthAdjust="spacingAndGlyphs" textLength="208" x="26" y="60.4482">io.singularitynet.sdk.client</text><!--MD5=[02f5c4a709c8c80aaf14170cabfdbf15]
class WithAddress--><rect fill="#FEFECE" filter="url(#f8mtzwwlpsg1n)" height="60.8047" id="WithAddress" style="stroke: #A80036; stroke-width: 1.5;" width="140" x="722" y="802.4531"/><ellipse cx="750.95" cy="818.4531" fill="#B4A7E5" rx="11" ry="11" style="stroke: #A80036; stroke-width: 1.0;"/><path d="M751.9031,815.2344 L751.9031,821.75 L753.6219,821.75 C754.075,821.75 754.2156,821.7813 754.3875,821.9063 C754.6219,822.0781 754.7313,822.3281 754.7313,822.6094 C754.7313,823.1719 754.3719,823.4531 753.6219,823.4531 L748.4813,823.4531 C748.075,823.4531 747.8719,823.4063 747.7156,823.2813 C747.4969,823.125 747.3563,822.8594 747.3563,822.6094 C747.3563,822.3125 747.5125,822.0313 747.7625,821.875 C747.9188,821.7656 748.0438,821.75 748.4813,821.75 L750.2,821.75 L750.2,815.2344 L748.4813,815.2344 C748.0594,815.2344 747.8719,815.2031 747.7156,815.0938 C747.4969,814.9219 747.3563,814.6719 747.3563,814.3906 C747.3563,814.1094 747.5125,813.8125 747.7625,813.6563 C747.9188,813.5625 748.0438,813.5469 748.4813,813.5469 L753.6219,813.5469 C754.075,813.5469 754.2156,813.5781 754.3875,813.6875 C754.6219,813.8594 754.7313,814.125 754.7313,814.3906 C754.7313,814.6875 754.5906,814.9688 754.325,815.125 C754.2,815.2031 754.0125,815.2344 753.6219,815.2344 Z "/><text fill="#000000" font-family="sans-serif" font-size="12" font-style="italic" lengthAdjust="spacingAndGlyphs" textLength="77" x="768.05" y="822.6074">WithAddress</text><line style="stroke: #A80036; stroke-width: 1.5;" x1="723" x2="861" y1="834.4531" y2="834.4531"/><line style="stroke: #A80036; stroke-width: 1.5;" x1="723" x2="861" y1="842.4531" y2="842.4531"/><text fill="#000000" font-family="sans-serif" font-size="11" lengthAdjust="spacingAndGlyphs" textLength="128" x="728" y="856.6636">Address getAddress();</text><!--MD5=[eb5eb01d997468ef8d4f71b3444e5fe9]
class Signer--><rect fill="#FEFECE" filter="url(#f8mtzwwlpsg1n)" height="60.8047" id="Signer" style="stroke: #A80036; stroke-width: 1.5;" width="173" x="722.5" y="942.4531"/><ellipse cx="784.75" cy="958.4531" fill="#B4A7E5" rx="11" ry="11" style="stroke: #A80036; stroke-width: 1.0;"/><path d="M785.7031,955.2344 L785.7031,961.75 L787.4219,961.75 C787.875,961.75 788.0156,961.7813 788.1875,961.9063 C788.4219,962.0781 788.5313,962.3281 788.5313,962.6094 C788.5313,963.1719 788.1719,963.4531 787.4219,963.4531 L782.2813,963.4531 C781.875,963.4531 781.6719,963.4063 781.5156,963.2813 C781.2969,963.125 781.1563,962.8594 781.1563,962.6094 C781.1563,962.3125 781.3125,962.0313 781.5625,961.875 C781.7188,961.7656 781.8438,961.75 782.2813,961.75 L784,961.75 L784,955.2344 L782.2813,955.2344 C781.8594,955.2344 781.6719,955.2031 781.5156,955.0938 C781.2969,954.9219 781.1563,954.6719 781.1563,954.3906 C781.1563,954.1094 781.3125,953.8125 781.5625,953.6563 C781.7188,953.5625 781.8438,953.5469 782.2813,953.5469 L787.4219,953.5469 C787.875,953.5469 788.0156,953.5781 788.1875,953.6875 C788.4219,953.8594 788.5313,954.125 788.5313,954.3906 C788.5313,954.6875 788.3906,954.9688 788.125,955.125 C788,955.2031 787.8125,955.2344 787.4219,955.2344 Z "/><text fill="#000000" font-family="sans-serif" font-size="12" font-style="italic" lengthAdjust="spacingAndGlyphs" textLength="40" x="805.25" y="962.6074">Signer</text><line style="stroke: #A80036; stroke-width: 1.5;" x1="723.5" x2="894.5" y1="974.4531" y2="974.4531"/><line style="stroke: #A80036; stroke-width: 1.5;" x1="723.5" x2="894.5" y1="982.4531" y2="982.4531"/><text fill="#000000" font-family="sans-serif" font-size="11" lengthAdjust="spacingAndGlyphs" textLength="161" x="728.5" y="996.6636">byte[] sign(byte[] message);</text><!--MD5=[b6d80437076b002e054c1b4fb05a77ff]
class PrivateKeyIdentity--><rect fill="#FEFECE" filter="url(#f8mtzwwlpsg1n)" height="48" id="PrivateKeyIdentity" style="stroke: #A80036; stroke-width: 1.5;" width="142" x="738" y="1075.9531"/><ellipse cx="753" cy="1091.9531" fill="#ADD1B2" rx="11" ry="11" style="stroke: #A80036; stroke-width: 1.0;"/><path d="M755.3438,1087.625 L755.5156,1087.7031 C755.7344,1087.3906 755.9375,1087.2969 756.2344,1087.2969 C756.5313,1087.2969 756.8125,1087.4375 756.9688,1087.7031 C757.0625,1087.8594 757.0781,1087.9844 757.0781,1088.4219 L757.0781,1089.8438 C757.0781,1090.2656 757.0469,1090.4531 756.9375,1090.6094 C756.7656,1090.8281 756.5,1090.9688 756.2344,1090.9688 C756.0156,1090.9688 755.7813,1090.8594 755.6406,1090.7188 C755.5,1090.5938 755.4688,1090.4688 755.4063,1090.0625 C755.3125,1089.6563 755.1406,1089.4375 754.6563,1089.1563 C754.1875,1088.9063 753.5781,1088.75 753,1088.75 C751.2656,1088.75 750.0156,1090.0625 750.0156,1091.8438 L750.0156,1092.9375 C750.0156,1094.6406 751.3125,1095.7344 753.3594,1095.7344 C754.125,1095.7344 754.8125,1095.6094 755.2344,1095.3438 C755.4219,1095.25 755.4219,1095.25 755.875,1094.7656 C756.0625,1094.5781 756.2656,1094.5 756.4844,1094.5 C756.9531,1094.5 757.3438,1094.8906 757.3438,1095.3438 C757.3438,1095.7344 757.0156,1096.1875 756.4375,1096.5938 C755.6875,1097.1406 754.5313,1097.4375 753.3125,1097.4375 C750.4219,1097.4375 748.3125,1095.5469 748.3125,1092.9688 L748.3125,1091.8438 C748.3125,1089.125 750.3125,1087.0469 752.9375,1087.0469 C753.8125,1087.0469 754.4063,1087.1875 755.3438,1087.625 Z "/><text fill="#000000" font-family="sans-serif" font-size="12" lengthAdjust="spacingAndGlyphs" textLength="110" x="767" y="1096.1074">PrivateKeyIdentity</text><line style="stroke: #A80036; stroke-width: 1.5;" x1="739" x2="879" y1="1107.9531" y2="1107.9531"/><line style="stroke: #A80036; stroke-width: 1.5;" x1="739" x2="879" y1="1115.9531" y2="1115.9531"/><!--MD5=[0e3850bbd7a0c73dc417b72efd437f75]
class MnemonicIdentity--><rect fill="#FEFECE" filter="url(#f8mtzwwlpsg1n)" height="48" id="MnemonicIdentity" style="stroke: #A80036; stroke-width: 1.5;" width="141" x="738.5" y="1205.4531"/><ellipse cx="753.5" cy="1221.4531" fill="#ADD1B2" rx="11" ry="11" style="stroke: #A80036; stroke-width: 1.0;"/><path d="M755.8438,1217.125 L756.0156,1217.2031 C756.2344,1216.8906 756.4375,1216.7969 756.7344,1216.7969 C757.0313,1216.7969 757.3125,1216.9375 757.4688,1217.2031 C757.5625,1217.3594 757.5781,1217.4844 757.5781,1217.9219 L757.5781,1219.3438 C757.5781,1219.7656 757.5469,1219.9531 757.4375,1220.1094 C757.2656,1220.3281 757,1220.4688 756.7344,1220.4688 C756.5156,1220.4688 756.2813,1220.3594 756.1406,1220.2188 C756,1220.0938 755.9688,1219.9688 755.9063,1219.5625 C755.8125,1219.1563 755.6406,1218.9375 755.1563,1218.6563 C754.6875,1218.4063 754.0781,1218.25 753.5,1218.25 C751.7656,1218.25 750.5156,1219.5625 750.5156,1221.3438 L750.5156,1222.4375 C750.5156,1224.1406 751.8125,1225.2344 753.8594,1225.2344 C754.625,1225.2344 755.3125,1225.1094 755.7344,1224.8438 C755.9219,1224.75 755.9219,1224.75 756.375,1224.2656 C756.5625,1224.0781 756.7656,1224 756.9844,1224 C757.4531,1224 757.8438,1224.3906 757.8438,1224.8438 C757.8438,1225.2344 757.5156,1225.6875 756.9375,1226.0938 C756.1875,1226.6406 755.0313,1226.9375 753.8125,1226.9375 C750.9219,1226.9375 748.8125,1225.0469 748.8125,1222.4688 L748.8125,1221.3438 C748.8125,1218.625 750.8125,1216.5469 753.4375,1216.5469 C754.3125,1216.5469 754.9063,1216.6875 755.8438,1217.125 Z "/><text fill="#000000" font-family="sans-serif" font-size="12" lengthAdjust="spacingAndGlyphs" textLength="109" x="767.5" y="1225.6074">MnemonicIdentity</text><line style="stroke: #A80036; stroke-width: 1.5;" x1="739.5" x2="878.5" y1="1237.4531" y2="1237.4531"/><line style="stroke: #A80036; stroke-width: 1.5;" x1="739.5" x2="878.5" y1="1245.4531" y2="1245.4531"/><!--MD5=[108749fa12a1baf8beb812f2eb0b4ce9]
class MetadataStorage--><rect fill="#FEFECE" filter="url(#f8mtzwwlpsg1n)" height="60.8047" id="MetadataStorage" style="stroke: #A80036; stroke-width: 1.5;" width="142" x="1919" y="1434.4531"/><ellipse cx="1934" cy="1450.4531" fill="#B4A7E5" rx="11" ry="11" style="stroke: #A80036; stroke-width: 1.0;"/><path d="M1934.9531,1447.2344 L1934.9531,1453.75 L1936.6719,1453.75 C1937.125,1453.75 1937.2656,1453.7813 1937.4375,1453.9063 C1937.6719,1454.0781 1937.7813,1454.3281 1937.7813,1454.6094 C1937.7813,1455.1719 1937.4219,1455.4531 1936.6719,1455.4531 L1931.5313,1455.4531 C1931.125,1455.4531 1930.9219,1455.4063 1930.7656,1455.2813 C1930.5469,1455.125 1930.4063,1454.8594 1930.4063,1454.6094 C1930.4063,1454.3125 1930.5625,1454.0313 1930.8125,1453.875 C1930.9688,1453.7656 1931.0938,1453.75 1931.5313,1453.75 L1933.25,1453.75 L1933.25,1447.2344 L1931.5313,1447.2344 C1931.1094,1447.2344 1930.9219,1447.2031 1930.7656,1447.0938 C1930.5469,1446.9219 1930.4063,1446.6719 1930.4063,1446.3906 C1930.4063,1446.1094 1930.5625,1445.8125 1930.8125,1445.6563 C1930.9688,1445.5625 1931.0938,1445.5469 1931.5313,1445.5469 L1936.6719,1445.5469 C1937.125,1445.5469 1937.2656,1445.5781 1937.4375,1445.6875 C1937.6719,1445.8594 1937.7813,1446.125 1937.7813,1446.3906 C1937.7813,1446.6875 1937.6406,1446.9688 1937.375,1447.125 C1937.25,1447.2031 1937.0625,1447.2344 1936.6719,1447.2344 Z "/><text fill="#000000" font-family="sans-serif" font-size="12" font-style="italic" lengthAdjust="spacingAndGlyphs" textLength="110" x="1948" y="1454.6074">MetadataStorage</text><line style="stroke: #A80036; stroke-width: 1.5;" x1="1920" x2="2060" y1="1466.4531" y2="1466.4531"/><line style="stroke: #A80036; stroke-width: 1.5;" x1="1920" x2="2060" y1="1474.4531" y2="1474.4531"/><text fill="#000000" font-family="sans-serif" font-size="11" lengthAdjust="spacingAndGlyphs" textLength="103" x="1925" y="1488.6636">byte[] get(URI uri);</text><!--MD5=[0b8b14870791f9141f0f6a23b1b388b1]
class IpfsMetadataStorage--><rect fill="#FEFECE" filter="url(#f8mtzwwlpsg1n)" height="48" id="IpfsMetadataStorage" style="stroke: #A80036; stroke-width: 1.5;" width="164" x="1919" y="1561.9531"/><ellipse cx="1934" cy="1577.9531" fill="#ADD1B2" rx="11" ry="11" style="stroke: #A80036; stroke-width: 1.0;"/><path d="M1936.3438,1573.625 L1936.5156,1573.7031 C1936.7344,1573.3906 1936.9375,1573.2969 1937.2344,1573.2969 C1937.5313,1573.2969 1937.8125,1573.4375 1937.9688,1573.7031 C1938.0625,1573.8594 1938.0781,1573.9844 1938.0781,1574.4219 L1938.0781,1575.8438 C1938.0781,1576.2656 1938.0469,1576.4531 1937.9375,1576.6094 C1937.7656,1576.8281 1937.5,1576.9688 1937.2344,1576.9688 C1937.0156,1576.9688 1936.7813,1576.8594 1936.6406,1576.7188 C1936.5,1576.5938 1936.4688,1576.4688 1936.4063,1576.0625 C1936.3125,1575.6563 1936.1406,1575.4375 1935.6563,1575.1563 C1935.1875,1574.9063 1934.5781,1574.75 1934,1574.75 C1932.2656,1574.75 1931.0156,1576.0625 1931.0156,1577.8438 L1931.0156,1578.9375 C1931.0156,1580.6406 1932.3125,1581.7344 1934.3594,1581.7344 C1935.125,1581.7344 1935.8125,1581.6094 1936.2344,1581.3438 C1936.4219,1581.25 1936.4219,1581.25 1936.875,1580.7656 C1937.0625,1580.5781 1937.2656,1580.5 1937.4844,1580.5 C1937.9531,1580.5 1938.3438,1580.8906 1938.3438,1581.3438 C1938.3438,1581.7344 1938.0156,1582.1875 1937.4375,1582.5938 C1936.6875,1583.1406 1935.5313,1583.4375 1934.3125,1583.4375 C1931.4219,1583.4375 1929.3125,1581.5469 1929.3125,1578.9688 L1929.3125,1577.8438 C1929.3125,1575.125 1931.3125,1573.0469 1933.9375,1573.0469 C1934.8125,1573.0469 1935.4063,1573.1875 1936.3438,1573.625 Z "/><text fill="#000000" font-family="sans-serif" font-size="12" lengthAdjust="spacingAndGlyphs" textLength="132" x="1948" y="1582.1074">IpfsMetadataStorage</text><line style="stroke: #A80036; stroke-width: 1.5;" x1="1920" x2="2082" y1="1593.9531" y2="1593.9531"/><line style="stroke: #A80036; stroke-width: 1.5;" x1="1920" x2="2082" y1="1601.9531" y2="1601.9531"/><!--MD5=[c96f5c1a2d64b984efda073a5aae009b]
class RegistryContract--><rect fill="#FEFECE" filter="url(#f8mtzwwlpsg1n)" height="73.6094" id="RegistryContract" style="stroke: #A80036; stroke-width: 1.5;" width="519" x="2096.5" y="1427.9531"/><ellipse cx="2299.75" cy="1443.9531" fill="#ADD1B2" rx="11" ry="11" style="stroke: #A80036; stroke-width: 1.0;"/><path d="M2302.0938,1439.625 L2302.2656,1439.7031 C2302.4844,1439.3906 2302.6875,1439.2969 2302.9844,1439.2969 C2303.2813,1439.2969 2303.5625,1439.4375 2303.7188,1439.7031 C2303.8125,1439.8594 2303.8281,1439.9844 2303.8281,1440.4219 L2303.8281,1441.8438 C2303.8281,1442.2656 2303.7969,1442.4531 2303.6875,1442.6094 C2303.5156,1442.8281 2303.25,1442.9688 2302.9844,1442.9688 C2302.7656,1442.9688 2302.5313,1442.8594 2302.3906,1442.7188 C2302.25,1442.5938 2302.2188,1442.4688 2302.1563,1442.0625 C2302.0625,1441.6563 2301.8906,1441.4375 2301.4063,1441.1563 C2300.9375,1440.9063 2300.3281,1440.75 2299.75,1440.75 C2298.0156,1440.75 2296.7656,1442.0625 2296.7656,1443.8438 L2296.7656,1444.9375 C2296.7656,1446.6406 2298.0625,1447.7344 2300.1094,1447.7344 C2300.875,1447.7344 2301.5625,1447.6094 2301.9844,1447.3438 C2302.1719,1447.25 2302.1719,1447.25 2302.625,1446.7656 C2302.8125,1446.5781 2303.0156,1446.5 2303.2344,1446.5 C2303.7031,1446.5 2304.0938,1446.8906 2304.0938,1447.3438 C2304.0938,1447.7344 2303.7656,1448.1875 2303.1875,1448.5938 C2302.4375,1449.1406 2301.2813,1449.4375 2300.0625,1449.4375 C2297.1719,1449.4375 2295.0625,1447.5469 2295.0625,1444.9688 L2295.0625,1443.8438 C2295.0625,1441.125 2297.0625,1439.0469 2299.6875,1439.0469 C2300.5625,1439.0469 2301.1563,1439.1875 2302.0938,1439.625 Z "/><text fill="#000000" font-family="sans-serif" font-size="12" lengthAdjust="spacingAndGlyphs" textLength="104" x="2320.25" y="1448.1074">RegistryContract</text><line style="stroke: #A80036; stroke-width: 1.5;" x1="2097.5" x2="2614.5" y1="1459.9531" y2="1459.9531"/><line style="stroke: #A80036; stroke-width: 1.5;" x1="2097.5" x2="2614.5" y1="1467.9531" y2="1467.9531"/><text fill="#000000" font-family="sans-serif" font-size="11" lengthAdjust="spacingAndGlyphs" textLength="400" x="2102.5" y="1482.1636">Optional&lt;OrganizationRegistration&gt; getOrganizationById(String orgId);</text><text fill="#000000" font-family="sans-serif" font-size="11" lengthAdjust="spacingAndGlyphs" textLength="507" x="2102.5" y="1494.9683">Optional&lt;ServiceRegistration&gt; getServiceRegistrationById(String orgId, String serviceId);</text><!--MD5=[7de846d6b480f97ff8e018abb55faf3d]
class MetadataProvider--><rect fill="#FEFECE" filter="url(#f8mtzwwlpsg1n)" height="60.8047" id="MetadataProvider" style="stroke: #A80036; stroke-width: 1.5;" width="234" x="2079" y="1198.9531"/><ellipse cx="2136.75" cy="1214.9531" fill="#B4A7E5" rx="11" ry="11" style="stroke: #A80036; stroke-width: 1.0;"/><path d="M2137.7031,1211.7344 L2137.7031,1218.25 L2139.4219,1218.25 C2139.875,1218.25 2140.0156,1218.2813 2140.1875,1218.4063 C2140.4219,1218.5781 2140.5313,1218.8281 2140.5313,1219.1094 C2140.5313,1219.6719 2140.1719,1219.9531 2139.4219,1219.9531 L2134.2813,1219.9531 C2133.875,1219.9531 2133.6719,1219.9063 2133.5156,1219.7813 C2133.2969,1219.625 2133.1563,1219.3594 2133.1563,1219.1094 C2133.1563,1218.8125 2133.3125,1218.5313 2133.5625,1218.375 C2133.7188,1218.2656 2133.8438,1218.25 2134.2813,1218.25 L2136,1218.25 L2136,1211.7344 L2134.2813,1211.7344 C2133.8594,1211.7344 2133.6719,1211.7031 2133.5156,1211.5938 C2133.2969,1211.4219 2133.1563,1211.1719 2133.1563,1210.8906 C2133.1563,1210.6094 2133.3125,1210.3125 2133.5625,1210.1563 C2133.7188,1210.0625 2133.8438,1210.0469 2134.2813,1210.0469 L2139.4219,1210.0469 C2139.875,1210.0469 2140.0156,1210.0781 2140.1875,1210.1875 C2140.4219,1210.3594 2140.5313,1210.625 2140.5313,1210.8906 C2140.5313,1211.1875 2140.3906,1211.4688 2140.125,1211.625 C2140,1211.7031 2139.8125,1211.7344 2139.4219,1211.7344 Z "/><text fill="#000000" font-family="sans-serif" font-size="12" font-style="italic" lengthAdjust="spacingAndGlyphs" textLength="110" x="2157.25" y="1219.1074">MetadataProvider</text><line style="stroke: #A80036; stroke-width: 1.5;" x1="2080" x2="2312" y1="1230.9531" y2="1230.9531"/><line style="stroke: #A80036; stroke-width: 1.5;" x1="2080" x2="2312" y1="1238.9531" y2="1238.9531"/><text fill="#000000" font-family="sans-serif" font-size="11" lengthAdjust="spacingAndGlyphs" textLength="222" x="2085" y="1253.1636">ServiceMetadata getServiceMetadata();</text><!--MD5=[7d6c47076f660fce1d354ac67d286524]
class RegistryMetadataProvider--><rect fill="#FEFECE" filter="url(#f8mtzwwlpsg1n)" height="48" id="RegistryMetadataProvider" style="stroke: #A80036; stroke-width: 1.5;" width="193" x="2099.5" y="1319.9531"/><ellipse cx="2114.5" cy="1335.9531" fill="#ADD1B2" rx="11" ry="11" style="stroke: #A80036; stroke-width: 1.0;"/><path d="M2116.8438,1331.625 L2117.0156,1331.7031 C2117.2344,1331.3906 2117.4375,1331.2969 2117.7344,1331.2969 C2118.0313,1331.2969 2118.3125,1331.4375 2118.4688,1331.7031 C2118.5625,1331.8594 2118.5781,1331.9844 2118.5781,1332.4219 L2118.5781,1333.8438 C2118.5781,1334.2656 2118.5469,1334.4531 2118.4375,1334.6094 C2118.2656,1334.8281 2118,1334.9688 2117.7344,1334.9688 C2117.5156,1334.9688 2117.2813,1334.8594 2117.1406,1334.7188 C2117,1334.5938 2116.9688,1334.4688 2116.9063,1334.0625 C2116.8125,1333.6563 2116.6406,1333.4375 2116.1563,1333.1563 C2115.6875,1332.9063 2115.0781,1332.75 2114.5,1332.75 C2112.7656,1332.75 2111.5156,1334.0625 2111.5156,1335.8438 L2111.5156,1336.9375 C2111.5156,1338.6406 2112.8125,1339.7344 2114.8594,1339.7344 C2115.625,1339.7344 2116.3125,1339.6094 2116.7344,1339.3438 C2116.9219,1339.25 2116.9219,1339.25 2117.375,1338.7656 C2117.5625,1338.5781 2117.7656,1338.5 2117.9844,1338.5 C2118.4531,1338.5 2118.8438,1338.8906 2118.8438,1339.3438 C2118.8438,1339.7344 2118.5156,1340.1875 2117.9375,1340.5938 C2117.1875,1341.1406 2116.0313,1341.4375 2114.8125,1341.4375 C2111.9219,1341.4375 2109.8125,1339.5469 2109.8125,1336.9688 L2109.8125,1335.8438 C2109.8125,1333.125 2111.8125,1331.0469 2114.4375,1331.0469 C2115.3125,1331.0469 2115.9063,1331.1875 2116.8438,1331.625 Z "/><text fill="#000000" font-family="sans-serif" font-size="12" lengthAdjust="spacingAndGlyphs" textLength="161" x="2128.5" y="1340.1074">RegistryMetadataProvider</text><line style="stroke: #A80036; stroke-width: 1.5;" x1="2100.5" x2="2291.5" y1="1351.9531" y2="1351.9531"/><line style="stroke: #A80036; stroke-width: 1.5;" x1="2100.5" x2="2291.5" y1="1359.9531" y2="1359.9531"/><!--MD5=[06bc73c308419be41e333edfccb18056]
class DaemonConnection--><rect fill="#FEFECE" filter="url(#f8mtzwwlpsg1n)" height="86.4141" id="DaemonConnection" style="stroke: #A80036; stroke-width: 1.5;" width="351" x="1856.5" y="929.9531"/><ellipse cx="1966.25" cy="945.9531" fill="#B4A7E5" rx="11" ry="11" style="stroke: #A80036; stroke-width: 1.0;"/><path d="M1967.2031,942.7344 L1967.2031,949.25 L1968.9219,949.25 C1969.375,949.25 1969.5156,949.2813 1969.6875,949.4063 C1969.9219,949.5781 1970.0313,949.8281 1970.0313,950.1094 C1970.0313,950.6719 1969.6719,950.9531 1968.9219,950.9531 L1963.7813,950.9531 C1963.375,950.9531 1963.1719,950.9063 1963.0156,950.7813 C1962.7969,950.625 1962.6563,950.3594 1962.6563,950.1094 C1962.6563,949.8125 1962.8125,949.5313 1963.0625,949.375 C1963.2188,949.2656 1963.3438,949.25 1963.7813,949.25 L1965.5,949.25 L1965.5,942.7344 L1963.7813,942.7344 C1963.3594,942.7344 1963.1719,942.7031 1963.0156,942.5938 C1962.7969,942.4219 1962.6563,942.1719 1962.6563,941.8906 C1962.6563,941.6094 1962.8125,941.3125 1963.0625,941.1563 C1963.2188,941.0625 1963.3438,941.0469 1963.7813,941.0469 L1968.9219,941.0469 C1969.375,941.0469 1969.5156,941.0781 1969.6875,941.1875 C1969.9219,941.3594 1970.0313,941.625 1970.0313,941.8906 C1970.0313,942.1875 1969.8906,942.4688 1969.625,942.625 C1969.5,942.7031 1969.3125,942.7344 1968.9219,942.7344 Z "/><text fill="#000000" font-family="sans-serif" font-size="12" font-style="italic" lengthAdjust="spacingAndGlyphs" textLength="123" x="1986.75" y="950.1074">DaemonConnection</text><line style="stroke: #A80036; stroke-width: 1.5;" x1="1857.5" x2="2206.5" y1="961.9531" y2="961.9531"/><line style="stroke: #A80036; stroke-width: 1.5;" x1="1857.5" x2="2206.5" y1="969.9531" y2="969.9531"/><text fill="#000000" font-family="sans-serif" font-size="11" lengthAdjust="spacingAndGlyphs" textLength="318" x="1862.5" y="984.1636">&lt;T&gt; T getGrpcStub(Function&lt;Channel, T&gt; constructor);</text><text fill="#000000" font-family="sans-serif" font-size="11" lengthAdjust="spacingAndGlyphs" textLength="339" x="1862.5" y="996.9683">void setClientCallsInterceptor(ClientInterceptor interceptor);</text><text fill="#000000" font-family="sans-serif" font-size="11" lengthAdjust="spacingAndGlyphs" textLength="118" x="1862.5" y="1009.7729">void shutdownNow();</text><!--MD5=[297291980de3643661061590a47a5f7c]
class FirstEndpointDaemonConnection--><rect fill="#FEFECE" filter="url(#f8mtzwwlpsg1n)" height="48" id="FirstEndpointDaemonConnection" style="stroke: #A80036; stroke-width: 1.5;" width="238" x="1941" y="1075.9531"/><ellipse cx="1956" cy="1091.9531" fill="#ADD1B2" rx="11" ry="11" style="stroke: #A80036; stroke-width: 1.0;"/><path d="M1958.3438,1087.625 L1958.5156,1087.7031 C1958.7344,1087.3906 1958.9375,1087.2969 1959.2344,1087.2969 C1959.5313,1087.2969 1959.8125,1087.4375 1959.9688,1087.7031 C1960.0625,1087.8594 1960.0781,1087.9844 1960.0781,1088.4219 L1960.0781,1089.8438 C1960.0781,1090.2656 1960.0469,1090.4531 1959.9375,1090.6094 C1959.7656,1090.8281 1959.5,1090.9688 1959.2344,1090.9688 C1959.0156,1090.9688 1958.7813,1090.8594 1958.6406,1090.7188 C1958.5,1090.5938 1958.4688,1090.4688 1958.4063,1090.0625 C1958.3125,1089.6563 1958.1406,1089.4375 1957.6563,1089.1563 C1957.1875,1088.9063 1956.5781,1088.75 1956,1088.75 C1954.2656,1088.75 1953.0156,1090.0625 1953.0156,1091.8438 L1953.0156,1092.9375 C1953.0156,1094.6406 1954.3125,1095.7344 1956.3594,1095.7344 C1957.125,1095.7344 1957.8125,1095.6094 1958.2344,1095.3438 C1958.4219,1095.25 1958.4219,1095.25 1958.875,1094.7656 C1959.0625,1094.5781 1959.2656,1094.5 1959.4844,1094.5 C1959.9531,1094.5 1960.3438,1094.8906 1960.3438,1095.3438 C1960.3438,1095.7344 1960.0156,1096.1875 1959.4375,1096.5938 C1958.6875,1097.1406 1957.5313,1097.4375 1956.3125,1097.4375 C1953.4219,1097.4375 1951.3125,1095.5469 1951.3125,1092.9688 L1951.3125,1091.8438 C1951.3125,1089.125 1953.3125,1087.0469 1955.9375,1087.0469 C1956.8125,1087.0469 1957.4063,1087.1875 1958.3438,1087.625 Z "/><text fill="#000000" font-family="sans-serif" font-size="12" lengthAdjust="spacingAndGlyphs" textLength="206" x="1970" y="1096.1074">FirstEndpointDaemonConnection</text><line style="stroke: #A80036; stroke-width: 1.5;" x1="1942" x2="2178" y1="1107.9531" y2="1107.9531"/><line style="stroke: #A80036; stroke-width: 1.5;" x1="1942" x2="2178" y1="1115.9531" y2="1115.9531"/><!--MD5=[49163365a2d8a8492303b83ddbd98154]
class PaymentChannelStateService--><rect fill="#FEFECE" filter="url(#f8mtzwwlpsg1n)" height="60.8047" id="PaymentChannelStateService" style="stroke: #A80036; stroke-width: 1.5;" width="393" x="1814.5" y="802.4531"/><ellipse cx="1914.75" cy="818.4531" fill="#ADD1B2" rx="11" ry="11" style="stroke: #A80036; stroke-width: 1.0;"/><path d="M1917.0938,814.125 L1917.2656,814.2031 C1917.4844,813.8906 1917.6875,813.7969 1917.9844,813.7969 C1918.2813,813.7969 1918.5625,813.9375 1918.7188,814.2031 C1918.8125,814.3594 1918.8281,814.4844 1918.8281,814.9219 L1918.8281,816.3438 C1918.8281,816.7656 1918.7969,816.9531 1918.6875,817.1094 C1918.5156,817.3281 1918.25,817.4688 1917.9844,817.4688 C1917.7656,817.4688 1917.5313,817.3594 1917.3906,817.2188 C1917.25,817.0938 1917.2188,816.9688 1917.1563,816.5625 C1917.0625,816.1563 1916.8906,815.9375 1916.4063,815.6563 C1915.9375,815.4063 1915.3281,815.25 1914.75,815.25 C1913.0156,815.25 1911.7656,816.5625 1911.7656,818.3438 L1911.7656,819.4375 C1911.7656,821.1406 1913.0625,822.2344 1915.1094,822.2344 C1915.875,822.2344 1916.5625,822.1094 1916.9844,821.8438 C1917.1719,821.75 1917.1719,821.75 1917.625,821.2656 C1917.8125,821.0781 1918.0156,821 1918.2344,821 C1918.7031,821 1919.0938,821.3906 1919.0938,821.8438 C1919.0938,822.2344 1918.7656,822.6875 1918.1875,823.0938 C1917.4375,823.6406 1916.2813,823.9375 1915.0625,823.9375 C1912.1719,823.9375 1910.0625,822.0469 1910.0625,819.4688 L1910.0625,818.3438 C1910.0625,815.625 1912.0625,813.5469 1914.6875,813.5469 C1915.5625,813.5469 1916.1563,813.6875 1917.0938,814.125 Z "/><text fill="#000000" font-family="sans-serif" font-size="12" lengthAdjust="spacingAndGlyphs" textLength="184" x="1935.25" y="822.6074">PaymentChannelStateService</text><line style="stroke: #A80036; stroke-width: 1.5;" x1="1815.5" x2="2206.5" y1="834.4531" y2="834.4531"/><line style="stroke: #A80036; stroke-width: 1.5;" x1="1815.5" x2="2206.5" y1="842.4531" y2="842.4531"/><text fill="#000000" font-family="sans-serif" font-size="11" lengthAdjust="spacingAndGlyphs" textLength="381" x="1820.5" y="856.6636">PaymentChannelStateReply getChannelState(BigInteger channelId);</text><!--MD5=[764fca796ce7f635542948d8fc39db5e]
class Payment--><rect fill="#FEFECE" filter="url(#f8mtzwwlpsg1n)" height="60.8047" id="Payment" style="stroke: #A80036; stroke-width: 1.5;" width="217" x="1562.5" y="802.4531"/><ellipse cx="1639.75" cy="818.4531" fill="#B4A7E5" rx="11" ry="11" style="stroke: #A80036; stroke-width: 1.0;"/><path d="M1640.7031,815.2344 L1640.7031,821.75 L1642.4219,821.75 C1642.875,821.75 1643.0156,821.7813 1643.1875,821.9063 C1643.4219,822.0781 1643.5313,822.3281 1643.5313,822.6094 C1643.5313,823.1719 1643.1719,823.4531 1642.4219,823.4531 L1637.2813,823.4531 C1636.875,823.4531 1636.6719,823.4063 1636.5156,823.2813 C1636.2969,823.125 1636.1563,822.8594 1636.1563,822.6094 C1636.1563,822.3125 1636.3125,822.0313 1636.5625,821.875 C1636.7188,821.7656 1636.8438,821.75 1637.2813,821.75 L1639,821.75 L1639,815.2344 L1637.2813,815.2344 C1636.8594,815.2344 1636.6719,815.2031 1636.5156,815.0938 C1636.2969,814.9219 1636.1563,814.6719 1636.1563,814.3906 C1636.1563,814.1094 1636.3125,813.8125 1636.5625,813.6563 C1636.7188,813.5625 1636.8438,813.5469 1637.2813,813.5469 L1642.4219,813.5469 C1642.875,813.5469 1643.0156,813.5781 1643.1875,813.6875 C1643.4219,813.8594 1643.5313,814.125 1643.5313,814.3906 C1643.5313,814.6875 1643.3906,814.9688 1643.125,815.125 C1643,815.2031 1642.8125,815.2344 1642.4219,815.2344 Z "/><text fill="#000000" font-family="sans-serif" font-size="12" font-style="italic" lengthAdjust="spacingAndGlyphs" textLength="54" x="1660.25" y="822.6074">Payment</text><line style="stroke: #A80036; stroke-width: 1.5;" x1="1563.5" x2="1778.5" y1="834.4531" y2="834.4531"/><line style="stroke: #A80036; stroke-width: 1.5;" x1="1563.5" x2="1778.5" y1="842.4531" y2="842.4531"/><text fill="#000000" font-family="sans-serif" font-size="11" lengthAdjust="spacingAndGlyphs" textLength="205" x="1568.5" y="856.6636">void toMetadata(Metadata headers);</text><!--MD5=[21705c80423a45734a535470c58d7091]
class MultiPartyEscrowContract--><rect fill="#FEFECE" filter="url(#f8mtzwwlpsg1n)" height="73.6094" id="MultiPartyEscrowContract" style="stroke: #A80036; stroke-width: 1.5;" width="392" x="1041" y="795.9531"/><ellipse cx="1153.25" cy="811.9531" fill="#ADD1B2" rx="11" ry="11" style="stroke: #A80036; stroke-width: 1.0;"/><path d="M1155.5938,807.625 L1155.7656,807.7031 C1155.9844,807.3906 1156.1875,807.2969 1156.4844,807.2969 C1156.7813,807.2969 1157.0625,807.4375 1157.2188,807.7031 C1157.3125,807.8594 1157.3281,807.9844 1157.3281,808.4219 L1157.3281,809.8438 C1157.3281,810.2656 1157.2969,810.4531 1157.1875,810.6094 C1157.0156,810.8281 1156.75,810.9688 1156.4844,810.9688 C1156.2656,810.9688 1156.0313,810.8594 1155.8906,810.7188 C1155.75,810.5938 1155.7188,810.4688 1155.6563,810.0625 C1155.5625,809.6563 1155.3906,809.4375 1154.9063,809.1563 C1154.4375,808.9063 1153.8281,808.75 1153.25,808.75 C1151.5156,808.75 1150.2656,810.0625 1150.2656,811.8438 L1150.2656,812.9375 C1150.2656,814.6406 1151.5625,815.7344 1153.6094,815.7344 C1154.375,815.7344 1155.0625,815.6094 1155.4844,815.3438 C1155.6719,815.25 1155.6719,815.25 1156.125,814.7656 C1156.3125,814.5781 1156.5156,814.5 1156.7344,814.5 C1157.2031,814.5 1157.5938,814.8906 1157.5938,815.3438 C1157.5938,815.7344 1157.2656,816.1875 1156.6875,816.5938 C1155.9375,817.1406 1154.7813,817.4375 1153.5625,817.4375 C1150.6719,817.4375 1148.5625,815.5469 1148.5625,812.9688 L1148.5625,811.8438 C1148.5625,809.125 1150.5625,807.0469 1153.1875,807.0469 C1154.0625,807.0469 1154.6563,807.1875 1155.5938,807.625 Z "/><text fill="#000000" font-family="sans-serif" font-size="12" lengthAdjust="spacingAndGlyphs" textLength="159" x="1173.75" y="816.1074">MultiPartyEscrowContract</text><line style="stroke: #A80036; stroke-width: 1.5;" x1="1042" x2="1432" y1="827.9531" y2="827.9531"/><line style="stroke: #A80036; stroke-width: 1.5;" x1="1042" x2="1432" y1="835.9531" y2="835.9531"/><text fill="#000000" font-family="sans-serif" font-size="11" lengthAdjust="spacingAndGlyphs" textLength="380" x="1047" y="850.1636">Optional&lt;PaymentChannel&gt; getChannelById(BigInteger channelId);</text><text fill="#000000" font-family="sans-serif" font-size="11" lengthAdjust="spacingAndGlyphs" textLength="176" x="1047" y="862.9683">Address getContractAddress();</text><!--MD5=[0f4558827744cf1cee3afe858bb9a127]
class PaymentChannelProvider--><rect fill="#FEFECE" filter="url(#f8mtzwwlpsg1n)" height="60.8047" id="PaymentChannelProvider" style="stroke: #A80036; stroke-width: 1.5;" width="327" x="968.5" y="558.4531"/><ellipse cx="1050.25" cy="574.4531" fill="#B4A7E5" rx="11" ry="11" style="stroke: #A80036; stroke-width: 1.0;"/><path d="M1051.2031,571.2344 L1051.2031,577.75 L1052.9219,577.75 C1053.375,577.75 1053.5156,577.7813 1053.6875,577.9063 C1053.9219,578.0781 1054.0313,578.3281 1054.0313,578.6094 C1054.0313,579.1719 1053.6719,579.4531 1052.9219,579.4531 L1047.7813,579.4531 C1047.375,579.4531 1047.1719,579.4063 1047.0156,579.2813 C1046.7969,579.125 1046.6563,578.8594 1046.6563,578.6094 C1046.6563,578.3125 1046.8125,578.0313 1047.0625,577.875 C1047.2188,577.7656 1047.3438,577.75 1047.7813,577.75 L1049.5,577.75 L1049.5,571.2344 L1047.7813,571.2344 C1047.3594,571.2344 1047.1719,571.2031 1047.0156,571.0938 C1046.7969,570.9219 1046.6563,570.6719 1046.6563,570.3906 C1046.6563,570.1094 1046.8125,569.8125 1047.0625,569.6563 C1047.2188,569.5625 1047.3438,569.5469 1047.7813,569.5469 L1052.9219,569.5469 C1053.375,569.5469 1053.5156,569.5781 1053.6875,569.6875 C1053.9219,569.8594 1054.0313,570.125 1054.0313,570.3906 C1054.0313,570.6875 1053.8906,570.9688 1053.625,571.125 C1053.5,571.2031 1053.3125,571.2344 1052.9219,571.2344 Z "/><text fill="#000000" font-family="sans-serif" font-size="12" font-style="italic" lengthAdjust="spacingAndGlyphs" textLength="155" x="1070.75" y="578.6074">PaymentChannelProvider</text><line style="stroke: #A80036; stroke-width: 1.5;" x1="969.5" x2="1294.5" y1="590.4531" y2="590.4531"/><line style="stroke: #A80036; stroke-width: 1.5;" x1="969.5" x2="1294.5" y1="598.4531" y2="598.4531"/><text fill="#000000" font-family="sans-serif" font-size="11" lengthAdjust="spacingAndGlyphs" textLength="315" x="974.5" y="612.6636">PaymentChannel getChannelById(BigInteger channelId);</text><!--MD5=[07b5ccda0566067c4cd653ad8d5fc568]
class AskDaemonFirstPaymentChannelProvider--><rect fill="#FEFECE" filter="url(#f8mtzwwlpsg1n)" height="48" id="AskDaemonFirstPaymentChannelProvider" style="stroke: #A80036; stroke-width: 1.5;" width="289" x="1092.5" y="679.4531"/><ellipse cx="1107.5" cy="695.4531" fill="#ADD1B2" rx="11" ry="11" style="stroke: #A80036; stroke-width: 1.0;"/><path d="M1109.8438,691.125 L1110.0156,691.2031 C1110.2344,690.8906 1110.4375,690.7969 1110.7344,690.7969 C1111.0313,690.7969 1111.3125,690.9375 1111.4688,691.2031 C1111.5625,691.3594 1111.5781,691.4844 1111.5781,691.9219 L1111.5781,693.3438 C1111.5781,693.7656 1111.5469,693.9531 1111.4375,694.1094 C1111.2656,694.3281 1111,694.4688 1110.7344,694.4688 C1110.5156,694.4688 1110.2813,694.3594 1110.1406,694.2188 C1110,694.0938 1109.9688,693.9688 1109.9063,693.5625 C1109.8125,693.1563 1109.6406,692.9375 1109.1563,692.6563 C1108.6875,692.4063 1108.0781,692.25 1107.5,692.25 C1105.7656,692.25 1104.5156,693.5625 1104.5156,695.3438 L1104.5156,696.4375 C1104.5156,698.1406 1105.8125,699.2344 1107.8594,699.2344 C1108.625,699.2344 1109.3125,699.1094 1109.7344,698.8438 C1109.9219,698.75 1109.9219,698.75 1110.375,698.2656 C1110.5625,698.0781 1110.7656,698 1110.9844,698 C1111.4531,698 1111.8438,698.3906 1111.8438,698.8438 C1111.8438,699.2344 1111.5156,699.6875 1110.9375,700.0938 C1110.1875,700.6406 1109.0313,700.9375 1107.8125,700.9375 C1104.9219,700.9375 1102.8125,699.0469 1102.8125,696.4688 L1102.8125,695.3438 C1102.8125,692.625 1104.8125,690.5469 1107.4375,690.5469 C1108.3125,690.5469 1108.9063,690.6875 1109.8438,691.125 Z "/><text fill="#000000" font-family="sans-serif" font-size="12" lengthAdjust="spacingAndGlyphs" textLength="257" x="1121.5" y="699.6074">AskDaemonFirstPaymentChannelProvider</text><line style="stroke: #A80036; stroke-width: 1.5;" x1="1093.5" x2="1380.5" y1="711.4531" y2="711.4531"/><line style="stroke: #A80036; stroke-width: 1.5;" x1="1093.5" x2="1380.5" y1="719.4531" y2="719.4531"/><!--MD5=[5c8ce949bc8c9f89b0b30c1e80feca4d]
class EscrowPayment--><rect fill="#FEFECE" filter="url(#f8mtzwwlpsg1n)" height="48" id="EscrowPayment" style="stroke: #A80036; stroke-width: 1.5;" width="130" x="1376" y="564.9531"/><ellipse cx="1391" cy="580.9531" fill="#ADD1B2" rx="11" ry="11" style="stroke: #A80036; stroke-width: 1.0;"/><path d="M1393.3438,576.625 L1393.5156,576.7031 C1393.7344,576.3906 1393.9375,576.2969 1394.2344,576.2969 C1394.5313,576.2969 1394.8125,576.4375 1394.9688,576.7031 C1395.0625,576.8594 1395.0781,576.9844 1395.0781,577.4219 L1395.0781,578.8438 C1395.0781,579.2656 1395.0469,579.4531 1394.9375,579.6094 C1394.7656,579.8281 1394.5,579.9688 1394.2344,579.9688 C1394.0156,579.9688 1393.7813,579.8594 1393.6406,579.7188 C1393.5,579.5938 1393.4688,579.4688 1393.4063,579.0625 C1393.3125,578.6563 1393.1406,578.4375 1392.6563,578.1563 C1392.1875,577.9063 1391.5781,577.75 1391,577.75 C1389.2656,577.75 1388.0156,579.0625 1388.0156,580.8438 L1388.0156,581.9375 C1388.0156,583.6406 1389.3125,584.7344 1391.3594,584.7344 C1392.125,584.7344 1392.8125,584.6094 1393.2344,584.3438 C1393.4219,584.25 1393.4219,584.25 1393.875,583.7656 C1394.0625,583.5781 1394.2656,583.5 1394.4844,583.5 C1394.9531,583.5 1395.3438,583.8906 1395.3438,584.3438 C1395.3438,584.7344 1395.0156,585.1875 1394.4375,585.5938 C1393.6875,586.1406 1392.5313,586.4375 1391.3125,586.4375 C1388.4219,586.4375 1386.3125,584.5469 1386.3125,581.9688 L1386.3125,580.8438 C1386.3125,578.125 1388.3125,576.0469 1390.9375,576.0469 C1391.8125,576.0469 1392.4063,576.1875 1393.3438,576.625 Z "/><text fill="#000000" font-family="sans-serif" font-size="12" lengthAdjust="spacingAndGlyphs" textLength="98" x="1405" y="585.1074">EscrowPayment</text><line style="stroke: #A80036; stroke-width: 1.5;" x1="1377" x2="1505" y1="596.9531" y2="596.9531"/><line style="stroke: #A80036; stroke-width: 1.5;" x1="1377" x2="1505" y1="604.9531" y2="604.9531"/><ellipse cx="1336" cy="588.9531" fill="#FEFECE" filter="url(#f8mtzwwlpsg1n)" rx="5" ry="5" style="stroke: #A80036; stroke-width: 1.5;"/><text fill="#000000" font-family="sans-serif" font-size="12" lengthAdjust="spacingAndGlyphs" textLength="54" x="1309" y="605.0918">Payment</text><!--MD5=[9b7eb76f801c309757ef5968cb2349d9]
class Configuration--><rect fill="#FEFECE" filter="url(#f8mtzwwlpsg1n)" height="137.6328" id="Configuration" style="stroke: #A80036; stroke-width: 1.5;" width="236" x="38" y="252.4531"/><ellipse cx="109.75" cy="268.4531" fill="#B4A7E5" rx="11" ry="11" style="stroke: #A80036; stroke-width: 1.0;"/><path d="M110.7031,265.2344 L110.7031,271.75 L112.4219,271.75 C112.875,271.75 113.0156,271.7813 113.1875,271.9063 C113.4219,272.0781 113.5313,272.3281 113.5313,272.6094 C113.5313,273.1719 113.1719,273.4531 112.4219,273.4531 L107.2813,273.4531 C106.875,273.4531 106.6719,273.4063 106.5156,273.2813 C106.2969,273.125 106.1563,272.8594 106.1563,272.6094 C106.1563,272.3125 106.3125,272.0313 106.5625,271.875 C106.7188,271.7656 106.8438,271.75 107.2813,271.75 L109,271.75 L109,265.2344 L107.2813,265.2344 C106.8594,265.2344 106.6719,265.2031 106.5156,265.0938 C106.2969,264.9219 106.1563,264.6719 106.1563,264.3906 C106.1563,264.1094 106.3125,263.8125 106.5625,263.6563 C106.7188,263.5625 106.8438,263.5469 107.2813,263.5469 L112.4219,263.5469 C112.875,263.5469 113.0156,263.5781 113.1875,263.6875 C113.4219,263.8594 113.5313,264.125 113.5313,264.3906 C113.5313,264.6875 113.3906,264.9688 113.125,265.125 C113,265.2031 112.8125,265.2344 112.4219,265.2344 Z "/><text fill="#000000" font-family="sans-serif" font-size="12" font-style="italic" lengthAdjust="spacingAndGlyphs" textLength="84" x="130.25" y="272.6074">Configuration</text><line style="stroke: #A80036; stroke-width: 1.5;" x1="39" x2="273" y1="284.4531" y2="284.4531"/><line style="stroke: #A80036; stroke-width: 1.5;" x1="39" x2="273" y1="292.4531" y2="292.4531"/><text fill="#000000" font-family="sans-serif" font-size="11" lengthAdjust="spacingAndGlyphs" textLength="216" x="44" y="306.6636">String getEthereumJsonRpcEndpoint();</text><text fill="#000000" font-family="sans-serif" font-size="11" lengthAdjust="spacingAndGlyphs" textLength="92" x="44" y="319.4683">URL getIpfsUrl();</text><text fill="#000000" font-family="sans-serif" font-size="11" lengthAdjust="spacingAndGlyphs" textLength="162" x="44" y="332.2729">SignerType getSignerType();</text><text fill="#000000" font-family="sans-serif" font-size="11" lengthAdjust="spacingAndGlyphs" textLength="162" x="44" y="345.0776">String getSignerMnemonic();</text><text fill="#000000" font-family="sans-serif" font-size="11" lengthAdjust="spacingAndGlyphs" textLength="162" x="44" y="357.8823">byte[] getSignerPrivateKey();</text><text fill="#000000" font-family="sans-serif" font-size="11" lengthAdjust="spacingAndGlyphs" textLength="174" x="44" y="370.687">Address getRegistryAddress();</text><text fill="#000000" font-family="sans-serif" font-size="11" lengthAdjust="spacingAndGlyphs" textLength="224" x="44" y="383.4917">Address getMultiPartyEscrowAddress();</text><!--MD5=[e080fab05714729631ae58a9276489a6]
class JsonConfiguration--><rect fill="#FEFECE" filter="url(#f8mtzwwlpsg1n)" height="48" id="JsonConfiguration" style="stroke: #A80036; stroke-width: 1.5;" width="142" x="85" y="450.4531"/><ellipse cx="100" cy="466.4531" fill="#ADD1B2" rx="11" ry="11" style="stroke: #A80036; stroke-width: 1.0;"/><path d="M102.3438,462.125 L102.5156,462.2031 C102.7344,461.8906 102.9375,461.7969 103.2344,461.7969 C103.5313,461.7969 103.8125,461.9375 103.9688,462.2031 C104.0625,462.3594 104.0781,462.4844 104.0781,462.9219 L104.0781,464.3438 C104.0781,464.7656 104.0469,464.9531 103.9375,465.1094 C103.7656,465.3281 103.5,465.4688 103.2344,465.4688 C103.0156,465.4688 102.7813,465.3594 102.6406,465.2188 C102.5,465.0938 102.4688,464.9688 102.4063,464.5625 C102.3125,464.1563 102.1406,463.9375 101.6563,463.6563 C101.1875,463.4063 100.5781,463.25 100,463.25 C98.2656,463.25 97.0156,464.5625 97.0156,466.3438 L97.0156,467.4375 C97.0156,469.1406 98.3125,470.2344 100.3594,470.2344 C101.125,470.2344 101.8125,470.1094 102.2344,469.8438 C102.4219,469.75 102.4219,469.75 102.875,469.2656 C103.0625,469.0781 103.2656,469 103.4844,469 C103.9531,469 104.3438,469.3906 104.3438,469.8438 C104.3438,470.2344 104.0156,470.6875 103.4375,471.0938 C102.6875,471.6406 101.5313,471.9375 100.3125,471.9375 C97.4219,471.9375 95.3125,470.0469 95.3125,467.4688 L95.3125,466.3438 C95.3125,463.625 97.3125,461.5469 99.9375,461.5469 C100.8125,461.5469 101.4063,461.6875 102.3438,462.125 Z "/><text fill="#000000" font-family="sans-serif" font-size="12" lengthAdjust="spacingAndGlyphs" textLength="110" x="114" y="470.6074">JsonConfiguration</text><line style="stroke: #A80036; stroke-width: 1.5;" x1="86" x2="226" y1="482.4531" y2="482.4531"/><line style="stroke: #A80036; stroke-width: 1.5;" x1="86" x2="226" y1="490.4531" y2="490.4531"/><!--MD5=[4b934e359fed50ed512d3d2d3ad10faa]
class DependencyFactory--><rect fill="#FEFECE" filter="url(#f8mtzwwlpsg1n)" height="112.0234" id="DependencyFactory" style="stroke: #A80036; stroke-width: 1.5;" width="238" x="309" y="265.4531"/><ellipse cx="360.75" cy="281.4531" fill="#B4A7E5" rx="11" ry="11" style="stroke: #A80036; stroke-width: 1.0;"/><path d="M361.7031,278.2344 L361.7031,284.75 L363.4219,284.75 C363.875,284.75 364.0156,284.7813 364.1875,284.9063 C364.4219,285.0781 364.5313,285.3281 364.5313,285.6094 C364.5313,286.1719 364.1719,286.4531 363.4219,286.4531 L358.2813,286.4531 C357.875,286.4531 357.6719,286.4063 357.5156,286.2813 C357.2969,286.125 357.1563,285.8594 357.1563,285.6094 C357.1563,285.3125 357.3125,285.0313 357.5625,284.875 C357.7188,284.7656 357.8438,284.75 358.2813,284.75 L360,284.75 L360,278.2344 L358.2813,278.2344 C357.8594,278.2344 357.6719,278.2031 357.5156,278.0938 C357.2969,277.9219 357.1563,277.6719 357.1563,277.3906 C357.1563,277.1094 357.3125,276.8125 357.5625,276.6563 C357.7188,276.5625 357.8438,276.5469 358.2813,276.5469 L363.4219,276.5469 C363.875,276.5469 364.0156,276.5781 364.1875,276.6875 C364.4219,276.8594 364.5313,277.125 364.5313,277.3906 C364.5313,277.6875 364.3906,277.9688 364.125,278.125 C364,278.2031 363.8125,278.2344 363.4219,278.2344 Z "/><text fill="#000000" font-family="sans-serif" font-size="12" font-style="italic" lengthAdjust="spacingAndGlyphs" textLength="126" x="381.25" y="285.6074">DependencyFactory</text><line style="stroke: #A80036; stroke-width: 1.5;" x1="310" x2="546" y1="297.4531" y2="297.4531"/><line style="stroke: #A80036; stroke-width: 1.5;" x1="310" x2="546" y1="305.4531" y2="305.4531"/><text fill="#000000" font-family="sans-serif" font-size="11" lengthAdjust="spacingAndGlyphs" textLength="100" x="315" y="319.6636">Web3j getWeb3j();</text><text fill="#000000" font-family="sans-serif" font-size="11" lengthAdjust="spacingAndGlyphs" textLength="79" x="315" y="332.4683">IPFS getIpfs();</text><text fill="#000000" font-family="sans-serif" font-size="11" lengthAdjust="spacingAndGlyphs" textLength="108" x="315" y="345.2729">Signer getSigner();</text><text fill="#000000" font-family="sans-serif" font-size="11" lengthAdjust="spacingAndGlyphs" textLength="126" x="315" y="358.0776">Registry getRegistry();</text><text fill="#000000" font-family="sans-serif" font-size="11" lengthAdjust="spacingAndGlyphs" textLength="226" x="315" y="370.8823">MultiPartyEscrow getMultiPartyEscrow();</text><!--MD5=[fd8e04aa5f52fe45763ddf04aafe8c4e]
class ConfigurationDependencyFactory--><rect fill="#FEFECE" filter="url(#f8mtzwwlpsg1n)" height="48" id="ConfigurationDependencyFactory" style="stroke: #A80036; stroke-width: 1.5;" width="240" x="308" y="450.4531"/><ellipse cx="323" cy="466.4531" fill="#ADD1B2" rx="11" ry="11" style="stroke: #A80036; stroke-width: 1.0;"/><path d="M325.3438,462.125 L325.5156,462.2031 C325.7344,461.8906 325.9375,461.7969 326.2344,461.7969 C326.5313,461.7969 326.8125,461.9375 326.9688,462.2031 C327.0625,462.3594 327.0781,462.4844 327.0781,462.9219 L327.0781,464.3438 C327.0781,464.7656 327.0469,464.9531 326.9375,465.1094 C326.7656,465.3281 326.5,465.4688 326.2344,465.4688 C326.0156,465.4688 325.7813,465.3594 325.6406,465.2188 C325.5,465.0938 325.4688,464.9688 325.4063,464.5625 C325.3125,464.1563 325.1406,463.9375 324.6563,463.6563 C324.1875,463.4063 323.5781,463.25 323,463.25 C321.2656,463.25 320.0156,464.5625 320.0156,466.3438 L320.0156,467.4375 C320.0156,469.1406 321.3125,470.2344 323.3594,470.2344 C324.125,470.2344 324.8125,470.1094 325.2344,469.8438 C325.4219,469.75 325.4219,469.75 325.875,469.2656 C326.0625,469.0781 326.2656,469 326.4844,469 C326.9531,469 327.3438,469.3906 327.3438,469.8438 C327.3438,470.2344 327.0156,470.6875 326.4375,471.0938 C325.6875,471.6406 324.5313,471.9375 323.3125,471.9375 C320.4219,471.9375 318.3125,470.0469 318.3125,467.4688 L318.3125,466.3438 C318.3125,463.625 320.3125,461.5469 322.9375,461.5469 C323.8125,461.5469 324.4063,461.6875 325.3438,462.125 Z "/><text fill="#000000" font-family="sans-serif" font-size="12" lengthAdjust="spacingAndGlyphs" textLength="208" x="337" y="470.6074">ConfigurationDependencyFactory</text><line style="stroke: #A80036; stroke-width: 1.5;" x1="309" x2="547" y1="482.4531" y2="482.4531"/><line style="stroke: #A80036; stroke-width: 1.5;" x1="309" x2="547" y1="490.4531" y2="490.4531"/><!--MD5=[86df7a6fab1c4b6b56ced8510e72833b]
class PaymentStrategy--><rect fill="#FEFECE" filter="url(#f8mtzwwlpsg1n)" height="60.8047" id="PaymentStrategy" style="stroke: #A80036; stroke-width: 1.5;" width="671" x="190.5" y="558.4531"/><ellipse cx="467.75" cy="574.4531" fill="#B4A7E5" rx="11" ry="11" style="stroke: #A80036; stroke-width: 1.0;"/><path d="M468.7031,571.2344 L468.7031,577.75 L470.4219,577.75 C470.875,577.75 471.0156,577.7813 471.1875,577.9063 C471.4219,578.0781 471.5313,578.3281 471.5313,578.6094 C471.5313,579.1719 471.1719,579.4531 470.4219,579.4531 L465.2813,579.4531 C464.875,579.4531 464.6719,579.4063 464.5156,579.2813 C464.2969,579.125 464.1563,578.8594 464.1563,578.6094 C464.1563,578.3125 464.3125,578.0313 464.5625,577.875 C464.7188,577.7656 464.8438,577.75 465.2813,577.75 L467,577.75 L467,571.2344 L465.2813,571.2344 C464.8594,571.2344 464.6719,571.2031 464.5156,571.0938 C464.2969,570.9219 464.1563,570.6719 464.1563,570.3906 C464.1563,570.1094 464.3125,569.8125 464.5625,569.6563 C464.7188,569.5625 464.8438,569.5469 465.2813,569.5469 L470.4219,569.5469 C470.875,569.5469 471.0156,569.5781 471.1875,569.6875 C471.4219,569.8594 471.5313,570.125 471.5313,570.3906 C471.5313,570.6875 471.3906,570.9688 471.125,571.125 C471,571.2031 470.8125,571.2344 470.4219,571.2344 Z "/><text fill="#000000" font-family="sans-serif" font-size="12" font-style="italic" lengthAdjust="spacingAndGlyphs" textLength="108" x="488.25" y="578.6074">PaymentStrategy</text><line style="stroke: #A80036; stroke-width: 1.5;" x1="191.5" x2="860.5" y1="590.4531" y2="590.4531"/><line style="stroke: #A80036; stroke-width: 1.5;" x1="191.5" x2="860.5" y1="598.4531" y2="598.4531"/><text fill="#000000" font-family="sans-serif" font-size="11" lengthAdjust="spacingAndGlyphs" textLength="659" x="196.5" y="612.6636">&lt;ReqT, RespT&gt; Payment getPayment(GrpcCallParameters&lt;ReqT, RespT&gt; parameters, ServiceClient serviceClient);</text><!--MD5=[f0bc2daf9303fe741b6d54a0ca59617f]
class FixedPaymentChannelPaymentStrategy--><rect fill="#FEFECE" filter="url(#f8mtzwwlpsg1n)" height="48" id="FixedPaymentChannelPaymentStrategy" style="stroke: #A80036; stroke-width: 1.5;" width="276" x="388" y="679.4531"/><ellipse cx="403" cy="695.4531" fill="#ADD1B2" rx="11" ry="11" style="stroke: #A80036; stroke-width: 1.0;"/><path d="M405.3438,691.125 L405.5156,691.2031 C405.7344,690.8906 405.9375,690.7969 406.2344,690.7969 C406.5313,690.7969 406.8125,690.9375 406.9688,691.2031 C407.0625,691.3594 407.0781,691.4844 407.0781,691.9219 L407.0781,693.3438 C407.0781,693.7656 407.0469,693.9531 406.9375,694.1094 C406.7656,694.3281 406.5,694.4688 406.2344,694.4688 C406.0156,694.4688 405.7813,694.3594 405.6406,694.2188 C405.5,694.0938 405.4688,693.9688 405.4063,693.5625 C405.3125,693.1563 405.1406,692.9375 404.6563,692.6563 C404.1875,692.4063 403.5781,692.25 403,692.25 C401.2656,692.25 400.0156,693.5625 400.0156,695.3438 L400.0156,696.4375 C400.0156,698.1406 401.3125,699.2344 403.3594,699.2344 C404.125,699.2344 404.8125,699.1094 405.2344,698.8438 C405.4219,698.75 405.4219,698.75 405.875,698.2656 C406.0625,698.0781 406.2656,698 406.4844,698 C406.9531,698 407.3438,698.3906 407.3438,698.8438 C407.3438,699.2344 407.0156,699.6875 406.4375,700.0938 C405.6875,700.6406 404.5313,700.9375 403.3125,700.9375 C400.4219,700.9375 398.3125,699.0469 398.3125,696.4688 L398.3125,695.3438 C398.3125,692.625 400.3125,690.5469 402.9375,690.5469 C403.8125,690.5469 404.4063,690.6875 405.3438,691.125 Z "/><text fill="#000000" font-family="sans-serif" font-size="12" lengthAdjust="spacingAndGlyphs" textLength="244" x="417" y="699.6074">FixedPaymentChannelPaymentStrategy</text><line style="stroke: #A80036; stroke-width: 1.5;" x1="389" x2="663" y1="711.4531" y2="711.4531"/><line style="stroke: #A80036; stroke-width: 1.5;" x1="389" x2="663" y1="719.4531" y2="719.4531"/><!--MD5=[2fb101d943835b3444fac9786607c7ca]
class Sdk--><rect fill="#FEFECE" filter="url(#f8mtzwwlpsg1n)" height="112.0234" id="Sdk" style="stroke: #A80036; stroke-width: 1.5;" width="732" x="62" y="80.4531"/><ellipse cx="412.25" cy="96.4531" fill="#ADD1B2" rx="11" ry="11" style="stroke: #A80036; stroke-width: 1.0;"/><path d="M414.5938,92.125 L414.7656,92.2031 C414.9844,91.8906 415.1875,91.7969 415.4844,91.7969 C415.7813,91.7969 416.0625,91.9375 416.2188,92.2031 C416.3125,92.3594 416.3281,92.4844 416.3281,92.9219 L416.3281,94.3438 C416.3281,94.7656 416.2969,94.9531 416.1875,95.1094 C416.0156,95.3281 415.75,95.4688 415.4844,95.4688 C415.2656,95.4688 415.0313,95.3594 414.8906,95.2188 C414.75,95.0938 414.7188,94.9688 414.6563,94.5625 C414.5625,94.1563 414.3906,93.9375 413.9063,93.6563 C413.4375,93.4063 412.8281,93.25 412.25,93.25 C410.5156,93.25 409.2656,94.5625 409.2656,96.3438 L409.2656,97.4375 C409.2656,99.1406 410.5625,100.2344 412.6094,100.2344 C413.375,100.2344 414.0625,100.1094 414.4844,99.8438 C414.6719,99.75 414.6719,99.75 415.125,99.2656 C415.3125,99.0781 415.5156,99 415.7344,99 C416.2031,99 416.5938,99.3906 416.5938,99.8438 C416.5938,100.2344 416.2656,100.6875 415.6875,101.0938 C414.9375,101.6406 413.7813,101.9375 412.5625,101.9375 C409.6719,101.9375 407.5625,100.0469 407.5625,97.4688 L407.5625,96.3438 C407.5625,93.625 409.5625,91.5469 412.1875,91.5469 C413.0625,91.5469 413.6563,91.6875 414.5938,92.125 Z "/><text fill="#000000" font-family="sans-serif" font-size="12" lengthAdjust="spacingAndGlyphs" textLength="23" x="432.75" y="100.6074">Sdk</text><line style="stroke: #A80036; stroke-width: 1.5;" x1="63" x2="793" y1="112.4531" y2="112.4531"/><line style="stroke: #A80036; stroke-width: 1.5;" x1="63" x2="793" y1="120.4531" y2="120.4531"/><text fill="#000000" font-family="sans-serif" font-size="11" lengthAdjust="spacingAndGlyphs" textLength="147" x="68" y="134.6636">Sdk(Configuration config);</text><text fill="#000000" font-family="sans-serif" font-size="11" lengthAdjust="spacingAndGlyphs" textLength="186" x="68" y="147.4683">Sdk(DependencyFactory factory);</text><text fill="#000000" font-family="sans-serif" font-size="11" lengthAdjust="spacingAndGlyphs" textLength="0" x="72" y="160.2729"/><text fill="#000000" font-family="sans-serif" font-size="11" lengthAdjust="spacingAndGlyphs" textLength="720" x="68" y="173.0776">ServiceClient newServiceClient(String orgId, String serviceId, String endpointGroupName, PaymentStrategy paymentStrategy);</text><text fill="#000000" font-family="sans-serif" font-size="11" lengthAdjust="spacingAndGlyphs" textLength="94" x="68" y="185.8823">void shutdown();</text><!--MD5=[454092b3ab12a575f0516fcdf124b80a]
class ServiceClient--><rect fill="#FEFECE" filter="url(#f8mtzwwlpsg1n)" height="112.0234" id="ServiceClient" style="stroke: #A80036; stroke-width: 1.5;" width="330" x="582" y="265.4531"/><ellipse cx="702.75" cy="281.4531" fill="#B4A7E5" rx="11" ry="11" style="stroke: #A80036; stroke-width: 1.0;"/><path d="M703.7031,278.2344 L703.7031,284.75 L705.4219,284.75 C705.875,284.75 706.0156,284.7813 706.1875,284.9063 C706.4219,285.0781 706.5313,285.3281 706.5313,285.6094 C706.5313,286.1719 706.1719,286.4531 705.4219,286.4531 L700.2813,286.4531 C699.875,286.4531 699.6719,286.4063 699.5156,286.2813 C699.2969,286.125 699.1563,285.8594 699.1563,285.6094 C699.1563,285.3125 699.3125,285.0313 699.5625,284.875 C699.7188,284.7656 699.8438,284.75 700.2813,284.75 L702,284.75 L702,278.2344 L700.2813,278.2344 C699.8594,278.2344 699.6719,278.2031 699.5156,278.0938 C699.2969,277.9219 699.1563,277.6719 699.1563,277.3906 C699.1563,277.1094 699.3125,276.8125 699.5625,276.6563 C699.7188,276.5625 699.8438,276.5469 700.2813,276.5469 L705.4219,276.5469 C705.875,276.5469 706.0156,276.5781 706.1875,276.6875 C706.4219,276.8594 706.5313,277.125 706.5313,277.3906 C706.5313,277.6875 706.3906,277.9688 706.125,278.125 C706,278.2031 705.8125,278.2344 705.4219,278.2344 Z "/><text fill="#000000" font-family="sans-serif" font-size="12" font-style="italic" lengthAdjust="spacingAndGlyphs" textLength="80" x="723.25" y="285.6074">ServiceClient</text><line style="stroke: #A80036; stroke-width: 1.5;" x1="583" x2="911" y1="297.4531" y2="297.4531"/><line style="stroke: #A80036; stroke-width: 1.5;" x1="583" x2="911" y1="305.4531" y2="305.4531"/><text fill="#000000" font-family="sans-serif" font-size="11" lengthAdjust="spacingAndGlyphs" textLength="232" x="588" y="319.6636">MetadataProvider getMetadataProvider();</text><text fill="#000000" font-family="sans-serif" font-size="11" lengthAdjust="spacingAndGlyphs" textLength="318" x="588" y="332.4683">PaymentChannelProvider getPaymentChannelProvider();</text><text fill="#000000" font-family="sans-serif" font-size="11" lengthAdjust="spacingAndGlyphs" textLength="108" x="588" y="345.2729">Signer getSigner();</text><text fill="#000000" font-family="sans-serif" font-size="11" lengthAdjust="spacingAndGlyphs" textLength="289" x="588" y="358.0776">T getGrpcStub(Function&lt;Channel, T&gt; constructor);</text><text fill="#000000" font-family="sans-serif" font-size="11" lengthAdjust="spacingAndGlyphs" textLength="118" x="588" y="370.8823">void shutdownNow();</text><!--MD5=[791a636acfc599c1abdb09fdc478ec4b]
class BaseServiceClient--><rect fill="#FEFECE" filter="url(#f8mtzwwlpsg1n)" height="48" id="BaseServiceClient" style="stroke: #A80036; stroke-width: 1.5;" width="143" x="768.5" y="450.4531"/><ellipse cx="783.5" cy="466.4531" fill="#ADD1B2" rx="11" ry="11" style="stroke: #A80036; stroke-width: 1.0;"/><path d="M785.8438,462.125 L786.0156,462.2031 C786.2344,461.8906 786.4375,461.7969 786.7344,461.7969 C787.0313,461.7969 787.3125,461.9375 787.4688,462.2031 C787.5625,462.3594 787.5781,462.4844 787.5781,462.9219 L787.5781,464.3438 C787.5781,464.7656 787.5469,464.9531 787.4375,465.1094 C787.2656,465.3281 787,465.4688 786.7344,465.4688 C786.5156,465.4688 786.2813,465.3594 786.1406,465.2188 C786,465.0938 785.9688,464.9688 785.9063,464.5625 C785.8125,464.1563 785.6406,463.9375 785.1563,463.6563 C784.6875,463.4063 784.0781,463.25 783.5,463.25 C781.7656,463.25 780.5156,464.5625 780.5156,466.3438 L780.5156,467.4375 C780.5156,469.1406 781.8125,470.2344 783.8594,470.2344 C784.625,470.2344 785.3125,470.1094 785.7344,469.8438 C785.9219,469.75 785.9219,469.75 786.375,469.2656 C786.5625,469.0781 786.7656,469 786.9844,469 C787.4531,469 787.8438,469.3906 787.8438,469.8438 C787.8438,470.2344 787.5156,470.6875 786.9375,471.0938 C786.1875,471.6406 785.0313,471.9375 783.8125,471.9375 C780.9219,471.9375 778.8125,470.0469 778.8125,467.4688 L778.8125,466.3438 C778.8125,463.625 780.8125,461.5469 783.4375,461.5469 C784.3125,461.5469 784.9063,461.6875 785.8438,462.125 Z "/><text fill="#000000" font-family="sans-serif" font-size="12" lengthAdjust="spacingAndGlyphs" textLength="111" x="797.5" y="470.6074">BaseServiceClient</text><line style="stroke: #A80036; stroke-width: 1.5;" x1="769.5" x2="910.5" y1="482.4531" y2="482.4531"/><line style="stroke: #A80036; stroke-width: 1.5;" x1="769.5" x2="910.5" y1="490.4531" y2="490.4531"/><!--MD5=[717d15024881c8f926f8fb51b6a4858a]
reverse link WithAddress to Signer--><path d="M798.126,883.6791 C800.55,903.3571 803.254,925.3081 805.359,942.3971 " fill="none" id="WithAddress&lt;-Signer" style="stroke: #A80036; stroke-width: 1.0;"/><polygon fill="none" points="791.145,884.2631,795.647,863.5571,805.04,882.5521,791.145,884.2631" style="stroke: #A80036; stroke-width: 1.0;"/><!--MD5=[12dce411975b147db466b4eb70af8e26]
reverse link Signer to PrivateKeyIdentity--><path d="M809,1023.6551 C809,1041.6621 809,1061.1491 809,1075.7871 " fill="none" id="Signer&lt;-PrivateKeyIdentity" style="stroke: #A80036; stroke-width: 1.0; stroke-dasharray: 7.0,7.0;"/><polygon fill="none" points="802,1023.5761,809,1003.5761,816,1023.5761,802,1023.5761" style="stroke: #A80036; stroke-width: 1.0;"/><!--MD5=[70d2d8ea03716a1c981ea3b57f74daf2]
reverse link PrivateKeyIdentity to MnemonicIdentity--><path d="M809,1144.1231 C809,1164.5281 809,1188.0841 809,1205.1051 " fill="none" id="PrivateKeyIdentity&lt;-MnemonicIdentity" style="stroke: #A80036; stroke-width: 1.0;"/><polygon fill="none" points="802,1144.0421,809,1124.0421,816,1144.0421,802,1144.0421" style="stroke: #A80036; stroke-width: 1.0;"/><!--MD5=[71e65807e472cdd22e4afb5f3f077edb]
reverse link MetadataStorage to IpfsMetadataStorage--><path d="M1994.61,1515.7931 C1996.09,1531.8261 1997.66,1548.8218 1998.87,1561.9525 " fill="none" id="MetadataStorage&lt;-IpfsMetadataStorage" style="stroke: #A80036; stroke-width: 1.0; stroke-dasharray: 7.0,7.0;"/><polygon fill="none" points="1987.62,1516.2341,1992.75,1495.6751,2001.56,1514.9461,1987.62,1516.2341" style="stroke: #A80036; stroke-width: 1.0;"/><!--MD5=[2a4a970764f918ae0badbe6919defd20]
reverse link MetadataProvider to RegistryMetadataProvider--><path d="M2196,1280.0601 C2196,1293.8291 2196,1308.1381 2196,1319.6221 " fill="none" id="MetadataProvider&lt;-RegistryMetadataProvider" style="stroke: #A80036; stroke-width: 1.0; stroke-dasharray: 7.0,7.0;"/><polygon fill="none" points="2189,1280.0111,2196,1260.0111,2203,1280.0111,2189,1280.0111" style="stroke: #A80036; stroke-width: 1.0;"/><!--MD5=[020c7b64572ad0d5dd83b48937953d6f]
reverse link RegistryMetadataProvider to RegistryContract--><path d="M2237.92,1376.1281 C2259.26,1392.0021 2285.32,1411.3851 2307.52,1427.8991 " fill="none" id="RegistryMetadataProvider&lt;-RegistryContract" style="stroke: #A80036; stroke-width: 1.0;"/><polygon fill="#A80036" points="2227.23,1368.1801,2229.6578,1374.9703,2236.8594,1375.3408,2234.4316,1368.5507,2227.23,1368.1801" style="stroke: #A80036; stroke-width: 1.0;"/><!--MD5=[d47a745ee1ad0799f82e44bd048299bb]
reverse link RegistryMetadataProvider to MetadataStorage--><path d="M2144.16,1374.9011 C2112.61,1393.1241 2072.48,1416.3041 2041.08,1434.4471 " fill="none" id="RegistryMetadataProvider&lt;-MetadataStorage" style="stroke: #A80036; stroke-width: 1.0;"/><polygon fill="#A80036" points="2155.79,1368.1801,2148.5938,1367.7164,2145.398,1374.1806,2152.5941,1374.6444,2155.79,1368.1801" style="stroke: #A80036; stroke-width: 1.0;"/><!--MD5=[2e8d45d7b6efb88c2a093f23e9ecb5bc]
reverse link DaemonConnection to FirstEndpointDaemonConnection--><path d="M2045.89,1035.9601 C2049.06,1050.1161 2052.24,1064.3061 2054.77,1075.6251 " fill="none" id="DaemonConnection&lt;-FirstEndpointDaemonConnection" style="stroke: #A80036; stroke-width: 1.0; stroke-dasharray: 7.0,7.0;"/><polygon fill="none" points="2039.02,1037.3191,2041.48,1016.2721,2052.68,1034.2591,2039.02,1037.3191" style="stroke: #A80036; stroke-width: 1.0;"/><!--MD5=[afb6adc7960e2860438bfeb6846dfc89]
reverse link FirstEndpointDaemonConnection to MetadataProvider--><path d="M2094.35,1133.1541 C2115.86,1153.3231 2143.38,1179.1251 2164.36,1198.7941 " fill="none" id="FirstEndpointDaemonConnection&lt;-MetadataProvider" style="stroke: #A80036; stroke-width: 1.0;"/><polygon fill="#FFFFFF" points="2084.63,1124.0421,2086.2737,1131.0634,2093.3871,1132.2466,2091.7434,1125.2253,2084.63,1124.0421" style="stroke: #A80036; stroke-width: 1.0;"/><!--MD5=[19f1c5719f03e3dbc601566ba7115d43]
reverse link PaymentChannelStateService to Signer--><path d="M1907.89,867.2361 C1873.02,877.3191 1833.63,887.4371 1797,893.9531 C1467.51,952.5721 1068.38,967.1431 895.617,970.7601 " fill="none" id="PaymentChannelStateService&lt;-Signer" style="stroke: #A80036; stroke-width: 1.0;"/><polygon fill="#FFFFFF" points="1920.53,863.5301,1913.647,861.3797,1909.0147,866.9061,1915.8977,869.0566,1920.53,863.5301" style="stroke: #A80036; stroke-width: 1.0;"/><!--MD5=[18e29076eb626ade2b5bddfb0a0f2f05]
link PaymentChannelStateService to DaemonConnection--><path d="M2015.51,863.5571 C2018.45,882.8821 2022.33,908.4051 2025.59,929.8311 " fill="none" id="PaymentChannelStateService-DaemonConnection" style="stroke: #A80036; stroke-width: 1.0;"/><!--MD5=[1cd7eb9beedbb9f2782e52a9536ee1b7]
reverse link PaymentChannelProvider to AskDaemonFirstPaymentChannelProvider--><path d="M1173.34,634.2531 C1187.65,649.5791 1203.12,666.1521 1215.22,679.1221 " fill="none" id="PaymentChannelProvider&lt;-AskDaemonFirstPaymentChannelProvider" style="stroke: #A80036; stroke-width: 1.0; stroke-dasharray: 7.0,7.0;"/><polygon fill="none" points="1168.12,638.9131,1159.59,619.5131,1178.35,629.3531,1168.12,638.9131" style="stroke: #A80036; stroke-width: 1.0;"/><!--MD5=[a423174016401f42057dff165ffb576c]
reverse link AskDaemonFirstPaymentChannelProvider to MultiPartyEscrowContract--><path d="M1237,740.7581 C1237,757.9171 1237,778.3541 1237,795.5291 " fill="none" id="AskDaemonFirstPaymentChannelProvider&lt;-MultiPartyEscrowContract" style="stroke: #A80036; stroke-width: 1.0;"/><polygon fill="#A80036" points="1237,727.5421,1233,733.5421,1237,739.5421,1241,733.5421,1237,727.5421" style="stroke: #A80036; stroke-width: 1.0;"/><!--MD5=[46c699d0e4e8b327f5eae6508979f714]
reverse link AskDaemonFirstPaymentChannelProvider to PaymentChannelStateService--><path d="M1394.91,710.3211 C1507.92,716.8521 1663.11,730.5981 1797,759.4531 C1844.74,769.7421 1896.66,787.1711 1937.4,802.3611 " fill="none" id="AskDaemonFirstPaymentChannelProvider&lt;-PaymentChannelStateService" style="stroke: #A80036; stroke-width: 1.0;"/><polygon fill="#A80036" points="1381.69,709.5781,1387.4564,713.9081,1393.6711,710.2506,1387.9047,705.9207,1381.69,709.5781" style="stroke: #A80036; stroke-width: 1.0;"/><!--MD5=[592b17d9c8c26115c167643d691630c1]
link EscrowPaymentlol215159 to EscrowPayment--><path d="M1341.33,588.9531 C1352.88,588.9531 1364.43,588.9531 1375.98,588.9531 " fill="none" id="EscrowPaymentlol215159-EscrowPayment" style="stroke: #A80036; stroke-width: 1.0;"/><!--MD5=[5dcd64b477b3d04b728a939cc64b9017]
reverse link Configuration to JsonConfiguration--><path d="M156,410.9431 C156,425.5031 156,439.4031 156,450.3731 " fill="none" id="Configuration&lt;-JsonConfiguration" style="stroke: #A80036; stroke-width: 1.0; stroke-dasharray: 7.0,7.0;"/><polygon fill="none" points="149,410.8831,156,390.8831,163,410.8831,149,410.8831" style="stroke: #A80036; stroke-width: 1.0;"/><!--MD5=[1742506f867320e7ba4ab5301cd79a0c]
reverse link DependencyFactory to ConfigurationDependencyFactory--><path d="M428,397.9531 C428,417.0931 428,436.2231 428,450.4431 " fill="none" id="DependencyFactory&lt;-ConfigurationDependencyFactory" style="stroke: #A80036; stroke-width: 1.0; stroke-dasharray: 7.0,7.0;"/><polygon fill="none" points="421,397.8231,428,377.8231,435,397.8231,421,397.8231" style="stroke: #A80036; stroke-width: 1.0;"/><!--MD5=[7f59f6dcd19536ad3c7e4ba41aebc012]
reverse link PaymentStrategy to FixedPaymentChannelPaymentStrategy--><path d="M526,639.5631 C526,653.3291 526,667.6381 526,679.1221 " fill="none" id="PaymentStrategy&lt;-FixedPaymentChannelPaymentStrategy" style="stroke: #A80036; stroke-width: 1.0; stroke-dasharray: 7.0,7.0;"/><polygon fill="none" points="519,639.5131,526,619.5131,533,639.5131,519,639.5131" style="stroke: #A80036; stroke-width: 1.0;"/><!--MD5=[959240fecb5b0486cb7559d2b7d506db]
link Sdk to Configuration--><path d="M346.022,192.6031 C318.179,211.3431 286.728,232.5031 257.544,252.1331 " fill="none" id="Sdk-Configuration" style="stroke: #A80036; stroke-width: 1.0;"/><!--MD5=[44ca6029f689837145a834a0e7728181]
link Sdk to ServiceClient--><path d="M524.143,192.6031 C564.319,215.6531 610.899,242.3731 651.054,265.4131 " fill="none" id="Sdk-ServiceClient" style="stroke: #A80036; stroke-width: 1.0;"/><!--MD5=[f1e16a21a2bf7a887235661116c6ef9f]
link Sdk to DependencyFactory--><path d="M428,192.8531 C428,215.7931 428,242.3231 428,265.2431 " fill="none" id="Sdk-DependencyFactory" style="stroke: #A80036; stroke-width: 1.0;"/><!--MD5=[3dd61a7060afbecf34cd84d0ea871382]
reverse link ServiceClient to BaseServiceClient--><path d="M791.631,394.9131 C804.031,415.0531 816.609,435.4731 825.829,450.4431 " fill="none" id="ServiceClient&lt;-BaseServiceClient" style="stroke: #A80036; stroke-width: 1.0; stroke-dasharray: 7.0,7.0;"/><polygon fill="none" points="785.63,398.5231,781.102,377.8231,797.55,391.1831,785.63,398.5231" style="stroke: #A80036; stroke-width: 1.0;"/><!--MD5=[f1810e1cc92e9d243ab972feb76830f3]
reverse link BaseServiceClient to DaemonConnection--><path d="M924.96,477.5231 C1081.61,481.8131 1410.17,493.2131 1522,515.4531 C1846.38,579.9731 2033.28,489.9631 2225,759.4531 C2259.65,808.1621 2258.42,844.3931 2225,893.9531 C2215.2,908.4851 2202.18,920.3101 2187.53,929.9331 " fill="none" id="BaseServiceClient&lt;-DaemonConnection" style="stroke: #A80036; stroke-width: 1.0;"/><polygon fill="#A80036" points="911.71,477.1631,917.6002,481.3232,923.7057,477.4861,917.8155,473.3261,911.71,477.1631" style="stroke: #A80036; stroke-width: 1.0;"/><!--MD5=[fee83ce824a62f471aff6274595972c2]
reverse link BaseServiceClient to MetadataProvider--><path d="M924.879,475.4631 C1131.69,476.0331 1657.24,480.9631 1829,515.4531 C2062.84,562.4131 2332,463.9531 2332,702.4531 C2332,702.4531 2332,702.4531 2332,973.9531 C2332,1064.3781 2264.39,1153.8111 2224.51,1198.6971 " fill="none" id="BaseServiceClient&lt;-MetadataProvider" style="stroke: #A80036; stroke-width: 1.0;"/><polygon fill="#A80036" points="911.725,475.4331,917.7153,479.4476,923.725,475.4621,917.7347,471.4476,911.725,475.4331" style="stroke: #A80036; stroke-width: 1.0;"/><!--MD5=[8bbdb97ec44eedb7ed3952fd20525ba8]
reverse link BaseServiceClient to PaymentChannelProvider--><path d="M912.025,503.2031 C955.551,519.9731 1011,541.3331 1055.33,558.4131 " fill="none" id="BaseServiceClient&lt;-PaymentChannelProvider" style="stroke: #A80036; stroke-width: 1.0;"/><polygon fill="#A80036" points="899.795,498.4931,903.9552,504.3832,910.9922,502.8085,906.8321,496.9184,899.795,498.4931" style="stroke: #A80036; stroke-width: 1.0;"/><!--MD5=[42a8c2d7d8694453bdc05839364c455e]
reverse link BaseServiceClient to PaymentStrategy--><path d="M763.449,502.8831 C716.51,519.6931 656.425,541.2231 608.441,558.4131 " fill="none" id="BaseServiceClient&lt;-PaymentStrategy" style="stroke: #A80036; stroke-width: 1.0;"/><polygon fill="#A80036" points="775.7,498.4931,768.7027,496.7502,764.4026,502.5388,771.3999,504.2818,775.7,498.4931" style="stroke: #A80036; stroke-width: 1.0;"/><!--MD5=[2b6c76311f7f0b8298b7fb2c12f1ca74]
reverse link BaseServiceClient to Signer--><path d="M875.968,509.3131 C877.122,511.3031 878.146,513.3531 879,515.4531 C942.391,671.2741 939.157,736.8551 879,893.9531 C871.973,912.3041 858.416,929.0541 845.09,942.2871 " fill="none" id="BaseServiceClient&lt;-Signer" style="stroke: #A80036; stroke-width: 1.0;"/><polygon fill="#A80036" points="868.186,498.6031,868.4779,505.8083,875.2411,508.3101,874.9492,501.1049,868.186,498.6031" style="stroke: #A80036; stroke-width: 1.0;"/><!--MD5=[a1f71a4014ed8f6bee075aade8513df8]
@startuml
title SingularityNet Java SDK

package io.singularitynet.sdk.ethereum {

    interface WithAddress {
        Address getAddress();
    }

    interface Signer {
        byte[] sign(byte[] message);
    }
    WithAddress <|- - Signer

    class PrivateKeyIdentity
    Signer <|.. PrivateKeyIdentity

    class MnemonicIdentity
    PrivateKeyIdentity <|- - MnemonicIdentity

}


package io.singularitynet.sdk.registry {

    interface MetadataStorage {
        byte[] get(URI uri);
    }
    class IpfsMetadataStorage
    MetadataStorage <|.. IpfsMetadataStorage

    class RegistryContract {
        Optional<OrganizationRegistration> getOrganizationById(String orgId);
        Optional<ServiceRegistration> getServiceRegistrationById(String orgId, String serviceId);
    }

    interface MetadataProvider {
        ServiceMetadata getServiceMetadata();
    }
    class RegistryMetadataProvider
    MetadataProvider <|.. RegistryMetadataProvider
    RegistryMetadataProvider *- - RegistryContract
    RegistryMetadataProvider *- - MetadataStorage

}

package io.singularitynet.sdk.daemon {
    
    interface DaemonConnection {
        <T> T getGrpcStub(Function<Channel, T> constructor);
        void setClientCallsInterceptor(ClientInterceptor interceptor);
        void shutdownNow();
    }

    class FirstEndpointDaemonConnection
    DaemonConnection <|.. FirstEndpointDaemonConnection
    FirstEndpointDaemonConnection o- - MetadataProvider

    class PaymentChannelStateService {
        PaymentChannelStateReply getChannelState(BigInteger channelId);
    }
    PaymentChannelStateService o- - Signer
    PaymentChannelStateService - - DaemonConnection

    interface Payment {
        void toMetadata(Metadata headers);
    }

}

package io.singularitynet.sdk.mpe {
    class MultiPartyEscrowContract {
        Optional<PaymentChannel> getChannelById(BigInteger channelId);
        Address getContractAddress();
    }

    interface PaymentChannelProvider {
        PaymentChannel getChannelById(BigInteger channelId);
    }

    class AskDaemonFirstPaymentChannelProvider
    PaymentChannelProvider <|.. AskDaemonFirstPaymentChannelProvider
    AskDaemonFirstPaymentChannelProvider *- - MultiPartyEscrowContract
    AskDaemonFirstPaymentChannelProvider *- - PaymentChannelStateService

    class EscrowPayment
    Payment ()- EscrowPayment

}

package io.singularitynet.sdk.client {

    interface Configuration {
        String getEthereumJsonRpcEndpoint();
        URL getIpfsUrl();
        SignerType getSignerType();
        String getSignerMnemonic();
        byte[] getSignerPrivateKey();
        Address getRegistryAddress();
        Address getMultiPartyEscrowAddress();
    }

    class JsonConfiguration
    Configuration <|.. JsonConfiguration

    interface DependencyFactory {
        Web3j getWeb3j();
        IPFS getIpfs();
        Signer getSigner();
        Registry getRegistry();
        MultiPartyEscrow getMultiPartyEscrow();
    }

    class ConfigurationDependencyFactory
    DependencyFactory <|.. ConfigurationDependencyFactory

    interface PaymentStrategy {
        <ReqT, RespT> Payment getPayment(GrpcCallParameters<ReqT, RespT> parameters, ServiceClient serviceClient);
    }

    class FixedPaymentChannelPaymentStrategy
    PaymentStrategy <|.. FixedPaymentChannelPaymentStrategy

    class Sdk {
        Sdk(Configuration config);
        Sdk(DependencyFactory factory);

        ServiceClient newServiceClient(String orgId, String serviceId, String endpointGroupName, PaymentStrategy paymentStrategy);
        void shutdown();
    }
    Sdk - - Configuration
    Sdk - - ServiceClient
    Sdk - - DependencyFactory

    interface ServiceClient {
        MetadataProvider getMetadataProvider();
        PaymentChannelProvider getPaymentChannelProvider();
        Signer getSigner();
        T getGrpcStub(Function<Channel, T> constructor);
        void shutdownNow();
    }

    class BaseServiceClient
    ServiceClient <|.. BaseServiceClient
    BaseServiceClient *- - DaemonConnection
    BaseServiceClient *- - MetadataProvider
    BaseServiceClient *- - PaymentChannelProvider
    BaseServiceClient *- - PaymentStrategy
    BaseServiceClient *- - Signer

}
@enduml

PlantUML version 1.2019.12(Sun Nov 03 10:24:54 UTC 2019)
(GPL source distribution)
Java Runtime: Java(TM) SE Runtime Environment
JVM: Java HotSpot(TM) 64-Bit Server VM
Java Version: 1.7.0_25-b15
Operating System: Linux
Default Encoding: UTF-8
Language: en
Country: US
--></g></svg>