<?xml version="1.0" encoding="UTF-8" standalone="no"?>
<svg xmlns="http://www.w3.org/2000/svg" xmlns:xlink="http://www.w3.org/1999/xlink" contentScriptType="application/ecmascript" contentStyleType="text/css" height="1737px" preserveAspectRatio="none" style="width:2923px;height:1737px;" version="1.1" viewBox="0 0 2923 1737" width="2923px" zoomAndPan="magnify"><defs><filter height="300%" id="f2kddn2ou3pdl" width="300%" x="-1" y="-1"><feGaussianBlur result="blurOut" stdDeviation="2.0"/><feColorMatrix in="blurOut" result="blurOut2" type="matrix" values="0 0 0 0 0 0 0 0 0 0 0 0 0 0 0 0 0 0 .4 0"/><feOffset dx="4.0" dy="4.0" in="blurOut2" result="blurOut3"/><feBlend in="SourceGraphic" in2="blurOut3" mode="normal"/></filter></defs><g><text fill="#000000" font-family="sans-serif" font-size="18" lengthAdjust="spacingAndGlyphs" textLength="213" x="1361" y="16.708">SingularityNet Java SDK</text><!--MD5=[c9a0bda5db5f5c41db91654b4e5ef6b4]
cluster io.singularitynet.sdk.ethereum--><polygon fill="#FFFFFF" filter="url(#f2kddn2ou3pdl)" points="2643,815.9531,2891,815.9531,2898,838.25,2901,838.25,2901,1362.9531,2643,1362.9531,2643,815.9531" style="stroke: #000000; stroke-width: 1.5;"/><line style="stroke: #000000; stroke-width: 1.5;" x1="2643" x2="2898" y1="838.25" y2="838.25"/><text fill="#000000" font-family="sans-serif" font-size="14" font-weight="bold" lengthAdjust="spacingAndGlyphs" textLength="242" x="2647" y="830.9482">io.singularitynet.sdk.ethereum</text><!--MD5=[fbeaa37b65443cc49c19f7a5ff8e9e60]
cluster io.singularitynet.sdk.registry--><polygon fill="#FFFFFF" filter="url(#f2kddn2ou3pdl)" points="920,1250.9531,1153,1250.9531,1160,1273.25,1649,1273.25,1649,1725.9531,920,1725.9531,920,1250.9531" style="stroke: #000000; stroke-width: 1.5;"/><line style="stroke: #000000; stroke-width: 1.5;" x1="920" x2="1160" y1="1273.25" y2="1273.25"/><text fill="#000000" font-family="sans-serif" font-size="14" font-weight="bold" lengthAdjust="spacingAndGlyphs" textLength="227" x="924" y="1265.9482">io.singularitynet.sdk.registry</text><!--MD5=[7a4376249cecd8eed7d6851d37ef4d2a]
cluster io.singularitynet.sdk.daemon--><polygon fill="#FFFFFF" filter="url(#f2kddn2ou3pdl)" points="1885,815.9531,2119,815.9531,2126,838.25,2563,838.25,2563,1226.9531,1885,1226.9531,1885,815.9531" style="stroke: #000000; stroke-width: 1.5;"/><line style="stroke: #000000; stroke-width: 1.5;" x1="1885" x2="2126" y1="838.25" y2="838.25"/><text fill="#000000" font-family="sans-serif" font-size="14" font-weight="bold" lengthAdjust="spacingAndGlyphs" textLength="228" x="1889" y="830.9482">io.singularitynet.sdk.daemon</text><!--MD5=[1cef9e114abc99c09a733caef85cc9b6]
cluster io.singularitynet.sdk.mpe--><polygon fill="#FFFFFF" filter="url(#f2kddn2ou3pdl)" points="1167,523.4531,1372,523.4531,1379,545.75,1861,545.75,1861,953.4531,1167,953.4531,1167,523.4531" style="stroke: #000000; stroke-width: 1.5;"/><line style="stroke: #000000; stroke-width: 1.5;" x1="1167" x2="1379" y1="545.75" y2="545.75"/><text fill="#000000" font-family="sans-serif" font-size="14" font-weight="bold" lengthAdjust="spacingAndGlyphs" textLength="199" x="1171" y="538.4482">io.singularitynet.sdk.mpe</text><!--MD5=[20d8be066390a5d4368908ca2ae678f3]
cluster io.singularitynet.sdk.client--><polygon fill="#FFFFFF" filter="url(#f2kddn2ou3pdl)" points="22,45.4531,236,45.4531,243,67.75,1143,67.75,1143,921.4531,22,921.4531,22,45.4531" style="stroke: #000000; stroke-width: 1.5;"/><line style="stroke: #000000; stroke-width: 1.5;" x1="22" x2="243" y1="67.75" y2="67.75"/><text fill="#000000" font-family="sans-serif" font-size="14" font-weight="bold" lengthAdjust="spacingAndGlyphs" textLength="208" x="26" y="60.4482">io.singularitynet.sdk.client</text><!--MD5=[02f5c4a709c8c80aaf14170cabfdbf15]
class WithAddress--><rect fill="#FEFECE" filter="url(#f2kddn2ou3pdl)" height="60.8047" id="WithAddress" style="stroke: #A80036; stroke-width: 1.5;" width="140" x="2724" y="850.9531"/><ellipse cx="2752.95" cy="866.9531" fill="#B4A7E5" rx="11" ry="11" style="stroke: #A80036; stroke-width: 1.0;"/><path d="M2753.9031,863.7344 L2753.9031,870.25 L2755.6219,870.25 C2756.075,870.25 2756.2156,870.2813 2756.3875,870.4063 C2756.6219,870.5781 2756.7313,870.8281 2756.7313,871.1094 C2756.7313,871.6719 2756.3719,871.9531 2755.6219,871.9531 L2750.4813,871.9531 C2750.075,871.9531 2749.8719,871.9063 2749.7156,871.7813 C2749.4969,871.625 2749.3563,871.3594 2749.3563,871.1094 C2749.3563,870.8125 2749.5125,870.5313 2749.7625,870.375 C2749.9188,870.2656 2750.0438,870.25 2750.4813,870.25 L2752.2,870.25 L2752.2,863.7344 L2750.4813,863.7344 C2750.0594,863.7344 2749.8719,863.7031 2749.7156,863.5938 C2749.4969,863.4219 2749.3563,863.1719 2749.3563,862.8906 C2749.3563,862.6094 2749.5125,862.3125 2749.7625,862.1563 C2749.9188,862.0625 2750.0438,862.0469 2750.4813,862.0469 L2755.6219,862.0469 C2756.075,862.0469 2756.2156,862.0781 2756.3875,862.1875 C2756.6219,862.3594 2756.7313,862.625 2756.7313,862.8906 C2756.7313,863.1875 2756.5906,863.4688 2756.325,863.625 C2756.2,863.7031 2756.0125,863.7344 2755.6219,863.7344 Z "/><text fill="#000000" font-family="sans-serif" font-size="12" font-style="italic" lengthAdjust="spacingAndGlyphs" textLength="77" x="2770.05" y="871.1074">WithAddress</text><line style="stroke: #A80036; stroke-width: 1.5;" x1="2725" x2="2863" y1="882.9531" y2="882.9531"/><line style="stroke: #A80036; stroke-width: 1.5;" x1="2725" x2="2863" y1="890.9531" y2="890.9531"/><text fill="#000000" font-family="sans-serif" font-size="11" lengthAdjust="spacingAndGlyphs" textLength="128" x="2730" y="905.1636">Address getAddress();</text><!--MD5=[eb5eb01d997468ef8d4f71b3444e5fe9]
class Identity--><rect fill="#FEFECE" filter="url(#f2kddn2ou3pdl)" height="60.8047" id="Identity" style="stroke: #A80036; stroke-width: 1.5;" width="196" x="2668" y="1016.4531"/><ellipse cx="2741.75" cy="1032.4531" fill="#B4A7E5" rx="11" ry="11" style="stroke: #A80036; stroke-width: 1.0;"/><path d="M2742.7031,1029.2344 L2742.7031,1035.75 L2744.4219,1035.75 C2744.875,1035.75 2745.0156,1035.7813 2745.1875,1035.9063 C2745.4219,1036.0781 2745.5313,1036.3281 2745.5313,1036.6094 C2745.5313,1037.1719 2745.1719,1037.4531 2744.4219,1037.4531 L2739.2813,1037.4531 C2738.875,1037.4531 2738.6719,1037.4063 2738.5156,1037.2813 C2738.2969,1037.125 2738.1563,1036.8594 2738.1563,1036.6094 C2738.1563,1036.3125 2738.3125,1036.0313 2738.5625,1035.875 C2738.7188,1035.7656 2738.8438,1035.75 2739.2813,1035.75 L2741,1035.75 L2741,1029.2344 L2739.2813,1029.2344 C2738.8594,1029.2344 2738.6719,1029.2031 2738.5156,1029.0938 C2738.2969,1028.9219 2738.1563,1028.6719 2738.1563,1028.3906 C2738.1563,1028.1094 2738.3125,1027.8125 2738.5625,1027.6563 C2738.7188,1027.5625 2738.8438,1027.5469 2739.2813,1027.5469 L2744.4219,1027.5469 C2744.875,1027.5469 2745.0156,1027.5781 2745.1875,1027.6875 C2745.4219,1027.8594 2745.5313,1028.125 2745.5313,1028.3906 C2745.5313,1028.6875 2745.3906,1028.9688 2745.125,1029.125 C2745,1029.2031 2744.8125,1029.2344 2744.4219,1029.2344 Z "/><text fill="#000000" font-family="sans-serif" font-size="12" font-style="italic" lengthAdjust="spacingAndGlyphs" textLength="40" x="2762.25" y="1036.6074">Identity</text><line style="stroke: #A80036; stroke-width: 1.5;" x1="2669" x2="2863" y1="1048.4531" y2="1048.4531"/><line style="stroke: #A80036; stroke-width: 1.5;" x1="2669" x2="2863" y1="1056.4531" y2="1056.4531"/><text fill="#000000" font-family="sans-serif" font-size="11" lengthAdjust="spacingAndGlyphs" textLength="184" x="2674" y="1070.6636">Signature sign(byte[] message);</text><!--MD5=[b6d80437076b002e054c1b4fb05a77ff]
class PrivateKeyIdentity--><rect fill="#FEFECE" filter="url(#f2kddn2ou3pdl)" height="60.8047" id="PrivateKeyIdentity" style="stroke: #A80036; stroke-width: 1.5;" width="176" x="2678" y="1156.4531"/><ellipse cx="2708.3" cy="1172.4531" fill="#ADD1B2" rx="11" ry="11" style="stroke: #A80036; stroke-width: 1.0;"/><path d="M2710.6438,1168.125 L2710.8156,1168.2031 C2711.0344,1167.8906 2711.2375,1167.7969 2711.5344,1167.7969 C2711.8313,1167.7969 2712.1125,1167.9375 2712.2688,1168.2031 C2712.3625,1168.3594 2712.3781,1168.4844 2712.3781,1168.9219 L2712.3781,1170.3438 C2712.3781,1170.7656 2712.3469,1170.9531 2712.2375,1171.1094 C2712.0656,1171.3281 2711.8,1171.4688 2711.5344,1171.4688 C2711.3156,1171.4688 2711.0813,1171.3594 2710.9406,1171.2188 C2710.8,1171.0938 2710.7688,1170.9688 2710.7063,1170.5625 C2710.6125,1170.1563 2710.4406,1169.9375 2709.9563,1169.6563 C2709.4875,1169.4063 2708.8781,1169.25 2708.3,1169.25 C2706.5656,1169.25 2705.3156,1170.5625 2705.3156,1172.3438 L2705.3156,1173.4375 C2705.3156,1175.1406 2706.6125,1176.2344 2708.6594,1176.2344 C2709.425,1176.2344 2710.1125,1176.1094 2710.5344,1175.8438 C2710.7219,1175.75 2710.7219,1175.75 2711.175,1175.2656 C2711.3625,1175.0781 2711.5656,1175 2711.7844,1175 C2712.2531,1175 2712.6438,1175.3906 2712.6438,1175.8438 C2712.6438,1176.2344 2712.3156,1176.6875 2711.7375,1177.0938 C2710.9875,1177.6406 2709.8313,1177.9375 2708.6125,1177.9375 C2705.7219,1177.9375 2703.6125,1176.0469 2703.6125,1173.4688 L2703.6125,1172.3438 C2703.6125,1169.625 2705.6125,1167.5469 2708.2375,1167.5469 C2709.1125,1167.5469 2709.7063,1167.6875 2710.6438,1168.125 Z "/><text fill="#000000" font-family="sans-serif" font-size="12" lengthAdjust="spacingAndGlyphs" textLength="110" x="2725.7" y="1176.6074">PrivateKeyIdentity</text><line style="stroke: #A80036; stroke-width: 1.5;" x1="2679" x2="2853" y1="1188.4531" y2="1188.4531"/><line style="stroke: #A80036; stroke-width: 1.5;" x1="2679" x2="2853" y1="1196.4531" y2="1196.4531"/><text fill="#000000" font-family="sans-serif" font-size="11" lengthAdjust="spacingAndGlyphs" textLength="164" x="2684" y="1210.6636">Credentials getCredentials();</text><!--MD5=[0e3850bbd7a0c73dc417b72efd437f75]
class MnemonicIdentity--><rect fill="#FEFECE" filter="url(#f2kddn2ou3pdl)" height="48" id="MnemonicIdentity" style="stroke: #A80036; stroke-width: 1.5;" width="141" x="2695.5" y="1298.9531"/><ellipse cx="2710.5" cy="1314.9531" fill="#ADD1B2" rx="11" ry="11" style="stroke: #A80036; stroke-width: 1.0;"/><path d="M2712.8438,1310.625 L2713.0156,1310.7031 C2713.2344,1310.3906 2713.4375,1310.2969 2713.7344,1310.2969 C2714.0313,1310.2969 2714.3125,1310.4375 2714.4688,1310.7031 C2714.5625,1310.8594 2714.5781,1310.9844 2714.5781,1311.4219 L2714.5781,1312.8438 C2714.5781,1313.2656 2714.5469,1313.4531 2714.4375,1313.6094 C2714.2656,1313.8281 2714,1313.9688 2713.7344,1313.9688 C2713.5156,1313.9688 2713.2813,1313.8594 2713.1406,1313.7188 C2713,1313.5938 2712.9688,1313.4688 2712.9063,1313.0625 C2712.8125,1312.6563 2712.6406,1312.4375 2712.1563,1312.1563 C2711.6875,1311.9063 2711.0781,1311.75 2710.5,1311.75 C2708.7656,1311.75 2707.5156,1313.0625 2707.5156,1314.8438 L2707.5156,1315.9375 C2707.5156,1317.6406 2708.8125,1318.7344 2710.8594,1318.7344 C2711.625,1318.7344 2712.3125,1318.6094 2712.7344,1318.3438 C2712.9219,1318.25 2712.9219,1318.25 2713.375,1317.7656 C2713.5625,1317.5781 2713.7656,1317.5 2713.9844,1317.5 C2714.4531,1317.5 2714.8438,1317.8906 2714.8438,1318.3438 C2714.8438,1318.7344 2714.5156,1319.1875 2713.9375,1319.5938 C2713.1875,1320.1406 2712.0313,1320.4375 2710.8125,1320.4375 C2707.9219,1320.4375 2705.8125,1318.5469 2705.8125,1315.9688 L2705.8125,1314.8438 C2705.8125,1312.125 2707.8125,1310.0469 2710.4375,1310.0469 C2711.3125,1310.0469 2711.9063,1310.1875 2712.8438,1310.625 Z "/><text fill="#000000" font-family="sans-serif" font-size="12" lengthAdjust="spacingAndGlyphs" textLength="109" x="2724.5" y="1319.1074">MnemonicIdentity</text><line style="stroke: #A80036; stroke-width: 1.5;" x1="2696.5" x2="2835.5" y1="1330.9531" y2="1330.9531"/><line style="stroke: #A80036; stroke-width: 1.5;" x1="2696.5" x2="2835.5" y1="1338.9531" y2="1338.9531"/><!--MD5=[108749fa12a1baf8beb812f2eb0b4ce9]
class MetadataStorage--><rect fill="#FEFECE" filter="url(#f2kddn2ou3pdl)" height="60.8047" id="MetadataStorage" style="stroke: #A80036; stroke-width: 1.5;" width="142" x="936" y="1534.4531"/><ellipse cx="951" cy="1550.4531" fill="#B4A7E5" rx="11" ry="11" style="stroke: #A80036; stroke-width: 1.0;"/><path d="M951.9531,1547.2344 L951.9531,1553.75 L953.6719,1553.75 C954.125,1553.75 954.2656,1553.7813 954.4375,1553.9063 C954.6719,1554.0781 954.7813,1554.3281 954.7813,1554.6094 C954.7813,1555.1719 954.4219,1555.4531 953.6719,1555.4531 L948.5313,1555.4531 C948.125,1555.4531 947.9219,1555.4063 947.7656,1555.2813 C947.5469,1555.125 947.4063,1554.8594 947.4063,1554.6094 C947.4063,1554.3125 947.5625,1554.0313 947.8125,1553.875 C947.9688,1553.7656 948.0938,1553.75 948.5313,1553.75 L950.25,1553.75 L950.25,1547.2344 L948.5313,1547.2344 C948.1094,1547.2344 947.9219,1547.2031 947.7656,1547.0938 C947.5469,1546.9219 947.4063,1546.6719 947.4063,1546.3906 C947.4063,1546.1094 947.5625,1545.8125 947.8125,1545.6563 C947.9688,1545.5625 948.0938,1545.5469 948.5313,1545.5469 L953.6719,1545.5469 C954.125,1545.5469 954.2656,1545.5781 954.4375,1545.6875 C954.6719,1545.8594 954.7813,1546.125 954.7813,1546.3906 C954.7813,1546.6875 954.6406,1546.9688 954.375,1547.125 C954.25,1547.2031 954.0625,1547.2344 953.6719,1547.2344 Z "/><text fill="#000000" font-family="sans-serif" font-size="12" font-style="italic" lengthAdjust="spacingAndGlyphs" textLength="110" x="965" y="1554.6074">MetadataStorage</text><line style="stroke: #A80036; stroke-width: 1.5;" x1="937" x2="1077" y1="1566.4531" y2="1566.4531"/><line style="stroke: #A80036; stroke-width: 1.5;" x1="937" x2="1077" y1="1574.4531" y2="1574.4531"/><text fill="#000000" font-family="sans-serif" font-size="11" lengthAdjust="spacingAndGlyphs" textLength="103" x="942" y="1588.6636">byte[] get(URI uri);</text><!--MD5=[0b8b14870791f9141f0f6a23b1b388b1]
class IpfsMetadataStorage--><rect fill="#FEFECE" filter="url(#f2kddn2ou3pdl)" height="48" id="IpfsMetadataStorage" style="stroke: #A80036; stroke-width: 1.5;" width="164" x="936" y="1661.9531"/><ellipse cx="951" cy="1677.9531" fill="#ADD1B2" rx="11" ry="11" style="stroke: #A80036; stroke-width: 1.0;"/><path d="M953.3438,1673.625 L953.5156,1673.7031 C953.7344,1673.3906 953.9375,1673.2969 954.2344,1673.2969 C954.5313,1673.2969 954.8125,1673.4375 954.9688,1673.7031 C955.0625,1673.8594 955.0781,1673.9844 955.0781,1674.4219 L955.0781,1675.8438 C955.0781,1676.2656 955.0469,1676.4531 954.9375,1676.6094 C954.7656,1676.8281 954.5,1676.9688 954.2344,1676.9688 C954.0156,1676.9688 953.7813,1676.8594 953.6406,1676.7188 C953.5,1676.5938 953.4688,1676.4688 953.4063,1676.0625 C953.3125,1675.6563 953.1406,1675.4375 952.6563,1675.1563 C952.1875,1674.9063 951.5781,1674.75 951,1674.75 C949.2656,1674.75 948.0156,1676.0625 948.0156,1677.8438 L948.0156,1678.9375 C948.0156,1680.6406 949.3125,1681.7344 951.3594,1681.7344 C952.125,1681.7344 952.8125,1681.6094 953.2344,1681.3438 C953.4219,1681.25 953.4219,1681.25 953.875,1680.7656 C954.0625,1680.5781 954.2656,1680.5 954.4844,1680.5 C954.9531,1680.5 955.3438,1680.8906 955.3438,1681.3438 C955.3438,1681.7344 955.0156,1682.1875 954.4375,1682.5938 C953.6875,1683.1406 952.5313,1683.4375 951.3125,1683.4375 C948.4219,1683.4375 946.3125,1681.5469 946.3125,1678.9688 L946.3125,1677.8438 C946.3125,1675.125 948.3125,1673.0469 950.9375,1673.0469 C951.8125,1673.0469 952.4063,1673.1875 953.3438,1673.625 Z "/><text fill="#000000" font-family="sans-serif" font-size="12" lengthAdjust="spacingAndGlyphs" textLength="132" x="965" y="1682.1074">IpfsMetadataStorage</text><line style="stroke: #A80036; stroke-width: 1.5;" x1="937" x2="1099" y1="1693.9531" y2="1693.9531"/><line style="stroke: #A80036; stroke-width: 1.5;" x1="937" x2="1099" y1="1701.9531" y2="1701.9531"/><!--MD5=[c96f5c1a2d64b984efda073a5aae009b]
class RegistryContract--><rect fill="#FEFECE" filter="url(#f2kddn2ou3pdl)" height="73.6094" id="RegistryContract" style="stroke: #A80036; stroke-width: 1.5;" width="519" x="1113.5" y="1527.9531"/><ellipse cx="1316.75" cy="1543.9531" fill="#ADD1B2" rx="11" ry="11" style="stroke: #A80036; stroke-width: 1.0;"/><path d="M1319.0938,1539.625 L1319.2656,1539.7031 C1319.4844,1539.3906 1319.6875,1539.2969 1319.9844,1539.2969 C1320.2813,1539.2969 1320.5625,1539.4375 1320.7188,1539.7031 C1320.8125,1539.8594 1320.8281,1539.9844 1320.8281,1540.4219 L1320.8281,1541.8438 C1320.8281,1542.2656 1320.7969,1542.4531 1320.6875,1542.6094 C1320.5156,1542.8281 1320.25,1542.9688 1319.9844,1542.9688 C1319.7656,1542.9688 1319.5313,1542.8594 1319.3906,1542.7188 C1319.25,1542.5938 1319.2188,1542.4688 1319.1563,1542.0625 C1319.0625,1541.6563 1318.8906,1541.4375 1318.4063,1541.1563 C1317.9375,1540.9063 1317.3281,1540.75 1316.75,1540.75 C1315.0156,1540.75 1313.7656,1542.0625 1313.7656,1543.8438 L1313.7656,1544.9375 C1313.7656,1546.6406 1315.0625,1547.7344 1317.1094,1547.7344 C1317.875,1547.7344 1318.5625,1547.6094 1318.9844,1547.3438 C1319.1719,1547.25 1319.1719,1547.25 1319.625,1546.7656 C1319.8125,1546.5781 1320.0156,1546.5 1320.2344,1546.5 C1320.7031,1546.5 1321.0938,1546.8906 1321.0938,1547.3438 C1321.0938,1547.7344 1320.7656,1548.1875 1320.1875,1548.5938 C1319.4375,1549.1406 1318.2813,1549.4375 1317.0625,1549.4375 C1314.1719,1549.4375 1312.0625,1547.5469 1312.0625,1544.9688 L1312.0625,1543.8438 C1312.0625,1541.125 1314.0625,1539.0469 1316.6875,1539.0469 C1317.5625,1539.0469 1318.1563,1539.1875 1319.0938,1539.625 Z "/><text fill="#000000" font-family="sans-serif" font-size="12" lengthAdjust="spacingAndGlyphs" textLength="104" x="1337.25" y="1548.1074">RegistryContract</text><line style="stroke: #A80036; stroke-width: 1.5;" x1="1114.5" x2="1631.5" y1="1559.9531" y2="1559.9531"/><line style="stroke: #A80036; stroke-width: 1.5;" x1="1114.5" x2="1631.5" y1="1567.9531" y2="1567.9531"/><text fill="#000000" font-family="sans-serif" font-size="11" lengthAdjust="spacingAndGlyphs" textLength="400" x="1119.5" y="1582.1636">Optional&lt;OrganizationRegistration&gt; getOrganizationById(String orgId);</text><text fill="#000000" font-family="sans-serif" font-size="11" lengthAdjust="spacingAndGlyphs" textLength="507" x="1119.5" y="1594.9683">Optional&lt;ServiceRegistration&gt; getServiceRegistrationById(String orgId, String serviceId);</text><!--MD5=[7de846d6b480f97ff8e018abb55faf3d]
class MetadataProvider--><rect fill="#FEFECE" filter="url(#f2kddn2ou3pdl)" height="73.6094" id="MetadataProvider" style="stroke: #A80036; stroke-width: 1.5;" width="292" x="1081" y="1285.9531"/><ellipse cx="1167.75" cy="1301.9531" fill="#B4A7E5" rx="11" ry="11" style="stroke: #A80036; stroke-width: 1.0;"/><path d="M1168.7031,1298.7344 L1168.7031,1305.25 L1170.4219,1305.25 C1170.875,1305.25 1171.0156,1305.2813 1171.1875,1305.4063 C1171.4219,1305.5781 1171.5313,1305.8281 1171.5313,1306.1094 C1171.5313,1306.6719 1171.1719,1306.9531 1170.4219,1306.9531 L1165.2813,1306.9531 C1164.875,1306.9531 1164.6719,1306.9063 1164.5156,1306.7813 C1164.2969,1306.625 1164.1563,1306.3594 1164.1563,1306.1094 C1164.1563,1305.8125 1164.3125,1305.5313 1164.5625,1305.375 C1164.7188,1305.2656 1164.8438,1305.25 1165.2813,1305.25 L1167,1305.25 L1167,1298.7344 L1165.2813,1298.7344 C1164.8594,1298.7344 1164.6719,1298.7031 1164.5156,1298.5938 C1164.2969,1298.4219 1164.1563,1298.1719 1164.1563,1297.8906 C1164.1563,1297.6094 1164.3125,1297.3125 1164.5625,1297.1563 C1164.7188,1297.0625 1164.8438,1297.0469 1165.2813,1297.0469 L1170.4219,1297.0469 C1170.875,1297.0469 1171.0156,1297.0781 1171.1875,1297.1875 C1171.4219,1297.3594 1171.5313,1297.625 1171.5313,1297.8906 C1171.5313,1298.1875 1171.3906,1298.4688 1171.125,1298.625 C1171,1298.7031 1170.8125,1298.7344 1170.4219,1298.7344 Z "/><text fill="#000000" font-family="sans-serif" font-size="12" font-style="italic" lengthAdjust="spacingAndGlyphs" textLength="110" x="1188.25" y="1306.1074">MetadataProvider</text><line style="stroke: #A80036; stroke-width: 1.5;" x1="1082" x2="1372" y1="1317.9531" y2="1317.9531"/><line style="stroke: #A80036; stroke-width: 1.5;" x1="1082" x2="1372" y1="1325.9531" y2="1325.9531"/><text fill="#000000" font-family="sans-serif" font-size="11" lengthAdjust="spacingAndGlyphs" textLength="222" x="1087" y="1340.1636">ServiceMetadata getServiceMetadata();</text><text fill="#000000" font-family="sans-serif" font-size="11" lengthAdjust="spacingAndGlyphs" textLength="280" x="1087" y="1352.9683">OrganizationMetadata getOrganizationMetadata();</text><!--MD5=[7d6c47076f660fce1d354ac67d286524]
class RegistryMetadataProvider--><rect fill="#FEFECE" filter="url(#f2kddn2ou3pdl)" height="48" id="RegistryMetadataProvider" style="stroke: #A80036; stroke-width: 1.5;" width="193" x="1130.5" y="1419.9531"/><ellipse cx="1145.5" cy="1435.9531" fill="#ADD1B2" rx="11" ry="11" style="stroke: #A80036; stroke-width: 1.0;"/><path d="M1147.8438,1431.625 L1148.0156,1431.7031 C1148.2344,1431.3906 1148.4375,1431.2969 1148.7344,1431.2969 C1149.0313,1431.2969 1149.3125,1431.4375 1149.4688,1431.7031 C1149.5625,1431.8594 1149.5781,1431.9844 1149.5781,1432.4219 L1149.5781,1433.8438 C1149.5781,1434.2656 1149.5469,1434.4531 1149.4375,1434.6094 C1149.2656,1434.8281 1149,1434.9688 1148.7344,1434.9688 C1148.5156,1434.9688 1148.2813,1434.8594 1148.1406,1434.7188 C1148,1434.5938 1147.9688,1434.4688 1147.9063,1434.0625 C1147.8125,1433.6563 1147.6406,1433.4375 1147.1563,1433.1563 C1146.6875,1432.9063 1146.0781,1432.75 1145.5,1432.75 C1143.7656,1432.75 1142.5156,1434.0625 1142.5156,1435.8438 L1142.5156,1436.9375 C1142.5156,1438.6406 1143.8125,1439.7344 1145.8594,1439.7344 C1146.625,1439.7344 1147.3125,1439.6094 1147.7344,1439.3438 C1147.9219,1439.25 1147.9219,1439.25 1148.375,1438.7656 C1148.5625,1438.5781 1148.7656,1438.5 1148.9844,1438.5 C1149.4531,1438.5 1149.8438,1438.8906 1149.8438,1439.3438 C1149.8438,1439.7344 1149.5156,1440.1875 1148.9375,1440.5938 C1148.1875,1441.1406 1147.0313,1441.4375 1145.8125,1441.4375 C1142.9219,1441.4375 1140.8125,1439.5469 1140.8125,1436.9688 L1140.8125,1435.8438 C1140.8125,1433.125 1142.8125,1431.0469 1145.4375,1431.0469 C1146.3125,1431.0469 1146.9063,1431.1875 1147.8438,1431.625 Z "/><text fill="#000000" font-family="sans-serif" font-size="12" lengthAdjust="spacingAndGlyphs" textLength="161" x="1159.5" y="1440.1074">RegistryMetadataProvider</text><line style="stroke: #A80036; stroke-width: 1.5;" x1="1131.5" x2="1322.5" y1="1451.9531" y2="1451.9531"/><line style="stroke: #A80036; stroke-width: 1.5;" x1="1131.5" x2="1322.5" y1="1459.9531" y2="1459.9531"/><!--MD5=[06bc73c308419be41e333edfccb18056]
class DaemonConnection--><rect fill="#FEFECE" filter="url(#f2kddn2ou3pdl)" height="99.2188" id="DaemonConnection" style="stroke: #A80036; stroke-width: 1.5;" width="351" x="2174.5" y="997.4531"/><ellipse cx="2284.25" cy="1013.4531" fill="#B4A7E5" rx="11" ry="11" style="stroke: #A80036; stroke-width: 1.0;"/><path d="M2285.2031,1010.2344 L2285.2031,1016.75 L2286.9219,1016.75 C2287.375,1016.75 2287.5156,1016.7813 2287.6875,1016.9063 C2287.9219,1017.0781 2288.0313,1017.3281 2288.0313,1017.6094 C2288.0313,1018.1719 2287.6719,1018.4531 2286.9219,1018.4531 L2281.7813,1018.4531 C2281.375,1018.4531 2281.1719,1018.4063 2281.0156,1018.2813 C2280.7969,1018.125 2280.6563,1017.8594 2280.6563,1017.6094 C2280.6563,1017.3125 2280.8125,1017.0313 2281.0625,1016.875 C2281.2188,1016.7656 2281.3438,1016.75 2281.7813,1016.75 L2283.5,1016.75 L2283.5,1010.2344 L2281.7813,1010.2344 C2281.3594,1010.2344 2281.1719,1010.2031 2281.0156,1010.0938 C2280.7969,1009.9219 2280.6563,1009.6719 2280.6563,1009.3906 C2280.6563,1009.1094 2280.8125,1008.8125 2281.0625,1008.6563 C2281.2188,1008.5625 2281.3438,1008.5469 2281.7813,1008.5469 L2286.9219,1008.5469 C2287.375,1008.5469 2287.5156,1008.5781 2287.6875,1008.6875 C2287.9219,1008.8594 2288.0313,1009.125 2288.0313,1009.3906 C2288.0313,1009.6875 2287.8906,1009.9688 2287.625,1010.125 C2287.5,1010.2031 2287.3125,1010.2344 2286.9219,1010.2344 Z "/><text fill="#000000" font-family="sans-serif" font-size="12" font-style="italic" lengthAdjust="spacingAndGlyphs" textLength="123" x="2304.75" y="1017.6074">DaemonConnection</text><line style="stroke: #A80036; stroke-width: 1.5;" x1="2175.5" x2="2524.5" y1="1029.4531" y2="1029.4531"/><line style="stroke: #A80036; stroke-width: 1.5;" x1="2175.5" x2="2524.5" y1="1037.4531" y2="1037.4531"/><text fill="#000000" font-family="sans-serif" font-size="11" lengthAdjust="spacingAndGlyphs" textLength="318" x="2180.5" y="1051.6636">&lt;T&gt; T getGrpcStub(Function&lt;Channel, T&gt; constructor);</text><text fill="#000000" font-family="sans-serif" font-size="11" lengthAdjust="spacingAndGlyphs" textLength="339" x="2180.5" y="1064.4683">void setClientCallsInterceptor(ClientInterceptor interceptor);</text><text fill="#000000" font-family="sans-serif" font-size="11" lengthAdjust="spacingAndGlyphs" textLength="185" x="2180.5" y="1077.2729">String getEndpointGroupName();</text><text fill="#000000" font-family="sans-serif" font-size="11" lengthAdjust="spacingAndGlyphs" textLength="118" x="2180.5" y="1090.0776">void shutdownNow();</text><!--MD5=[297291980de3643661061590a47a5f7c]
class RandomEndpointDaemonConnection--><rect fill="#FEFECE" filter="url(#f2kddn2ou3pdl)" height="48" id="RandomEndpointDaemonConnection" style="stroke: #A80036; stroke-width: 1.5;" width="238" x="2066" y="1162.9531"/><ellipse cx="2081" cy="1178.9531" fill="#ADD1B2" rx="11" ry="11" style="stroke: #A80036; stroke-width: 1.0;"/><path d="M2083.3438,1174.625 L2083.5156,1174.7031 C2083.7344,1174.3906 2083.9375,1174.2969 2084.2344,1174.2969 C2084.5313,1174.2969 2084.8125,1174.4375 2084.9688,1174.7031 C2085.0625,1174.8594 2085.0781,1174.9844 2085.0781,1175.4219 L2085.0781,1176.8438 C2085.0781,1177.2656 2085.0469,1177.4531 2084.9375,1177.6094 C2084.7656,1177.8281 2084.5,1177.9688 2084.2344,1177.9688 C2084.0156,1177.9688 2083.7813,1177.8594 2083.6406,1177.7188 C2083.5,1177.5938 2083.4688,1177.4688 2083.4063,1177.0625 C2083.3125,1176.6563 2083.1406,1176.4375 2082.6563,1176.1563 C2082.1875,1175.9063 2081.5781,1175.75 2081,1175.75 C2079.2656,1175.75 2078.0156,1177.0625 2078.0156,1178.8438 L2078.0156,1179.9375 C2078.0156,1181.6406 2079.3125,1182.7344 2081.3594,1182.7344 C2082.125,1182.7344 2082.8125,1182.6094 2083.2344,1182.3438 C2083.4219,1182.25 2083.4219,1182.25 2083.875,1181.7656 C2084.0625,1181.5781 2084.2656,1181.5 2084.4844,1181.5 C2084.9531,1181.5 2085.3438,1181.8906 2085.3438,1182.3438 C2085.3438,1182.7344 2085.0156,1183.1875 2084.4375,1183.5938 C2083.6875,1184.1406 2082.5313,1184.4375 2081.3125,1184.4375 C2078.4219,1184.4375 2076.3125,1182.5469 2076.3125,1179.9688 L2076.3125,1178.8438 C2076.3125,1176.125 2078.3125,1174.0469 2080.9375,1174.0469 C2081.8125,1174.0469 2082.4063,1174.1875 2083.3438,1174.625 Z "/><text fill="#000000" font-family="sans-serif" font-size="12" lengthAdjust="spacingAndGlyphs" textLength="206" x="2095" y="1183.1074">RandomEndpointDaemonConnection</text><line style="stroke: #A80036; stroke-width: 1.5;" x1="2067" x2="2303" y1="1194.9531" y2="1194.9531"/><line style="stroke: #A80036; stroke-width: 1.5;" x1="2067" x2="2303" y1="1202.9531" y2="1202.9531"/><!--MD5=[49163365a2d8a8492303b83ddbd98154]
class PaymentChannelStateService--><rect fill="#FEFECE" filter="url(#f2kddn2ou3pdl)" height="60.8047" id="PaymentChannelStateService" style="stroke: #A80036; stroke-width: 1.5;" width="393" x="2153.5" y="850.9531"/><ellipse cx="2253.75" cy="866.9531" fill="#ADD1B2" rx="11" ry="11" style="stroke: #A80036; stroke-width: 1.0;"/><path d="M2256.0938,862.625 L2256.2656,862.7031 C2256.4844,862.3906 2256.6875,862.2969 2256.9844,862.2969 C2257.2813,862.2969 2257.5625,862.4375 2257.7188,862.7031 C2257.8125,862.8594 2257.8281,862.9844 2257.8281,863.4219 L2257.8281,864.8438 C2257.8281,865.2656 2257.7969,865.4531 2257.6875,865.6094 C2257.5156,865.8281 2257.25,865.9688 2256.9844,865.9688 C2256.7656,865.9688 2256.5313,865.8594 2256.3906,865.7188 C2256.25,865.5938 2256.2188,865.4688 2256.1563,865.0625 C2256.0625,864.6563 2255.8906,864.4375 2255.4063,864.1563 C2254.9375,863.9063 2254.3281,863.75 2253.75,863.75 C2252.0156,863.75 2250.7656,865.0625 2250.7656,866.8438 L2250.7656,867.9375 C2250.7656,869.6406 2252.0625,870.7344 2254.1094,870.7344 C2254.875,870.7344 2255.5625,870.6094 2255.9844,870.3438 C2256.1719,870.25 2256.1719,870.25 2256.625,869.7656 C2256.8125,869.5781 2257.0156,869.5 2257.2344,869.5 C2257.7031,869.5 2258.0938,869.8906 2258.0938,870.3438 C2258.0938,870.7344 2257.7656,871.1875 2257.1875,871.5938 C2256.4375,872.1406 2255.2813,872.4375 2254.0625,872.4375 C2251.1719,872.4375 2249.0625,870.5469 2249.0625,867.9688 L2249.0625,866.8438 C2249.0625,864.125 2251.0625,862.0469 2253.6875,862.0469 C2254.5625,862.0469 2255.1563,862.1875 2256.0938,862.625 Z "/><text fill="#000000" font-family="sans-serif" font-size="12" lengthAdjust="spacingAndGlyphs" textLength="184" x="2274.25" y="871.1074">PaymentChannelStateService</text><line style="stroke: #A80036; stroke-width: 1.5;" x1="2154.5" x2="2545.5" y1="882.9531" y2="882.9531"/><line style="stroke: #A80036; stroke-width: 1.5;" x1="2154.5" x2="2545.5" y1="890.9531" y2="890.9531"/><text fill="#000000" font-family="sans-serif" font-size="11" lengthAdjust="spacingAndGlyphs" textLength="381" x="2159.5" y="905.1636">PaymentChannelStateReply getChannelState(BigInteger channelId);</text><!--MD5=[764fca796ce7f635542948d8fc39db5e]
class Payment--><rect fill="#FEFECE" filter="url(#f2kddn2ou3pdl)" height="60.8047" id="Payment" style="stroke: #A80036; stroke-width: 1.5;" width="217" x="1901.5" y="850.9531"/><ellipse cx="1978.75" cy="866.9531" fill="#B4A7E5" rx="11" ry="11" style="stroke: #A80036; stroke-width: 1.0;"/><path d="M1979.7031,863.7344 L1979.7031,870.25 L1981.4219,870.25 C1981.875,870.25 1982.0156,870.2813 1982.1875,870.4063 C1982.4219,870.5781 1982.5313,870.8281 1982.5313,871.1094 C1982.5313,871.6719 1982.1719,871.9531 1981.4219,871.9531 L1976.2813,871.9531 C1975.875,871.9531 1975.6719,871.9063 1975.5156,871.7813 C1975.2969,871.625 1975.1563,871.3594 1975.1563,871.1094 C1975.1563,870.8125 1975.3125,870.5313 1975.5625,870.375 C1975.7188,870.2656 1975.8438,870.25 1976.2813,870.25 L1978,870.25 L1978,863.7344 L1976.2813,863.7344 C1975.8594,863.7344 1975.6719,863.7031 1975.5156,863.5938 C1975.2969,863.4219 1975.1563,863.1719 1975.1563,862.8906 C1975.1563,862.6094 1975.3125,862.3125 1975.5625,862.1563 C1975.7188,862.0625 1975.8438,862.0469 1976.2813,862.0469 L1981.4219,862.0469 C1981.875,862.0469 1982.0156,862.0781 1982.1875,862.1875 C1982.4219,862.3594 1982.5313,862.625 1982.5313,862.8906 C1982.5313,863.1875 1982.3906,863.4688 1982.125,863.625 C1982,863.7031 1981.8125,863.7344 1981.4219,863.7344 Z "/><text fill="#000000" font-family="sans-serif" font-size="12" font-style="italic" lengthAdjust="spacingAndGlyphs" textLength="54" x="1999.25" y="871.1074">Payment</text><line style="stroke: #A80036; stroke-width: 1.5;" x1="1902.5" x2="2117.5" y1="882.9531" y2="882.9531"/><line style="stroke: #A80036; stroke-width: 1.5;" x1="1902.5" x2="2117.5" y1="890.9531" y2="890.9531"/><text fill="#000000" font-family="sans-serif" font-size="11" lengthAdjust="spacingAndGlyphs" textLength="205" x="1907.5" y="905.1636">void toMetadata(Metadata headers);</text><!--MD5=[21705c80423a45734a535470c58d7091]
class MultiPartyEscrowContract--><rect fill="#FEFECE" filter="url(#f2kddn2ou3pdl)" height="112.0234" id="MultiPartyEscrowContract" style="stroke: #A80036; stroke-width: 1.5;" width="419" x="1312.5" y="825.4531"/><ellipse cx="1438.25" cy="841.4531" fill="#ADD1B2" rx="11" ry="11" style="stroke: #A80036; stroke-width: 1.0;"/><path d="M1440.5938,837.125 L1440.7656,837.2031 C1440.9844,836.8906 1441.1875,836.7969 1441.4844,836.7969 C1441.7813,836.7969 1442.0625,836.9375 1442.2188,837.2031 C1442.3125,837.3594 1442.3281,837.4844 1442.3281,837.9219 L1442.3281,839.3438 C1442.3281,839.7656 1442.2969,839.9531 1442.1875,840.1094 C1442.0156,840.3281 1441.75,840.4688 1441.4844,840.4688 C1441.2656,840.4688 1441.0313,840.3594 1440.8906,840.2188 C1440.75,840.0938 1440.7188,839.9688 1440.6563,839.5625 C1440.5625,839.1563 1440.3906,838.9375 1439.9063,838.6563 C1439.4375,838.4063 1438.8281,838.25 1438.25,838.25 C1436.5156,838.25 1435.2656,839.5625 1435.2656,841.3438 L1435.2656,842.4375 C1435.2656,844.1406 1436.5625,845.2344 1438.6094,845.2344 C1439.375,845.2344 1440.0625,845.1094 1440.4844,844.8438 C1440.6719,844.75 1440.6719,844.75 1441.125,844.2656 C1441.3125,844.0781 1441.5156,844 1441.7344,844 C1442.2031,844 1442.5938,844.3906 1442.5938,844.8438 C1442.5938,845.2344 1442.2656,845.6875 1441.6875,846.0938 C1440.9375,846.6406 1439.7813,846.9375 1438.5625,846.9375 C1435.6719,846.9375 1433.5625,845.0469 1433.5625,842.4688 L1433.5625,841.3438 C1433.5625,838.625 1435.5625,836.5469 1438.1875,836.5469 C1439.0625,836.5469 1439.6563,836.6875 1440.5938,837.125 Z "/><text fill="#000000" font-family="sans-serif" font-size="12" lengthAdjust="spacingAndGlyphs" textLength="159" x="1458.75" y="845.6074">MultiPartyEscrowContract</text><line style="stroke: #A80036; stroke-width: 1.5;" x1="1313.5" x2="1730.5" y1="857.4531" y2="857.4531"/><line style="stroke: #A80036; stroke-width: 1.5;" x1="1313.5" x2="1730.5" y1="865.4531" y2="865.4531"/><text fill="#000000" font-family="sans-serif" font-size="11" lengthAdjust="spacingAndGlyphs" textLength="380" x="1318.5" y="879.6636">Optional&lt;PaymentChannel&gt; getChannelById(BigInteger channelId);</text><text fill="#000000" font-family="sans-serif" font-size="11" lengthAdjust="spacingAndGlyphs" textLength="176" x="1318.5" y="892.4683">Address getContractAddress();</text><text fill="#000000" font-family="sans-serif" font-size="11" lengthAdjust="spacingAndGlyphs" textLength="376" x="1318.5" y="905.2729">PaymentChannel openChannel(Address signer, Address recipient,</text><text fill="#000000" font-family="sans-serif" font-size="11" lengthAdjust="spacingAndGlyphs" textLength="375" x="1350.5" y="918.0776">PaymentGroupId groupId, BigInteger value, BigInteger expiration);</text><text fill="#000000" font-family="sans-serif" font-size="11" lengthAdjust="spacingAndGlyphs" textLength="282" x="1318.5" y="930.8823">void transfer(Address receiver, BigInteger value);</text><!--MD5=[0f4558827744cf1cee3afe858bb9a127]
class PaymentChannelProvider--><rect fill="#FEFECE" filter="url(#f2kddn2ou3pdl)" height="86.4141" id="PaymentChannelProvider" style="stroke: #A80036; stroke-width: 1.5;" width="452" x="1183" y="558.4531"/><ellipse cx="1327.25" cy="574.4531" fill="#B4A7E5" rx="11" ry="11" style="stroke: #A80036; stroke-width: 1.0;"/><path d="M1328.2031,571.2344 L1328.2031,577.75 L1329.9219,577.75 C1330.375,577.75 1330.5156,577.7813 1330.6875,577.9063 C1330.9219,578.0781 1331.0313,578.3281 1331.0313,578.6094 C1331.0313,579.1719 1330.6719,579.4531 1329.9219,579.4531 L1324.7813,579.4531 C1324.375,579.4531 1324.1719,579.4063 1324.0156,579.2813 C1323.7969,579.125 1323.6563,578.8594 1323.6563,578.6094 C1323.6563,578.3125 1323.8125,578.0313 1324.0625,577.875 C1324.2188,577.7656 1324.3438,577.75 1324.7813,577.75 L1326.5,577.75 L1326.5,571.2344 L1324.7813,571.2344 C1324.3594,571.2344 1324.1719,571.2031 1324.0156,571.0938 C1323.7969,570.9219 1323.6563,570.6719 1323.6563,570.3906 C1323.6563,570.1094 1323.8125,569.8125 1324.0625,569.6563 C1324.2188,569.5625 1324.3438,569.5469 1324.7813,569.5469 L1329.9219,569.5469 C1330.375,569.5469 1330.5156,569.5781 1330.6875,569.6875 C1330.9219,569.8594 1331.0313,570.125 1331.0313,570.3906 C1331.0313,570.6875 1330.8906,570.9688 1330.625,571.125 C1330.5,571.2031 1330.3125,571.2344 1329.9219,571.2344 Z "/><text fill="#000000" font-family="sans-serif" font-size="12" font-style="italic" lengthAdjust="spacingAndGlyphs" textLength="155" x="1347.75" y="578.6074">PaymentChannelProvider</text><line style="stroke: #A80036; stroke-width: 1.5;" x1="1184" x2="1634" y1="590.4531" y2="590.4531"/><line style="stroke: #A80036; stroke-width: 1.5;" x1="1184" x2="1634" y1="598.4531" y2="598.4531"/><text fill="#000000" font-family="sans-serif" font-size="11" lengthAdjust="spacingAndGlyphs" textLength="315" x="1189" y="612.6636">PaymentChannel getChannelById(BigInteger channelId);</text><text fill="#000000" font-family="sans-serif" font-size="11" lengthAdjust="spacingAndGlyphs" textLength="376" x="1189" y="625.4683">PaymentChannel openChannel(Address signer, Address recipient,</text><text fill="#000000" font-family="sans-serif" font-size="11" lengthAdjust="spacingAndGlyphs" textLength="408" x="1221" y="638.2729">PaymentGroupId groupId, BigInteger value, BigInteger lifetimeInBlocks);</text><!--MD5=[07b5ccda0566067c4cd653ad8d5fc568]
class AskDaemonFirstPaymentChannelProvider--><rect fill="#FEFECE" filter="url(#f2kddn2ou3pdl)" height="48" id="AskDaemonFirstPaymentChannelProvider" style="stroke: #A80036; stroke-width: 1.5;" width="289" x="1377.5" y="710.9531"/><ellipse cx="1392.5" cy="726.9531" fill="#ADD1B2" rx="11" ry="11" style="stroke: #A80036; stroke-width: 1.0;"/><path d="M1394.8438,722.625 L1395.0156,722.7031 C1395.2344,722.3906 1395.4375,722.2969 1395.7344,722.2969 C1396.0313,722.2969 1396.3125,722.4375 1396.4688,722.7031 C1396.5625,722.8594 1396.5781,722.9844 1396.5781,723.4219 L1396.5781,724.8438 C1396.5781,725.2656 1396.5469,725.4531 1396.4375,725.6094 C1396.2656,725.8281 1396,725.9688 1395.7344,725.9688 C1395.5156,725.9688 1395.2813,725.8594 1395.1406,725.7188 C1395,725.5938 1394.9688,725.4688 1394.9063,725.0625 C1394.8125,724.6563 1394.6406,724.4375 1394.1563,724.1563 C1393.6875,723.9063 1393.0781,723.75 1392.5,723.75 C1390.7656,723.75 1389.5156,725.0625 1389.5156,726.8438 L1389.5156,727.9375 C1389.5156,729.6406 1390.8125,730.7344 1392.8594,730.7344 C1393.625,730.7344 1394.3125,730.6094 1394.7344,730.3438 C1394.9219,730.25 1394.9219,730.25 1395.375,729.7656 C1395.5625,729.5781 1395.7656,729.5 1395.9844,729.5 C1396.4531,729.5 1396.8438,729.8906 1396.8438,730.3438 C1396.8438,730.7344 1396.5156,731.1875 1395.9375,731.5938 C1395.1875,732.1406 1394.0313,732.4375 1392.8125,732.4375 C1389.9219,732.4375 1387.8125,730.5469 1387.8125,727.9688 L1387.8125,726.8438 C1387.8125,724.125 1389.8125,722.0469 1392.4375,722.0469 C1393.3125,722.0469 1393.9063,722.1875 1394.8438,722.625 Z "/><text fill="#000000" font-family="sans-serif" font-size="12" lengthAdjust="spacingAndGlyphs" textLength="257" x="1406.5" y="731.1074">AskDaemonFirstPaymentChannelProvider</text><line style="stroke: #A80036; stroke-width: 1.5;" x1="1378.5" x2="1665.5" y1="742.9531" y2="742.9531"/><line style="stroke: #A80036; stroke-width: 1.5;" x1="1378.5" x2="1665.5" y1="750.9531" y2="750.9531"/><!--MD5=[5c8ce949bc8c9f89b0b30c1e80feca4d]
class EscrowPayment--><rect fill="#FEFECE" filter="url(#f2kddn2ou3pdl)" height="48" id="EscrowPayment" style="stroke: #A80036; stroke-width: 1.5;" width="130" x="1715" y="577.4531"/><ellipse cx="1730" cy="593.4531" fill="#ADD1B2" rx="11" ry="11" style="stroke: #A80036; stroke-width: 1.0;"/><path d="M1732.3438,589.125 L1732.5156,589.2031 C1732.7344,588.8906 1732.9375,588.7969 1733.2344,588.7969 C1733.5313,588.7969 1733.8125,588.9375 1733.9688,589.2031 C1734.0625,589.3594 1734.0781,589.4844 1734.0781,589.9219 L1734.0781,591.3438 C1734.0781,591.7656 1734.0469,591.9531 1733.9375,592.1094 C1733.7656,592.3281 1733.5,592.4688 1733.2344,592.4688 C1733.0156,592.4688 1732.7813,592.3594 1732.6406,592.2188 C1732.5,592.0938 1732.4688,591.9688 1732.4063,591.5625 C1732.3125,591.1563 1732.1406,590.9375 1731.6563,590.6563 C1731.1875,590.4063 1730.5781,590.25 1730,590.25 C1728.2656,590.25 1727.0156,591.5625 1727.0156,593.3438 L1727.0156,594.4375 C1727.0156,596.1406 1728.3125,597.2344 1730.3594,597.2344 C1731.125,597.2344 1731.8125,597.1094 1732.2344,596.8438 C1732.4219,596.75 1732.4219,596.75 1732.875,596.2656 C1733.0625,596.0781 1733.2656,596 1733.4844,596 C1733.9531,596 1734.3438,596.3906 1734.3438,596.8438 C1734.3438,597.2344 1734.0156,597.6875 1733.4375,598.0938 C1732.6875,598.6406 1731.5313,598.9375 1730.3125,598.9375 C1727.4219,598.9375 1725.3125,597.0469 1725.3125,594.4688 L1725.3125,593.3438 C1725.3125,590.625 1727.3125,588.5469 1729.9375,588.5469 C1730.8125,588.5469 1731.4063,588.6875 1732.3438,589.125 Z "/><text fill="#000000" font-family="sans-serif" font-size="12" lengthAdjust="spacingAndGlyphs" textLength="98" x="1744" y="597.6074">EscrowPayment</text><line style="stroke: #A80036; stroke-width: 1.5;" x1="1716" x2="1844" y1="609.4531" y2="609.4531"/><line style="stroke: #A80036; stroke-width: 1.5;" x1="1716" x2="1844" y1="617.4531" y2="617.4531"/><ellipse cx="1675" cy="601.4531" fill="#FEFECE" filter="url(#f2kddn2ou3pdl)" rx="5" ry="5" style="stroke: #A80036; stroke-width: 1.5;"/><text fill="#000000" font-family="sans-serif" font-size="12" lengthAdjust="spacingAndGlyphs" textLength="54" x="1648" y="617.5918">Payment</text><!--MD5=[9b7eb76f801c309757ef5968cb2349d9]
class Configuration--><rect fill="#FEFECE" filter="url(#f2kddn2ou3pdl)" height="137.6328" id="Configuration" style="stroke: #A80036; stroke-width: 1.5;" width="301" x="819.5" y="252.4531"/><ellipse cx="923.75" cy="268.4531" fill="#B4A7E5" rx="11" ry="11" style="stroke: #A80036; stroke-width: 1.0;"/><path d="M924.7031,265.2344 L924.7031,271.75 L926.4219,271.75 C926.875,271.75 927.0156,271.7813 927.1875,271.9063 C927.4219,272.0781 927.5313,272.3281 927.5313,272.6094 C927.5313,273.1719 927.1719,273.4531 926.4219,273.4531 L921.2813,273.4531 C920.875,273.4531 920.6719,273.4063 920.5156,273.2813 C920.2969,273.125 920.1563,272.8594 920.1563,272.6094 C920.1563,272.3125 920.3125,272.0313 920.5625,271.875 C920.7188,271.7656 920.8438,271.75 921.2813,271.75 L923,271.75 L923,265.2344 L921.2813,265.2344 C920.8594,265.2344 920.6719,265.2031 920.5156,265.0938 C920.2969,264.9219 920.1563,264.6719 920.1563,264.3906 C920.1563,264.1094 920.3125,263.8125 920.5625,263.6563 C920.7188,263.5625 920.8438,263.5469 921.2813,263.5469 L926.4219,263.5469 C926.875,263.5469 927.0156,263.5781 927.1875,263.6875 C927.4219,263.8594 927.5313,264.125 927.5313,264.3906 C927.5313,264.6875 927.3906,264.9688 927.125,265.125 C927,265.2031 926.8125,265.2344 926.4219,265.2344 Z "/><text fill="#000000" font-family="sans-serif" font-size="12" font-style="italic" lengthAdjust="spacingAndGlyphs" textLength="84" x="944.25" y="272.6074">Configuration</text><line style="stroke: #A80036; stroke-width: 1.5;" x1="820.5" x2="1119.5" y1="284.4531" y2="284.4531"/><line style="stroke: #A80036; stroke-width: 1.5;" x1="820.5" x2="1119.5" y1="292.4531" y2="292.4531"/><text fill="#000000" font-family="sans-serif" font-size="11" lengthAdjust="spacingAndGlyphs" textLength="203" x="825.5" y="306.6636">URL getEthereumJsonRpcEndpoint();</text><text fill="#000000" font-family="sans-serif" font-size="11" lengthAdjust="spacingAndGlyphs" textLength="125" x="825.5" y="319.4683">URL getIpfsEndpoint();</text><text fill="#000000" font-family="sans-serif" font-size="11" lengthAdjust="spacingAndGlyphs" textLength="162" x="825.5" y="332.2729">IdentityType getSignerType();</text><text fill="#000000" font-family="sans-serif" font-size="11" lengthAdjust="spacingAndGlyphs" textLength="227" x="825.5" y="345.0776">Optional&lt;String&gt; getSignerMnemonic();</text><text fill="#000000" font-family="sans-serif" font-size="11" lengthAdjust="spacingAndGlyphs" textLength="227" x="825.5" y="357.8823">Optional&lt;byte[]&gt; getSignerPrivateKey();</text><text fill="#000000" font-family="sans-serif" font-size="11" lengthAdjust="spacingAndGlyphs" textLength="239" x="825.5" y="370.687">Optional&lt;Address&gt; getRegistryAddress();</text><text fill="#000000" font-family="sans-serif" font-size="11" lengthAdjust="spacingAndGlyphs" textLength="289" x="825.5" y="383.4917">Optional&lt;Address&gt; getMultiPartyEscrowAddress();</text><!--MD5=[02eef48ffe125c1dc248af72b951f714]
class ConfigurationUtils--><rect fill="#FEFECE" filter="url(#f2kddn2ou3pdl)" height="73.6094" id="ConfigurationUtils" style="stroke: #A80036; stroke-width: 1.5;" width="321" x="805.5" y="99.4531"/><ellipse cx="906.25" cy="115.4531" fill="#ADD1B2" rx="11" ry="11" style="stroke: #A80036; stroke-width: 1.0;"/><path d="M908.5938,111.125 L908.7656,111.2031 C908.9844,110.8906 909.1875,110.7969 909.4844,110.7969 C909.7813,110.7969 910.0625,110.9375 910.2188,111.2031 C910.3125,111.3594 910.3281,111.4844 910.3281,111.9219 L910.3281,113.3438 C910.3281,113.7656 910.2969,113.9531 910.1875,114.1094 C910.0156,114.3281 909.75,114.4688 909.4844,114.4688 C909.2656,114.4688 909.0313,114.3594 908.8906,114.2188 C908.75,114.0938 908.7188,113.9688 908.6563,113.5625 C908.5625,113.1563 908.3906,112.9375 907.9063,112.6563 C907.4375,112.4063 906.8281,112.25 906.25,112.25 C904.5156,112.25 903.2656,113.5625 903.2656,115.3438 L903.2656,116.4375 C903.2656,118.1406 904.5625,119.2344 906.6094,119.2344 C907.375,119.2344 908.0625,119.1094 908.4844,118.8438 C908.6719,118.75 908.6719,118.75 909.125,118.2656 C909.3125,118.0781 909.5156,118 909.7344,118 C910.2031,118 910.5938,118.3906 910.5938,118.8438 C910.5938,119.2344 910.2656,119.6875 909.6875,120.0938 C908.9375,120.6406 907.7813,120.9375 906.5625,120.9375 C903.6719,120.9375 901.5625,119.0469 901.5625,116.4688 L901.5625,115.3438 C901.5625,112.625 903.5625,110.5469 906.1875,110.5469 C907.0625,110.5469 907.6563,110.6875 908.5938,111.125 Z "/><text fill="#000000" font-family="sans-serif" font-size="12" lengthAdjust="spacingAndGlyphs" textLength="111" x="926.75" y="119.6074">ConfigurationUtils</text><line style="stroke: #A80036; stroke-width: 1.5;" x1="806.5" x2="1125.5" y1="131.4531" y2="131.4531"/><line style="stroke: #A80036; stroke-width: 1.5;" x1="806.5" x2="1125.5" y1="139.4531" y2="139.4531"/><text fill="#000000" font-family="sans-serif" font-size="11" lengthAdjust="spacingAndGlyphs" textLength="309" x="811.5" y="153.6636">static Configuration fromProperties(Properties props);</text><text fill="#000000" font-family="sans-serif" font-size="11" lengthAdjust="spacingAndGlyphs" textLength="240" x="811.5" y="166.4683">static Configuration fromJson(String json);</text><!--MD5=[9d399695d42212ed2a4fd85ec725c8c7]
class StaticConfiguration--><rect fill="#FEFECE" filter="url(#f2kddn2ou3pdl)" height="48" id="StaticConfiguration" style="stroke: #A80036; stroke-width: 1.5;" width="152" x="898" y="450.4531"/><ellipse cx="913" cy="466.4531" fill="#ADD1B2" rx="11" ry="11" style="stroke: #A80036; stroke-width: 1.0;"/><path d="M915.3438,462.125 L915.5156,462.2031 C915.7344,461.8906 915.9375,461.7969 916.2344,461.7969 C916.5313,461.7969 916.8125,461.9375 916.9688,462.2031 C917.0625,462.3594 917.0781,462.4844 917.0781,462.9219 L917.0781,464.3438 C917.0781,464.7656 917.0469,464.9531 916.9375,465.1094 C916.7656,465.3281 916.5,465.4688 916.2344,465.4688 C916.0156,465.4688 915.7813,465.3594 915.6406,465.2188 C915.5,465.0938 915.4688,464.9688 915.4063,464.5625 C915.3125,464.1563 915.1406,463.9375 914.6563,463.6563 C914.1875,463.4063 913.5781,463.25 913,463.25 C911.2656,463.25 910.0156,464.5625 910.0156,466.3438 L910.0156,467.4375 C910.0156,469.1406 911.3125,470.2344 913.3594,470.2344 C914.125,470.2344 914.8125,470.1094 915.2344,469.8438 C915.4219,469.75 915.4219,469.75 915.875,469.2656 C916.0625,469.0781 916.2656,469 916.4844,469 C916.9531,469 917.3438,469.3906 917.3438,469.8438 C917.3438,470.2344 917.0156,470.6875 916.4375,471.0938 C915.6875,471.6406 914.5313,471.9375 913.3125,471.9375 C910.4219,471.9375 908.3125,470.0469 908.3125,467.4688 L908.3125,466.3438 C908.3125,463.625 910.3125,461.5469 912.9375,461.5469 C913.8125,461.5469 914.4063,461.6875 915.3438,462.125 Z "/><text fill="#000000" font-family="sans-serif" font-size="12" lengthAdjust="spacingAndGlyphs" textLength="120" x="927" y="470.6074">StaticConfiguration</text><line style="stroke: #A80036; stroke-width: 1.5;" x1="899" x2="1049" y1="482.4531" y2="482.4531"/><line style="stroke: #A80036; stroke-width: 1.5;" x1="899" x2="1049" y1="490.4531" y2="490.4531"/><!--MD5=[4b934e359fed50ed512d3d2d3ad10faa]
class DependencyFactory--><rect fill="#FEFECE" filter="url(#f2kddn2ou3pdl)" height="112.0234" id="DependencyFactory" style="stroke: #A80036; stroke-width: 1.5;" width="238" x="181" y="265.4531"/><ellipse cx="232.75" cy="281.4531" fill="#B4A7E5" rx="11" ry="11" style="stroke: #A80036; stroke-width: 1.0;"/><path d="M233.7031,278.2344 L233.7031,284.75 L235.4219,284.75 C235.875,284.75 236.0156,284.7813 236.1875,284.9063 C236.4219,285.0781 236.5313,285.3281 236.5313,285.6094 C236.5313,286.1719 236.1719,286.4531 235.4219,286.4531 L230.2813,286.4531 C229.875,286.4531 229.6719,286.4063 229.5156,286.2813 C229.2969,286.125 229.1563,285.8594 229.1563,285.6094 C229.1563,285.3125 229.3125,285.0313 229.5625,284.875 C229.7188,284.7656 229.8438,284.75 230.2813,284.75 L232,284.75 L232,278.2344 L230.2813,278.2344 C229.8594,278.2344 229.6719,278.2031 229.5156,278.0938 C229.2969,277.9219 229.1563,277.6719 229.1563,277.3906 C229.1563,277.1094 229.3125,276.8125 229.5625,276.6563 C229.7188,276.5625 229.8438,276.5469 230.2813,276.5469 L235.4219,276.5469 C235.875,276.5469 236.0156,276.5781 236.1875,276.6875 C236.4219,276.8594 236.5313,277.125 236.5313,277.3906 C236.5313,277.6875 236.3906,277.9688 236.125,278.125 C236,278.2031 235.8125,278.2344 235.4219,278.2344 Z "/><text fill="#000000" font-family="sans-serif" font-size="12" font-style="italic" lengthAdjust="spacingAndGlyphs" textLength="126" x="253.25" y="285.6074">DependencyFactory</text><line style="stroke: #A80036; stroke-width: 1.5;" x1="182" x2="418" y1="297.4531" y2="297.4531"/><line style="stroke: #A80036; stroke-width: 1.5;" x1="182" x2="418" y1="305.4531" y2="305.4531"/><text fill="#000000" font-family="sans-serif" font-size="11" lengthAdjust="spacingAndGlyphs" textLength="100" x="187" y="319.6636">Web3j getWeb3j();</text><text fill="#000000" font-family="sans-serif" font-size="11" lengthAdjust="spacingAndGlyphs" textLength="79" x="187" y="332.4683">IPFS getIpfs();</text><text fill="#000000" font-family="sans-serif" font-size="11" lengthAdjust="spacingAndGlyphs" textLength="108" x="187" y="345.2729">Identity getSigner();</text><text fill="#000000" font-family="sans-serif" font-size="11" lengthAdjust="spacingAndGlyphs" textLength="126" x="187" y="358.0776">Registry getRegistry();</text><text fill="#000000" font-family="sans-serif" font-size="11" lengthAdjust="spacingAndGlyphs" textLength="226" x="187" y="370.8823">MultiPartyEscrow getMultiPartyEscrow();</text><!--MD5=[fd8e04aa5f52fe45763ddf04aafe8c4e]
class ConfigurationDependencyFactory--><rect fill="#FEFECE" filter="url(#f2kddn2ou3pdl)" height="48" id="ConfigurationDependencyFactory" style="stroke: #A80036; stroke-width: 1.5;" width="240" x="180" y="450.4531"/><ellipse cx="195" cy="466.4531" fill="#ADD1B2" rx="11" ry="11" style="stroke: #A80036; stroke-width: 1.0;"/><path d="M197.3438,462.125 L197.5156,462.2031 C197.7344,461.8906 197.9375,461.7969 198.2344,461.7969 C198.5313,461.7969 198.8125,461.9375 198.9688,462.2031 C199.0625,462.3594 199.0781,462.4844 199.0781,462.9219 L199.0781,464.3438 C199.0781,464.7656 199.0469,464.9531 198.9375,465.1094 C198.7656,465.3281 198.5,465.4688 198.2344,465.4688 C198.0156,465.4688 197.7813,465.3594 197.6406,465.2188 C197.5,465.0938 197.4688,464.9688 197.4063,464.5625 C197.3125,464.1563 197.1406,463.9375 196.6563,463.6563 C196.1875,463.4063 195.5781,463.25 195,463.25 C193.2656,463.25 192.0156,464.5625 192.0156,466.3438 L192.0156,467.4375 C192.0156,469.1406 193.3125,470.2344 195.3594,470.2344 C196.125,470.2344 196.8125,470.1094 197.2344,469.8438 C197.4219,469.75 197.4219,469.75 197.875,469.2656 C198.0625,469.0781 198.2656,469 198.4844,469 C198.9531,469 199.3438,469.3906 199.3438,469.8438 C199.3438,470.2344 199.0156,470.6875 198.4375,471.0938 C197.6875,471.6406 196.5313,471.9375 195.3125,471.9375 C192.4219,471.9375 190.3125,470.0469 190.3125,467.4688 L190.3125,466.3438 C190.3125,463.625 192.3125,461.5469 194.9375,461.5469 C195.8125,461.5469 196.4063,461.6875 197.3438,462.125 Z "/><text fill="#000000" font-family="sans-serif" font-size="12" lengthAdjust="spacingAndGlyphs" textLength="208" x="209" y="470.6074">ConfigurationDependencyFactory</text><line style="stroke: #A80036; stroke-width: 1.5;" x1="181" x2="419" y1="482.4531" y2="482.4531"/><line style="stroke: #A80036; stroke-width: 1.5;" x1="181" x2="419" y1="490.4531" y2="490.4531"/><!--MD5=[86df7a6fab1c4b6b56ced8510e72833b]
class PaymentStrategy--><rect fill="#FEFECE" filter="url(#f2kddn2ou3pdl)" height="60.8047" id="PaymentStrategy" style="stroke: #A80036; stroke-width: 1.5;" width="671" x="455.5" y="570.9531"/><ellipse cx="732.75" cy="586.9531" fill="#B4A7E5" rx="11" ry="11" style="stroke: #A80036; stroke-width: 1.0;"/><path d="M733.7031,583.7344 L733.7031,590.25 L735.4219,590.25 C735.875,590.25 736.0156,590.2813 736.1875,590.4063 C736.4219,590.5781 736.5313,590.8281 736.5313,591.1094 C736.5313,591.6719 736.1719,591.9531 735.4219,591.9531 L730.2813,591.9531 C729.875,591.9531 729.6719,591.9063 729.5156,591.7813 C729.2969,591.625 729.1563,591.3594 729.1563,591.1094 C729.1563,590.8125 729.3125,590.5313 729.5625,590.375 C729.7188,590.2656 729.8438,590.25 730.2813,590.25 L732,590.25 L732,583.7344 L730.2813,583.7344 C729.8594,583.7344 729.6719,583.7031 729.5156,583.5938 C729.2969,583.4219 729.1563,583.1719 729.1563,582.8906 C729.1563,582.6094 729.3125,582.3125 729.5625,582.1563 C729.7188,582.0625 729.8438,582.0469 730.2813,582.0469 L735.4219,582.0469 C735.875,582.0469 736.0156,582.0781 736.1875,582.1875 C736.4219,582.3594 736.5313,582.625 736.5313,582.8906 C736.5313,583.1875 736.3906,583.4688 736.125,583.625 C736,583.7031 735.8125,583.7344 735.4219,583.7344 Z "/><text fill="#000000" font-family="sans-serif" font-size="12" font-style="italic" lengthAdjust="spacingAndGlyphs" textLength="108" x="753.25" y="591.1074">PaymentStrategy</text><line style="stroke: #A80036; stroke-width: 1.5;" x1="456.5" x2="1125.5" y1="602.9531" y2="602.9531"/><line style="stroke: #A80036; stroke-width: 1.5;" x1="456.5" x2="1125.5" y1="610.9531" y2="610.9531"/><text fill="#000000" font-family="sans-serif" font-size="11" lengthAdjust="spacingAndGlyphs" textLength="659" x="461.5" y="625.1636">&lt;ReqT, RespT&gt; Payment getPayment(GrpcCallParameters&lt;ReqT, RespT&gt; parameters, ServiceClient serviceClient);</text><!--MD5=[880d6aa398fc808d7ee0fa36e09fbbd1]
class EscrowPaymentStrategy--><rect fill="#FEFECE" filter="url(#f2kddn2ou3pdl)" height="60.8047" id="EscrowPaymentStrategy" style="stroke: #A80036; stroke-width: 1.5;" width="412" x="585" y="704.4531"/><ellipse cx="680.25" cy="720.4531" fill="#A9DCDF" rx="11" ry="11" style="stroke: #A80036; stroke-width: 1.0;"/><path d="M681.8281,722.2656 L677.7813,722.2656 L677.3906,723.25 L677.7813,723.25 C678.2344,723.25 678.375,723.2813 678.5469,723.4063 C678.7656,723.5781 678.8906,723.8281 678.8906,724.1094 C678.8906,724.3906 678.75,724.6875 678.4844,724.8281 C678.3594,724.9219 678.1406,724.9531 677.7813,724.9531 L675.5156,724.9531 C674.7656,724.9531 674.3906,724.6719 674.3906,724.1094 C674.3906,723.8125 674.5469,723.5313 674.7969,723.375 C674.9531,723.2656 675.1094,723.25 675.5313,723.25 L678.1719,716.7344 L677.0938,716.7344 C676.6563,716.7344 676.4844,716.7031 676.3125,716.5938 C676.0938,716.4219 675.9531,716.1719 675.9531,715.8906 C675.9531,715.6094 676.1094,715.3281 676.3594,715.1563 C676.5156,715.0625 676.6406,715.0469 677.0938,715.0469 L680.7656,715.0469 L684.1563,723.25 C684.625,723.25 684.7813,723.2813 684.9531,723.4219 C685.1719,723.5781 685.3125,723.8281 685.3125,724.1094 C685.3125,724.3906 685.1563,724.6875 684.9063,724.8281 C684.7656,724.9219 684.5469,724.9531 684.1875,724.9531 L681.8281,724.9531 C681.4063,724.9531 681.2031,724.9063 681.0625,724.7813 C680.8438,724.625 680.7031,724.375 680.7031,724.1094 C680.7031,723.8125 680.8594,723.5313 681.1094,723.375 C681.2656,723.2656 681.375,723.25 681.8281,723.25 L682.2188,723.25 Z M681.125,720.5625 L679.7969,717.2969 L678.4531,720.5625 Z "/><text fill="#000000" font-family="sans-serif" font-size="12" font-style="italic" lengthAdjust="spacingAndGlyphs" textLength="213" x="700.75" y="724.6074">EscrowPaymentStrategy</text><line style="stroke: #A80036; stroke-width: 1.5;" x1="586" x2="996" y1="736.4531" y2="736.4531"/><line style="stroke: #A80036; stroke-width: 1.5;" x1="586" x2="996" y1="744.4531" y2="744.4531"/><text fill="#000000" font-family="sans-serif" font-size="11" lengthAdjust="spacingAndGlyphs" textLength="400" x="591" y="758.6636">protected PaymentChannel selectChannel(ServiceClient serviceClient);</text><!--MD5=[f0bc2daf9303fe741b6d54a0ca59617f]
class FixedPaymentChannelPaymentStrategy--><rect fill="#FEFECE" filter="url(#f2kddn2ou3pdl)" height="48" id="FixedPaymentChannelPaymentStrategy" style="stroke: #A80036; stroke-width: 1.5;" width="276" x="478" y="857.4531"/><ellipse cx="493" cy="873.4531" fill="#ADD1B2" rx="11" ry="11" style="stroke: #A80036; stroke-width: 1.0;"/><path d="M495.3438,869.125 L495.5156,869.2031 C495.7344,868.8906 495.9375,868.7969 496.2344,868.7969 C496.5313,868.7969 496.8125,868.9375 496.9688,869.2031 C497.0625,869.3594 497.0781,869.4844 497.0781,869.9219 L497.0781,871.3438 C497.0781,871.7656 497.0469,871.9531 496.9375,872.1094 C496.7656,872.3281 496.5,872.4688 496.2344,872.4688 C496.0156,872.4688 495.7813,872.3594 495.6406,872.2188 C495.5,872.0938 495.4688,871.9688 495.4063,871.5625 C495.3125,871.1563 495.1406,870.9375 494.6563,870.6563 C494.1875,870.4063 493.5781,870.25 493,870.25 C491.2656,870.25 490.0156,871.5625 490.0156,873.3438 L490.0156,874.4375 C490.0156,876.1406 491.3125,877.2344 493.3594,877.2344 C494.125,877.2344 494.8125,877.1094 495.2344,876.8438 C495.4219,876.75 495.4219,876.75 495.875,876.2656 C496.0625,876.0781 496.2656,876 496.4844,876 C496.9531,876 497.3438,876.3906 497.3438,876.8438 C497.3438,877.2344 497.0156,877.6875 496.4375,878.0938 C495.6875,878.6406 494.5313,878.9375 493.3125,878.9375 C490.4219,878.9375 488.3125,877.0469 488.3125,874.4688 L488.3125,873.3438 C488.3125,870.625 490.3125,868.5469 492.9375,868.5469 C493.8125,868.5469 494.4063,868.6875 495.3438,869.125 Z "/><text fill="#000000" font-family="sans-serif" font-size="12" lengthAdjust="spacingAndGlyphs" textLength="244" x="507" y="877.6074">FixedPaymentChannelPaymentStrategy</text><line style="stroke: #A80036; stroke-width: 1.5;" x1="479" x2="753" y1="889.4531" y2="889.4531"/><line style="stroke: #A80036; stroke-width: 1.5;" x1="479" x2="753" y1="897.4531" y2="897.4531"/><!--MD5=[f434819d9f9081e79b430203a12162d8]
class OnDemandPaymentChannelPaymentStrategy--><rect fill="#FEFECE" filter="url(#f2kddn2ou3pdl)" height="48" id="OnDemandPaymentChannelPaymentStrategy" style="stroke: #A80036; stroke-width: 1.5;" width="313" x="789.5" y="857.4531"/><ellipse cx="804.5" cy="873.4531" fill="#ADD1B2" rx="11" ry="11" style="stroke: #A80036; stroke-width: 1.0;"/><path d="M806.8438,869.125 L807.0156,869.2031 C807.2344,868.8906 807.4375,868.7969 807.7344,868.7969 C808.0313,868.7969 808.3125,868.9375 808.4688,869.2031 C808.5625,869.3594 808.5781,869.4844 808.5781,869.9219 L808.5781,871.3438 C808.5781,871.7656 808.5469,871.9531 808.4375,872.1094 C808.2656,872.3281 808,872.4688 807.7344,872.4688 C807.5156,872.4688 807.2813,872.3594 807.1406,872.2188 C807,872.0938 806.9688,871.9688 806.9063,871.5625 C806.8125,871.1563 806.6406,870.9375 806.1563,870.6563 C805.6875,870.4063 805.0781,870.25 804.5,870.25 C802.7656,870.25 801.5156,871.5625 801.5156,873.3438 L801.5156,874.4375 C801.5156,876.1406 802.8125,877.2344 804.8594,877.2344 C805.625,877.2344 806.3125,877.1094 806.7344,876.8438 C806.9219,876.75 806.9219,876.75 807.375,876.2656 C807.5625,876.0781 807.7656,876 807.9844,876 C808.4531,876 808.8438,876.3906 808.8438,876.8438 C808.8438,877.2344 808.5156,877.6875 807.9375,878.0938 C807.1875,878.6406 806.0313,878.9375 804.8125,878.9375 C801.9219,878.9375 799.8125,877.0469 799.8125,874.4688 L799.8125,873.3438 C799.8125,870.625 801.8125,868.5469 804.4375,868.5469 C805.3125,868.5469 805.9063,868.6875 806.8438,869.125 Z "/><text fill="#000000" font-family="sans-serif" font-size="12" lengthAdjust="spacingAndGlyphs" textLength="281" x="818.5" y="877.6074">OnDemandPaymentChannelPaymentStrategy</text><line style="stroke: #A80036; stroke-width: 1.5;" x1="790.5" x2="1101.5" y1="889.4531" y2="889.4531"/><line style="stroke: #A80036; stroke-width: 1.5;" x1="790.5" x2="1101.5" y1="897.4531" y2="897.4531"/><!--MD5=[2fb101d943835b3444fac9786607c7ca]
class Sdk--><rect fill="#FEFECE" filter="url(#f2kddn2ou3pdl)" height="112.0234" id="Sdk" style="stroke: #A80036; stroke-width: 1.5;" width="732" x="38" y="80.4531"/><ellipse cx="388.25" cy="96.4531" fill="#ADD1B2" rx="11" ry="11" style="stroke: #A80036; stroke-width: 1.0;"/><path d="M390.5938,92.125 L390.7656,92.2031 C390.9844,91.8906 391.1875,91.7969 391.4844,91.7969 C391.7813,91.7969 392.0625,91.9375 392.2188,92.2031 C392.3125,92.3594 392.3281,92.4844 392.3281,92.9219 L392.3281,94.3438 C392.3281,94.7656 392.2969,94.9531 392.1875,95.1094 C392.0156,95.3281 391.75,95.4688 391.4844,95.4688 C391.2656,95.4688 391.0313,95.3594 390.8906,95.2188 C390.75,95.0938 390.7188,94.9688 390.6563,94.5625 C390.5625,94.1563 390.3906,93.9375 389.9063,93.6563 C389.4375,93.4063 388.8281,93.25 388.25,93.25 C386.5156,93.25 385.2656,94.5625 385.2656,96.3438 L385.2656,97.4375 C385.2656,99.1406 386.5625,100.2344 388.6094,100.2344 C389.375,100.2344 390.0625,100.1094 390.4844,99.8438 C390.6719,99.75 390.6719,99.75 391.125,99.2656 C391.3125,99.0781 391.5156,99 391.7344,99 C392.2031,99 392.5938,99.3906 392.5938,99.8438 C392.5938,100.2344 392.2656,100.6875 391.6875,101.0938 C390.9375,101.6406 389.7813,101.9375 388.5625,101.9375 C385.6719,101.9375 383.5625,100.0469 383.5625,97.4688 L383.5625,96.3438 C383.5625,93.625 385.5625,91.5469 388.1875,91.5469 C389.0625,91.5469 389.6563,91.6875 390.5938,92.125 Z "/><text fill="#000000" font-family="sans-serif" font-size="12" lengthAdjust="spacingAndGlyphs" textLength="23" x="408.75" y="100.6074">Sdk</text><line style="stroke: #A80036; stroke-width: 1.5;" x1="39" x2="769" y1="112.4531" y2="112.4531"/><line style="stroke: #A80036; stroke-width: 1.5;" x1="39" x2="769" y1="120.4531" y2="120.4531"/><text fill="#000000" font-family="sans-serif" font-size="11" lengthAdjust="spacingAndGlyphs" textLength="147" x="44" y="134.6636">Sdk(Configuration config);</text><text fill="#000000" font-family="sans-serif" font-size="11" lengthAdjust="spacingAndGlyphs" textLength="186" x="44" y="147.4683">Sdk(DependencyFactory factory);</text><text fill="#000000" font-family="sans-serif" font-size="11" lengthAdjust="spacingAndGlyphs" textLength="0" x="48" y="160.2729"/><text fill="#000000" font-family="sans-serif" font-size="11" lengthAdjust="spacingAndGlyphs" textLength="720" x="44" y="173.0776">ServiceClient newServiceClient(String orgId, String serviceId, String endpointGroupName, PaymentStrategy paymentStrategy);</text><text fill="#000000" font-family="sans-serif" font-size="11" lengthAdjust="spacingAndGlyphs" textLength="94" x="44" y="185.8823">void shutdown();</text><!--MD5=[454092b3ab12a575f0516fcdf124b80a]
class ServiceClient--><rect fill="#FEFECE" filter="url(#f2kddn2ou3pdl)" height="124.8281" id="ServiceClient" style="stroke: #A80036; stroke-width: 1.5;" width="330" x="454" y="258.9531"/><ellipse cx="574.75" cy="274.9531" fill="#B4A7E5" rx="11" ry="11" style="stroke: #A80036; stroke-width: 1.0;"/><path d="M575.7031,271.7344 L575.7031,278.25 L577.4219,278.25 C577.875,278.25 578.0156,278.2813 578.1875,278.4063 C578.4219,278.5781 578.5313,278.8281 578.5313,279.1094 C578.5313,279.6719 578.1719,279.9531 577.4219,279.9531 L572.2813,279.9531 C571.875,279.9531 571.6719,279.9063 571.5156,279.7813 C571.2969,279.625 571.1563,279.3594 571.1563,279.1094 C571.1563,278.8125 571.3125,278.5313 571.5625,278.375 C571.7188,278.2656 571.8438,278.25 572.2813,278.25 L574,278.25 L574,271.7344 L572.2813,271.7344 C571.8594,271.7344 571.6719,271.7031 571.5156,271.5938 C571.2969,271.4219 571.1563,271.1719 571.1563,270.8906 C571.1563,270.6094 571.3125,270.3125 571.5625,270.1563 C571.7188,270.0625 571.8438,270.0469 572.2813,270.0469 L577.4219,270.0469 C577.875,270.0469 578.0156,270.0781 578.1875,270.1875 C578.4219,270.3594 578.5313,270.625 578.5313,270.8906 C578.5313,271.1875 578.3906,271.4688 578.125,271.625 C578,271.7031 577.8125,271.7344 577.4219,271.7344 Z "/><text fill="#000000" font-family="sans-serif" font-size="12" font-style="italic" lengthAdjust="spacingAndGlyphs" textLength="80" x="595.25" y="279.1074">ServiceClient</text><line style="stroke: #A80036; stroke-width: 1.5;" x1="455" x2="783" y1="290.9531" y2="290.9531"/><line style="stroke: #A80036; stroke-width: 1.5;" x1="455" x2="783" y1="298.9531" y2="298.9531"/><text fill="#000000" font-family="sans-serif" font-size="11" lengthAdjust="spacingAndGlyphs" textLength="232" x="460" y="313.1636">MetadataProvider getMetadataProvider();</text><text fill="#000000" font-family="sans-serif" font-size="11" lengthAdjust="spacingAndGlyphs" textLength="318" x="460" y="325.9683">PaymentChannelProvider getPaymentChannelProvider();</text><text fill="#000000" font-family="sans-serif" font-size="11" lengthAdjust="spacingAndGlyphs" textLength="108" x="460" y="338.7729">Identity getSigner();</text><text fill="#000000" font-family="sans-serif" font-size="11" lengthAdjust="spacingAndGlyphs" textLength="289" x="460" y="351.5776">T getGrpcStub(Function&lt;Channel, T&gt; constructor);</text><text fill="#000000" font-family="sans-serif" font-size="11" lengthAdjust="spacingAndGlyphs" textLength="254" x="460" y="364.3823">String getEndpointGroupName();</text><text fill="#000000" font-family="sans-serif" font-size="11" lengthAdjust="spacingAndGlyphs" textLength="118" x="460" y="377.187">void shutdownNow();</text><!--MD5=[791a636acfc599c1abdb09fdc478ec4b]
class BaseServiceClient--><rect fill="#FEFECE" filter="url(#f2kddn2ou3pdl)" height="48" id="BaseServiceClient" style="stroke: #A80036; stroke-width: 1.5;" width="143" x="719.5" y="450.4531"/><ellipse cx="734.5" cy="466.4531" fill="#ADD1B2" rx="11" ry="11" style="stroke: #A80036; stroke-width: 1.0;"/><path d="M736.8438,462.125 L737.0156,462.2031 C737.2344,461.8906 737.4375,461.7969 737.7344,461.7969 C738.0313,461.7969 738.3125,461.9375 738.4688,462.2031 C738.5625,462.3594 738.5781,462.4844 738.5781,462.9219 L738.5781,464.3438 C738.5781,464.7656 738.5469,464.9531 738.4375,465.1094 C738.2656,465.3281 738,465.4688 737.7344,465.4688 C737.5156,465.4688 737.2813,465.3594 737.1406,465.2188 C737,465.0938 736.9688,464.9688 736.9063,464.5625 C736.8125,464.1563 736.6406,463.9375 736.1563,463.6563 C735.6875,463.4063 735.0781,463.25 734.5,463.25 C732.7656,463.25 731.5156,464.5625 731.5156,466.3438 L731.5156,467.4375 C731.5156,469.1406 732.8125,470.2344 734.8594,470.2344 C735.625,470.2344 736.3125,470.1094 736.7344,469.8438 C736.9219,469.75 736.9219,469.75 737.375,469.2656 C737.5625,469.0781 737.7656,469 737.9844,469 C738.4531,469 738.8438,469.3906 738.8438,469.8438 C738.8438,470.2344 738.5156,470.6875 737.9375,471.0938 C737.1875,471.6406 736.0313,471.9375 734.8125,471.9375 C731.9219,471.9375 729.8125,470.0469 729.8125,467.4688 L729.8125,466.3438 C729.8125,463.625 731.8125,461.5469 734.4375,461.5469 C735.3125,461.5469 735.9063,461.6875 736.8438,462.125 Z "/><text fill="#000000" font-family="sans-serif" font-size="12" lengthAdjust="spacingAndGlyphs" textLength="111" x="748.5" y="470.6074">BaseServiceClient</text><line style="stroke: #A80036; stroke-width: 1.5;" x1="720.5" x2="861.5" y1="482.4531" y2="482.4531"/><line style="stroke: #A80036; stroke-width: 1.5;" x1="720.5" x2="861.5" y1="490.4531" y2="490.4531"/><!--MD5=[717d15024881c8f926f8fb51b6a4858a]
reverse link WithAddress to Identity--><path d="M2785.49,932.1371 C2780.78,959.6201 2775.09,992.8491 2771.08,1016.2891 " fill="none" id="WithAddress&lt;-Identity" style="stroke: #A80036; stroke-width: 1.0;"/><polygon fill="none" points="2778.65,930.5931,2788.93,912.0621,2792.45,932.9561,2778.65,930.5931" style="stroke: #A80036; stroke-width: 1.0;"/><!--MD5=[12dce411975b147db466b4eb70af8e26]
reverse link Identity to PrivateKeyIdentity--><path d="M2766,1097.6791 C2766,1117.3571 2766,1139.3081 2766,1156.3971 " fill="none" id="Identity&lt;-PrivateKeyIdentity" style="stroke: #A80036; stroke-width: 1.0; stroke-dasharray: 7.0,7.0;"/><polygon fill="none" points="2759,1097.5571,2766,1077.5571,2773,1097.5571,2759,1097.5571" style="stroke: #A80036; stroke-width: 1.0;"/><!--MD5=[70d2d8ea03716a1c981ea3b57f74daf2]
reverse link PrivateKeyIdentity to MnemonicIdentity--><path d="M2766,1237.9031 C2766,1258.8571 2766,1282.1951 2766,1298.9511 " fill="none" id="PrivateKeyIdentity&lt;-MnemonicIdentity" style="stroke: #A80036; stroke-width: 1.0;"/><polygon fill="none" points="2759,1237.6921,2766,1217.6921,2773,1237.6921,2759,1237.6921" style="stroke: #A80036; stroke-width: 1.0;"/><!--MD5=[71e65807e472cdd22e4afb5f3f077edb]
reverse link MetadataStorage to IpfsMetadataStorage--><path d="M1011.61,1615.7931 C1013.09,1631.8261 1014.66,1648.8218 1015.87,1661.9525 " fill="none" id="MetadataStorage&lt;-IpfsMetadataStorage" style="stroke: #A80036; stroke-width: 1.0; stroke-dasharray: 7.0,7.0;"/><polygon fill="none" points="1004.618,1616.2341,1009.75,1595.6751,1018.56,1614.9461,1004.618,1616.2341" style="stroke: #A80036; stroke-width: 1.0;"/><!--MD5=[2a4a970764f918ae0badbe6919defd20]
reverse link MetadataProvider to RegistryMetadataProvider--><path d="M1227,1380.0211 C1227,1394.0761 1227,1408.3871 1227,1419.8031 " fill="none" id="MetadataProvider&lt;-RegistryMetadataProvider" style="stroke: #A80036; stroke-width: 1.0; stroke-dasharray: 7.0,7.0;"/><polygon fill="none" points="1220,1379.9801,1227,1359.9801,1234,1379.9801,1220,1379.9801" style="stroke: #A80036; stroke-width: 1.0;"/><!--MD5=[020c7b64572ad0d5dd83b48937953d6f]
reverse link RegistryMetadataProvider to RegistryContract--><path d="M1265.78,1476.5651 C1285.16,1492.3571 1308.69,1511.5361 1328.77,1527.8991 " fill="none" id="RegistryMetadataProvider&lt;-RegistryContract" style="stroke: #A80036; stroke-width: 1.0;"/><polygon fill="#A80036" points="1255.5,1468.1801,1257.6234,1475.0715,1264.8013,1475.762,1262.678,1468.8706,1255.5,1468.1801" style="stroke: #A80036; stroke-width: 1.0;"/><!--MD5=[d47a745ee1ad0799f82e44bd048299bb]
reverse link RegistryMetadataProvider to MetadataStorage--><path d="M1172.79,1474.2761 C1138.97,1492.5691 1095.58,1516.0371 1061.68,1534.3771 " fill="none" id="RegistryMetadataProvider&lt;-MetadataStorage" style="stroke: #A80036; stroke-width: 1.0;"/><polygon fill="#A80036" points="1184.32,1468.0381,1177.1395,1467.3745,1173.7652,1473.7474,1180.9457,1474.411,1184.32,1468.0381" style="stroke: #A80036; stroke-width: 1.0;"/><!--MD5=[2e8d45d7b6efb88c2a093f23e9ecb5bc]
reverse link DaemonConnection to RandomEndpointDaemonConnection--><path d="M2276.38,1109.5281 C2253.73,1128.4701 2230.18,1148.1671 2212.66,1162.8201 " fill="none" id="DaemonConnection&lt;-RandomEndpointDaemonConnection" style="stroke: #A80036; stroke-width: 1.0; stroke-dasharray: 7.0,7.0;"/><polygon fill="none" points="2271.99,1104.0681,2291.83,1096.6071,2280.98,1114.8071,2271.99,1104.0681" style="stroke: #A80036; stroke-width: 1.0;"/><!--MD5=[afb6adc7960e2860438bfeb6846dfc89]
reverse link RandomEndpointDaemonConnection to MetadataProvider--><path d="M2052.48,1206.4891 C1874.15,1231.4331 1558,1275.6541 1373.01,1301.5301 " fill="none" id="RandomEndpointDaemonConnection&lt;-MetadataProvider" style="stroke: #A80036; stroke-width: 1.0;"/><polygon fill="#FFFFFF" points="2065.61,1204.6531,2059.1139,1201.5225,2053.7256,1206.3147,2060.2217,1209.4454,2065.61,1204.6531" style="stroke: #A80036; stroke-width: 1.0;"/><!--MD5=[19f1c5719f03e3dbc601566ba7115d43]
reverse link PaymentChannelStateService to Identity--><path d="M2437.56,916.8681 C2512.64,946.3731 2619.64,988.4291 2690.88,1016.4271 " fill="none" id="PaymentChannelStateService&lt;-Identity" style="stroke: #A80036; stroke-width: 1.0;"/><polygon fill="#FFFFFF" points="2425.33,912.0621,2429.4504,917.9801,2436.4979,916.4528,2432.3775,910.5348,2425.33,912.0621" style="stroke: #A80036; stroke-width: 1.0;"/><!--MD5=[18e29076eb626ade2b5bddfb0a0f2f05]
link PaymentChannelStateService to DaemonConnection--><path d="M2350,912.0621 C2350,935.8041 2350,969.6161 2350,997.3211 " fill="none" id="PaymentChannelStateService-DaemonConnection" style="stroke: #A80036; stroke-width: 1.0;"/><!--MD5=[1cd7eb9beedbb9f2782e52a9536ee1b7]
reverse link PaymentChannelProvider to AskDaemonFirstPaymentChannelProvider--><path d="M1458.59,660.1631 C1473.97,678.0531 1490.04,696.7531 1502.15,710.8531 " fill="none" id="PaymentChannelProvider&lt;-AskDaemonFirstPaymentChannelProvider" style="stroke: #A80036; stroke-width: 1.0; stroke-dasharray: 7.0,7.0;"/><polygon fill="none" points="1453.1,664.5131,1445.38,644.7831,1463.72,655.3931,1453.1,664.5131" style="stroke: #A80036; stroke-width: 1.0;"/><!--MD5=[a423174016401f42057dff165ffb576c]
reverse link AskDaemonFirstPaymentChannelProvider to MultiPartyEscrowContract--><path d="M1522,772.3031 C1522,788.3011 1522,807.4481 1522,825.1551 " fill="none" id="AskDaemonFirstPaymentChannelProvider&lt;-MultiPartyEscrowContract" style="stroke: #A80036; stroke-width: 1.0;"/><polygon fill="#A80036" points="1522,759.1691,1518,765.1691,1522,771.1691,1526,765.1691,1522,759.1691" style="stroke: #A80036; stroke-width: 1.0;"/><!--MD5=[46c699d0e4e8b327f5eae6508979f714]
reverse link AskDaemonFirstPaymentChannelProvider to PaymentChannelStateService--><path d="M1679.79,745.3091 C1804.73,754.9051 1983.05,773.4791 2136,807.9531 C2183.26,818.6051 2234.73,835.8531 2275.34,850.8531 " fill="none" id="AskDaemonFirstPaymentChannelProvider&lt;-PaymentChannelStateService" style="stroke: #A80036; stroke-width: 1.0;"/><polygon fill="#A80036" points="1666.73,744.3241,1672.4095,748.7675,1678.6955,745.2338,1673.016,740.7905,1666.73,744.3241" style="stroke: #A80036; stroke-width: 1.0;"/><!--MD5=[14666c535429123f1ba1fc9e637b0231]
link EscrowPaymentlol1818202 to EscrowPayment--><path d="M1680.33,601.4531 C1691.88,601.4531 1703.43,601.4531 1714.98,601.4531 " fill="none" id="EscrowPaymentlol1818202-EscrowPayment" style="stroke: #A80036; stroke-width: 1.0;"/><!--MD5=[dbf96ee61079c6dd5a7ee7aa9badf003]
link ConfigurationUtils to Configuration--><path d="M966.79,173.6031 C967.28,196.0031 967.924,225.4831 968.507,252.1531 " fill="none" id="ConfigurationUtils-Configuration" style="stroke: #A80036; stroke-width: 1.0;"/><!--MD5=[28453fa89348e94deabda022ce5a5972]
reverse link Configuration to StaticConfiguration--><path d="M972.344,410.9431 C972.73,425.5031 973.098,439.4031 973.389,450.3731 " fill="none" id="Configuration&lt;-StaticConfiguration" style="stroke: #A80036; stroke-width: 1.0; stroke-dasharray: 7.0,7.0;"/><polygon fill="none" points="965.345,411.0631,971.813,390.8831,979.34,410.6931,965.345,411.0631" style="stroke: #A80036; stroke-width: 1.0;"/><!--MD5=[1742506f867320e7ba4ab5301cd79a0c]
reverse link DependencyFactory to ConfigurationDependencyFactory--><path d="M300,397.9531 C300,417.0931 300,436.2231 300,450.4431 " fill="none" id="DependencyFactory&lt;-ConfigurationDependencyFactory" style="stroke: #A80036; stroke-width: 1.0; stroke-dasharray: 7.0,7.0;"/><polygon fill="none" points="293,397.8231,300,377.8231,307,397.8231,293,397.8231" style="stroke: #A80036; stroke-width: 1.0;"/><!--MD5=[36b3ffc2d0ec7b313ef22843992dda82]
reverse link PaymentStrategy to EscrowPaymentStrategy--><path d="M791,652.1331 C791,669.6331 791,688.7331 791,704.0831 " fill="none" id="PaymentStrategy&lt;-EscrowPaymentStrategy" style="stroke: #A80036; stroke-width: 1.0; stroke-dasharray: 7.0,7.0;"/><polygon fill="none" points="784,651.9631,791,631.9631,798,651.9631,784,651.9631" style="stroke: #A80036; stroke-width: 1.0;"/><!--MD5=[b266917bec1d19033443d5e4fdb1936a]
reverse link EscrowPaymentStrategy to FixedPaymentChannelPaymentStrategy--><path d="M739.618,778.3801 C708.386,804.1691 669.707,836.1071 644.017,857.3191 " fill="none" id="EscrowPaymentStrategy&lt;-FixedPaymentChannelPaymentStrategy" style="stroke: #A80036; stroke-width: 1.0;"/><polygon fill="none" points="735.285,772.8801,755.164,765.5431,744.199,783.6751,735.285,772.8801" style="stroke: #A80036; stroke-width: 1.0;"/><!--MD5=[852f790f83a7a6629c81c035d55184df]
reverse link EscrowPaymentStrategy to OnDemandPaymentChannelPaymentStrategy--><path d="M837.608,779.4031 C864.975,804.9171 898.488,836.1601 920.94,857.0911 " fill="none" id="EscrowPaymentStrategy&lt;-OnDemandPaymentChannelPaymentStrategy" style="stroke: #A80036; stroke-width: 1.0;"/><polygon fill="none" points="832.596,784.3021,822.741,765.5431,842.143,774.0611,832.596,784.3021" style="stroke: #A80036; stroke-width: 1.0;"/><!--MD5=[959240fecb5b0486cb7559d2b7d506db]
link Sdk to Configuration--><path d="M608.731,192.5031 C670.891,210.3531 739.103,231.0931 801,252.4531 C806.979,254.5131 813.056,256.6731 819.178,258.8931 " fill="none" id="Sdk-Configuration" style="stroke: #A80036; stroke-width: 1.0;"/><!--MD5=[44ca6029f689837145a834a0e7728181]
link Sdk to ServiceClient--><path d="M468.799,192.6031 C493.28,213.4431 521.289,237.2831 546.437,258.6931 " fill="none" id="Sdk-ServiceClient" style="stroke: #A80036; stroke-width: 1.0;"/><!--MD5=[f1e16a21a2bf7a887235661116c6ef9f]
link Sdk to DependencyFactory--><path d="M372.514,192.8531 C359.481,215.7931 344.401,242.3231 331.379,265.2431 " fill="none" id="Sdk-DependencyFactory" style="stroke: #A80036; stroke-width: 1.0;"/><!--MD5=[3dd61a7060afbecf34cd84d0ea871382]
reverse link ServiceClient to BaseServiceClient--><path d="M704.526,397.5331 C726.405,416.7431 748.325,435.9831 764.621,450.2931 " fill="none" id="ServiceClient&lt;-BaseServiceClient" style="stroke: #A80036; stroke-width: 1.0; stroke-dasharray: 7.0,7.0;"/><polygon fill="none" points="699.867,402.7631,689.455,384.3031,709.103,392.2431,699.867,402.7631" style="stroke: #A80036; stroke-width: 1.0;"/><!--MD5=[f1810e1cc92e9d243ab972feb76830f3]
reverse link BaseServiceClient to DaemonConnection--><path d="M875.433,497.7831 C876.964,498.0231 878.488,498.2431 880,498.4531 C988.023,513.1331 1754.28,493.1731 1861,515.4531 C2192.27,584.6131 2376.21,526.4231 2564,807.9531 C2601.86,864.7081 2602.37,905.0451 2564,961.4531 C2553.89,976.3151 2540.72,988.5631 2525.88,998.6571 " fill="none" id="BaseServiceClient&lt;-DaemonConnection" style="stroke: #A80036; stroke-width: 1.0;"/><polygon fill="#A80036" points="862.602,495.5031,867.8076,500.4933,874.416,497.6075,869.2105,492.6173,862.602,495.5031" style="stroke: #A80036; stroke-width: 1.0;"/><!--MD5=[fee83ce824a62f471aff6274595972c2]
reverse link BaseServiceClient to MetadataProvider--><path d="M706.232,479.7531 C608.006,485.5531 457.097,497.2931 438,515.4531 C366.673,583.2731 402,635.5331 402,733.9531 C402,733.9531 402,733.9531 402,1047.9531 C402,1189.3481 843.975,1270.5491 1080.93,1303.9221 " fill="none" id="BaseServiceClient&lt;-MetadataProvider" style="stroke: #A80036; stroke-width: 1.0;"/><polygon fill="#A80036" points="719.425,478.9931,713.2045,475.3454,707.4449,479.6845,713.6654,483.3322,719.425,478.9931" style="stroke: #A80036; stroke-width: 1.0;"/><!--MD5=[8bbdb97ec44eedb7ed3952fd20525ba8]
reverse link BaseServiceClient to PaymentChannelProvider--><path d="M875.447,497.6931 C876.975,497.9531 878.493,498.2131 880,498.4531 C995.66,516.9631 1027.91,493.6831 1143,515.4531 C1195.04,525.2931 1251.11,542.2231 1298.29,558.3831 " fill="none" id="BaseServiceClient&lt;-PaymentChannelProvider" style="stroke: #A80036; stroke-width: 1.0;"/><polygon fill="#A80036" points="862.646,495.2031,867.7735,500.2735,874.426,497.4905,869.2985,492.4202,862.646,495.2031" style="stroke: #A80036; stroke-width: 1.0;"/><!--MD5=[42a8c2d7d8694453bdc05839364c455e]
reverse link BaseServiceClient to PaymentStrategy--><path d="M791,511.8031 C791,530.5231 791,553.0631 791,570.7331 " fill="none" id="BaseServiceClient&lt;-PaymentStrategy" style="stroke: #A80036; stroke-width: 1.0;"/><polygon fill="#A80036" points="791,498.6731,787,504.6731,791,510.6731,795,504.6731,791,498.6731" style="stroke: #A80036; stroke-width: 1.0;"/><!--MD5=[2b6c76311f7f0b8298b7fb2c12f1ca74]
reverse link BaseServiceClient to Identity--><path d="M875.432,497.7931 C876.964,498.0331 878.487,498.2531 880,498.4531 C1020.98,517.3231 2021.86,481.5631 2160,515.4531 C2340.88,559.8331 2393.83,581.8231 2534,704.4531 C2575.98,741.1831 2573.89,761.6511 2605,807.9531 C2650.55,875.7391 2659.91,894.0381 2706,961.4531 C2718.59,979.8701 2733.06,1000.2711 2744.64,1016.4131 " fill="none" id="BaseServiceClient&lt;-Identity" style="stroke: #A80036; stroke-width: 1.0;"/><polygon fill="#A80036" points="862.599,495.5231,867.811,500.5066,874.4158,497.6122,869.2037,492.6287,862.599,495.5231" style="stroke: #A80036; stroke-width: 1.0;"/><!--MD5=[e3b50198672a1a5889df5d85e4d9bc47]
@startuml
title SingularityNet Java SDK

package io.singularitynet.sdk.ethereum {

    interface WithAddress {
        Address getAddress();
    }

    interface Identity {
        Signature sign(byte[] message);
    }
    WithAddress <|- - Identity

    class PrivateKeyIdentity {
        Credentials getCredentials();
    }
    Identity <|.. PrivateKeyIdentity

    class MnemonicIdentity
    PrivateKeyIdentity <|- - MnemonicIdentity

}


package io.singularitynet.sdk.registry {

    interface MetadataStorage {
        byte[] get(URI uri);
    }
    class IpfsMetadataStorage
    MetadataStorage <|.. IpfsMetadataStorage

    class RegistryContract {
        Optional<OrganizationRegistration> getOrganizationById(String orgId);
        Optional<ServiceRegistration> getServiceRegistrationById(String orgId, String serviceId);
    }

    interface MetadataProvider {
        ServiceMetadata getServiceMetadata();
        OrganizationMetadata getOrganizationMetadata();
    }
    class RegistryMetadataProvider
    MetadataProvider <|.. RegistryMetadataProvider
    RegistryMetadataProvider *- - RegistryContract
    RegistryMetadataProvider *- - MetadataStorage

}

package io.singularitynet.sdk.daemon {
    
    interface DaemonConnection {
        <T> T getGrpcStub(Function<Channel, T> constructor);
        void setClientCallsInterceptor(ClientInterceptor interceptor);
        String getEndpointGroupName();
        void shutdownNow();
    }

    class RandomEndpointDaemonConnection
    DaemonConnection <|.. RandomEndpointDaemonConnection
    RandomEndpointDaemonConnection o- - MetadataProvider

    class PaymentChannelStateService {
        PaymentChannelStateReply getChannelState(BigInteger channelId);
    }
    PaymentChannelStateService o- - Identity
    PaymentChannelStateService - - DaemonConnection

    interface Payment {
        void toMetadata(Metadata headers);
    }

}

package io.singularitynet.sdk.mpe {
    class MultiPartyEscrowContract {
        Optional<PaymentChannel> getChannelById(BigInteger channelId);
        Address getContractAddress();
        PaymentChannel openChannel(Address signer, Address recipient,\n\tPaymentGroupId groupId, BigInteger value, BigInteger expiration);
        void transfer(Address receiver, BigInteger value);
    }

    interface PaymentChannelProvider {
        PaymentChannel getChannelById(BigInteger channelId);
        PaymentChannel openChannel(Address signer, Address recipient,\n\tPaymentGroupId groupId, BigInteger value, BigInteger lifetimeInBlocks);
    }

    class AskDaemonFirstPaymentChannelProvider
    PaymentChannelProvider <|.. AskDaemonFirstPaymentChannelProvider
    AskDaemonFirstPaymentChannelProvider *- - MultiPartyEscrowContract
    AskDaemonFirstPaymentChannelProvider *- - PaymentChannelStateService

    class EscrowPayment
    Payment ()- EscrowPayment

}

package io.singularitynet.sdk.client {

    interface Configuration {
        URL getEthereumJsonRpcEndpoint();
        URL getIpfsEndpoint();
        IdentityType getSignerType();
        Optional<String> getSignerMnemonic();
        Optional<byte[]> getSignerPrivateKey();
        Optional<Address> getRegistryAddress();
        Optional<Address> getMultiPartyEscrowAddress();
    }

    class ConfigurationUtils {
        static Configuration fromProperties(Properties props);
        static Configuration fromJson(String json);
    }
    
    ConfigurationUtils - - Configuration

    class StaticConfiguration
    Configuration <|.. StaticConfiguration

    interface DependencyFactory {
        Web3j getWeb3j();
        IPFS getIpfs();
        Identity getSigner();
        Registry getRegistry();
        MultiPartyEscrow getMultiPartyEscrow();
    }

    class ConfigurationDependencyFactory
    DependencyFactory <|.. ConfigurationDependencyFactory

    interface PaymentStrategy {
        <ReqT, RespT> Payment getPayment(GrpcCallParameters<ReqT, RespT> parameters, ServiceClient serviceClient);
    }

    abstract class EscrowPaymentStrategy {
        protected PaymentChannel selectChannel(ServiceClient serviceClient);
    }
    PaymentStrategy <|.. EscrowPaymentStrategy

    class FixedPaymentChannelPaymentStrategy
    EscrowPaymentStrategy <|- - FixedPaymentChannelPaymentStrategy
    
    class OnDemandPaymentChannelPaymentStrategy
    EscrowPaymentStrategy <|- - OnDemandPaymentChannelPaymentStrategy

    class Sdk {
        Sdk(Configuration config);
        Sdk(DependencyFactory factory);

        ServiceClient newServiceClient(String orgId, String serviceId, String endpointGroupName, PaymentStrategy paymentStrategy);
        void shutdown();
    }
    Sdk - - Configuration
    Sdk - - ServiceClient
    Sdk - - DependencyFactory

    interface ServiceClient {
        MetadataProvider getMetadataProvider();
        PaymentChannelProvider getPaymentChannelProvider();
        Identity getSigner();
        T getGrpcStub(Function<Channel, T> constructor);
        String getEndpointGroupName();
        void shutdownNow();
    }

    class BaseServiceClient
    ServiceClient <|.. BaseServiceClient
    BaseServiceClient *- - DaemonConnection
    BaseServiceClient *- - MetadataProvider
    BaseServiceClient *- - PaymentChannelProvider
    BaseServiceClient *- - PaymentStrategy
    BaseServiceClient *- - Identity

}
@enduml

PlantUML version 1.2020.01beta5(Unknown compile time)
(GPL source distribution)
Java Runtime: Java(TM) SE Runtime Environment
JVM: Java HotSpot(TM) 64-Bit Server VM
Java Version: 1.7.0_25-b15
Operating System: Linux
Default Encoding: UTF-8
Language: en
Country: US
--></g></svg>
