<?xml version="1.0" encoding="UTF-8" standalone="no"?>
<svg xmlns="http://www.w3.org/2000/svg" xmlns:xlink="http://www.w3.org/1999/xlink" contentScriptType="application/ecmascript" contentStyleType="text/css" height="1611px" preserveAspectRatio="none" style="width:2760px;height:1611px;" version="1.1" viewBox="0 0 2760 1611" width="2760px" zoomAndPan="magnify"><defs><filter height="300%" id="f13dkq8flabcmv" width="300%" x="-1" y="-1"><feGaussianBlur result="blurOut" stdDeviation="2.0"/><feColorMatrix in="blurOut" result="blurOut2" type="matrix" values="0 0 0 0 0 0 0 0 0 0 0 0 0 0 0 0 0 0 .4 0"/><feOffset dx="4.0" dy="4.0" in="blurOut2" result="blurOut3"/><feBlend in="SourceGraphic" in2="blurOut3" mode="normal"/></filter></defs><g><text fill="#000000" font-family="sans-serif" font-size="18" lengthAdjust="spacingAndGlyphs" textLength="213" x="1279.5" y="16.708">SingularityNet Java SDK</text><!--MD5=[c9a0bda5db5f5c41db91654b4e5ef6b4]
cluster io.singularitynet.sdk.ethereum--><polygon fill="#FFFFFF" filter="url(#f13dkq8flabcmv)" points="768,741.4531,1016,741.4531,1023,763.75,1026,763.75,1026,1243.4531,768,1243.4531,768,741.4531" style="stroke: #000000; stroke-width: 1.5;"/><line style="stroke: #000000; stroke-width: 1.5;" x1="768" x2="1023" y1="763.75" y2="763.75"/><text fill="#000000" font-family="sans-serif" font-size="14" font-weight="bold" lengthAdjust="spacingAndGlyphs" textLength="242" x="772" y="756.4482">io.singularitynet.sdk.ethereum</text><!--MD5=[fbeaa37b65443cc49c19f7a5ff8e9e60]
cluster io.singularitynet.sdk.registry--><polygon fill="#FFFFFF" filter="url(#f13dkq8flabcmv)" points="2009,1137.9531,2242,1137.9531,2249,1160.25,2738,1160.25,2738,1599.9531,2009,1599.9531,2009,1137.9531" style="stroke: #000000; stroke-width: 1.5;"/><line style="stroke: #000000; stroke-width: 1.5;" x1="2009" x2="2249" y1="1160.25" y2="1160.25"/><text fill="#000000" font-family="sans-serif" font-size="14" font-weight="bold" lengthAdjust="spacingAndGlyphs" textLength="227" x="2013" y="1152.9482">io.singularitynet.sdk.registry</text><!--MD5=[7a4376249cecd8eed7d6851d37ef4d2a]
cluster io.singularitynet.sdk.daemon--><polygon fill="#FFFFFF" filter="url(#f13dkq8flabcmv)" points="1652,741.4531,1886,741.4531,1893,763.75,2330,763.75,2330,1113.9531,1652,1113.9531,1652,741.4531" style="stroke: #000000; stroke-width: 1.5;"/><line style="stroke: #000000; stroke-width: 1.5;" x1="1652" x2="1893" y1="763.75" y2="763.75"/><text fill="#000000" font-family="sans-serif" font-size="14" font-weight="bold" lengthAdjust="spacingAndGlyphs" textLength="228" x="1656" y="756.4482">io.singularitynet.sdk.daemon</text><!--MD5=[1cef9e114abc99c09a733caef85cc9b6]
cluster io.singularitynet.sdk.mpe--><polygon fill="#FFFFFF" filter="url(#f13dkq8flabcmv)" points="1058,497.4531,1263,497.4531,1270,519.75,1628,519.75,1628,859.9531,1058,859.9531,1058,497.4531" style="stroke: #000000; stroke-width: 1.5;"/><line style="stroke: #000000; stroke-width: 1.5;" x1="1058" x2="1270" y1="519.75" y2="519.75"/><text fill="#000000" font-family="sans-serif" font-size="14" font-weight="bold" lengthAdjust="spacingAndGlyphs" textLength="199" x="1062" y="512.4482">io.singularitynet.sdk.mpe</text><!--MD5=[20d8be066390a5d4368908ca2ae678f3]
cluster io.singularitynet.sdk.client--><polygon fill="#FFFFFF" filter="url(#f13dkq8flabcmv)" points="22,45.4531,236,45.4531,243,67.75,1034,67.75,1034,717.4531,22,717.4531,22,45.4531" style="stroke: #000000; stroke-width: 1.5;"/><line style="stroke: #000000; stroke-width: 1.5;" x1="22" x2="243" y1="67.75" y2="67.75"/><text fill="#000000" font-family="sans-serif" font-size="14" font-weight="bold" lengthAdjust="spacingAndGlyphs" textLength="208" x="26" y="60.4482">io.singularitynet.sdk.client</text><!--MD5=[02f5c4a709c8c80aaf14170cabfdbf15]
class WithAddress--><rect fill="#FEFECE" filter="url(#f13dkq8flabcmv)" height="60.8047" id="WithAddress" style="stroke: #A80036; stroke-width: 1.5;" width="140" x="828" y="776.4531"/><ellipse cx="856.95" cy="792.4531" fill="#B4A7E5" rx="11" ry="11" style="stroke: #A80036; stroke-width: 1.0;"/><path d="M857.9031,789.2344 L857.9031,795.75 L859.6219,795.75 C860.075,795.75 860.2156,795.7813 860.3875,795.9063 C860.6219,796.0781 860.7313,796.3281 860.7313,796.6094 C860.7313,797.1719 860.3719,797.4531 859.6219,797.4531 L854.4813,797.4531 C854.075,797.4531 853.8719,797.4063 853.7156,797.2813 C853.4969,797.125 853.3563,796.8594 853.3563,796.6094 C853.3563,796.3125 853.5125,796.0313 853.7625,795.875 C853.9188,795.7656 854.0438,795.75 854.4813,795.75 L856.2,795.75 L856.2,789.2344 L854.4813,789.2344 C854.0594,789.2344 853.8719,789.2031 853.7156,789.0938 C853.4969,788.9219 853.3563,788.6719 853.3563,788.3906 C853.3563,788.1094 853.5125,787.8125 853.7625,787.6563 C853.9188,787.5625 854.0438,787.5469 854.4813,787.5469 L859.6219,787.5469 C860.075,787.5469 860.2156,787.5781 860.3875,787.6875 C860.6219,787.8594 860.7313,788.125 860.7313,788.3906 C860.7313,788.6875 860.5906,788.9688 860.325,789.125 C860.2,789.2031 860.0125,789.2344 859.6219,789.2344 Z "/><text fill="#000000" font-family="sans-serif" font-size="12" font-style="italic" lengthAdjust="spacingAndGlyphs" textLength="77" x="874.05" y="796.6074">WithAddress</text><line style="stroke: #A80036; stroke-width: 1.5;" x1="829" x2="967" y1="808.4531" y2="808.4531"/><line style="stroke: #A80036; stroke-width: 1.5;" x1="829" x2="967" y1="816.4531" y2="816.4531"/><text fill="#000000" font-family="sans-serif" font-size="11" lengthAdjust="spacingAndGlyphs" textLength="128" x="834" y="830.6636">Address getAddress();</text><!--MD5=[eb5eb01d997468ef8d4f71b3444e5fe9]
class Signer--><rect fill="#FEFECE" filter="url(#f13dkq8flabcmv)" height="60.8047" id="Signer" style="stroke: #A80036; stroke-width: 1.5;" width="173" x="828.5" y="916.4531"/><ellipse cx="890.75" cy="932.4531" fill="#B4A7E5" rx="11" ry="11" style="stroke: #A80036; stroke-width: 1.0;"/><path d="M891.7031,929.2344 L891.7031,935.75 L893.4219,935.75 C893.875,935.75 894.0156,935.7813 894.1875,935.9063 C894.4219,936.0781 894.5313,936.3281 894.5313,936.6094 C894.5313,937.1719 894.1719,937.4531 893.4219,937.4531 L888.2813,937.4531 C887.875,937.4531 887.6719,937.4063 887.5156,937.2813 C887.2969,937.125 887.1563,936.8594 887.1563,936.6094 C887.1563,936.3125 887.3125,936.0313 887.5625,935.875 C887.7188,935.7656 887.8438,935.75 888.2813,935.75 L890,935.75 L890,929.2344 L888.2813,929.2344 C887.8594,929.2344 887.6719,929.2031 887.5156,929.0938 C887.2969,928.9219 887.1563,928.6719 887.1563,928.3906 C887.1563,928.1094 887.3125,927.8125 887.5625,927.6563 C887.7188,927.5625 887.8438,927.5469 888.2813,927.5469 L893.4219,927.5469 C893.875,927.5469 894.0156,927.5781 894.1875,927.6875 C894.4219,927.8594 894.5313,928.125 894.5313,928.3906 C894.5313,928.6875 894.3906,928.9688 894.125,929.125 C894,929.2031 893.8125,929.2344 893.4219,929.2344 Z "/><text fill="#000000" font-family="sans-serif" font-size="12" font-style="italic" lengthAdjust="spacingAndGlyphs" textLength="40" x="911.25" y="936.6074">Signer</text><line style="stroke: #A80036; stroke-width: 1.5;" x1="829.5" x2="1000.5" y1="948.4531" y2="948.4531"/><line style="stroke: #A80036; stroke-width: 1.5;" x1="829.5" x2="1000.5" y1="956.4531" y2="956.4531"/><text fill="#000000" font-family="sans-serif" font-size="11" lengthAdjust="spacingAndGlyphs" textLength="161" x="834.5" y="970.6636">byte[] sign(byte[] message);</text><!--MD5=[b6d80437076b002e054c1b4fb05a77ff]
class PrivateKeyIdentity--><rect fill="#FEFECE" filter="url(#f13dkq8flabcmv)" height="48" id="PrivateKeyIdentity" style="stroke: #A80036; stroke-width: 1.5;" width="142" x="844" y="1049.9531"/><ellipse cx="859" cy="1065.9531" fill="#ADD1B2" rx="11" ry="11" style="stroke: #A80036; stroke-width: 1.0;"/><path d="M861.3438,1061.625 L861.5156,1061.7031 C861.7344,1061.3906 861.9375,1061.2969 862.2344,1061.2969 C862.5313,1061.2969 862.8125,1061.4375 862.9688,1061.7031 C863.0625,1061.8594 863.0781,1061.9844 863.0781,1062.4219 L863.0781,1063.8438 C863.0781,1064.2656 863.0469,1064.4531 862.9375,1064.6094 C862.7656,1064.8281 862.5,1064.9688 862.2344,1064.9688 C862.0156,1064.9688 861.7813,1064.8594 861.6406,1064.7188 C861.5,1064.5938 861.4688,1064.4688 861.4063,1064.0625 C861.3125,1063.6563 861.1406,1063.4375 860.6563,1063.1563 C860.1875,1062.9063 859.5781,1062.75 859,1062.75 C857.2656,1062.75 856.0156,1064.0625 856.0156,1065.8438 L856.0156,1066.9375 C856.0156,1068.6406 857.3125,1069.7344 859.3594,1069.7344 C860.125,1069.7344 860.8125,1069.6094 861.2344,1069.3438 C861.4219,1069.25 861.4219,1069.25 861.875,1068.7656 C862.0625,1068.5781 862.2656,1068.5 862.4844,1068.5 C862.9531,1068.5 863.3438,1068.8906 863.3438,1069.3438 C863.3438,1069.7344 863.0156,1070.1875 862.4375,1070.5938 C861.6875,1071.1406 860.5313,1071.4375 859.3125,1071.4375 C856.4219,1071.4375 854.3125,1069.5469 854.3125,1066.9688 L854.3125,1065.8438 C854.3125,1063.125 856.3125,1061.0469 858.9375,1061.0469 C859.8125,1061.0469 860.4063,1061.1875 861.3438,1061.625 Z "/><text fill="#000000" font-family="sans-serif" font-size="12" lengthAdjust="spacingAndGlyphs" textLength="110" x="873" y="1070.1074">PrivateKeyIdentity</text><line style="stroke: #A80036; stroke-width: 1.5;" x1="845" x2="985" y1="1081.9531" y2="1081.9531"/><line style="stroke: #A80036; stroke-width: 1.5;" x1="845" x2="985" y1="1089.9531" y2="1089.9531"/><!--MD5=[0e3850bbd7a0c73dc417b72efd437f75]
class MnemonicIdentity--><rect fill="#FEFECE" filter="url(#f13dkq8flabcmv)" height="48" id="MnemonicIdentity" style="stroke: #A80036; stroke-width: 1.5;" width="141" x="844.5" y="1179.4531"/><ellipse cx="859.5" cy="1195.4531" fill="#ADD1B2" rx="11" ry="11" style="stroke: #A80036; stroke-width: 1.0;"/><path d="M861.8438,1191.125 L862.0156,1191.2031 C862.2344,1190.8906 862.4375,1190.7969 862.7344,1190.7969 C863.0313,1190.7969 863.3125,1190.9375 863.4688,1191.2031 C863.5625,1191.3594 863.5781,1191.4844 863.5781,1191.9219 L863.5781,1193.3438 C863.5781,1193.7656 863.5469,1193.9531 863.4375,1194.1094 C863.2656,1194.3281 863,1194.4688 862.7344,1194.4688 C862.5156,1194.4688 862.2813,1194.3594 862.1406,1194.2188 C862,1194.0938 861.9688,1193.9688 861.9063,1193.5625 C861.8125,1193.1563 861.6406,1192.9375 861.1563,1192.6563 C860.6875,1192.4063 860.0781,1192.25 859.5,1192.25 C857.7656,1192.25 856.5156,1193.5625 856.5156,1195.3438 L856.5156,1196.4375 C856.5156,1198.1406 857.8125,1199.2344 859.8594,1199.2344 C860.625,1199.2344 861.3125,1199.1094 861.7344,1198.8438 C861.9219,1198.75 861.9219,1198.75 862.375,1198.2656 C862.5625,1198.0781 862.7656,1198 862.9844,1198 C863.4531,1198 863.8438,1198.3906 863.8438,1198.8438 C863.8438,1199.2344 863.5156,1199.6875 862.9375,1200.0938 C862.1875,1200.6406 861.0313,1200.9375 859.8125,1200.9375 C856.9219,1200.9375 854.8125,1199.0469 854.8125,1196.4688 L854.8125,1195.3438 C854.8125,1192.625 856.8125,1190.5469 859.4375,1190.5469 C860.3125,1190.5469 860.9063,1190.6875 861.8438,1191.125 Z "/><text fill="#000000" font-family="sans-serif" font-size="12" lengthAdjust="spacingAndGlyphs" textLength="109" x="873.5" y="1199.6074">MnemonicIdentity</text><line style="stroke: #A80036; stroke-width: 1.5;" x1="845.5" x2="984.5" y1="1211.4531" y2="1211.4531"/><line style="stroke: #A80036; stroke-width: 1.5;" x1="845.5" x2="984.5" y1="1219.4531" y2="1219.4531"/><!--MD5=[108749fa12a1baf8beb812f2eb0b4ce9]
class MetadataStorage--><rect fill="#FEFECE" filter="url(#f13dkq8flabcmv)" height="60.8047" id="MetadataStorage" style="stroke: #A80036; stroke-width: 1.5;" width="142" x="2025" y="1408.4531"/><ellipse cx="2040" cy="1424.4531" fill="#B4A7E5" rx="11" ry="11" style="stroke: #A80036; stroke-width: 1.0;"/><path d="M2040.9531,1421.2344 L2040.9531,1427.75 L2042.6719,1427.75 C2043.125,1427.75 2043.2656,1427.7813 2043.4375,1427.9063 C2043.6719,1428.0781 2043.7813,1428.3281 2043.7813,1428.6094 C2043.7813,1429.1719 2043.4219,1429.4531 2042.6719,1429.4531 L2037.5313,1429.4531 C2037.125,1429.4531 2036.9219,1429.4063 2036.7656,1429.2813 C2036.5469,1429.125 2036.4063,1428.8594 2036.4063,1428.6094 C2036.4063,1428.3125 2036.5625,1428.0313 2036.8125,1427.875 C2036.9688,1427.7656 2037.0938,1427.75 2037.5313,1427.75 L2039.25,1427.75 L2039.25,1421.2344 L2037.5313,1421.2344 C2037.1094,1421.2344 2036.9219,1421.2031 2036.7656,1421.0938 C2036.5469,1420.9219 2036.4063,1420.6719 2036.4063,1420.3906 C2036.4063,1420.1094 2036.5625,1419.8125 2036.8125,1419.6563 C2036.9688,1419.5625 2037.0938,1419.5469 2037.5313,1419.5469 L2042.6719,1419.5469 C2043.125,1419.5469 2043.2656,1419.5781 2043.4375,1419.6875 C2043.6719,1419.8594 2043.7813,1420.125 2043.7813,1420.3906 C2043.7813,1420.6875 2043.6406,1420.9688 2043.375,1421.125 C2043.25,1421.2031 2043.0625,1421.2344 2042.6719,1421.2344 Z "/><text fill="#000000" font-family="sans-serif" font-size="12" font-style="italic" lengthAdjust="spacingAndGlyphs" textLength="110" x="2054" y="1428.6074">MetadataStorage</text><line style="stroke: #A80036; stroke-width: 1.5;" x1="2026" x2="2166" y1="1440.4531" y2="1440.4531"/><line style="stroke: #A80036; stroke-width: 1.5;" x1="2026" x2="2166" y1="1448.4531" y2="1448.4531"/><text fill="#000000" font-family="sans-serif" font-size="11" lengthAdjust="spacingAndGlyphs" textLength="103" x="2031" y="1462.6636">byte[] get(URI uri);</text><!--MD5=[0b8b14870791f9141f0f6a23b1b388b1]
class IpfsMetadataStorage--><rect fill="#FEFECE" filter="url(#f13dkq8flabcmv)" height="48" id="IpfsMetadataStorage" style="stroke: #A80036; stroke-width: 1.5;" width="164" x="2025" y="1535.9531"/><ellipse cx="2040" cy="1551.9531" fill="#ADD1B2" rx="11" ry="11" style="stroke: #A80036; stroke-width: 1.0;"/><path d="M2042.3438,1547.625 L2042.5156,1547.7031 C2042.7344,1547.3906 2042.9375,1547.2969 2043.2344,1547.2969 C2043.5313,1547.2969 2043.8125,1547.4375 2043.9688,1547.7031 C2044.0625,1547.8594 2044.0781,1547.9844 2044.0781,1548.4219 L2044.0781,1549.8438 C2044.0781,1550.2656 2044.0469,1550.4531 2043.9375,1550.6094 C2043.7656,1550.8281 2043.5,1550.9688 2043.2344,1550.9688 C2043.0156,1550.9688 2042.7813,1550.8594 2042.6406,1550.7188 C2042.5,1550.5938 2042.4688,1550.4688 2042.4063,1550.0625 C2042.3125,1549.6563 2042.1406,1549.4375 2041.6563,1549.1563 C2041.1875,1548.9063 2040.5781,1548.75 2040,1548.75 C2038.2656,1548.75 2037.0156,1550.0625 2037.0156,1551.8438 L2037.0156,1552.9375 C2037.0156,1554.6406 2038.3125,1555.7344 2040.3594,1555.7344 C2041.125,1555.7344 2041.8125,1555.6094 2042.2344,1555.3438 C2042.4219,1555.25 2042.4219,1555.25 2042.875,1554.7656 C2043.0625,1554.5781 2043.2656,1554.5 2043.4844,1554.5 C2043.9531,1554.5 2044.3438,1554.8906 2044.3438,1555.3438 C2044.3438,1555.7344 2044.0156,1556.1875 2043.4375,1556.5938 C2042.6875,1557.1406 2041.5313,1557.4375 2040.3125,1557.4375 C2037.4219,1557.4375 2035.3125,1555.5469 2035.3125,1552.9688 L2035.3125,1551.8438 C2035.3125,1549.125 2037.3125,1547.0469 2039.9375,1547.0469 C2040.8125,1547.0469 2041.4063,1547.1875 2042.3438,1547.625 Z "/><text fill="#000000" font-family="sans-serif" font-size="12" lengthAdjust="spacingAndGlyphs" textLength="132" x="2054" y="1556.1074">IpfsMetadataStorage</text><line style="stroke: #A80036; stroke-width: 1.5;" x1="2026" x2="2188" y1="1567.9531" y2="1567.9531"/><line style="stroke: #A80036; stroke-width: 1.5;" x1="2026" x2="2188" y1="1575.9531" y2="1575.9531"/><!--MD5=[c96f5c1a2d64b984efda073a5aae009b]
class RegistryContract--><rect fill="#FEFECE" filter="url(#f13dkq8flabcmv)" height="73.6094" id="RegistryContract" style="stroke: #A80036; stroke-width: 1.5;" width="519" x="2202.5" y="1401.9531"/><ellipse cx="2405.75" cy="1417.9531" fill="#ADD1B2" rx="11" ry="11" style="stroke: #A80036; stroke-width: 1.0;"/><path d="M2408.0938,1413.625 L2408.2656,1413.7031 C2408.4844,1413.3906 2408.6875,1413.2969 2408.9844,1413.2969 C2409.2813,1413.2969 2409.5625,1413.4375 2409.7188,1413.7031 C2409.8125,1413.8594 2409.8281,1413.9844 2409.8281,1414.4219 L2409.8281,1415.8438 C2409.8281,1416.2656 2409.7969,1416.4531 2409.6875,1416.6094 C2409.5156,1416.8281 2409.25,1416.9688 2408.9844,1416.9688 C2408.7656,1416.9688 2408.5313,1416.8594 2408.3906,1416.7188 C2408.25,1416.5938 2408.2188,1416.4688 2408.1563,1416.0625 C2408.0625,1415.6563 2407.8906,1415.4375 2407.4063,1415.1563 C2406.9375,1414.9063 2406.3281,1414.75 2405.75,1414.75 C2404.0156,1414.75 2402.7656,1416.0625 2402.7656,1417.8438 L2402.7656,1418.9375 C2402.7656,1420.6406 2404.0625,1421.7344 2406.1094,1421.7344 C2406.875,1421.7344 2407.5625,1421.6094 2407.9844,1421.3438 C2408.1719,1421.25 2408.1719,1421.25 2408.625,1420.7656 C2408.8125,1420.5781 2409.0156,1420.5 2409.2344,1420.5 C2409.7031,1420.5 2410.0938,1420.8906 2410.0938,1421.3438 C2410.0938,1421.7344 2409.7656,1422.1875 2409.1875,1422.5938 C2408.4375,1423.1406 2407.2813,1423.4375 2406.0625,1423.4375 C2403.1719,1423.4375 2401.0625,1421.5469 2401.0625,1418.9688 L2401.0625,1417.8438 C2401.0625,1415.125 2403.0625,1413.0469 2405.6875,1413.0469 C2406.5625,1413.0469 2407.1563,1413.1875 2408.0938,1413.625 Z "/><text fill="#000000" font-family="sans-serif" font-size="12" lengthAdjust="spacingAndGlyphs" textLength="104" x="2426.25" y="1422.1074">RegistryContract</text><line style="stroke: #A80036; stroke-width: 1.5;" x1="2203.5" x2="2720.5" y1="1433.9531" y2="1433.9531"/><line style="stroke: #A80036; stroke-width: 1.5;" x1="2203.5" x2="2720.5" y1="1441.9531" y2="1441.9531"/><text fill="#000000" font-family="sans-serif" font-size="11" lengthAdjust="spacingAndGlyphs" textLength="400" x="2208.5" y="1456.1636">Optional&lt;OrganizationRegistration&gt; getOrganizationById(String orgId);</text><text fill="#000000" font-family="sans-serif" font-size="11" lengthAdjust="spacingAndGlyphs" textLength="507" x="2208.5" y="1468.9683">Optional&lt;ServiceRegistration&gt; getServiceRegistrationById(String orgId, String serviceId);</text><!--MD5=[7de846d6b480f97ff8e018abb55faf3d]
class MetadataProvider--><rect fill="#FEFECE" filter="url(#f13dkq8flabcmv)" height="60.8047" id="MetadataProvider" style="stroke: #A80036; stroke-width: 1.5;" width="234" x="2185" y="1172.9531"/><ellipse cx="2242.75" cy="1188.9531" fill="#B4A7E5" rx="11" ry="11" style="stroke: #A80036; stroke-width: 1.0;"/><path d="M2243.7031,1185.7344 L2243.7031,1192.25 L2245.4219,1192.25 C2245.875,1192.25 2246.0156,1192.2813 2246.1875,1192.4063 C2246.4219,1192.5781 2246.5313,1192.8281 2246.5313,1193.1094 C2246.5313,1193.6719 2246.1719,1193.9531 2245.4219,1193.9531 L2240.2813,1193.9531 C2239.875,1193.9531 2239.6719,1193.9063 2239.5156,1193.7813 C2239.2969,1193.625 2239.1563,1193.3594 2239.1563,1193.1094 C2239.1563,1192.8125 2239.3125,1192.5313 2239.5625,1192.375 C2239.7188,1192.2656 2239.8438,1192.25 2240.2813,1192.25 L2242,1192.25 L2242,1185.7344 L2240.2813,1185.7344 C2239.8594,1185.7344 2239.6719,1185.7031 2239.5156,1185.5938 C2239.2969,1185.4219 2239.1563,1185.1719 2239.1563,1184.8906 C2239.1563,1184.6094 2239.3125,1184.3125 2239.5625,1184.1563 C2239.7188,1184.0625 2239.8438,1184.0469 2240.2813,1184.0469 L2245.4219,1184.0469 C2245.875,1184.0469 2246.0156,1184.0781 2246.1875,1184.1875 C2246.4219,1184.3594 2246.5313,1184.625 2246.5313,1184.8906 C2246.5313,1185.1875 2246.3906,1185.4688 2246.125,1185.625 C2246,1185.7031 2245.8125,1185.7344 2245.4219,1185.7344 Z "/><text fill="#000000" font-family="sans-serif" font-size="12" font-style="italic" lengthAdjust="spacingAndGlyphs" textLength="110" x="2263.25" y="1193.1074">MetadataProvider</text><line style="stroke: #A80036; stroke-width: 1.5;" x1="2186" x2="2418" y1="1204.9531" y2="1204.9531"/><line style="stroke: #A80036; stroke-width: 1.5;" x1="2186" x2="2418" y1="1212.9531" y2="1212.9531"/><text fill="#000000" font-family="sans-serif" font-size="11" lengthAdjust="spacingAndGlyphs" textLength="222" x="2191" y="1227.1636">ServiceMetadata getServiceMetadata();</text><!--MD5=[7d6c47076f660fce1d354ac67d286524]
class RegistryMetadataProvider--><rect fill="#FEFECE" filter="url(#f13dkq8flabcmv)" height="48" id="RegistryMetadataProvider" style="stroke: #A80036; stroke-width: 1.5;" width="193" x="2205.5" y="1293.9531"/><ellipse cx="2220.5" cy="1309.9531" fill="#ADD1B2" rx="11" ry="11" style="stroke: #A80036; stroke-width: 1.0;"/><path d="M2222.8438,1305.625 L2223.0156,1305.7031 C2223.2344,1305.3906 2223.4375,1305.2969 2223.7344,1305.2969 C2224.0313,1305.2969 2224.3125,1305.4375 2224.4688,1305.7031 C2224.5625,1305.8594 2224.5781,1305.9844 2224.5781,1306.4219 L2224.5781,1307.8438 C2224.5781,1308.2656 2224.5469,1308.4531 2224.4375,1308.6094 C2224.2656,1308.8281 2224,1308.9688 2223.7344,1308.9688 C2223.5156,1308.9688 2223.2813,1308.8594 2223.1406,1308.7188 C2223,1308.5938 2222.9688,1308.4688 2222.9063,1308.0625 C2222.8125,1307.6563 2222.6406,1307.4375 2222.1563,1307.1563 C2221.6875,1306.9063 2221.0781,1306.75 2220.5,1306.75 C2218.7656,1306.75 2217.5156,1308.0625 2217.5156,1309.8438 L2217.5156,1310.9375 C2217.5156,1312.6406 2218.8125,1313.7344 2220.8594,1313.7344 C2221.625,1313.7344 2222.3125,1313.6094 2222.7344,1313.3438 C2222.9219,1313.25 2222.9219,1313.25 2223.375,1312.7656 C2223.5625,1312.5781 2223.7656,1312.5 2223.9844,1312.5 C2224.4531,1312.5 2224.8438,1312.8906 2224.8438,1313.3438 C2224.8438,1313.7344 2224.5156,1314.1875 2223.9375,1314.5938 C2223.1875,1315.1406 2222.0313,1315.4375 2220.8125,1315.4375 C2217.9219,1315.4375 2215.8125,1313.5469 2215.8125,1310.9688 L2215.8125,1309.8438 C2215.8125,1307.125 2217.8125,1305.0469 2220.4375,1305.0469 C2221.3125,1305.0469 2221.9063,1305.1875 2222.8438,1305.625 Z "/><text fill="#000000" font-family="sans-serif" font-size="12" lengthAdjust="spacingAndGlyphs" textLength="161" x="2234.5" y="1314.1074">RegistryMetadataProvider</text><line style="stroke: #A80036; stroke-width: 1.5;" x1="2206.5" x2="2397.5" y1="1325.9531" y2="1325.9531"/><line style="stroke: #A80036; stroke-width: 1.5;" x1="2206.5" x2="2397.5" y1="1333.9531" y2="1333.9531"/><!--MD5=[06bc73c308419be41e333edfccb18056]
class DaemonConnection--><rect fill="#FEFECE" filter="url(#f13dkq8flabcmv)" height="86.4141" id="DaemonConnection" style="stroke: #A80036; stroke-width: 1.5;" width="351" x="1962.5" y="903.9531"/><ellipse cx="2072.25" cy="919.9531" fill="#B4A7E5" rx="11" ry="11" style="stroke: #A80036; stroke-width: 1.0;"/><path d="M2073.2031,916.7344 L2073.2031,923.25 L2074.9219,923.25 C2075.375,923.25 2075.5156,923.2813 2075.6875,923.4063 C2075.9219,923.5781 2076.0313,923.8281 2076.0313,924.1094 C2076.0313,924.6719 2075.6719,924.9531 2074.9219,924.9531 L2069.7813,924.9531 C2069.375,924.9531 2069.1719,924.9063 2069.0156,924.7813 C2068.7969,924.625 2068.6563,924.3594 2068.6563,924.1094 C2068.6563,923.8125 2068.8125,923.5313 2069.0625,923.375 C2069.2188,923.2656 2069.3438,923.25 2069.7813,923.25 L2071.5,923.25 L2071.5,916.7344 L2069.7813,916.7344 C2069.3594,916.7344 2069.1719,916.7031 2069.0156,916.5938 C2068.7969,916.4219 2068.6563,916.1719 2068.6563,915.8906 C2068.6563,915.6094 2068.8125,915.3125 2069.0625,915.1563 C2069.2188,915.0625 2069.3438,915.0469 2069.7813,915.0469 L2074.9219,915.0469 C2075.375,915.0469 2075.5156,915.0781 2075.6875,915.1875 C2075.9219,915.3594 2076.0313,915.625 2076.0313,915.8906 C2076.0313,916.1875 2075.8906,916.4688 2075.625,916.625 C2075.5,916.7031 2075.3125,916.7344 2074.9219,916.7344 Z "/><text fill="#000000" font-family="sans-serif" font-size="12" font-style="italic" lengthAdjust="spacingAndGlyphs" textLength="123" x="2092.75" y="924.1074">DaemonConnection</text><line style="stroke: #A80036; stroke-width: 1.5;" x1="1963.5" x2="2312.5" y1="935.9531" y2="935.9531"/><line style="stroke: #A80036; stroke-width: 1.5;" x1="1963.5" x2="2312.5" y1="943.9531" y2="943.9531"/><text fill="#000000" font-family="sans-serif" font-size="11" lengthAdjust="spacingAndGlyphs" textLength="318" x="1968.5" y="958.1636">&lt;T&gt; T getGrpcStub(Function&lt;Channel, T&gt; constructor);</text><text fill="#000000" font-family="sans-serif" font-size="11" lengthAdjust="spacingAndGlyphs" textLength="339" x="1968.5" y="970.9683">void setClientCallsInterceptor(ClientInterceptor interceptor);</text><text fill="#000000" font-family="sans-serif" font-size="11" lengthAdjust="spacingAndGlyphs" textLength="118" x="1968.5" y="983.7729">void shutdownNow();</text><!--MD5=[297291980de3643661061590a47a5f7c]
class FirstEndpointDaemonConnection--><rect fill="#FEFECE" filter="url(#f13dkq8flabcmv)" height="48" id="FirstEndpointDaemonConnection" style="stroke: #A80036; stroke-width: 1.5;" width="238" x="2047" y="1049.9531"/><ellipse cx="2062" cy="1065.9531" fill="#ADD1B2" rx="11" ry="11" style="stroke: #A80036; stroke-width: 1.0;"/><path d="M2064.3438,1061.625 L2064.5156,1061.7031 C2064.7344,1061.3906 2064.9375,1061.2969 2065.2344,1061.2969 C2065.5313,1061.2969 2065.8125,1061.4375 2065.9688,1061.7031 C2066.0625,1061.8594 2066.0781,1061.9844 2066.0781,1062.4219 L2066.0781,1063.8438 C2066.0781,1064.2656 2066.0469,1064.4531 2065.9375,1064.6094 C2065.7656,1064.8281 2065.5,1064.9688 2065.2344,1064.9688 C2065.0156,1064.9688 2064.7813,1064.8594 2064.6406,1064.7188 C2064.5,1064.5938 2064.4688,1064.4688 2064.4063,1064.0625 C2064.3125,1063.6563 2064.1406,1063.4375 2063.6563,1063.1563 C2063.1875,1062.9063 2062.5781,1062.75 2062,1062.75 C2060.2656,1062.75 2059.0156,1064.0625 2059.0156,1065.8438 L2059.0156,1066.9375 C2059.0156,1068.6406 2060.3125,1069.7344 2062.3594,1069.7344 C2063.125,1069.7344 2063.8125,1069.6094 2064.2344,1069.3438 C2064.4219,1069.25 2064.4219,1069.25 2064.875,1068.7656 C2065.0625,1068.5781 2065.2656,1068.5 2065.4844,1068.5 C2065.9531,1068.5 2066.3438,1068.8906 2066.3438,1069.3438 C2066.3438,1069.7344 2066.0156,1070.1875 2065.4375,1070.5938 C2064.6875,1071.1406 2063.5313,1071.4375 2062.3125,1071.4375 C2059.4219,1071.4375 2057.3125,1069.5469 2057.3125,1066.9688 L2057.3125,1065.8438 C2057.3125,1063.125 2059.3125,1061.0469 2061.9375,1061.0469 C2062.8125,1061.0469 2063.4063,1061.1875 2064.3438,1061.625 Z "/><text fill="#000000" font-family="sans-serif" font-size="12" lengthAdjust="spacingAndGlyphs" textLength="206" x="2076" y="1070.1074">FirstEndpointDaemonConnection</text><line style="stroke: #A80036; stroke-width: 1.5;" x1="2048" x2="2284" y1="1081.9531" y2="1081.9531"/><line style="stroke: #A80036; stroke-width: 1.5;" x1="2048" x2="2284" y1="1089.9531" y2="1089.9531"/><!--MD5=[49163365a2d8a8492303b83ddbd98154]
class PaymentChannelStateService--><rect fill="#FEFECE" filter="url(#f13dkq8flabcmv)" height="60.8047" id="PaymentChannelStateService" style="stroke: #A80036; stroke-width: 1.5;" width="393" x="1920.5" y="776.4531"/><ellipse cx="2020.75" cy="792.4531" fill="#ADD1B2" rx="11" ry="11" style="stroke: #A80036; stroke-width: 1.0;"/><path d="M2023.0938,788.125 L2023.2656,788.2031 C2023.4844,787.8906 2023.6875,787.7969 2023.9844,787.7969 C2024.2813,787.7969 2024.5625,787.9375 2024.7188,788.2031 C2024.8125,788.3594 2024.8281,788.4844 2024.8281,788.9219 L2024.8281,790.3438 C2024.8281,790.7656 2024.7969,790.9531 2024.6875,791.1094 C2024.5156,791.3281 2024.25,791.4688 2023.9844,791.4688 C2023.7656,791.4688 2023.5313,791.3594 2023.3906,791.2188 C2023.25,791.0938 2023.2188,790.9688 2023.1563,790.5625 C2023.0625,790.1563 2022.8906,789.9375 2022.4063,789.6563 C2021.9375,789.4063 2021.3281,789.25 2020.75,789.25 C2019.0156,789.25 2017.7656,790.5625 2017.7656,792.3438 L2017.7656,793.4375 C2017.7656,795.1406 2019.0625,796.2344 2021.1094,796.2344 C2021.875,796.2344 2022.5625,796.1094 2022.9844,795.8438 C2023.1719,795.75 2023.1719,795.75 2023.625,795.2656 C2023.8125,795.0781 2024.0156,795 2024.2344,795 C2024.7031,795 2025.0938,795.3906 2025.0938,795.8438 C2025.0938,796.2344 2024.7656,796.6875 2024.1875,797.0938 C2023.4375,797.6406 2022.2813,797.9375 2021.0625,797.9375 C2018.1719,797.9375 2016.0625,796.0469 2016.0625,793.4688 L2016.0625,792.3438 C2016.0625,789.625 2018.0625,787.5469 2020.6875,787.5469 C2021.5625,787.5469 2022.1563,787.6875 2023.0938,788.125 Z "/><text fill="#000000" font-family="sans-serif" font-size="12" lengthAdjust="spacingAndGlyphs" textLength="184" x="2041.25" y="796.6074">PaymentChannelStateService</text><line style="stroke: #A80036; stroke-width: 1.5;" x1="1921.5" x2="2312.5" y1="808.4531" y2="808.4531"/><line style="stroke: #A80036; stroke-width: 1.5;" x1="1921.5" x2="2312.5" y1="816.4531" y2="816.4531"/><text fill="#000000" font-family="sans-serif" font-size="11" lengthAdjust="spacingAndGlyphs" textLength="381" x="1926.5" y="830.6636">PaymentChannelStateReply getChannelState(BigInteger channelId);</text><!--MD5=[764fca796ce7f635542948d8fc39db5e]
class Payment--><rect fill="#FEFECE" filter="url(#f13dkq8flabcmv)" height="60.8047" id="Payment" style="stroke: #A80036; stroke-width: 1.5;" width="217" x="1668.5" y="776.4531"/><ellipse cx="1745.75" cy="792.4531" fill="#B4A7E5" rx="11" ry="11" style="stroke: #A80036; stroke-width: 1.0;"/><path d="M1746.7031,789.2344 L1746.7031,795.75 L1748.4219,795.75 C1748.875,795.75 1749.0156,795.7813 1749.1875,795.9063 C1749.4219,796.0781 1749.5313,796.3281 1749.5313,796.6094 C1749.5313,797.1719 1749.1719,797.4531 1748.4219,797.4531 L1743.2813,797.4531 C1742.875,797.4531 1742.6719,797.4063 1742.5156,797.2813 C1742.2969,797.125 1742.1563,796.8594 1742.1563,796.6094 C1742.1563,796.3125 1742.3125,796.0313 1742.5625,795.875 C1742.7188,795.7656 1742.8438,795.75 1743.2813,795.75 L1745,795.75 L1745,789.2344 L1743.2813,789.2344 C1742.8594,789.2344 1742.6719,789.2031 1742.5156,789.0938 C1742.2969,788.9219 1742.1563,788.6719 1742.1563,788.3906 C1742.1563,788.1094 1742.3125,787.8125 1742.5625,787.6563 C1742.7188,787.5625 1742.8438,787.5469 1743.2813,787.5469 L1748.4219,787.5469 C1748.875,787.5469 1749.0156,787.5781 1749.1875,787.6875 C1749.4219,787.8594 1749.5313,788.125 1749.5313,788.3906 C1749.5313,788.6875 1749.3906,788.9688 1749.125,789.125 C1749,789.2031 1748.8125,789.2344 1748.4219,789.2344 Z "/><text fill="#000000" font-family="sans-serif" font-size="12" font-style="italic" lengthAdjust="spacingAndGlyphs" textLength="54" x="1766.25" y="796.6074">Payment</text><line style="stroke: #A80036; stroke-width: 1.5;" x1="1669.5" x2="1884.5" y1="808.4531" y2="808.4531"/><line style="stroke: #A80036; stroke-width: 1.5;" x1="1669.5" x2="1884.5" y1="816.4531" y2="816.4531"/><text fill="#000000" font-family="sans-serif" font-size="11" lengthAdjust="spacingAndGlyphs" textLength="205" x="1674.5" y="830.6636">void toMetadata(Metadata headers);</text><!--MD5=[21705c80423a45734a535470c58d7091]
class MultiPartyEscrowContract--><rect fill="#FEFECE" filter="url(#f13dkq8flabcmv)" height="73.6094" id="MultiPartyEscrowContract" style="stroke: #A80036; stroke-width: 1.5;" width="392" x="1147" y="769.9531"/><ellipse cx="1259.25" cy="785.9531" fill="#ADD1B2" rx="11" ry="11" style="stroke: #A80036; stroke-width: 1.0;"/><path d="M1261.5938,781.625 L1261.7656,781.7031 C1261.9844,781.3906 1262.1875,781.2969 1262.4844,781.2969 C1262.7813,781.2969 1263.0625,781.4375 1263.2188,781.7031 C1263.3125,781.8594 1263.3281,781.9844 1263.3281,782.4219 L1263.3281,783.8438 C1263.3281,784.2656 1263.2969,784.4531 1263.1875,784.6094 C1263.0156,784.8281 1262.75,784.9688 1262.4844,784.9688 C1262.2656,784.9688 1262.0313,784.8594 1261.8906,784.7188 C1261.75,784.5938 1261.7188,784.4688 1261.6563,784.0625 C1261.5625,783.6563 1261.3906,783.4375 1260.9063,783.1563 C1260.4375,782.9063 1259.8281,782.75 1259.25,782.75 C1257.5156,782.75 1256.2656,784.0625 1256.2656,785.8438 L1256.2656,786.9375 C1256.2656,788.6406 1257.5625,789.7344 1259.6094,789.7344 C1260.375,789.7344 1261.0625,789.6094 1261.4844,789.3438 C1261.6719,789.25 1261.6719,789.25 1262.125,788.7656 C1262.3125,788.5781 1262.5156,788.5 1262.7344,788.5 C1263.2031,788.5 1263.5938,788.8906 1263.5938,789.3438 C1263.5938,789.7344 1263.2656,790.1875 1262.6875,790.5938 C1261.9375,791.1406 1260.7813,791.4375 1259.5625,791.4375 C1256.6719,791.4375 1254.5625,789.5469 1254.5625,786.9688 L1254.5625,785.8438 C1254.5625,783.125 1256.5625,781.0469 1259.1875,781.0469 C1260.0625,781.0469 1260.6563,781.1875 1261.5938,781.625 Z "/><text fill="#000000" font-family="sans-serif" font-size="12" lengthAdjust="spacingAndGlyphs" textLength="159" x="1279.75" y="790.1074">MultiPartyEscrowContract</text><line style="stroke: #A80036; stroke-width: 1.5;" x1="1148" x2="1538" y1="801.9531" y2="801.9531"/><line style="stroke: #A80036; stroke-width: 1.5;" x1="1148" x2="1538" y1="809.9531" y2="809.9531"/><text fill="#000000" font-family="sans-serif" font-size="11" lengthAdjust="spacingAndGlyphs" textLength="380" x="1153" y="824.1636">Optional&lt;PaymentChannel&gt; getChannelById(BigInteger channelId);</text><text fill="#000000" font-family="sans-serif" font-size="11" lengthAdjust="spacingAndGlyphs" textLength="176" x="1153" y="836.9683">Address getContractAddress();</text><!--MD5=[0f4558827744cf1cee3afe858bb9a127]
class PaymentChannelProvider--><rect fill="#FEFECE" filter="url(#f13dkq8flabcmv)" height="60.8047" id="PaymentChannelProvider" style="stroke: #A80036; stroke-width: 1.5;" width="327" x="1074.5" y="532.4531"/><ellipse cx="1156.25" cy="548.4531" fill="#B4A7E5" rx="11" ry="11" style="stroke: #A80036; stroke-width: 1.0;"/><path d="M1157.2031,545.2344 L1157.2031,551.75 L1158.9219,551.75 C1159.375,551.75 1159.5156,551.7813 1159.6875,551.9063 C1159.9219,552.0781 1160.0313,552.3281 1160.0313,552.6094 C1160.0313,553.1719 1159.6719,553.4531 1158.9219,553.4531 L1153.7813,553.4531 C1153.375,553.4531 1153.1719,553.4063 1153.0156,553.2813 C1152.7969,553.125 1152.6563,552.8594 1152.6563,552.6094 C1152.6563,552.3125 1152.8125,552.0313 1153.0625,551.875 C1153.2188,551.7656 1153.3438,551.75 1153.7813,551.75 L1155.5,551.75 L1155.5,545.2344 L1153.7813,545.2344 C1153.3594,545.2344 1153.1719,545.2031 1153.0156,545.0938 C1152.7969,544.9219 1152.6563,544.6719 1152.6563,544.3906 C1152.6563,544.1094 1152.8125,543.8125 1153.0625,543.6563 C1153.2188,543.5625 1153.3438,543.5469 1153.7813,543.5469 L1158.9219,543.5469 C1159.375,543.5469 1159.5156,543.5781 1159.6875,543.6875 C1159.9219,543.8594 1160.0313,544.125 1160.0313,544.3906 C1160.0313,544.6875 1159.8906,544.9688 1159.625,545.125 C1159.5,545.2031 1159.3125,545.2344 1158.9219,545.2344 Z "/><text fill="#000000" font-family="sans-serif" font-size="12" font-style="italic" lengthAdjust="spacingAndGlyphs" textLength="155" x="1176.75" y="552.6074">PaymentChannelProvider</text><line style="stroke: #A80036; stroke-width: 1.5;" x1="1075.5" x2="1400.5" y1="564.4531" y2="564.4531"/><line style="stroke: #A80036; stroke-width: 1.5;" x1="1075.5" x2="1400.5" y1="572.4531" y2="572.4531"/><text fill="#000000" font-family="sans-serif" font-size="11" lengthAdjust="spacingAndGlyphs" textLength="315" x="1080.5" y="586.6636">PaymentChannel getChannelById(BigInteger channelId);</text><!--MD5=[07b5ccda0566067c4cd653ad8d5fc568]
class AskDaemonFirstPaymentChannelProvider--><rect fill="#FEFECE" filter="url(#f13dkq8flabcmv)" height="48" id="AskDaemonFirstPaymentChannelProvider" style="stroke: #A80036; stroke-width: 1.5;" width="289" x="1198.5" y="653.4531"/><ellipse cx="1213.5" cy="669.4531" fill="#ADD1B2" rx="11" ry="11" style="stroke: #A80036; stroke-width: 1.0;"/><path d="M1215.8438,665.125 L1216.0156,665.2031 C1216.2344,664.8906 1216.4375,664.7969 1216.7344,664.7969 C1217.0313,664.7969 1217.3125,664.9375 1217.4688,665.2031 C1217.5625,665.3594 1217.5781,665.4844 1217.5781,665.9219 L1217.5781,667.3438 C1217.5781,667.7656 1217.5469,667.9531 1217.4375,668.1094 C1217.2656,668.3281 1217,668.4688 1216.7344,668.4688 C1216.5156,668.4688 1216.2813,668.3594 1216.1406,668.2188 C1216,668.0938 1215.9688,667.9688 1215.9063,667.5625 C1215.8125,667.1563 1215.6406,666.9375 1215.1563,666.6563 C1214.6875,666.4063 1214.0781,666.25 1213.5,666.25 C1211.7656,666.25 1210.5156,667.5625 1210.5156,669.3438 L1210.5156,670.4375 C1210.5156,672.1406 1211.8125,673.2344 1213.8594,673.2344 C1214.625,673.2344 1215.3125,673.1094 1215.7344,672.8438 C1215.9219,672.75 1215.9219,672.75 1216.375,672.2656 C1216.5625,672.0781 1216.7656,672 1216.9844,672 C1217.4531,672 1217.8438,672.3906 1217.8438,672.8438 C1217.8438,673.2344 1217.5156,673.6875 1216.9375,674.0938 C1216.1875,674.6406 1215.0313,674.9375 1213.8125,674.9375 C1210.9219,674.9375 1208.8125,673.0469 1208.8125,670.4688 L1208.8125,669.3438 C1208.8125,666.625 1210.8125,664.5469 1213.4375,664.5469 C1214.3125,664.5469 1214.9063,664.6875 1215.8438,665.125 Z "/><text fill="#000000" font-family="sans-serif" font-size="12" lengthAdjust="spacingAndGlyphs" textLength="257" x="1227.5" y="673.6074">AskDaemonFirstPaymentChannelProvider</text><line style="stroke: #A80036; stroke-width: 1.5;" x1="1199.5" x2="1486.5" y1="685.4531" y2="685.4531"/><line style="stroke: #A80036; stroke-width: 1.5;" x1="1199.5" x2="1486.5" y1="693.4531" y2="693.4531"/><!--MD5=[5c8ce949bc8c9f89b0b30c1e80feca4d]
class EscrowPayment--><rect fill="#FEFECE" filter="url(#f13dkq8flabcmv)" height="48" id="EscrowPayment" style="stroke: #A80036; stroke-width: 1.5;" width="130" x="1482" y="538.9531"/><ellipse cx="1497" cy="554.9531" fill="#ADD1B2" rx="11" ry="11" style="stroke: #A80036; stroke-width: 1.0;"/><path d="M1499.3438,550.625 L1499.5156,550.7031 C1499.7344,550.3906 1499.9375,550.2969 1500.2344,550.2969 C1500.5313,550.2969 1500.8125,550.4375 1500.9688,550.7031 C1501.0625,550.8594 1501.0781,550.9844 1501.0781,551.4219 L1501.0781,552.8438 C1501.0781,553.2656 1501.0469,553.4531 1500.9375,553.6094 C1500.7656,553.8281 1500.5,553.9688 1500.2344,553.9688 C1500.0156,553.9688 1499.7813,553.8594 1499.6406,553.7188 C1499.5,553.5938 1499.4688,553.4688 1499.4063,553.0625 C1499.3125,552.6563 1499.1406,552.4375 1498.6563,552.1563 C1498.1875,551.9063 1497.5781,551.75 1497,551.75 C1495.2656,551.75 1494.0156,553.0625 1494.0156,554.8438 L1494.0156,555.9375 C1494.0156,557.6406 1495.3125,558.7344 1497.3594,558.7344 C1498.125,558.7344 1498.8125,558.6094 1499.2344,558.3438 C1499.4219,558.25 1499.4219,558.25 1499.875,557.7656 C1500.0625,557.5781 1500.2656,557.5 1500.4844,557.5 C1500.9531,557.5 1501.3438,557.8906 1501.3438,558.3438 C1501.3438,558.7344 1501.0156,559.1875 1500.4375,559.5938 C1499.6875,560.1406 1498.5313,560.4375 1497.3125,560.4375 C1494.4219,560.4375 1492.3125,558.5469 1492.3125,555.9688 L1492.3125,554.8438 C1492.3125,552.125 1494.3125,550.0469 1496.9375,550.0469 C1497.8125,550.0469 1498.4063,550.1875 1499.3438,550.625 Z "/><text fill="#000000" font-family="sans-serif" font-size="12" lengthAdjust="spacingAndGlyphs" textLength="98" x="1511" y="559.1074">EscrowPayment</text><line style="stroke: #A80036; stroke-width: 1.5;" x1="1483" x2="1611" y1="570.9531" y2="570.9531"/><line style="stroke: #A80036; stroke-width: 1.5;" x1="1483" x2="1611" y1="578.9531" y2="578.9531"/><ellipse cx="1442" cy="562.9531" fill="#FEFECE" filter="url(#f13dkq8flabcmv)" rx="5" ry="5" style="stroke: #A80036; stroke-width: 1.5;"/><text fill="#000000" font-family="sans-serif" font-size="12" lengthAdjust="spacingAndGlyphs" textLength="54" x="1415" y="579.0918">Payment</text><!--MD5=[9b7eb76f801c309757ef5968cb2349d9]
class Configuration--><rect fill="#FEFECE" filter="url(#f13dkq8flabcmv)" height="112.0234" id="Configuration" style="stroke: #A80036; stroke-width: 1.5;" width="228" x="38" y="252.4531"/><ellipse cx="105.75" cy="268.4531" fill="#B4A7E5" rx="11" ry="11" style="stroke: #A80036; stroke-width: 1.0;"/><path d="M106.7031,265.2344 L106.7031,271.75 L108.4219,271.75 C108.875,271.75 109.0156,271.7813 109.1875,271.9063 C109.4219,272.0781 109.5313,272.3281 109.5313,272.6094 C109.5313,273.1719 109.1719,273.4531 108.4219,273.4531 L103.2813,273.4531 C102.875,273.4531 102.6719,273.4063 102.5156,273.2813 C102.2969,273.125 102.1563,272.8594 102.1563,272.6094 C102.1563,272.3125 102.3125,272.0313 102.5625,271.875 C102.7188,271.7656 102.8438,271.75 103.2813,271.75 L105,271.75 L105,265.2344 L103.2813,265.2344 C102.8594,265.2344 102.6719,265.2031 102.5156,265.0938 C102.2969,264.9219 102.1563,264.6719 102.1563,264.3906 C102.1563,264.1094 102.3125,263.8125 102.5625,263.6563 C102.7188,263.5625 102.8438,263.5469 103.2813,263.5469 L108.4219,263.5469 C108.875,263.5469 109.0156,263.5781 109.1875,263.6875 C109.4219,263.8594 109.5313,264.125 109.5313,264.3906 C109.5313,264.6875 109.3906,264.9688 109.125,265.125 C109,265.2031 108.8125,265.2344 108.4219,265.2344 Z "/><text fill="#000000" font-family="sans-serif" font-size="12" font-style="italic" lengthAdjust="spacingAndGlyphs" textLength="84" x="126.25" y="272.6074">Configuration</text><line style="stroke: #A80036; stroke-width: 1.5;" x1="39" x2="265" y1="284.4531" y2="284.4531"/><line style="stroke: #A80036; stroke-width: 1.5;" x1="39" x2="265" y1="292.4531" y2="292.4531"/><text fill="#000000" font-family="sans-serif" font-size="11" lengthAdjust="spacingAndGlyphs" textLength="216" x="44" y="306.6636">String getEthereumJsonRpcEndpoint();</text><text fill="#000000" font-family="sans-serif" font-size="11" lengthAdjust="spacingAndGlyphs" textLength="92" x="44" y="319.4683">URL getIpfsUrl();</text><text fill="#000000" font-family="sans-serif" font-size="11" lengthAdjust="spacingAndGlyphs" textLength="162" x="44" y="332.2729">SignerType getSignerType();</text><text fill="#000000" font-family="sans-serif" font-size="11" lengthAdjust="spacingAndGlyphs" textLength="162" x="44" y="345.0776">String getSignerMnemonic();</text><text fill="#000000" font-family="sans-serif" font-size="11" lengthAdjust="spacingAndGlyphs" textLength="162" x="44" y="357.8823">byte[] getSignerPrivateKey();</text><!--MD5=[e080fab05714729631ae58a9276489a6]
class JsonConfiguration--><rect fill="#FEFECE" filter="url(#f13dkq8flabcmv)" height="48" id="JsonConfiguration" style="stroke: #A80036; stroke-width: 1.5;" width="142" x="81" y="424.4531"/><ellipse cx="96" cy="440.4531" fill="#ADD1B2" rx="11" ry="11" style="stroke: #A80036; stroke-width: 1.0;"/><path d="M98.3438,436.125 L98.5156,436.2031 C98.7344,435.8906 98.9375,435.7969 99.2344,435.7969 C99.5313,435.7969 99.8125,435.9375 99.9688,436.2031 C100.0625,436.3594 100.0781,436.4844 100.0781,436.9219 L100.0781,438.3438 C100.0781,438.7656 100.0469,438.9531 99.9375,439.1094 C99.7656,439.3281 99.5,439.4688 99.2344,439.4688 C99.0156,439.4688 98.7813,439.3594 98.6406,439.2188 C98.5,439.0938 98.4688,438.9688 98.4063,438.5625 C98.3125,438.1563 98.1406,437.9375 97.6563,437.6563 C97.1875,437.4063 96.5781,437.25 96,437.25 C94.2656,437.25 93.0156,438.5625 93.0156,440.3438 L93.0156,441.4375 C93.0156,443.1406 94.3125,444.2344 96.3594,444.2344 C97.125,444.2344 97.8125,444.1094 98.2344,443.8438 C98.4219,443.75 98.4219,443.75 98.875,443.2656 C99.0625,443.0781 99.2656,443 99.4844,443 C99.9531,443 100.3438,443.3906 100.3438,443.8438 C100.3438,444.2344 100.0156,444.6875 99.4375,445.0938 C98.6875,445.6406 97.5313,445.9375 96.3125,445.9375 C93.4219,445.9375 91.3125,444.0469 91.3125,441.4688 L91.3125,440.3438 C91.3125,437.625 93.3125,435.5469 95.9375,435.5469 C96.8125,435.5469 97.4063,435.6875 98.3438,436.125 Z "/><text fill="#000000" font-family="sans-serif" font-size="12" lengthAdjust="spacingAndGlyphs" textLength="110" x="110" y="444.6074">JsonConfiguration</text><line style="stroke: #A80036; stroke-width: 1.5;" x1="82" x2="222" y1="456.4531" y2="456.4531"/><line style="stroke: #A80036; stroke-width: 1.5;" x1="82" x2="222" y1="464.4531" y2="464.4531"/><!--MD5=[4b934e359fed50ed512d3d2d3ad10faa]
class DependencyFactory--><rect fill="#FEFECE" filter="url(#f13dkq8flabcmv)" height="99.2188" id="DependencyFactory" style="stroke: #A80036; stroke-width: 1.5;" width="352" x="301" y="258.9531"/><ellipse cx="409.75" cy="274.9531" fill="#B4A7E5" rx="11" ry="11" style="stroke: #A80036; stroke-width: 1.0;"/><path d="M410.7031,271.7344 L410.7031,278.25 L412.4219,278.25 C412.875,278.25 413.0156,278.2813 413.1875,278.4063 C413.4219,278.5781 413.5313,278.8281 413.5313,279.1094 C413.5313,279.6719 413.1719,279.9531 412.4219,279.9531 L407.2813,279.9531 C406.875,279.9531 406.6719,279.9063 406.5156,279.7813 C406.2969,279.625 406.1563,279.3594 406.1563,279.1094 C406.1563,278.8125 406.3125,278.5313 406.5625,278.375 C406.7188,278.2656 406.8438,278.25 407.2813,278.25 L409,278.25 L409,271.7344 L407.2813,271.7344 C406.8594,271.7344 406.6719,271.7031 406.5156,271.5938 C406.2969,271.4219 406.1563,271.1719 406.1563,270.8906 C406.1563,270.6094 406.3125,270.3125 406.5625,270.1563 C406.7188,270.0625 406.8438,270.0469 407.2813,270.0469 L412.4219,270.0469 C412.875,270.0469 413.0156,270.0781 413.1875,270.1875 C413.4219,270.3594 413.5313,270.625 413.5313,270.8906 C413.5313,271.1875 413.3906,271.4688 413.125,271.625 C413,271.7031 412.8125,271.7344 412.4219,271.7344 Z "/><text fill="#000000" font-family="sans-serif" font-size="12" font-style="italic" lengthAdjust="spacingAndGlyphs" textLength="126" x="430.25" y="279.1074">DependencyFactory</text><line style="stroke: #A80036; stroke-width: 1.5;" x1="302" x2="652" y1="290.9531" y2="290.9531"/><line style="stroke: #A80036; stroke-width: 1.5;" x1="302" x2="652" y1="298.9531" y2="298.9531"/><text fill="#000000" font-family="sans-serif" font-size="11" lengthAdjust="spacingAndGlyphs" textLength="100" x="307" y="313.1636">Web3j getWeb3j();</text><text fill="#000000" font-family="sans-serif" font-size="11" lengthAdjust="spacingAndGlyphs" textLength="340" x="307" y="325.9683">ContractGasProvider getContractGasProvider(Web3j web3j);</text><text fill="#000000" font-family="sans-serif" font-size="11" lengthAdjust="spacingAndGlyphs" textLength="79" x="307" y="338.7729">IPFS getIpfs();</text><text fill="#000000" font-family="sans-serif" font-size="11" lengthAdjust="spacingAndGlyphs" textLength="108" x="307" y="351.5776">Signer getSigner();</text><!--MD5=[fd8e04aa5f52fe45763ddf04aafe8c4e]
class ConfigurationDependencyFactory--><rect fill="#FEFECE" filter="url(#f13dkq8flabcmv)" height="48" id="ConfigurationDependencyFactory" style="stroke: #A80036; stroke-width: 1.5;" width="240" x="357" y="424.4531"/><ellipse cx="372" cy="440.4531" fill="#ADD1B2" rx="11" ry="11" style="stroke: #A80036; stroke-width: 1.0;"/><path d="M374.3438,436.125 L374.5156,436.2031 C374.7344,435.8906 374.9375,435.7969 375.2344,435.7969 C375.5313,435.7969 375.8125,435.9375 375.9688,436.2031 C376.0625,436.3594 376.0781,436.4844 376.0781,436.9219 L376.0781,438.3438 C376.0781,438.7656 376.0469,438.9531 375.9375,439.1094 C375.7656,439.3281 375.5,439.4688 375.2344,439.4688 C375.0156,439.4688 374.7813,439.3594 374.6406,439.2188 C374.5,439.0938 374.4688,438.9688 374.4063,438.5625 C374.3125,438.1563 374.1406,437.9375 373.6563,437.6563 C373.1875,437.4063 372.5781,437.25 372,437.25 C370.2656,437.25 369.0156,438.5625 369.0156,440.3438 L369.0156,441.4375 C369.0156,443.1406 370.3125,444.2344 372.3594,444.2344 C373.125,444.2344 373.8125,444.1094 374.2344,443.8438 C374.4219,443.75 374.4219,443.75 374.875,443.2656 C375.0625,443.0781 375.2656,443 375.4844,443 C375.9531,443 376.3438,443.3906 376.3438,443.8438 C376.3438,444.2344 376.0156,444.6875 375.4375,445.0938 C374.6875,445.6406 373.5313,445.9375 372.3125,445.9375 C369.4219,445.9375 367.3125,444.0469 367.3125,441.4688 L367.3125,440.3438 C367.3125,437.625 369.3125,435.5469 371.9375,435.5469 C372.8125,435.5469 373.4063,435.6875 374.3438,436.125 Z "/><text fill="#000000" font-family="sans-serif" font-size="12" lengthAdjust="spacingAndGlyphs" textLength="208" x="386" y="444.6074">ConfigurationDependencyFactory</text><line style="stroke: #A80036; stroke-width: 1.5;" x1="358" x2="596" y1="456.4531" y2="456.4531"/><line style="stroke: #A80036; stroke-width: 1.5;" x1="358" x2="596" y1="464.4531" y2="464.4531"/><!--MD5=[86df7a6fab1c4b6b56ced8510e72833b]
class PaymentStrategy--><rect fill="#FEFECE" filter="url(#f13dkq8flabcmv)" height="60.8047" id="PaymentStrategy" style="stroke: #A80036; stroke-width: 1.5;" width="671" x="296.5" y="532.4531"/><ellipse cx="573.75" cy="548.4531" fill="#B4A7E5" rx="11" ry="11" style="stroke: #A80036; stroke-width: 1.0;"/><path d="M574.7031,545.2344 L574.7031,551.75 L576.4219,551.75 C576.875,551.75 577.0156,551.7813 577.1875,551.9063 C577.4219,552.0781 577.5313,552.3281 577.5313,552.6094 C577.5313,553.1719 577.1719,553.4531 576.4219,553.4531 L571.2813,553.4531 C570.875,553.4531 570.6719,553.4063 570.5156,553.2813 C570.2969,553.125 570.1563,552.8594 570.1563,552.6094 C570.1563,552.3125 570.3125,552.0313 570.5625,551.875 C570.7188,551.7656 570.8438,551.75 571.2813,551.75 L573,551.75 L573,545.2344 L571.2813,545.2344 C570.8594,545.2344 570.6719,545.2031 570.5156,545.0938 C570.2969,544.9219 570.1563,544.6719 570.1563,544.3906 C570.1563,544.1094 570.3125,543.8125 570.5625,543.6563 C570.7188,543.5625 570.8438,543.5469 571.2813,543.5469 L576.4219,543.5469 C576.875,543.5469 577.0156,543.5781 577.1875,543.6875 C577.4219,543.8594 577.5313,544.125 577.5313,544.3906 C577.5313,544.6875 577.3906,544.9688 577.125,545.125 C577,545.2031 576.8125,545.2344 576.4219,545.2344 Z "/><text fill="#000000" font-family="sans-serif" font-size="12" font-style="italic" lengthAdjust="spacingAndGlyphs" textLength="108" x="594.25" y="552.6074">PaymentStrategy</text><line style="stroke: #A80036; stroke-width: 1.5;" x1="297.5" x2="966.5" y1="564.4531" y2="564.4531"/><line style="stroke: #A80036; stroke-width: 1.5;" x1="297.5" x2="966.5" y1="572.4531" y2="572.4531"/><text fill="#000000" font-family="sans-serif" font-size="11" lengthAdjust="spacingAndGlyphs" textLength="659" x="302.5" y="586.6636">&lt;ReqT, RespT&gt; Payment getPayment(GrpcCallParameters&lt;ReqT, RespT&gt; parameters, ServiceClient serviceClient);</text><!--MD5=[f0bc2daf9303fe741b6d54a0ca59617f]
class FixedPaymentChannelPaymentStrategy--><rect fill="#FEFECE" filter="url(#f13dkq8flabcmv)" height="48" id="FixedPaymentChannelPaymentStrategy" style="stroke: #A80036; stroke-width: 1.5;" width="276" x="494" y="653.4531"/><ellipse cx="509" cy="669.4531" fill="#ADD1B2" rx="11" ry="11" style="stroke: #A80036; stroke-width: 1.0;"/><path d="M511.3438,665.125 L511.5156,665.2031 C511.7344,664.8906 511.9375,664.7969 512.2344,664.7969 C512.5313,664.7969 512.8125,664.9375 512.9688,665.2031 C513.0625,665.3594 513.0781,665.4844 513.0781,665.9219 L513.0781,667.3438 C513.0781,667.7656 513.0469,667.9531 512.9375,668.1094 C512.7656,668.3281 512.5,668.4688 512.2344,668.4688 C512.0156,668.4688 511.7813,668.3594 511.6406,668.2188 C511.5,668.0938 511.4688,667.9688 511.4063,667.5625 C511.3125,667.1563 511.1406,666.9375 510.6563,666.6563 C510.1875,666.4063 509.5781,666.25 509,666.25 C507.2656,666.25 506.0156,667.5625 506.0156,669.3438 L506.0156,670.4375 C506.0156,672.1406 507.3125,673.2344 509.3594,673.2344 C510.125,673.2344 510.8125,673.1094 511.2344,672.8438 C511.4219,672.75 511.4219,672.75 511.875,672.2656 C512.0625,672.0781 512.2656,672 512.4844,672 C512.9531,672 513.3438,672.3906 513.3438,672.8438 C513.3438,673.2344 513.0156,673.6875 512.4375,674.0938 C511.6875,674.6406 510.5313,674.9375 509.3125,674.9375 C506.4219,674.9375 504.3125,673.0469 504.3125,670.4688 L504.3125,669.3438 C504.3125,666.625 506.3125,664.5469 508.9375,664.5469 C509.8125,664.5469 510.4063,664.6875 511.3438,665.125 Z "/><text fill="#000000" font-family="sans-serif" font-size="12" lengthAdjust="spacingAndGlyphs" textLength="244" x="523" y="673.6074">FixedPaymentChannelPaymentStrategy</text><line style="stroke: #A80036; stroke-width: 1.5;" x1="495" x2="769" y1="685.4531" y2="685.4531"/><line style="stroke: #A80036; stroke-width: 1.5;" x1="495" x2="769" y1="693.4531" y2="693.4531"/><!--MD5=[2fb101d943835b3444fac9786607c7ca]
class Sdk--><rect fill="#FEFECE" filter="url(#f13dkq8flabcmv)" height="112.0234" id="Sdk" style="stroke: #A80036; stroke-width: 1.5;" width="732" x="111" y="80.4531"/><ellipse cx="461.25" cy="96.4531" fill="#ADD1B2" rx="11" ry="11" style="stroke: #A80036; stroke-width: 1.0;"/><path d="M463.5938,92.125 L463.7656,92.2031 C463.9844,91.8906 464.1875,91.7969 464.4844,91.7969 C464.7813,91.7969 465.0625,91.9375 465.2188,92.2031 C465.3125,92.3594 465.3281,92.4844 465.3281,92.9219 L465.3281,94.3438 C465.3281,94.7656 465.2969,94.9531 465.1875,95.1094 C465.0156,95.3281 464.75,95.4688 464.4844,95.4688 C464.2656,95.4688 464.0313,95.3594 463.8906,95.2188 C463.75,95.0938 463.7188,94.9688 463.6563,94.5625 C463.5625,94.1563 463.3906,93.9375 462.9063,93.6563 C462.4375,93.4063 461.8281,93.25 461.25,93.25 C459.5156,93.25 458.2656,94.5625 458.2656,96.3438 L458.2656,97.4375 C458.2656,99.1406 459.5625,100.2344 461.6094,100.2344 C462.375,100.2344 463.0625,100.1094 463.4844,99.8438 C463.6719,99.75 463.6719,99.75 464.125,99.2656 C464.3125,99.0781 464.5156,99 464.7344,99 C465.2031,99 465.5938,99.3906 465.5938,99.8438 C465.5938,100.2344 465.2656,100.6875 464.6875,101.0938 C463.9375,101.6406 462.7813,101.9375 461.5625,101.9375 C458.6719,101.9375 456.5625,100.0469 456.5625,97.4688 L456.5625,96.3438 C456.5625,93.625 458.5625,91.5469 461.1875,91.5469 C462.0625,91.5469 462.6563,91.6875 463.5938,92.125 Z "/><text fill="#000000" font-family="sans-serif" font-size="12" lengthAdjust="spacingAndGlyphs" textLength="23" x="481.75" y="100.6074">Sdk</text><line style="stroke: #A80036; stroke-width: 1.5;" x1="112" x2="842" y1="112.4531" y2="112.4531"/><line style="stroke: #A80036; stroke-width: 1.5;" x1="112" x2="842" y1="120.4531" y2="120.4531"/><text fill="#000000" font-family="sans-serif" font-size="11" lengthAdjust="spacingAndGlyphs" textLength="147" x="117" y="134.6636">Sdk(Configuration config);</text><text fill="#000000" font-family="sans-serif" font-size="11" lengthAdjust="spacingAndGlyphs" textLength="186" x="117" y="147.4683">Sdk(DependencyFactory factory);</text><text fill="#000000" font-family="sans-serif" font-size="11" lengthAdjust="spacingAndGlyphs" textLength="0" x="121" y="160.2729"/><text fill="#000000" font-family="sans-serif" font-size="11" lengthAdjust="spacingAndGlyphs" textLength="720" x="117" y="173.0776">ServiceClient newServiceClient(String orgId, String serviceId, String endpointGroupName, PaymentStrategy paymentStrategy);</text><text fill="#000000" font-family="sans-serif" font-size="11" lengthAdjust="spacingAndGlyphs" textLength="94" x="117" y="185.8823">void shutdown();</text><!--MD5=[454092b3ab12a575f0516fcdf124b80a]
class ServiceClient--><rect fill="#FEFECE" filter="url(#f13dkq8flabcmv)" height="112.0234" id="ServiceClient" style="stroke: #A80036; stroke-width: 1.5;" width="330" x="688" y="252.4531"/><ellipse cx="808.75" cy="268.4531" fill="#B4A7E5" rx="11" ry="11" style="stroke: #A80036; stroke-width: 1.0;"/><path d="M809.7031,265.2344 L809.7031,271.75 L811.4219,271.75 C811.875,271.75 812.0156,271.7813 812.1875,271.9063 C812.4219,272.0781 812.5313,272.3281 812.5313,272.6094 C812.5313,273.1719 812.1719,273.4531 811.4219,273.4531 L806.2813,273.4531 C805.875,273.4531 805.6719,273.4063 805.5156,273.2813 C805.2969,273.125 805.1563,272.8594 805.1563,272.6094 C805.1563,272.3125 805.3125,272.0313 805.5625,271.875 C805.7188,271.7656 805.8438,271.75 806.2813,271.75 L808,271.75 L808,265.2344 L806.2813,265.2344 C805.8594,265.2344 805.6719,265.2031 805.5156,265.0938 C805.2969,264.9219 805.1563,264.6719 805.1563,264.3906 C805.1563,264.1094 805.3125,263.8125 805.5625,263.6563 C805.7188,263.5625 805.8438,263.5469 806.2813,263.5469 L811.4219,263.5469 C811.875,263.5469 812.0156,263.5781 812.1875,263.6875 C812.4219,263.8594 812.5313,264.125 812.5313,264.3906 C812.5313,264.6875 812.3906,264.9688 812.125,265.125 C812,265.2031 811.8125,265.2344 811.4219,265.2344 Z "/><text fill="#000000" font-family="sans-serif" font-size="12" font-style="italic" lengthAdjust="spacingAndGlyphs" textLength="80" x="829.25" y="272.6074">ServiceClient</text><line style="stroke: #A80036; stroke-width: 1.5;" x1="689" x2="1017" y1="284.4531" y2="284.4531"/><line style="stroke: #A80036; stroke-width: 1.5;" x1="689" x2="1017" y1="292.4531" y2="292.4531"/><text fill="#000000" font-family="sans-serif" font-size="11" lengthAdjust="spacingAndGlyphs" textLength="232" x="694" y="306.6636">MetadataProvider getMetadataProvider();</text><text fill="#000000" font-family="sans-serif" font-size="11" lengthAdjust="spacingAndGlyphs" textLength="318" x="694" y="319.4683">PaymentChannelProvider getPaymentChannelProvider();</text><text fill="#000000" font-family="sans-serif" font-size="11" lengthAdjust="spacingAndGlyphs" textLength="108" x="694" y="332.2729">Signer getSigner();</text><text fill="#000000" font-family="sans-serif" font-size="11" lengthAdjust="spacingAndGlyphs" textLength="289" x="694" y="345.0776">T getGrpcStub(Function&lt;Channel, T&gt; constructor);</text><text fill="#000000" font-family="sans-serif" font-size="11" lengthAdjust="spacingAndGlyphs" textLength="118" x="694" y="357.8823">void shutdownNow();</text><!--MD5=[791a636acfc599c1abdb09fdc478ec4b]
class BaseServiceClient--><rect fill="#FEFECE" filter="url(#f13dkq8flabcmv)" height="48" id="BaseServiceClient" style="stroke: #A80036; stroke-width: 1.5;" width="143" x="874.5" y="424.4531"/><ellipse cx="889.5" cy="440.4531" fill="#ADD1B2" rx="11" ry="11" style="stroke: #A80036; stroke-width: 1.0;"/><path d="M891.8438,436.125 L892.0156,436.2031 C892.2344,435.8906 892.4375,435.7969 892.7344,435.7969 C893.0313,435.7969 893.3125,435.9375 893.4688,436.2031 C893.5625,436.3594 893.5781,436.4844 893.5781,436.9219 L893.5781,438.3438 C893.5781,438.7656 893.5469,438.9531 893.4375,439.1094 C893.2656,439.3281 893,439.4688 892.7344,439.4688 C892.5156,439.4688 892.2813,439.3594 892.1406,439.2188 C892,439.0938 891.9688,438.9688 891.9063,438.5625 C891.8125,438.1563 891.6406,437.9375 891.1563,437.6563 C890.6875,437.4063 890.0781,437.25 889.5,437.25 C887.7656,437.25 886.5156,438.5625 886.5156,440.3438 L886.5156,441.4375 C886.5156,443.1406 887.8125,444.2344 889.8594,444.2344 C890.625,444.2344 891.3125,444.1094 891.7344,443.8438 C891.9219,443.75 891.9219,443.75 892.375,443.2656 C892.5625,443.0781 892.7656,443 892.9844,443 C893.4531,443 893.8438,443.3906 893.8438,443.8438 C893.8438,444.2344 893.5156,444.6875 892.9375,445.0938 C892.1875,445.6406 891.0313,445.9375 889.8125,445.9375 C886.9219,445.9375 884.8125,444.0469 884.8125,441.4688 L884.8125,440.3438 C884.8125,437.625 886.8125,435.5469 889.4375,435.5469 C890.3125,435.5469 890.9063,435.6875 891.8438,436.125 Z "/><text fill="#000000" font-family="sans-serif" font-size="12" lengthAdjust="spacingAndGlyphs" textLength="111" x="903.5" y="444.6074">BaseServiceClient</text><line style="stroke: #A80036; stroke-width: 1.5;" x1="875.5" x2="1016.5" y1="456.4531" y2="456.4531"/><line style="stroke: #A80036; stroke-width: 1.5;" x1="875.5" x2="1016.5" y1="464.4531" y2="464.4531"/><!--MD5=[717d15024881c8f926f8fb51b6a4858a]
reverse link WithAddress to Signer--><path d="M904.126,857.6791 C906.55,877.3571 909.254,899.3081 911.359,916.3971 " fill="none" id="WithAddress&lt;-Signer" style="stroke: #A80036; stroke-width: 1.0;"/><polygon fill="none" points="897.145,858.2631,901.647,837.5571,911.04,856.5521,897.145,858.2631" style="stroke: #A80036; stroke-width: 1.0;"/><!--MD5=[12dce411975b147db466b4eb70af8e26]
reverse link Signer to PrivateKeyIdentity--><path d="M915,997.6551 C915,1015.6621 915,1035.1491 915,1049.7871 " fill="none" id="Signer&lt;-PrivateKeyIdentity" style="stroke: #A80036; stroke-width: 1.0; stroke-dasharray: 7.0,7.0;"/><polygon fill="none" points="908,997.5761,915,977.5761,922,997.5761,908,997.5761" style="stroke: #A80036; stroke-width: 1.0;"/><!--MD5=[70d2d8ea03716a1c981ea3b57f74daf2]
reverse link PrivateKeyIdentity to MnemonicIdentity--><path d="M915,1118.1231 C915,1138.5281 915,1162.0841 915,1179.1051 " fill="none" id="PrivateKeyIdentity&lt;-MnemonicIdentity" style="stroke: #A80036; stroke-width: 1.0;"/><polygon fill="none" points="908,1118.0421,915,1098.0421,922,1118.0421,908,1118.0421" style="stroke: #A80036; stroke-width: 1.0;"/><!--MD5=[71e65807e472cdd22e4afb5f3f077edb]
reverse link MetadataStorage to IpfsMetadataStorage--><path d="M2100.61,1489.7931 C2102.09,1505.8261 2103.66,1522.8218 2104.87,1535.9525 " fill="none" id="MetadataStorage&lt;-IpfsMetadataStorage" style="stroke: #A80036; stroke-width: 1.0; stroke-dasharray: 7.0,7.0;"/><polygon fill="none" points="2093.62,1490.2341,2098.75,1469.6751,2107.56,1488.9461,2093.62,1490.2341" style="stroke: #A80036; stroke-width: 1.0;"/><!--MD5=[2a4a970764f918ae0badbe6919defd20]
reverse link MetadataProvider to RegistryMetadataProvider--><path d="M2302,1254.0601 C2302,1267.8291 2302,1282.1381 2302,1293.6221 " fill="none" id="MetadataProvider&lt;-RegistryMetadataProvider" style="stroke: #A80036; stroke-width: 1.0; stroke-dasharray: 7.0,7.0;"/><polygon fill="none" points="2295,1254.0111,2302,1234.0111,2309,1254.0111,2295,1254.0111" style="stroke: #A80036; stroke-width: 1.0;"/><!--MD5=[020c7b64572ad0d5dd83b48937953d6f]
reverse link RegistryMetadataProvider to RegistryContract--><path d="M2343.92,1350.1281 C2365.26,1366.0021 2391.32,1385.3851 2413.52,1401.8991 " fill="none" id="RegistryMetadataProvider&lt;-RegistryContract" style="stroke: #A80036; stroke-width: 1.0;"/><polygon fill="#A80036" points="2333.23,1342.1801,2335.6578,1348.9703,2342.8594,1349.3408,2340.4316,1342.5507,2333.23,1342.1801" style="stroke: #A80036; stroke-width: 1.0;"/><!--MD5=[d47a745ee1ad0799f82e44bd048299bb]
reverse link RegistryMetadataProvider to MetadataStorage--><path d="M2250.16,1348.9011 C2218.61,1367.1241 2178.48,1390.3041 2147.08,1408.4471 " fill="none" id="RegistryMetadataProvider&lt;-MetadataStorage" style="stroke: #A80036; stroke-width: 1.0;"/><polygon fill="#A80036" points="2261.79,1342.1801,2254.5938,1341.7164,2251.398,1348.1806,2258.5941,1348.6444,2261.79,1342.1801" style="stroke: #A80036; stroke-width: 1.0;"/><!--MD5=[2e8d45d7b6efb88c2a093f23e9ecb5bc]
reverse link DaemonConnection to FirstEndpointDaemonConnection--><path d="M2151.89,1009.9601 C2155.06,1024.1161 2158.24,1038.3061 2160.77,1049.6251 " fill="none" id="DaemonConnection&lt;-FirstEndpointDaemonConnection" style="stroke: #A80036; stroke-width: 1.0; stroke-dasharray: 7.0,7.0;"/><polygon fill="none" points="2145.02,1011.3191,2147.48,990.2721,2158.68,1008.2591,2145.02,1011.3191" style="stroke: #A80036; stroke-width: 1.0;"/><!--MD5=[afb6adc7960e2860438bfeb6846dfc89]
reverse link FirstEndpointDaemonConnection to MetadataProvider--><path d="M2200.35,1107.1541 C2221.86,1127.3231 2249.38,1153.1251 2270.36,1172.7941 " fill="none" id="FirstEndpointDaemonConnection&lt;-MetadataProvider" style="stroke: #A80036; stroke-width: 1.0;"/><polygon fill="#FFFFFF" points="2190.63,1098.0421,2192.2737,1105.0634,2199.3871,1106.2466,2197.7434,1099.2253,2190.63,1098.0421" style="stroke: #A80036; stroke-width: 1.0;"/><!--MD5=[19f1c5719f03e3dbc601566ba7115d43]
reverse link PaymentChannelStateService to Signer--><path d="M2013.89,841.2361 C1979.02,851.3191 1939.63,861.4371 1903,867.9531 C1573.51,926.5721 1174.38,941.1431 1001.617,944.7601 " fill="none" id="PaymentChannelStateService&lt;-Signer" style="stroke: #A80036; stroke-width: 1.0;"/><polygon fill="#FFFFFF" points="2026.53,837.5301,2019.647,835.3797,2015.0147,840.9061,2021.8977,843.0566,2026.53,837.5301" style="stroke: #A80036; stroke-width: 1.0;"/><!--MD5=[18e29076eb626ade2b5bddfb0a0f2f05]
link PaymentChannelStateService to DaemonConnection--><path d="M2121.51,837.5571 C2124.45,856.8821 2128.33,882.4051 2131.59,903.8311 " fill="none" id="PaymentChannelStateService-DaemonConnection" style="stroke: #A80036; stroke-width: 1.0;"/><!--MD5=[1cd7eb9beedbb9f2782e52a9536ee1b7]
reverse link PaymentChannelProvider to AskDaemonFirstPaymentChannelProvider--><path d="M1279.34,608.2531 C1293.65,623.5791 1309.12,640.1521 1321.22,653.1221 " fill="none" id="PaymentChannelProvider&lt;-AskDaemonFirstPaymentChannelProvider" style="stroke: #A80036; stroke-width: 1.0; stroke-dasharray: 7.0,7.0;"/><polygon fill="none" points="1274.12,612.9131,1265.59,593.5131,1284.35,603.3531,1274.12,612.9131" style="stroke: #A80036; stroke-width: 1.0;"/><!--MD5=[a423174016401f42057dff165ffb576c]
reverse link AskDaemonFirstPaymentChannelProvider to MultiPartyEscrowContract--><path d="M1343,714.7581 C1343,731.9171 1343,752.3541 1343,769.5291 " fill="none" id="AskDaemonFirstPaymentChannelProvider&lt;-MultiPartyEscrowContract" style="stroke: #A80036; stroke-width: 1.0;"/><polygon fill="#A80036" points="1343,701.5421,1339,707.5421,1343,713.5421,1347,707.5421,1343,701.5421" style="stroke: #A80036; stroke-width: 1.0;"/><!--MD5=[46c699d0e4e8b327f5eae6508979f714]
reverse link AskDaemonFirstPaymentChannelProvider to PaymentChannelStateService--><path d="M1500.91,684.3211 C1613.92,690.8521 1769.11,704.5981 1903,733.4531 C1950.74,743.7421 2002.66,761.1711 2043.4,776.3611 " fill="none" id="AskDaemonFirstPaymentChannelProvider&lt;-PaymentChannelStateService" style="stroke: #A80036; stroke-width: 1.0;"/><polygon fill="#A80036" points="1487.69,683.5781,1493.4564,687.9081,1499.6711,684.2506,1493.9047,679.9207,1487.69,683.5781" style="stroke: #A80036; stroke-width: 1.0;"/><!--MD5=[92398e6287b81f3806a174f3f0c17d4c]
link EscrowPaymentlol34077 to EscrowPayment--><path d="M1447.33,562.9531 C1458.88,562.9531 1470.43,562.9531 1481.98,562.9531 " fill="none" id="EscrowPaymentlol34077-EscrowPayment" style="stroke: #A80036; stroke-width: 1.0;"/><!--MD5=[5dcd64b477b3d04b728a939cc64b9017]
reverse link Configuration to JsonConfiguration--><path d="M152,384.9431 C152,399.2031 152,413.0931 152,424.1431 " fill="none" id="Configuration&lt;-JsonConfiguration" style="stroke: #A80036; stroke-width: 1.0; stroke-dasharray: 7.0,7.0;"/><polygon fill="none" points="145,384.7831,152,364.7831,159,384.7831,145,384.7831" style="stroke: #A80036; stroke-width: 1.0;"/><!--MD5=[1742506f867320e7ba4ab5301cd79a0c]
reverse link DependencyFactory to ConfigurationDependencyFactory--><path d="M477,378.1531 C477,394.8131 477,411.5031 477,424.3231 " fill="none" id="DependencyFactory&lt;-ConfigurationDependencyFactory" style="stroke: #A80036; stroke-width: 1.0; stroke-dasharray: 7.0,7.0;"/><polygon fill="none" points="470,378.1031,477,358.1031,484,378.1031,470,378.1031" style="stroke: #A80036; stroke-width: 1.0;"/><!--MD5=[7f59f6dcd19536ad3c7e4ba41aebc012]
reverse link PaymentStrategy to FixedPaymentChannelPaymentStrategy--><path d="M632,613.5631 C632,627.3291 632,641.6381 632,653.1221 " fill="none" id="PaymentStrategy&lt;-FixedPaymentChannelPaymentStrategy" style="stroke: #A80036; stroke-width: 1.0; stroke-dasharray: 7.0,7.0;"/><polygon fill="none" points="625,613.5131,632,593.5131,639,613.5131,625,613.5131" style="stroke: #A80036; stroke-width: 1.0;"/><!--MD5=[959240fecb5b0486cb7559d2b7d506db]
link Sdk to Configuration--><path d="M371.482,192.6431 C334.876,211.7931 293.852,233.2531 257.267,252.3931 " fill="none" id="Sdk-Configuration" style="stroke: #A80036; stroke-width: 1.0;"/><!--MD5=[44ca6029f689837145a834a0e7728181]
link Sdk to ServiceClient--><path d="M598.817,192.5331 C641.18,211.6831 688.682,233.1631 731.055,252.3231 " fill="none" id="Sdk-ServiceClient" style="stroke: #A80036; stroke-width: 1.0;"/><!--MD5=[f1e16a21a2bf7a887235661116c6ef9f]
link Sdk to DependencyFactory--><path d="M477,192.6431 C477,213.9731 477,238.1731 477,258.8331 " fill="none" id="Sdk-DependencyFactory" style="stroke: #A80036; stroke-width: 1.0;"/><!--MD5=[3dd61a7060afbecf34cd84d0ea871382]
reverse link ServiceClient to BaseServiceClient--><path d="M901.55,381.4931 C911.967,396.9531 922.247,412.2031 930.293,424.1431 " fill="none" id="ServiceClient&lt;-BaseServiceClient" style="stroke: #A80036; stroke-width: 1.0; stroke-dasharray: 7.0,7.0;"/><polygon fill="none" points="895.663,385.2831,890.291,364.7831,907.273,377.4631,895.663,385.2831" style="stroke: #A80036; stroke-width: 1.0;"/><!--MD5=[f1810e1cc92e9d243ab972feb76830f3]
reverse link BaseServiceClient to DaemonConnection--><path d="M1030.96,451.5231 C1187.61,455.8131 1516.17,467.2131 1628,489.4531 C1952.38,553.9731 2139.28,463.9631 2331,733.4531 C2365.65,782.1621 2364.42,818.3931 2331,867.9531 C2321.2,882.4851 2308.18,894.3101 2293.53,903.9331 " fill="none" id="BaseServiceClient&lt;-DaemonConnection" style="stroke: #A80036; stroke-width: 1.0;"/><polygon fill="#A80036" points="1017.71,451.1631,1023.5979,455.3264,1029.7055,451.4927,1023.8176,447.3294,1017.71,451.1631" style="stroke: #A80036; stroke-width: 1.0;"/><!--MD5=[fee83ce824a62f471aff6274595972c2]
reverse link BaseServiceClient to MetadataProvider--><path d="M1030.88,449.4631 C1237.69,450.0331 1763.24,454.9631 1935,489.4531 C2168.84,536.4131 2438,437.9531 2438,676.4531 C2438,676.4531 2438,676.4531 2438,947.9531 C2438,1038.3781 2370.39,1127.8111 2330.51,1172.6971 " fill="none" id="BaseServiceClient&lt;-MetadataProvider" style="stroke: #A80036; stroke-width: 1.0;"/><polygon fill="#A80036" points="1017.72,449.4331,1023.7068,453.4529,1029.7199,449.4727,1023.7332,445.4529,1017.72,449.4331" style="stroke: #A80036; stroke-width: 1.0;"/><!--MD5=[8bbdb97ec44eedb7ed3952fd20525ba8]
reverse link BaseServiceClient to PaymentChannelProvider--><path d="M1018.02,477.2031 C1061.55,493.9731 1117,515.3331 1161.33,532.4131 " fill="none" id="BaseServiceClient&lt;-PaymentChannelProvider" style="stroke: #A80036; stroke-width: 1.0;"/><polygon fill="#A80036" points="1005.795,472.4931,1009.9564,478.3824,1016.9931,476.8062,1012.8317,470.9169,1005.795,472.4931" style="stroke: #A80036; stroke-width: 1.0;"/><!--MD5=[42a8c2d7d8694453bdc05839364c455e]
reverse link BaseServiceClient to PaymentStrategy--><path d="M869.449,476.8831 C822.51,493.6931 762.425,515.2231 714.441,532.4131 " fill="none" id="BaseServiceClient&lt;-PaymentStrategy" style="stroke: #A80036; stroke-width: 1.0;"/><polygon fill="#A80036" points="881.7,472.4931,874.7027,470.7502,870.4026,476.5388,877.3999,478.2818,881.7,472.4931" style="stroke: #A80036; stroke-width: 1.0;"/><!--MD5=[2b6c76311f7f0b8298b7fb2c12f1ca74]
reverse link BaseServiceClient to Signer--><path d="M981.968,483.3131 C983.122,485.3031 984.146,487.3531 985,489.4531 C1048.39,645.2741 1045.16,710.8551 985,867.9531 C977.973,886.3041 964.416,903.0541 951.09,916.2871 " fill="none" id="BaseServiceClient&lt;-Signer" style="stroke: #A80036; stroke-width: 1.0;"/><polygon fill="#A80036" points="974.186,472.6031,974.4779,479.8083,981.2411,482.3101,980.9492,475.1049,974.186,472.6031" style="stroke: #A80036; stroke-width: 1.0;"/><!--MD5=[8b930ba3f5be884f757fbf1ade0169d4]
@startuml
title SingularityNet Java SDK

package io.singularitynet.sdk.ethereum {

    interface WithAddress {
        Address getAddress();
    }

    interface Signer {
        byte[] sign(byte[] message);
    }
    WithAddress <|- - Signer

    class PrivateKeyIdentity
    Signer <|.. PrivateKeyIdentity

    class MnemonicIdentity
    PrivateKeyIdentity <|- - MnemonicIdentity

}


package io.singularitynet.sdk.registry {

    interface MetadataStorage {
        byte[] get(URI uri);
    }
    class IpfsMetadataStorage
    MetadataStorage <|.. IpfsMetadataStorage

    class RegistryContract {
        Optional<OrganizationRegistration> getOrganizationById(String orgId);
        Optional<ServiceRegistration> getServiceRegistrationById(String orgId, String serviceId);
    }

    interface MetadataProvider {
        ServiceMetadata getServiceMetadata();
    }
    class RegistryMetadataProvider
    MetadataProvider <|.. RegistryMetadataProvider
    RegistryMetadataProvider *- - RegistryContract
    RegistryMetadataProvider *- - MetadataStorage

}

package io.singularitynet.sdk.daemon {
    
    interface DaemonConnection {
        <T> T getGrpcStub(Function<Channel, T> constructor);
        void setClientCallsInterceptor(ClientInterceptor interceptor);
        void shutdownNow();
    }

    class FirstEndpointDaemonConnection
    DaemonConnection <|.. FirstEndpointDaemonConnection
    FirstEndpointDaemonConnection o- - MetadataProvider

    class PaymentChannelStateService {
        PaymentChannelStateReply getChannelState(BigInteger channelId);
    }
    PaymentChannelStateService o- - Signer
    PaymentChannelStateService - - DaemonConnection

    interface Payment {
        void toMetadata(Metadata headers);
    }

}

package io.singularitynet.sdk.mpe {
    class MultiPartyEscrowContract {
        Optional<PaymentChannel> getChannelById(BigInteger channelId);
        Address getContractAddress();
    }

    interface PaymentChannelProvider {
        PaymentChannel getChannelById(BigInteger channelId);
    }

    class AskDaemonFirstPaymentChannelProvider
    PaymentChannelProvider <|.. AskDaemonFirstPaymentChannelProvider
    AskDaemonFirstPaymentChannelProvider *- - MultiPartyEscrowContract
    AskDaemonFirstPaymentChannelProvider *- - PaymentChannelStateService

    class EscrowPayment
    Payment ()- EscrowPayment

}

package io.singularitynet.sdk.client {

    interface Configuration {
        String getEthereumJsonRpcEndpoint();
        URL getIpfsUrl();
        SignerType getSignerType();
        String getSignerMnemonic();
        byte[] getSignerPrivateKey();
    }

    class JsonConfiguration
    Configuration <|.. JsonConfiguration

    interface DependencyFactory {
        Web3j getWeb3j();
        ContractGasProvider getContractGasProvider(Web3j web3j);
        IPFS getIpfs();
        Signer getSigner();
    }

    class ConfigurationDependencyFactory
    DependencyFactory <|.. ConfigurationDependencyFactory

    interface PaymentStrategy {
        <ReqT, RespT> Payment getPayment(GrpcCallParameters<ReqT, RespT> parameters, ServiceClient serviceClient);
    }

    class FixedPaymentChannelPaymentStrategy
    PaymentStrategy <|.. FixedPaymentChannelPaymentStrategy

    class Sdk {
        Sdk(Configuration config);
        Sdk(DependencyFactory factory);

        ServiceClient newServiceClient(String orgId, String serviceId, String endpointGroupName, PaymentStrategy paymentStrategy);
        void shutdown();
    }
    Sdk - - Configuration
    Sdk - - ServiceClient
    Sdk - - DependencyFactory

    interface ServiceClient {
        MetadataProvider getMetadataProvider();
        PaymentChannelProvider getPaymentChannelProvider();
        Signer getSigner();
        T getGrpcStub(Function<Channel, T> constructor);
        void shutdownNow();
    }

    class BaseServiceClient
    ServiceClient <|.. BaseServiceClient
    BaseServiceClient *- - DaemonConnection
    BaseServiceClient *- - MetadataProvider
    BaseServiceClient *- - PaymentChannelProvider
    BaseServiceClient *- - PaymentStrategy
    BaseServiceClient *- - Signer

}
@enduml

PlantUML version 1.2019.11(Sun Sep 22 10:02:15 UTC 2019)
(GPL source distribution)
Java Runtime: Java(TM) SE Runtime Environment
JVM: Java HotSpot(TM) 64-Bit Server VM
Java Version: 1.7.0_25-b15
Operating System: Linux
Default Encoding: UTF-8
Language: en
Country: US
--></g></svg>