<?xml version="1.0" encoding="UTF-8" standalone="no"?>
<svg xmlns="http://www.w3.org/2000/svg" xmlns:xlink="http://www.w3.org/1999/xlink" contentScriptType="application/ecmascript" contentStyleType="text/css" height="1637px" preserveAspectRatio="none" style="width:2720px;height:1637px;" version="1.1" viewBox="0 0 2720 1637" width="2720px" zoomAndPan="magnify"><defs><filter height="300%" id="fr82zefdmyfy9" width="300%" x="-1" y="-1"><feGaussianBlur result="blurOut" stdDeviation="2.0"/><feColorMatrix in="blurOut" result="blurOut2" type="matrix" values="0 0 0 0 0 0 0 0 0 0 0 0 0 0 0 0 0 0 .4 0"/><feOffset dx="4.0" dy="4.0" in="blurOut2" result="blurOut3"/><feBlend in="SourceGraphic" in2="blurOut3" mode="normal"/></filter></defs><g><text fill="#000000" font-family="sans-serif" font-size="18" lengthAdjust="spacingAndGlyphs" textLength="213" x="1259.5" y="16.708">SingularityNet Java SDK</text><!--MD5=[c9a0bda5db5f5c41db91654b4e5ef6b4]
cluster io.singularitynet.sdk.ethereum--><polygon fill="#FFFFFF" filter="url(#fr82zefdmyfy9)" points="736,767.4531,984,767.4531,991,789.75,994,789.75,994,1269.4531,736,1269.4531,736,767.4531" style="stroke: #000000; stroke-width: 1.5;"/><line style="stroke: #000000; stroke-width: 1.5;" x1="736" x2="991" y1="789.75" y2="789.75"/><text fill="#000000" font-family="sans-serif" font-size="14" font-weight="bold" lengthAdjust="spacingAndGlyphs" textLength="242" x="740" y="782.4482">io.singularitynet.sdk.ethereum</text><!--MD5=[fbeaa37b65443cc49c19f7a5ff8e9e60]
cluster io.singularitynet.sdk.registry--><polygon fill="#FFFFFF" filter="url(#fr82zefdmyfy9)" points="1969,1163.9531,2202,1163.9531,2209,1186.25,2698,1186.25,2698,1625.9531,1969,1625.9531,1969,1163.9531" style="stroke: #000000; stroke-width: 1.5;"/><line style="stroke: #000000; stroke-width: 1.5;" x1="1969" x2="2209" y1="1186.25" y2="1186.25"/><text fill="#000000" font-family="sans-serif" font-size="14" font-weight="bold" lengthAdjust="spacingAndGlyphs" textLength="227" x="1973" y="1178.9482">io.singularitynet.sdk.registry</text><!--MD5=[7a4376249cecd8eed7d6851d37ef4d2a]
cluster io.singularitynet.sdk.daemon--><polygon fill="#FFFFFF" filter="url(#fr82zefdmyfy9)" points="1612,767.4531,1846,767.4531,1853,789.75,2290,789.75,2290,1139.9531,1612,1139.9531,1612,767.4531" style="stroke: #000000; stroke-width: 1.5;"/><line style="stroke: #000000; stroke-width: 1.5;" x1="1612" x2="1853" y1="789.75" y2="789.75"/><text fill="#000000" font-family="sans-serif" font-size="14" font-weight="bold" lengthAdjust="spacingAndGlyphs" textLength="228" x="1616" y="782.4482">io.singularitynet.sdk.daemon</text><!--MD5=[1cef9e114abc99c09a733caef85cc9b6]
cluster io.singularitynet.sdk.mpe--><polygon fill="#FFFFFF" filter="url(#fr82zefdmyfy9)" points="1018,523.4531,1223,523.4531,1230,545.75,1588,545.75,1588,885.9531,1018,885.9531,1018,523.4531" style="stroke: #000000; stroke-width: 1.5;"/><line style="stroke: #000000; stroke-width: 1.5;" x1="1018" x2="1230" y1="545.75" y2="545.75"/><text fill="#000000" font-family="sans-serif" font-size="14" font-weight="bold" lengthAdjust="spacingAndGlyphs" textLength="199" x="1022" y="538.4482">io.singularitynet.sdk.mpe</text><!--MD5=[20d8be066390a5d4368908ca2ae678f3]
cluster io.singularitynet.sdk.client--><polygon fill="#FFFFFF" filter="url(#fr82zefdmyfy9)" points="22,45.4531,236,45.4531,243,67.75,994,67.75,994,743.4531,22,743.4531,22,45.4531" style="stroke: #000000; stroke-width: 1.5;"/><line style="stroke: #000000; stroke-width: 1.5;" x1="22" x2="243" y1="67.75" y2="67.75"/><text fill="#000000" font-family="sans-serif" font-size="14" font-weight="bold" lengthAdjust="spacingAndGlyphs" textLength="208" x="26" y="60.4482">io.singularitynet.sdk.client</text><!--MD5=[02f5c4a709c8c80aaf14170cabfdbf15]
class WithAddress--><rect fill="#FEFECE" filter="url(#fr82zefdmyfy9)" height="60.8047" id="WithAddress" style="stroke: #A80036; stroke-width: 1.5;" width="140" x="785" y="802.4531"/><ellipse cx="813.95" cy="818.4531" fill="#B4A7E5" rx="11" ry="11" style="stroke: #A80036; stroke-width: 1.0;"/><path d="M814.9031,815.2344 L814.9031,821.75 L816.6219,821.75 C817.075,821.75 817.2156,821.7813 817.3875,821.9063 C817.6219,822.0781 817.7313,822.3281 817.7313,822.6094 C817.7313,823.1719 817.3719,823.4531 816.6219,823.4531 L811.4813,823.4531 C811.075,823.4531 810.8719,823.4063 810.7156,823.2813 C810.4969,823.125 810.3563,822.8594 810.3563,822.6094 C810.3563,822.3125 810.5125,822.0313 810.7625,821.875 C810.9188,821.7656 811.0438,821.75 811.4813,821.75 L813.2,821.75 L813.2,815.2344 L811.4813,815.2344 C811.0594,815.2344 810.8719,815.2031 810.7156,815.0938 C810.4969,814.9219 810.3563,814.6719 810.3563,814.3906 C810.3563,814.1094 810.5125,813.8125 810.7625,813.6563 C810.9188,813.5625 811.0438,813.5469 811.4813,813.5469 L816.6219,813.5469 C817.075,813.5469 817.2156,813.5781 817.3875,813.6875 C817.6219,813.8594 817.7313,814.125 817.7313,814.3906 C817.7313,814.6875 817.5906,814.9688 817.325,815.125 C817.2,815.2031 817.0125,815.2344 816.6219,815.2344 Z "/><text fill="#000000" font-family="sans-serif" font-size="12" font-style="italic" lengthAdjust="spacingAndGlyphs" textLength="77" x="831.05" y="822.6074">WithAddress</text><line style="stroke: #A80036; stroke-width: 1.5;" x1="786" x2="924" y1="834.4531" y2="834.4531"/><line style="stroke: #A80036; stroke-width: 1.5;" x1="786" x2="924" y1="842.4531" y2="842.4531"/><text fill="#000000" font-family="sans-serif" font-size="11" lengthAdjust="spacingAndGlyphs" textLength="128" x="791" y="856.6636">Address getAddress();</text><!--MD5=[eb5eb01d997468ef8d4f71b3444e5fe9]
class Signer--><rect fill="#FEFECE" filter="url(#fr82zefdmyfy9)" height="60.8047" id="Signer" style="stroke: #A80036; stroke-width: 1.5;" width="196" x="782" y="942.4531"/><ellipse cx="855.75" cy="958.4531" fill="#B4A7E5" rx="11" ry="11" style="stroke: #A80036; stroke-width: 1.0;"/><path d="M856.7031,955.2344 L856.7031,961.75 L858.4219,961.75 C858.875,961.75 859.0156,961.7813 859.1875,961.9063 C859.4219,962.0781 859.5313,962.3281 859.5313,962.6094 C859.5313,963.1719 859.1719,963.4531 858.4219,963.4531 L853.2813,963.4531 C852.875,963.4531 852.6719,963.4063 852.5156,963.2813 C852.2969,963.125 852.1563,962.8594 852.1563,962.6094 C852.1563,962.3125 852.3125,962.0313 852.5625,961.875 C852.7188,961.7656 852.8438,961.75 853.2813,961.75 L855,961.75 L855,955.2344 L853.2813,955.2344 C852.8594,955.2344 852.6719,955.2031 852.5156,955.0938 C852.2969,954.9219 852.1563,954.6719 852.1563,954.3906 C852.1563,954.1094 852.3125,953.8125 852.5625,953.6563 C852.7188,953.5625 852.8438,953.5469 853.2813,953.5469 L858.4219,953.5469 C858.875,953.5469 859.0156,953.5781 859.1875,953.6875 C859.4219,953.8594 859.5313,954.125 859.5313,954.3906 C859.5313,954.6875 859.3906,954.9688 859.125,955.125 C859,955.2031 858.8125,955.2344 858.4219,955.2344 Z "/><text fill="#000000" font-family="sans-serif" font-size="12" font-style="italic" lengthAdjust="spacingAndGlyphs" textLength="40" x="876.25" y="962.6074">Signer</text><line style="stroke: #A80036; stroke-width: 1.5;" x1="783" x2="977" y1="974.4531" y2="974.4531"/><line style="stroke: #A80036; stroke-width: 1.5;" x1="783" x2="977" y1="982.4531" y2="982.4531"/><text fill="#000000" font-family="sans-serif" font-size="11" lengthAdjust="spacingAndGlyphs" textLength="184" x="788" y="996.6636">Signature sign(byte[] message);</text><!--MD5=[b6d80437076b002e054c1b4fb05a77ff]
class PrivateKeyIdentity--><rect fill="#FEFECE" filter="url(#fr82zefdmyfy9)" height="48" id="PrivateKeyIdentity" style="stroke: #A80036; stroke-width: 1.5;" width="142" x="809" y="1075.9531"/><ellipse cx="824" cy="1091.9531" fill="#ADD1B2" rx="11" ry="11" style="stroke: #A80036; stroke-width: 1.0;"/><path d="M826.3438,1087.625 L826.5156,1087.7031 C826.7344,1087.3906 826.9375,1087.2969 827.2344,1087.2969 C827.5313,1087.2969 827.8125,1087.4375 827.9688,1087.7031 C828.0625,1087.8594 828.0781,1087.9844 828.0781,1088.4219 L828.0781,1089.8438 C828.0781,1090.2656 828.0469,1090.4531 827.9375,1090.6094 C827.7656,1090.8281 827.5,1090.9688 827.2344,1090.9688 C827.0156,1090.9688 826.7813,1090.8594 826.6406,1090.7188 C826.5,1090.5938 826.4688,1090.4688 826.4063,1090.0625 C826.3125,1089.6563 826.1406,1089.4375 825.6563,1089.1563 C825.1875,1088.9063 824.5781,1088.75 824,1088.75 C822.2656,1088.75 821.0156,1090.0625 821.0156,1091.8438 L821.0156,1092.9375 C821.0156,1094.6406 822.3125,1095.7344 824.3594,1095.7344 C825.125,1095.7344 825.8125,1095.6094 826.2344,1095.3438 C826.4219,1095.25 826.4219,1095.25 826.875,1094.7656 C827.0625,1094.5781 827.2656,1094.5 827.4844,1094.5 C827.9531,1094.5 828.3438,1094.8906 828.3438,1095.3438 C828.3438,1095.7344 828.0156,1096.1875 827.4375,1096.5938 C826.6875,1097.1406 825.5313,1097.4375 824.3125,1097.4375 C821.4219,1097.4375 819.3125,1095.5469 819.3125,1092.9688 L819.3125,1091.8438 C819.3125,1089.125 821.3125,1087.0469 823.9375,1087.0469 C824.8125,1087.0469 825.4063,1087.1875 826.3438,1087.625 Z "/><text fill="#000000" font-family="sans-serif" font-size="12" lengthAdjust="spacingAndGlyphs" textLength="110" x="838" y="1096.1074">PrivateKeyIdentity</text><line style="stroke: #A80036; stroke-width: 1.5;" x1="810" x2="950" y1="1107.9531" y2="1107.9531"/><line style="stroke: #A80036; stroke-width: 1.5;" x1="810" x2="950" y1="1115.9531" y2="1115.9531"/><!--MD5=[0e3850bbd7a0c73dc417b72efd437f75]
class MnemonicIdentity--><rect fill="#FEFECE" filter="url(#fr82zefdmyfy9)" height="48" id="MnemonicIdentity" style="stroke: #A80036; stroke-width: 1.5;" width="141" x="809.5" y="1205.4531"/><ellipse cx="824.5" cy="1221.4531" fill="#ADD1B2" rx="11" ry="11" style="stroke: #A80036; stroke-width: 1.0;"/><path d="M826.8438,1217.125 L827.0156,1217.2031 C827.2344,1216.8906 827.4375,1216.7969 827.7344,1216.7969 C828.0313,1216.7969 828.3125,1216.9375 828.4688,1217.2031 C828.5625,1217.3594 828.5781,1217.4844 828.5781,1217.9219 L828.5781,1219.3438 C828.5781,1219.7656 828.5469,1219.9531 828.4375,1220.1094 C828.2656,1220.3281 828,1220.4688 827.7344,1220.4688 C827.5156,1220.4688 827.2813,1220.3594 827.1406,1220.2188 C827,1220.0938 826.9688,1219.9688 826.9063,1219.5625 C826.8125,1219.1563 826.6406,1218.9375 826.1563,1218.6563 C825.6875,1218.4063 825.0781,1218.25 824.5,1218.25 C822.7656,1218.25 821.5156,1219.5625 821.5156,1221.3438 L821.5156,1222.4375 C821.5156,1224.1406 822.8125,1225.2344 824.8594,1225.2344 C825.625,1225.2344 826.3125,1225.1094 826.7344,1224.8438 C826.9219,1224.75 826.9219,1224.75 827.375,1224.2656 C827.5625,1224.0781 827.7656,1224 827.9844,1224 C828.4531,1224 828.8438,1224.3906 828.8438,1224.8438 C828.8438,1225.2344 828.5156,1225.6875 827.9375,1226.0938 C827.1875,1226.6406 826.0313,1226.9375 824.8125,1226.9375 C821.9219,1226.9375 819.8125,1225.0469 819.8125,1222.4688 L819.8125,1221.3438 C819.8125,1218.625 821.8125,1216.5469 824.4375,1216.5469 C825.3125,1216.5469 825.9063,1216.6875 826.8438,1217.125 Z "/><text fill="#000000" font-family="sans-serif" font-size="12" lengthAdjust="spacingAndGlyphs" textLength="109" x="838.5" y="1225.6074">MnemonicIdentity</text><line style="stroke: #A80036; stroke-width: 1.5;" x1="810.5" x2="949.5" y1="1237.4531" y2="1237.4531"/><line style="stroke: #A80036; stroke-width: 1.5;" x1="810.5" x2="949.5" y1="1245.4531" y2="1245.4531"/><!--MD5=[108749fa12a1baf8beb812f2eb0b4ce9]
class MetadataStorage--><rect fill="#FEFECE" filter="url(#fr82zefdmyfy9)" height="60.8047" id="MetadataStorage" style="stroke: #A80036; stroke-width: 1.5;" width="142" x="1985" y="1434.4531"/><ellipse cx="2000" cy="1450.4531" fill="#B4A7E5" rx="11" ry="11" style="stroke: #A80036; stroke-width: 1.0;"/><path d="M2000.9531,1447.2344 L2000.9531,1453.75 L2002.6719,1453.75 C2003.125,1453.75 2003.2656,1453.7813 2003.4375,1453.9063 C2003.6719,1454.0781 2003.7813,1454.3281 2003.7813,1454.6094 C2003.7813,1455.1719 2003.4219,1455.4531 2002.6719,1455.4531 L1997.5313,1455.4531 C1997.125,1455.4531 1996.9219,1455.4063 1996.7656,1455.2813 C1996.5469,1455.125 1996.4063,1454.8594 1996.4063,1454.6094 C1996.4063,1454.3125 1996.5625,1454.0313 1996.8125,1453.875 C1996.9688,1453.7656 1997.0938,1453.75 1997.5313,1453.75 L1999.25,1453.75 L1999.25,1447.2344 L1997.5313,1447.2344 C1997.1094,1447.2344 1996.9219,1447.2031 1996.7656,1447.0938 C1996.5469,1446.9219 1996.4063,1446.6719 1996.4063,1446.3906 C1996.4063,1446.1094 1996.5625,1445.8125 1996.8125,1445.6563 C1996.9688,1445.5625 1997.0938,1445.5469 1997.5313,1445.5469 L2002.6719,1445.5469 C2003.125,1445.5469 2003.2656,1445.5781 2003.4375,1445.6875 C2003.6719,1445.8594 2003.7813,1446.125 2003.7813,1446.3906 C2003.7813,1446.6875 2003.6406,1446.9688 2003.375,1447.125 C2003.25,1447.2031 2003.0625,1447.2344 2002.6719,1447.2344 Z "/><text fill="#000000" font-family="sans-serif" font-size="12" font-style="italic" lengthAdjust="spacingAndGlyphs" textLength="110" x="2014" y="1454.6074">MetadataStorage</text><line style="stroke: #A80036; stroke-width: 1.5;" x1="1986" x2="2126" y1="1466.4531" y2="1466.4531"/><line style="stroke: #A80036; stroke-width: 1.5;" x1="1986" x2="2126" y1="1474.4531" y2="1474.4531"/><text fill="#000000" font-family="sans-serif" font-size="11" lengthAdjust="spacingAndGlyphs" textLength="103" x="1991" y="1488.6636">byte[] get(URI uri);</text><!--MD5=[0b8b14870791f9141f0f6a23b1b388b1]
class IpfsMetadataStorage--><rect fill="#FEFECE" filter="url(#fr82zefdmyfy9)" height="48" id="IpfsMetadataStorage" style="stroke: #A80036; stroke-width: 1.5;" width="164" x="1985" y="1561.9531"/><ellipse cx="2000" cy="1577.9531" fill="#ADD1B2" rx="11" ry="11" style="stroke: #A80036; stroke-width: 1.0;"/><path d="M2002.3438,1573.625 L2002.5156,1573.7031 C2002.7344,1573.3906 2002.9375,1573.2969 2003.2344,1573.2969 C2003.5313,1573.2969 2003.8125,1573.4375 2003.9688,1573.7031 C2004.0625,1573.8594 2004.0781,1573.9844 2004.0781,1574.4219 L2004.0781,1575.8438 C2004.0781,1576.2656 2004.0469,1576.4531 2003.9375,1576.6094 C2003.7656,1576.8281 2003.5,1576.9688 2003.2344,1576.9688 C2003.0156,1576.9688 2002.7813,1576.8594 2002.6406,1576.7188 C2002.5,1576.5938 2002.4688,1576.4688 2002.4063,1576.0625 C2002.3125,1575.6563 2002.1406,1575.4375 2001.6563,1575.1563 C2001.1875,1574.9063 2000.5781,1574.75 2000,1574.75 C1998.2656,1574.75 1997.0156,1576.0625 1997.0156,1577.8438 L1997.0156,1578.9375 C1997.0156,1580.6406 1998.3125,1581.7344 2000.3594,1581.7344 C2001.125,1581.7344 2001.8125,1581.6094 2002.2344,1581.3438 C2002.4219,1581.25 2002.4219,1581.25 2002.875,1580.7656 C2003.0625,1580.5781 2003.2656,1580.5 2003.4844,1580.5 C2003.9531,1580.5 2004.3438,1580.8906 2004.3438,1581.3438 C2004.3438,1581.7344 2004.0156,1582.1875 2003.4375,1582.5938 C2002.6875,1583.1406 2001.5313,1583.4375 2000.3125,1583.4375 C1997.4219,1583.4375 1995.3125,1581.5469 1995.3125,1578.9688 L1995.3125,1577.8438 C1995.3125,1575.125 1997.3125,1573.0469 1999.9375,1573.0469 C2000.8125,1573.0469 2001.4063,1573.1875 2002.3438,1573.625 Z "/><text fill="#000000" font-family="sans-serif" font-size="12" lengthAdjust="spacingAndGlyphs" textLength="132" x="2014" y="1582.1074">IpfsMetadataStorage</text><line style="stroke: #A80036; stroke-width: 1.5;" x1="1986" x2="2148" y1="1593.9531" y2="1593.9531"/><line style="stroke: #A80036; stroke-width: 1.5;" x1="1986" x2="2148" y1="1601.9531" y2="1601.9531"/><!--MD5=[c96f5c1a2d64b984efda073a5aae009b]
class RegistryContract--><rect fill="#FEFECE" filter="url(#fr82zefdmyfy9)" height="73.6094" id="RegistryContract" style="stroke: #A80036; stroke-width: 1.5;" width="519" x="2162.5" y="1427.9531"/><ellipse cx="2365.75" cy="1443.9531" fill="#ADD1B2" rx="11" ry="11" style="stroke: #A80036; stroke-width: 1.0;"/><path d="M2368.0938,1439.625 L2368.2656,1439.7031 C2368.4844,1439.3906 2368.6875,1439.2969 2368.9844,1439.2969 C2369.2813,1439.2969 2369.5625,1439.4375 2369.7188,1439.7031 C2369.8125,1439.8594 2369.8281,1439.9844 2369.8281,1440.4219 L2369.8281,1441.8438 C2369.8281,1442.2656 2369.7969,1442.4531 2369.6875,1442.6094 C2369.5156,1442.8281 2369.25,1442.9688 2368.9844,1442.9688 C2368.7656,1442.9688 2368.5313,1442.8594 2368.3906,1442.7188 C2368.25,1442.5938 2368.2188,1442.4688 2368.1563,1442.0625 C2368.0625,1441.6563 2367.8906,1441.4375 2367.4063,1441.1563 C2366.9375,1440.9063 2366.3281,1440.75 2365.75,1440.75 C2364.0156,1440.75 2362.7656,1442.0625 2362.7656,1443.8438 L2362.7656,1444.9375 C2362.7656,1446.6406 2364.0625,1447.7344 2366.1094,1447.7344 C2366.875,1447.7344 2367.5625,1447.6094 2367.9844,1447.3438 C2368.1719,1447.25 2368.1719,1447.25 2368.625,1446.7656 C2368.8125,1446.5781 2369.0156,1446.5 2369.2344,1446.5 C2369.7031,1446.5 2370.0938,1446.8906 2370.0938,1447.3438 C2370.0938,1447.7344 2369.7656,1448.1875 2369.1875,1448.5938 C2368.4375,1449.1406 2367.2813,1449.4375 2366.0625,1449.4375 C2363.1719,1449.4375 2361.0625,1447.5469 2361.0625,1444.9688 L2361.0625,1443.8438 C2361.0625,1441.125 2363.0625,1439.0469 2365.6875,1439.0469 C2366.5625,1439.0469 2367.1563,1439.1875 2368.0938,1439.625 Z "/><text fill="#000000" font-family="sans-serif" font-size="12" lengthAdjust="spacingAndGlyphs" textLength="104" x="2386.25" y="1448.1074">RegistryContract</text><line style="stroke: #A80036; stroke-width: 1.5;" x1="2163.5" x2="2680.5" y1="1459.9531" y2="1459.9531"/><line style="stroke: #A80036; stroke-width: 1.5;" x1="2163.5" x2="2680.5" y1="1467.9531" y2="1467.9531"/><text fill="#000000" font-family="sans-serif" font-size="11" lengthAdjust="spacingAndGlyphs" textLength="400" x="2168.5" y="1482.1636">Optional&lt;OrganizationRegistration&gt; getOrganizationById(String orgId);</text><text fill="#000000" font-family="sans-serif" font-size="11" lengthAdjust="spacingAndGlyphs" textLength="507" x="2168.5" y="1494.9683">Optional&lt;ServiceRegistration&gt; getServiceRegistrationById(String orgId, String serviceId);</text><!--MD5=[7de846d6b480f97ff8e018abb55faf3d]
class MetadataProvider--><rect fill="#FEFECE" filter="url(#fr82zefdmyfy9)" height="60.8047" id="MetadataProvider" style="stroke: #A80036; stroke-width: 1.5;" width="234" x="2145" y="1198.9531"/><ellipse cx="2202.75" cy="1214.9531" fill="#B4A7E5" rx="11" ry="11" style="stroke: #A80036; stroke-width: 1.0;"/><path d="M2203.7031,1211.7344 L2203.7031,1218.25 L2205.4219,1218.25 C2205.875,1218.25 2206.0156,1218.2813 2206.1875,1218.4063 C2206.4219,1218.5781 2206.5313,1218.8281 2206.5313,1219.1094 C2206.5313,1219.6719 2206.1719,1219.9531 2205.4219,1219.9531 L2200.2813,1219.9531 C2199.875,1219.9531 2199.6719,1219.9063 2199.5156,1219.7813 C2199.2969,1219.625 2199.1563,1219.3594 2199.1563,1219.1094 C2199.1563,1218.8125 2199.3125,1218.5313 2199.5625,1218.375 C2199.7188,1218.2656 2199.8438,1218.25 2200.2813,1218.25 L2202,1218.25 L2202,1211.7344 L2200.2813,1211.7344 C2199.8594,1211.7344 2199.6719,1211.7031 2199.5156,1211.5938 C2199.2969,1211.4219 2199.1563,1211.1719 2199.1563,1210.8906 C2199.1563,1210.6094 2199.3125,1210.3125 2199.5625,1210.1563 C2199.7188,1210.0625 2199.8438,1210.0469 2200.2813,1210.0469 L2205.4219,1210.0469 C2205.875,1210.0469 2206.0156,1210.0781 2206.1875,1210.1875 C2206.4219,1210.3594 2206.5313,1210.625 2206.5313,1210.8906 C2206.5313,1211.1875 2206.3906,1211.4688 2206.125,1211.625 C2206,1211.7031 2205.8125,1211.7344 2205.4219,1211.7344 Z "/><text fill="#000000" font-family="sans-serif" font-size="12" font-style="italic" lengthAdjust="spacingAndGlyphs" textLength="110" x="2223.25" y="1219.1074">MetadataProvider</text><line style="stroke: #A80036; stroke-width: 1.5;" x1="2146" x2="2378" y1="1230.9531" y2="1230.9531"/><line style="stroke: #A80036; stroke-width: 1.5;" x1="2146" x2="2378" y1="1238.9531" y2="1238.9531"/><text fill="#000000" font-family="sans-serif" font-size="11" lengthAdjust="spacingAndGlyphs" textLength="222" x="2151" y="1253.1636">ServiceMetadata getServiceMetadata();</text><!--MD5=[7d6c47076f660fce1d354ac67d286524]
class RegistryMetadataProvider--><rect fill="#FEFECE" filter="url(#fr82zefdmyfy9)" height="48" id="RegistryMetadataProvider" style="stroke: #A80036; stroke-width: 1.5;" width="193" x="2165.5" y="1319.9531"/><ellipse cx="2180.5" cy="1335.9531" fill="#ADD1B2" rx="11" ry="11" style="stroke: #A80036; stroke-width: 1.0;"/><path d="M2182.8438,1331.625 L2183.0156,1331.7031 C2183.2344,1331.3906 2183.4375,1331.2969 2183.7344,1331.2969 C2184.0313,1331.2969 2184.3125,1331.4375 2184.4688,1331.7031 C2184.5625,1331.8594 2184.5781,1331.9844 2184.5781,1332.4219 L2184.5781,1333.8438 C2184.5781,1334.2656 2184.5469,1334.4531 2184.4375,1334.6094 C2184.2656,1334.8281 2184,1334.9688 2183.7344,1334.9688 C2183.5156,1334.9688 2183.2813,1334.8594 2183.1406,1334.7188 C2183,1334.5938 2182.9688,1334.4688 2182.9063,1334.0625 C2182.8125,1333.6563 2182.6406,1333.4375 2182.1563,1333.1563 C2181.6875,1332.9063 2181.0781,1332.75 2180.5,1332.75 C2178.7656,1332.75 2177.5156,1334.0625 2177.5156,1335.8438 L2177.5156,1336.9375 C2177.5156,1338.6406 2178.8125,1339.7344 2180.8594,1339.7344 C2181.625,1339.7344 2182.3125,1339.6094 2182.7344,1339.3438 C2182.9219,1339.25 2182.9219,1339.25 2183.375,1338.7656 C2183.5625,1338.5781 2183.7656,1338.5 2183.9844,1338.5 C2184.4531,1338.5 2184.8438,1338.8906 2184.8438,1339.3438 C2184.8438,1339.7344 2184.5156,1340.1875 2183.9375,1340.5938 C2183.1875,1341.1406 2182.0313,1341.4375 2180.8125,1341.4375 C2177.9219,1341.4375 2175.8125,1339.5469 2175.8125,1336.9688 L2175.8125,1335.8438 C2175.8125,1333.125 2177.8125,1331.0469 2180.4375,1331.0469 C2181.3125,1331.0469 2181.9063,1331.1875 2182.8438,1331.625 Z "/><text fill="#000000" font-family="sans-serif" font-size="12" lengthAdjust="spacingAndGlyphs" textLength="161" x="2194.5" y="1340.1074">RegistryMetadataProvider</text><line style="stroke: #A80036; stroke-width: 1.5;" x1="2166.5" x2="2357.5" y1="1351.9531" y2="1351.9531"/><line style="stroke: #A80036; stroke-width: 1.5;" x1="2166.5" x2="2357.5" y1="1359.9531" y2="1359.9531"/><!--MD5=[06bc73c308419be41e333edfccb18056]
class DaemonConnection--><rect fill="#FEFECE" filter="url(#fr82zefdmyfy9)" height="86.4141" id="DaemonConnection" style="stroke: #A80036; stroke-width: 1.5;" width="351" x="1922.5" y="929.9531"/><ellipse cx="2032.25" cy="945.9531" fill="#B4A7E5" rx="11" ry="11" style="stroke: #A80036; stroke-width: 1.0;"/><path d="M2033.2031,942.7344 L2033.2031,949.25 L2034.9219,949.25 C2035.375,949.25 2035.5156,949.2813 2035.6875,949.4063 C2035.9219,949.5781 2036.0313,949.8281 2036.0313,950.1094 C2036.0313,950.6719 2035.6719,950.9531 2034.9219,950.9531 L2029.7813,950.9531 C2029.375,950.9531 2029.1719,950.9063 2029.0156,950.7813 C2028.7969,950.625 2028.6563,950.3594 2028.6563,950.1094 C2028.6563,949.8125 2028.8125,949.5313 2029.0625,949.375 C2029.2188,949.2656 2029.3438,949.25 2029.7813,949.25 L2031.5,949.25 L2031.5,942.7344 L2029.7813,942.7344 C2029.3594,942.7344 2029.1719,942.7031 2029.0156,942.5938 C2028.7969,942.4219 2028.6563,942.1719 2028.6563,941.8906 C2028.6563,941.6094 2028.8125,941.3125 2029.0625,941.1563 C2029.2188,941.0625 2029.3438,941.0469 2029.7813,941.0469 L2034.9219,941.0469 C2035.375,941.0469 2035.5156,941.0781 2035.6875,941.1875 C2035.9219,941.3594 2036.0313,941.625 2036.0313,941.8906 C2036.0313,942.1875 2035.8906,942.4688 2035.625,942.625 C2035.5,942.7031 2035.3125,942.7344 2034.9219,942.7344 Z "/><text fill="#000000" font-family="sans-serif" font-size="12" font-style="italic" lengthAdjust="spacingAndGlyphs" textLength="123" x="2052.75" y="950.1074">DaemonConnection</text><line style="stroke: #A80036; stroke-width: 1.5;" x1="1923.5" x2="2272.5" y1="961.9531" y2="961.9531"/><line style="stroke: #A80036; stroke-width: 1.5;" x1="1923.5" x2="2272.5" y1="969.9531" y2="969.9531"/><text fill="#000000" font-family="sans-serif" font-size="11" lengthAdjust="spacingAndGlyphs" textLength="318" x="1928.5" y="984.1636">&lt;T&gt; T getGrpcStub(Function&lt;Channel, T&gt; constructor);</text><text fill="#000000" font-family="sans-serif" font-size="11" lengthAdjust="spacingAndGlyphs" textLength="339" x="1928.5" y="996.9683">void setClientCallsInterceptor(ClientInterceptor interceptor);</text><text fill="#000000" font-family="sans-serif" font-size="11" lengthAdjust="spacingAndGlyphs" textLength="118" x="1928.5" y="1009.7729">void shutdownNow();</text><!--MD5=[297291980de3643661061590a47a5f7c]
class FirstEndpointDaemonConnection--><rect fill="#FEFECE" filter="url(#fr82zefdmyfy9)" height="48" id="FirstEndpointDaemonConnection" style="stroke: #A80036; stroke-width: 1.5;" width="238" x="2007" y="1075.9531"/><ellipse cx="2022" cy="1091.9531" fill="#ADD1B2" rx="11" ry="11" style="stroke: #A80036; stroke-width: 1.0;"/><path d="M2024.3438,1087.625 L2024.5156,1087.7031 C2024.7344,1087.3906 2024.9375,1087.2969 2025.2344,1087.2969 C2025.5313,1087.2969 2025.8125,1087.4375 2025.9688,1087.7031 C2026.0625,1087.8594 2026.0781,1087.9844 2026.0781,1088.4219 L2026.0781,1089.8438 C2026.0781,1090.2656 2026.0469,1090.4531 2025.9375,1090.6094 C2025.7656,1090.8281 2025.5,1090.9688 2025.2344,1090.9688 C2025.0156,1090.9688 2024.7813,1090.8594 2024.6406,1090.7188 C2024.5,1090.5938 2024.4688,1090.4688 2024.4063,1090.0625 C2024.3125,1089.6563 2024.1406,1089.4375 2023.6563,1089.1563 C2023.1875,1088.9063 2022.5781,1088.75 2022,1088.75 C2020.2656,1088.75 2019.0156,1090.0625 2019.0156,1091.8438 L2019.0156,1092.9375 C2019.0156,1094.6406 2020.3125,1095.7344 2022.3594,1095.7344 C2023.125,1095.7344 2023.8125,1095.6094 2024.2344,1095.3438 C2024.4219,1095.25 2024.4219,1095.25 2024.875,1094.7656 C2025.0625,1094.5781 2025.2656,1094.5 2025.4844,1094.5 C2025.9531,1094.5 2026.3438,1094.8906 2026.3438,1095.3438 C2026.3438,1095.7344 2026.0156,1096.1875 2025.4375,1096.5938 C2024.6875,1097.1406 2023.5313,1097.4375 2022.3125,1097.4375 C2019.4219,1097.4375 2017.3125,1095.5469 2017.3125,1092.9688 L2017.3125,1091.8438 C2017.3125,1089.125 2019.3125,1087.0469 2021.9375,1087.0469 C2022.8125,1087.0469 2023.4063,1087.1875 2024.3438,1087.625 Z "/><text fill="#000000" font-family="sans-serif" font-size="12" lengthAdjust="spacingAndGlyphs" textLength="206" x="2036" y="1096.1074">FirstEndpointDaemonConnection</text><line style="stroke: #A80036; stroke-width: 1.5;" x1="2008" x2="2244" y1="1107.9531" y2="1107.9531"/><line style="stroke: #A80036; stroke-width: 1.5;" x1="2008" x2="2244" y1="1115.9531" y2="1115.9531"/><!--MD5=[49163365a2d8a8492303b83ddbd98154]
class PaymentChannelStateService--><rect fill="#FEFECE" filter="url(#fr82zefdmyfy9)" height="60.8047" id="PaymentChannelStateService" style="stroke: #A80036; stroke-width: 1.5;" width="393" x="1880.5" y="802.4531"/><ellipse cx="1980.75" cy="818.4531" fill="#ADD1B2" rx="11" ry="11" style="stroke: #A80036; stroke-width: 1.0;"/><path d="M1983.0938,814.125 L1983.2656,814.2031 C1983.4844,813.8906 1983.6875,813.7969 1983.9844,813.7969 C1984.2813,813.7969 1984.5625,813.9375 1984.7188,814.2031 C1984.8125,814.3594 1984.8281,814.4844 1984.8281,814.9219 L1984.8281,816.3438 C1984.8281,816.7656 1984.7969,816.9531 1984.6875,817.1094 C1984.5156,817.3281 1984.25,817.4688 1983.9844,817.4688 C1983.7656,817.4688 1983.5313,817.3594 1983.3906,817.2188 C1983.25,817.0938 1983.2188,816.9688 1983.1563,816.5625 C1983.0625,816.1563 1982.8906,815.9375 1982.4063,815.6563 C1981.9375,815.4063 1981.3281,815.25 1980.75,815.25 C1979.0156,815.25 1977.7656,816.5625 1977.7656,818.3438 L1977.7656,819.4375 C1977.7656,821.1406 1979.0625,822.2344 1981.1094,822.2344 C1981.875,822.2344 1982.5625,822.1094 1982.9844,821.8438 C1983.1719,821.75 1983.1719,821.75 1983.625,821.2656 C1983.8125,821.0781 1984.0156,821 1984.2344,821 C1984.7031,821 1985.0938,821.3906 1985.0938,821.8438 C1985.0938,822.2344 1984.7656,822.6875 1984.1875,823.0938 C1983.4375,823.6406 1982.2813,823.9375 1981.0625,823.9375 C1978.1719,823.9375 1976.0625,822.0469 1976.0625,819.4688 L1976.0625,818.3438 C1976.0625,815.625 1978.0625,813.5469 1980.6875,813.5469 C1981.5625,813.5469 1982.1563,813.6875 1983.0938,814.125 Z "/><text fill="#000000" font-family="sans-serif" font-size="12" lengthAdjust="spacingAndGlyphs" textLength="184" x="2001.25" y="822.6074">PaymentChannelStateService</text><line style="stroke: #A80036; stroke-width: 1.5;" x1="1881.5" x2="2272.5" y1="834.4531" y2="834.4531"/><line style="stroke: #A80036; stroke-width: 1.5;" x1="1881.5" x2="2272.5" y1="842.4531" y2="842.4531"/><text fill="#000000" font-family="sans-serif" font-size="11" lengthAdjust="spacingAndGlyphs" textLength="381" x="1886.5" y="856.6636">PaymentChannelStateReply getChannelState(BigInteger channelId);</text><!--MD5=[764fca796ce7f635542948d8fc39db5e]
class Payment--><rect fill="#FEFECE" filter="url(#fr82zefdmyfy9)" height="60.8047" id="Payment" style="stroke: #A80036; stroke-width: 1.5;" width="217" x="1628.5" y="802.4531"/><ellipse cx="1705.75" cy="818.4531" fill="#B4A7E5" rx="11" ry="11" style="stroke: #A80036; stroke-width: 1.0;"/><path d="M1706.7031,815.2344 L1706.7031,821.75 L1708.4219,821.75 C1708.875,821.75 1709.0156,821.7813 1709.1875,821.9063 C1709.4219,822.0781 1709.5313,822.3281 1709.5313,822.6094 C1709.5313,823.1719 1709.1719,823.4531 1708.4219,823.4531 L1703.2813,823.4531 C1702.875,823.4531 1702.6719,823.4063 1702.5156,823.2813 C1702.2969,823.125 1702.1563,822.8594 1702.1563,822.6094 C1702.1563,822.3125 1702.3125,822.0313 1702.5625,821.875 C1702.7188,821.7656 1702.8438,821.75 1703.2813,821.75 L1705,821.75 L1705,815.2344 L1703.2813,815.2344 C1702.8594,815.2344 1702.6719,815.2031 1702.5156,815.0938 C1702.2969,814.9219 1702.1563,814.6719 1702.1563,814.3906 C1702.1563,814.1094 1702.3125,813.8125 1702.5625,813.6563 C1702.7188,813.5625 1702.8438,813.5469 1703.2813,813.5469 L1708.4219,813.5469 C1708.875,813.5469 1709.0156,813.5781 1709.1875,813.6875 C1709.4219,813.8594 1709.5313,814.125 1709.5313,814.3906 C1709.5313,814.6875 1709.3906,814.9688 1709.125,815.125 C1709,815.2031 1708.8125,815.2344 1708.4219,815.2344 Z "/><text fill="#000000" font-family="sans-serif" font-size="12" font-style="italic" lengthAdjust="spacingAndGlyphs" textLength="54" x="1726.25" y="822.6074">Payment</text><line style="stroke: #A80036; stroke-width: 1.5;" x1="1629.5" x2="1844.5" y1="834.4531" y2="834.4531"/><line style="stroke: #A80036; stroke-width: 1.5;" x1="1629.5" x2="1844.5" y1="842.4531" y2="842.4531"/><text fill="#000000" font-family="sans-serif" font-size="11" lengthAdjust="spacingAndGlyphs" textLength="205" x="1634.5" y="856.6636">void toMetadata(Metadata headers);</text><!--MD5=[21705c80423a45734a535470c58d7091]
class MultiPartyEscrowContract--><rect fill="#FEFECE" filter="url(#fr82zefdmyfy9)" height="73.6094" id="MultiPartyEscrowContract" style="stroke: #A80036; stroke-width: 1.5;" width="392" x="1107" y="795.9531"/><ellipse cx="1219.25" cy="811.9531" fill="#ADD1B2" rx="11" ry="11" style="stroke: #A80036; stroke-width: 1.0;"/><path d="M1221.5938,807.625 L1221.7656,807.7031 C1221.9844,807.3906 1222.1875,807.2969 1222.4844,807.2969 C1222.7813,807.2969 1223.0625,807.4375 1223.2188,807.7031 C1223.3125,807.8594 1223.3281,807.9844 1223.3281,808.4219 L1223.3281,809.8438 C1223.3281,810.2656 1223.2969,810.4531 1223.1875,810.6094 C1223.0156,810.8281 1222.75,810.9688 1222.4844,810.9688 C1222.2656,810.9688 1222.0313,810.8594 1221.8906,810.7188 C1221.75,810.5938 1221.7188,810.4688 1221.6563,810.0625 C1221.5625,809.6563 1221.3906,809.4375 1220.9063,809.1563 C1220.4375,808.9063 1219.8281,808.75 1219.25,808.75 C1217.5156,808.75 1216.2656,810.0625 1216.2656,811.8438 L1216.2656,812.9375 C1216.2656,814.6406 1217.5625,815.7344 1219.6094,815.7344 C1220.375,815.7344 1221.0625,815.6094 1221.4844,815.3438 C1221.6719,815.25 1221.6719,815.25 1222.125,814.7656 C1222.3125,814.5781 1222.5156,814.5 1222.7344,814.5 C1223.2031,814.5 1223.5938,814.8906 1223.5938,815.3438 C1223.5938,815.7344 1223.2656,816.1875 1222.6875,816.5938 C1221.9375,817.1406 1220.7813,817.4375 1219.5625,817.4375 C1216.6719,817.4375 1214.5625,815.5469 1214.5625,812.9688 L1214.5625,811.8438 C1214.5625,809.125 1216.5625,807.0469 1219.1875,807.0469 C1220.0625,807.0469 1220.6563,807.1875 1221.5938,807.625 Z "/><text fill="#000000" font-family="sans-serif" font-size="12" lengthAdjust="spacingAndGlyphs" textLength="159" x="1239.75" y="816.1074">MultiPartyEscrowContract</text><line style="stroke: #A80036; stroke-width: 1.5;" x1="1108" x2="1498" y1="827.9531" y2="827.9531"/><line style="stroke: #A80036; stroke-width: 1.5;" x1="1108" x2="1498" y1="835.9531" y2="835.9531"/><text fill="#000000" font-family="sans-serif" font-size="11" lengthAdjust="spacingAndGlyphs" textLength="380" x="1113" y="850.1636">Optional&lt;PaymentChannel&gt; getChannelById(BigInteger channelId);</text><text fill="#000000" font-family="sans-serif" font-size="11" lengthAdjust="spacingAndGlyphs" textLength="176" x="1113" y="862.9683">Address getContractAddress();</text><!--MD5=[0f4558827744cf1cee3afe858bb9a127]
class PaymentChannelProvider--><rect fill="#FEFECE" filter="url(#fr82zefdmyfy9)" height="60.8047" id="PaymentChannelProvider" style="stroke: #A80036; stroke-width: 1.5;" width="327" x="1034.5" y="558.4531"/><ellipse cx="1116.25" cy="574.4531" fill="#B4A7E5" rx="11" ry="11" style="stroke: #A80036; stroke-width: 1.0;"/><path d="M1117.2031,571.2344 L1117.2031,577.75 L1118.9219,577.75 C1119.375,577.75 1119.5156,577.7813 1119.6875,577.9063 C1119.9219,578.0781 1120.0313,578.3281 1120.0313,578.6094 C1120.0313,579.1719 1119.6719,579.4531 1118.9219,579.4531 L1113.7813,579.4531 C1113.375,579.4531 1113.1719,579.4063 1113.0156,579.2813 C1112.7969,579.125 1112.6563,578.8594 1112.6563,578.6094 C1112.6563,578.3125 1112.8125,578.0313 1113.0625,577.875 C1113.2188,577.7656 1113.3438,577.75 1113.7813,577.75 L1115.5,577.75 L1115.5,571.2344 L1113.7813,571.2344 C1113.3594,571.2344 1113.1719,571.2031 1113.0156,571.0938 C1112.7969,570.9219 1112.6563,570.6719 1112.6563,570.3906 C1112.6563,570.1094 1112.8125,569.8125 1113.0625,569.6563 C1113.2188,569.5625 1113.3438,569.5469 1113.7813,569.5469 L1118.9219,569.5469 C1119.375,569.5469 1119.5156,569.5781 1119.6875,569.6875 C1119.9219,569.8594 1120.0313,570.125 1120.0313,570.3906 C1120.0313,570.6875 1119.8906,570.9688 1119.625,571.125 C1119.5,571.2031 1119.3125,571.2344 1118.9219,571.2344 Z "/><text fill="#000000" font-family="sans-serif" font-size="12" font-style="italic" lengthAdjust="spacingAndGlyphs" textLength="155" x="1136.75" y="578.6074">PaymentChannelProvider</text><line style="stroke: #A80036; stroke-width: 1.5;" x1="1035.5" x2="1360.5" y1="590.4531" y2="590.4531"/><line style="stroke: #A80036; stroke-width: 1.5;" x1="1035.5" x2="1360.5" y1="598.4531" y2="598.4531"/><text fill="#000000" font-family="sans-serif" font-size="11" lengthAdjust="spacingAndGlyphs" textLength="315" x="1040.5" y="612.6636">PaymentChannel getChannelById(BigInteger channelId);</text><!--MD5=[07b5ccda0566067c4cd653ad8d5fc568]
class AskDaemonFirstPaymentChannelProvider--><rect fill="#FEFECE" filter="url(#fr82zefdmyfy9)" height="48" id="AskDaemonFirstPaymentChannelProvider" style="stroke: #A80036; stroke-width: 1.5;" width="289" x="1158.5" y="679.4531"/><ellipse cx="1173.5" cy="695.4531" fill="#ADD1B2" rx="11" ry="11" style="stroke: #A80036; stroke-width: 1.0;"/><path d="M1175.8438,691.125 L1176.0156,691.2031 C1176.2344,690.8906 1176.4375,690.7969 1176.7344,690.7969 C1177.0313,690.7969 1177.3125,690.9375 1177.4688,691.2031 C1177.5625,691.3594 1177.5781,691.4844 1177.5781,691.9219 L1177.5781,693.3438 C1177.5781,693.7656 1177.5469,693.9531 1177.4375,694.1094 C1177.2656,694.3281 1177,694.4688 1176.7344,694.4688 C1176.5156,694.4688 1176.2813,694.3594 1176.1406,694.2188 C1176,694.0938 1175.9688,693.9688 1175.9063,693.5625 C1175.8125,693.1563 1175.6406,692.9375 1175.1563,692.6563 C1174.6875,692.4063 1174.0781,692.25 1173.5,692.25 C1171.7656,692.25 1170.5156,693.5625 1170.5156,695.3438 L1170.5156,696.4375 C1170.5156,698.1406 1171.8125,699.2344 1173.8594,699.2344 C1174.625,699.2344 1175.3125,699.1094 1175.7344,698.8438 C1175.9219,698.75 1175.9219,698.75 1176.375,698.2656 C1176.5625,698.0781 1176.7656,698 1176.9844,698 C1177.4531,698 1177.8438,698.3906 1177.8438,698.8438 C1177.8438,699.2344 1177.5156,699.6875 1176.9375,700.0938 C1176.1875,700.6406 1175.0313,700.9375 1173.8125,700.9375 C1170.9219,700.9375 1168.8125,699.0469 1168.8125,696.4688 L1168.8125,695.3438 C1168.8125,692.625 1170.8125,690.5469 1173.4375,690.5469 C1174.3125,690.5469 1174.9063,690.6875 1175.8438,691.125 Z "/><text fill="#000000" font-family="sans-serif" font-size="12" lengthAdjust="spacingAndGlyphs" textLength="257" x="1187.5" y="699.6074">AskDaemonFirstPaymentChannelProvider</text><line style="stroke: #A80036; stroke-width: 1.5;" x1="1159.5" x2="1446.5" y1="711.4531" y2="711.4531"/><line style="stroke: #A80036; stroke-width: 1.5;" x1="1159.5" x2="1446.5" y1="719.4531" y2="719.4531"/><!--MD5=[5c8ce949bc8c9f89b0b30c1e80feca4d]
class EscrowPayment--><rect fill="#FEFECE" filter="url(#fr82zefdmyfy9)" height="48" id="EscrowPayment" style="stroke: #A80036; stroke-width: 1.5;" width="130" x="1442" y="564.9531"/><ellipse cx="1457" cy="580.9531" fill="#ADD1B2" rx="11" ry="11" style="stroke: #A80036; stroke-width: 1.0;"/><path d="M1459.3438,576.625 L1459.5156,576.7031 C1459.7344,576.3906 1459.9375,576.2969 1460.2344,576.2969 C1460.5313,576.2969 1460.8125,576.4375 1460.9688,576.7031 C1461.0625,576.8594 1461.0781,576.9844 1461.0781,577.4219 L1461.0781,578.8438 C1461.0781,579.2656 1461.0469,579.4531 1460.9375,579.6094 C1460.7656,579.8281 1460.5,579.9688 1460.2344,579.9688 C1460.0156,579.9688 1459.7813,579.8594 1459.6406,579.7188 C1459.5,579.5938 1459.4688,579.4688 1459.4063,579.0625 C1459.3125,578.6563 1459.1406,578.4375 1458.6563,578.1563 C1458.1875,577.9063 1457.5781,577.75 1457,577.75 C1455.2656,577.75 1454.0156,579.0625 1454.0156,580.8438 L1454.0156,581.9375 C1454.0156,583.6406 1455.3125,584.7344 1457.3594,584.7344 C1458.125,584.7344 1458.8125,584.6094 1459.2344,584.3438 C1459.4219,584.25 1459.4219,584.25 1459.875,583.7656 C1460.0625,583.5781 1460.2656,583.5 1460.4844,583.5 C1460.9531,583.5 1461.3438,583.8906 1461.3438,584.3438 C1461.3438,584.7344 1461.0156,585.1875 1460.4375,585.5938 C1459.6875,586.1406 1458.5313,586.4375 1457.3125,586.4375 C1454.4219,586.4375 1452.3125,584.5469 1452.3125,581.9688 L1452.3125,580.8438 C1452.3125,578.125 1454.3125,576.0469 1456.9375,576.0469 C1457.8125,576.0469 1458.4063,576.1875 1459.3438,576.625 Z "/><text fill="#000000" font-family="sans-serif" font-size="12" lengthAdjust="spacingAndGlyphs" textLength="98" x="1471" y="585.1074">EscrowPayment</text><line style="stroke: #A80036; stroke-width: 1.5;" x1="1443" x2="1571" y1="596.9531" y2="596.9531"/><line style="stroke: #A80036; stroke-width: 1.5;" x1="1443" x2="1571" y1="604.9531" y2="604.9531"/><ellipse cx="1402" cy="588.9531" fill="#FEFECE" filter="url(#fr82zefdmyfy9)" rx="5" ry="5" style="stroke: #A80036; stroke-width: 1.5;"/><text fill="#000000" font-family="sans-serif" font-size="12" lengthAdjust="spacingAndGlyphs" textLength="54" x="1375" y="605.0918">Payment</text><!--MD5=[9b7eb76f801c309757ef5968cb2349d9]
class Configuration--><rect fill="#FEFECE" filter="url(#fr82zefdmyfy9)" height="137.6328" id="Configuration" style="stroke: #A80036; stroke-width: 1.5;" width="301" x="38.5" y="252.4531"/><ellipse cx="142.75" cy="268.4531" fill="#B4A7E5" rx="11" ry="11" style="stroke: #A80036; stroke-width: 1.0;"/><path d="M143.7031,265.2344 L143.7031,271.75 L145.4219,271.75 C145.875,271.75 146.0156,271.7813 146.1875,271.9063 C146.4219,272.0781 146.5313,272.3281 146.5313,272.6094 C146.5313,273.1719 146.1719,273.4531 145.4219,273.4531 L140.2813,273.4531 C139.875,273.4531 139.6719,273.4063 139.5156,273.2813 C139.2969,273.125 139.1563,272.8594 139.1563,272.6094 C139.1563,272.3125 139.3125,272.0313 139.5625,271.875 C139.7188,271.7656 139.8438,271.75 140.2813,271.75 L142,271.75 L142,265.2344 L140.2813,265.2344 C139.8594,265.2344 139.6719,265.2031 139.5156,265.0938 C139.2969,264.9219 139.1563,264.6719 139.1563,264.3906 C139.1563,264.1094 139.3125,263.8125 139.5625,263.6563 C139.7188,263.5625 139.8438,263.5469 140.2813,263.5469 L145.4219,263.5469 C145.875,263.5469 146.0156,263.5781 146.1875,263.6875 C146.4219,263.8594 146.5313,264.125 146.5313,264.3906 C146.5313,264.6875 146.3906,264.9688 146.125,265.125 C146,265.2031 145.8125,265.2344 145.4219,265.2344 Z "/><text fill="#000000" font-family="sans-serif" font-size="12" font-style="italic" lengthAdjust="spacingAndGlyphs" textLength="84" x="163.25" y="272.6074">Configuration</text><line style="stroke: #A80036; stroke-width: 1.5;" x1="39.5" x2="338.5" y1="284.4531" y2="284.4531"/><line style="stroke: #A80036; stroke-width: 1.5;" x1="39.5" x2="338.5" y1="292.4531" y2="292.4531"/><text fill="#000000" font-family="sans-serif" font-size="11" lengthAdjust="spacingAndGlyphs" textLength="216" x="44.5" y="306.6636">String getEthereumJsonRpcEndpoint();</text><text fill="#000000" font-family="sans-serif" font-size="11" lengthAdjust="spacingAndGlyphs" textLength="92" x="44.5" y="319.4683">URL getIpfsUrl();</text><text fill="#000000" font-family="sans-serif" font-size="11" lengthAdjust="spacingAndGlyphs" textLength="162" x="44.5" y="332.2729">SignerType getSignerType();</text><text fill="#000000" font-family="sans-serif" font-size="11" lengthAdjust="spacingAndGlyphs" textLength="162" x="44.5" y="345.0776">String getSignerMnemonic();</text><text fill="#000000" font-family="sans-serif" font-size="11" lengthAdjust="spacingAndGlyphs" textLength="162" x="44.5" y="357.8823">byte[] getSignerPrivateKey();</text><text fill="#000000" font-family="sans-serif" font-size="11" lengthAdjust="spacingAndGlyphs" textLength="239" x="44.5" y="370.687">Optional&lt;Address&gt; getRegistryAddress();</text><text fill="#000000" font-family="sans-serif" font-size="11" lengthAdjust="spacingAndGlyphs" textLength="289" x="44.5" y="383.4917">Optional&lt;Address&gt; getMultiPartyEscrowAddress();</text><!--MD5=[e080fab05714729631ae58a9276489a6]
class JsonConfiguration--><rect fill="#FEFECE" filter="url(#fr82zefdmyfy9)" height="48" id="JsonConfiguration" style="stroke: #A80036; stroke-width: 1.5;" width="142" x="118" y="450.4531"/><ellipse cx="133" cy="466.4531" fill="#ADD1B2" rx="11" ry="11" style="stroke: #A80036; stroke-width: 1.0;"/><path d="M135.3438,462.125 L135.5156,462.2031 C135.7344,461.8906 135.9375,461.7969 136.2344,461.7969 C136.5313,461.7969 136.8125,461.9375 136.9688,462.2031 C137.0625,462.3594 137.0781,462.4844 137.0781,462.9219 L137.0781,464.3438 C137.0781,464.7656 137.0469,464.9531 136.9375,465.1094 C136.7656,465.3281 136.5,465.4688 136.2344,465.4688 C136.0156,465.4688 135.7813,465.3594 135.6406,465.2188 C135.5,465.0938 135.4688,464.9688 135.4063,464.5625 C135.3125,464.1563 135.1406,463.9375 134.6563,463.6563 C134.1875,463.4063 133.5781,463.25 133,463.25 C131.2656,463.25 130.0156,464.5625 130.0156,466.3438 L130.0156,467.4375 C130.0156,469.1406 131.3125,470.2344 133.3594,470.2344 C134.125,470.2344 134.8125,470.1094 135.2344,469.8438 C135.4219,469.75 135.4219,469.75 135.875,469.2656 C136.0625,469.0781 136.2656,469 136.4844,469 C136.9531,469 137.3438,469.3906 137.3438,469.8438 C137.3438,470.2344 137.0156,470.6875 136.4375,471.0938 C135.6875,471.6406 134.5313,471.9375 133.3125,471.9375 C130.4219,471.9375 128.3125,470.0469 128.3125,467.4688 L128.3125,466.3438 C128.3125,463.625 130.3125,461.5469 132.9375,461.5469 C133.8125,461.5469 134.4063,461.6875 135.3438,462.125 Z "/><text fill="#000000" font-family="sans-serif" font-size="12" lengthAdjust="spacingAndGlyphs" textLength="110" x="147" y="470.6074">JsonConfiguration</text><line style="stroke: #A80036; stroke-width: 1.5;" x1="119" x2="259" y1="482.4531" y2="482.4531"/><line style="stroke: #A80036; stroke-width: 1.5;" x1="119" x2="259" y1="490.4531" y2="490.4531"/><!--MD5=[4b934e359fed50ed512d3d2d3ad10faa]
class DependencyFactory--><rect fill="#FEFECE" filter="url(#fr82zefdmyfy9)" height="112.0234" id="DependencyFactory" style="stroke: #A80036; stroke-width: 1.5;" width="238" x="375" y="265.4531"/><ellipse cx="426.75" cy="281.4531" fill="#B4A7E5" rx="11" ry="11" style="stroke: #A80036; stroke-width: 1.0;"/><path d="M427.7031,278.2344 L427.7031,284.75 L429.4219,284.75 C429.875,284.75 430.0156,284.7813 430.1875,284.9063 C430.4219,285.0781 430.5313,285.3281 430.5313,285.6094 C430.5313,286.1719 430.1719,286.4531 429.4219,286.4531 L424.2813,286.4531 C423.875,286.4531 423.6719,286.4063 423.5156,286.2813 C423.2969,286.125 423.1563,285.8594 423.1563,285.6094 C423.1563,285.3125 423.3125,285.0313 423.5625,284.875 C423.7188,284.7656 423.8438,284.75 424.2813,284.75 L426,284.75 L426,278.2344 L424.2813,278.2344 C423.8594,278.2344 423.6719,278.2031 423.5156,278.0938 C423.2969,277.9219 423.1563,277.6719 423.1563,277.3906 C423.1563,277.1094 423.3125,276.8125 423.5625,276.6563 C423.7188,276.5625 423.8438,276.5469 424.2813,276.5469 L429.4219,276.5469 C429.875,276.5469 430.0156,276.5781 430.1875,276.6875 C430.4219,276.8594 430.5313,277.125 430.5313,277.3906 C430.5313,277.6875 430.3906,277.9688 430.125,278.125 C430,278.2031 429.8125,278.2344 429.4219,278.2344 Z "/><text fill="#000000" font-family="sans-serif" font-size="12" font-style="italic" lengthAdjust="spacingAndGlyphs" textLength="126" x="447.25" y="285.6074">DependencyFactory</text><line style="stroke: #A80036; stroke-width: 1.5;" x1="376" x2="612" y1="297.4531" y2="297.4531"/><line style="stroke: #A80036; stroke-width: 1.5;" x1="376" x2="612" y1="305.4531" y2="305.4531"/><text fill="#000000" font-family="sans-serif" font-size="11" lengthAdjust="spacingAndGlyphs" textLength="100" x="381" y="319.6636">Web3j getWeb3j();</text><text fill="#000000" font-family="sans-serif" font-size="11" lengthAdjust="spacingAndGlyphs" textLength="79" x="381" y="332.4683">IPFS getIpfs();</text><text fill="#000000" font-family="sans-serif" font-size="11" lengthAdjust="spacingAndGlyphs" textLength="108" x="381" y="345.2729">Signer getSigner();</text><text fill="#000000" font-family="sans-serif" font-size="11" lengthAdjust="spacingAndGlyphs" textLength="126" x="381" y="358.0776">Registry getRegistry();</text><text fill="#000000" font-family="sans-serif" font-size="11" lengthAdjust="spacingAndGlyphs" textLength="226" x="381" y="370.8823">MultiPartyEscrow getMultiPartyEscrow();</text><!--MD5=[fd8e04aa5f52fe45763ddf04aafe8c4e]
class ConfigurationDependencyFactory--><rect fill="#FEFECE" filter="url(#fr82zefdmyfy9)" height="48" id="ConfigurationDependencyFactory" style="stroke: #A80036; stroke-width: 1.5;" width="240" x="374" y="450.4531"/><ellipse cx="389" cy="466.4531" fill="#ADD1B2" rx="11" ry="11" style="stroke: #A80036; stroke-width: 1.0;"/><path d="M391.3438,462.125 L391.5156,462.2031 C391.7344,461.8906 391.9375,461.7969 392.2344,461.7969 C392.5313,461.7969 392.8125,461.9375 392.9688,462.2031 C393.0625,462.3594 393.0781,462.4844 393.0781,462.9219 L393.0781,464.3438 C393.0781,464.7656 393.0469,464.9531 392.9375,465.1094 C392.7656,465.3281 392.5,465.4688 392.2344,465.4688 C392.0156,465.4688 391.7813,465.3594 391.6406,465.2188 C391.5,465.0938 391.4688,464.9688 391.4063,464.5625 C391.3125,464.1563 391.1406,463.9375 390.6563,463.6563 C390.1875,463.4063 389.5781,463.25 389,463.25 C387.2656,463.25 386.0156,464.5625 386.0156,466.3438 L386.0156,467.4375 C386.0156,469.1406 387.3125,470.2344 389.3594,470.2344 C390.125,470.2344 390.8125,470.1094 391.2344,469.8438 C391.4219,469.75 391.4219,469.75 391.875,469.2656 C392.0625,469.0781 392.2656,469 392.4844,469 C392.9531,469 393.3438,469.3906 393.3438,469.8438 C393.3438,470.2344 393.0156,470.6875 392.4375,471.0938 C391.6875,471.6406 390.5313,471.9375 389.3125,471.9375 C386.4219,471.9375 384.3125,470.0469 384.3125,467.4688 L384.3125,466.3438 C384.3125,463.625 386.3125,461.5469 388.9375,461.5469 C389.8125,461.5469 390.4063,461.6875 391.3438,462.125 Z "/><text fill="#000000" font-family="sans-serif" font-size="12" lengthAdjust="spacingAndGlyphs" textLength="208" x="403" y="470.6074">ConfigurationDependencyFactory</text><line style="stroke: #A80036; stroke-width: 1.5;" x1="375" x2="613" y1="482.4531" y2="482.4531"/><line style="stroke: #A80036; stroke-width: 1.5;" x1="375" x2="613" y1="490.4531" y2="490.4531"/><!--MD5=[86df7a6fab1c4b6b56ced8510e72833b]
class PaymentStrategy--><rect fill="#FEFECE" filter="url(#fr82zefdmyfy9)" height="60.8047" id="PaymentStrategy" style="stroke: #A80036; stroke-width: 1.5;" width="671" x="253.5" y="558.4531"/><ellipse cx="530.75" cy="574.4531" fill="#B4A7E5" rx="11" ry="11" style="stroke: #A80036; stroke-width: 1.0;"/><path d="M531.7031,571.2344 L531.7031,577.75 L533.4219,577.75 C533.875,577.75 534.0156,577.7813 534.1875,577.9063 C534.4219,578.0781 534.5313,578.3281 534.5313,578.6094 C534.5313,579.1719 534.1719,579.4531 533.4219,579.4531 L528.2813,579.4531 C527.875,579.4531 527.6719,579.4063 527.5156,579.2813 C527.2969,579.125 527.1563,578.8594 527.1563,578.6094 C527.1563,578.3125 527.3125,578.0313 527.5625,577.875 C527.7188,577.7656 527.8438,577.75 528.2813,577.75 L530,577.75 L530,571.2344 L528.2813,571.2344 C527.8594,571.2344 527.6719,571.2031 527.5156,571.0938 C527.2969,570.9219 527.1563,570.6719 527.1563,570.3906 C527.1563,570.1094 527.3125,569.8125 527.5625,569.6563 C527.7188,569.5625 527.8438,569.5469 528.2813,569.5469 L533.4219,569.5469 C533.875,569.5469 534.0156,569.5781 534.1875,569.6875 C534.4219,569.8594 534.5313,570.125 534.5313,570.3906 C534.5313,570.6875 534.3906,570.9688 534.125,571.125 C534,571.2031 533.8125,571.2344 533.4219,571.2344 Z "/><text fill="#000000" font-family="sans-serif" font-size="12" font-style="italic" lengthAdjust="spacingAndGlyphs" textLength="108" x="551.25" y="578.6074">PaymentStrategy</text><line style="stroke: #A80036; stroke-width: 1.5;" x1="254.5" x2="923.5" y1="590.4531" y2="590.4531"/><line style="stroke: #A80036; stroke-width: 1.5;" x1="254.5" x2="923.5" y1="598.4531" y2="598.4531"/><text fill="#000000" font-family="sans-serif" font-size="11" lengthAdjust="spacingAndGlyphs" textLength="659" x="259.5" y="612.6636">&lt;ReqT, RespT&gt; Payment getPayment(GrpcCallParameters&lt;ReqT, RespT&gt; parameters, ServiceClient serviceClient);</text><!--MD5=[f0bc2daf9303fe741b6d54a0ca59617f]
class FixedPaymentChannelPaymentStrategy--><rect fill="#FEFECE" filter="url(#fr82zefdmyfy9)" height="48" id="FixedPaymentChannelPaymentStrategy" style="stroke: #A80036; stroke-width: 1.5;" width="276" x="451" y="679.4531"/><ellipse cx="466" cy="695.4531" fill="#ADD1B2" rx="11" ry="11" style="stroke: #A80036; stroke-width: 1.0;"/><path d="M468.3438,691.125 L468.5156,691.2031 C468.7344,690.8906 468.9375,690.7969 469.2344,690.7969 C469.5313,690.7969 469.8125,690.9375 469.9688,691.2031 C470.0625,691.3594 470.0781,691.4844 470.0781,691.9219 L470.0781,693.3438 C470.0781,693.7656 470.0469,693.9531 469.9375,694.1094 C469.7656,694.3281 469.5,694.4688 469.2344,694.4688 C469.0156,694.4688 468.7813,694.3594 468.6406,694.2188 C468.5,694.0938 468.4688,693.9688 468.4063,693.5625 C468.3125,693.1563 468.1406,692.9375 467.6563,692.6563 C467.1875,692.4063 466.5781,692.25 466,692.25 C464.2656,692.25 463.0156,693.5625 463.0156,695.3438 L463.0156,696.4375 C463.0156,698.1406 464.3125,699.2344 466.3594,699.2344 C467.125,699.2344 467.8125,699.1094 468.2344,698.8438 C468.4219,698.75 468.4219,698.75 468.875,698.2656 C469.0625,698.0781 469.2656,698 469.4844,698 C469.9531,698 470.3438,698.3906 470.3438,698.8438 C470.3438,699.2344 470.0156,699.6875 469.4375,700.0938 C468.6875,700.6406 467.5313,700.9375 466.3125,700.9375 C463.4219,700.9375 461.3125,699.0469 461.3125,696.4688 L461.3125,695.3438 C461.3125,692.625 463.3125,690.5469 465.9375,690.5469 C466.8125,690.5469 467.4063,690.6875 468.3438,691.125 Z "/><text fill="#000000" font-family="sans-serif" font-size="12" lengthAdjust="spacingAndGlyphs" textLength="244" x="480" y="699.6074">FixedPaymentChannelPaymentStrategy</text><line style="stroke: #A80036; stroke-width: 1.5;" x1="452" x2="726" y1="711.4531" y2="711.4531"/><line style="stroke: #A80036; stroke-width: 1.5;" x1="452" x2="726" y1="719.4531" y2="719.4531"/><!--MD5=[2fb101d943835b3444fac9786607c7ca]
class Sdk--><rect fill="#FEFECE" filter="url(#fr82zefdmyfy9)" height="112.0234" id="Sdk" style="stroke: #A80036; stroke-width: 1.5;" width="732" x="128" y="80.4531"/><ellipse cx="478.25" cy="96.4531" fill="#ADD1B2" rx="11" ry="11" style="stroke: #A80036; stroke-width: 1.0;"/><path d="M480.5938,92.125 L480.7656,92.2031 C480.9844,91.8906 481.1875,91.7969 481.4844,91.7969 C481.7813,91.7969 482.0625,91.9375 482.2188,92.2031 C482.3125,92.3594 482.3281,92.4844 482.3281,92.9219 L482.3281,94.3438 C482.3281,94.7656 482.2969,94.9531 482.1875,95.1094 C482.0156,95.3281 481.75,95.4688 481.4844,95.4688 C481.2656,95.4688 481.0313,95.3594 480.8906,95.2188 C480.75,95.0938 480.7188,94.9688 480.6563,94.5625 C480.5625,94.1563 480.3906,93.9375 479.9063,93.6563 C479.4375,93.4063 478.8281,93.25 478.25,93.25 C476.5156,93.25 475.2656,94.5625 475.2656,96.3438 L475.2656,97.4375 C475.2656,99.1406 476.5625,100.2344 478.6094,100.2344 C479.375,100.2344 480.0625,100.1094 480.4844,99.8438 C480.6719,99.75 480.6719,99.75 481.125,99.2656 C481.3125,99.0781 481.5156,99 481.7344,99 C482.2031,99 482.5938,99.3906 482.5938,99.8438 C482.5938,100.2344 482.2656,100.6875 481.6875,101.0938 C480.9375,101.6406 479.7813,101.9375 478.5625,101.9375 C475.6719,101.9375 473.5625,100.0469 473.5625,97.4688 L473.5625,96.3438 C473.5625,93.625 475.5625,91.5469 478.1875,91.5469 C479.0625,91.5469 479.6563,91.6875 480.5938,92.125 Z "/><text fill="#000000" font-family="sans-serif" font-size="12" lengthAdjust="spacingAndGlyphs" textLength="23" x="498.75" y="100.6074">Sdk</text><line style="stroke: #A80036; stroke-width: 1.5;" x1="129" x2="859" y1="112.4531" y2="112.4531"/><line style="stroke: #A80036; stroke-width: 1.5;" x1="129" x2="859" y1="120.4531" y2="120.4531"/><text fill="#000000" font-family="sans-serif" font-size="11" lengthAdjust="spacingAndGlyphs" textLength="147" x="134" y="134.6636">Sdk(Configuration config);</text><text fill="#000000" font-family="sans-serif" font-size="11" lengthAdjust="spacingAndGlyphs" textLength="186" x="134" y="147.4683">Sdk(DependencyFactory factory);</text><text fill="#000000" font-family="sans-serif" font-size="11" lengthAdjust="spacingAndGlyphs" textLength="0" x="138" y="160.2729"/><text fill="#000000" font-family="sans-serif" font-size="11" lengthAdjust="spacingAndGlyphs" textLength="720" x="134" y="173.0776">ServiceClient newServiceClient(String orgId, String serviceId, String endpointGroupName, PaymentStrategy paymentStrategy);</text><text fill="#000000" font-family="sans-serif" font-size="11" lengthAdjust="spacingAndGlyphs" textLength="94" x="134" y="185.8823">void shutdown();</text><!--MD5=[454092b3ab12a575f0516fcdf124b80a]
class ServiceClient--><rect fill="#FEFECE" filter="url(#fr82zefdmyfy9)" height="112.0234" id="ServiceClient" style="stroke: #A80036; stroke-width: 1.5;" width="330" x="648" y="265.4531"/><ellipse cx="768.75" cy="281.4531" fill="#B4A7E5" rx="11" ry="11" style="stroke: #A80036; stroke-width: 1.0;"/><path d="M769.7031,278.2344 L769.7031,284.75 L771.4219,284.75 C771.875,284.75 772.0156,284.7813 772.1875,284.9063 C772.4219,285.0781 772.5313,285.3281 772.5313,285.6094 C772.5313,286.1719 772.1719,286.4531 771.4219,286.4531 L766.2813,286.4531 C765.875,286.4531 765.6719,286.4063 765.5156,286.2813 C765.2969,286.125 765.1563,285.8594 765.1563,285.6094 C765.1563,285.3125 765.3125,285.0313 765.5625,284.875 C765.7188,284.7656 765.8438,284.75 766.2813,284.75 L768,284.75 L768,278.2344 L766.2813,278.2344 C765.8594,278.2344 765.6719,278.2031 765.5156,278.0938 C765.2969,277.9219 765.1563,277.6719 765.1563,277.3906 C765.1563,277.1094 765.3125,276.8125 765.5625,276.6563 C765.7188,276.5625 765.8438,276.5469 766.2813,276.5469 L771.4219,276.5469 C771.875,276.5469 772.0156,276.5781 772.1875,276.6875 C772.4219,276.8594 772.5313,277.125 772.5313,277.3906 C772.5313,277.6875 772.3906,277.9688 772.125,278.125 C772,278.2031 771.8125,278.2344 771.4219,278.2344 Z "/><text fill="#000000" font-family="sans-serif" font-size="12" font-style="italic" lengthAdjust="spacingAndGlyphs" textLength="80" x="789.25" y="285.6074">ServiceClient</text><line style="stroke: #A80036; stroke-width: 1.5;" x1="649" x2="977" y1="297.4531" y2="297.4531"/><line style="stroke: #A80036; stroke-width: 1.5;" x1="649" x2="977" y1="305.4531" y2="305.4531"/><text fill="#000000" font-family="sans-serif" font-size="11" lengthAdjust="spacingAndGlyphs" textLength="232" x="654" y="319.6636">MetadataProvider getMetadataProvider();</text><text fill="#000000" font-family="sans-serif" font-size="11" lengthAdjust="spacingAndGlyphs" textLength="318" x="654" y="332.4683">PaymentChannelProvider getPaymentChannelProvider();</text><text fill="#000000" font-family="sans-serif" font-size="11" lengthAdjust="spacingAndGlyphs" textLength="108" x="654" y="345.2729">Signer getSigner();</text><text fill="#000000" font-family="sans-serif" font-size="11" lengthAdjust="spacingAndGlyphs" textLength="289" x="654" y="358.0776">T getGrpcStub(Function&lt;Channel, T&gt; constructor);</text><text fill="#000000" font-family="sans-serif" font-size="11" lengthAdjust="spacingAndGlyphs" textLength="118" x="654" y="370.8823">void shutdownNow();</text><!--MD5=[791a636acfc599c1abdb09fdc478ec4b]
class BaseServiceClient--><rect fill="#FEFECE" filter="url(#fr82zefdmyfy9)" height="48" id="BaseServiceClient" style="stroke: #A80036; stroke-width: 1.5;" width="143" x="834.5" y="450.4531"/><ellipse cx="849.5" cy="466.4531" fill="#ADD1B2" rx="11" ry="11" style="stroke: #A80036; stroke-width: 1.0;"/><path d="M851.8438,462.125 L852.0156,462.2031 C852.2344,461.8906 852.4375,461.7969 852.7344,461.7969 C853.0313,461.7969 853.3125,461.9375 853.4688,462.2031 C853.5625,462.3594 853.5781,462.4844 853.5781,462.9219 L853.5781,464.3438 C853.5781,464.7656 853.5469,464.9531 853.4375,465.1094 C853.2656,465.3281 853,465.4688 852.7344,465.4688 C852.5156,465.4688 852.2813,465.3594 852.1406,465.2188 C852,465.0938 851.9688,464.9688 851.9063,464.5625 C851.8125,464.1563 851.6406,463.9375 851.1563,463.6563 C850.6875,463.4063 850.0781,463.25 849.5,463.25 C847.7656,463.25 846.5156,464.5625 846.5156,466.3438 L846.5156,467.4375 C846.5156,469.1406 847.8125,470.2344 849.8594,470.2344 C850.625,470.2344 851.3125,470.1094 851.7344,469.8438 C851.9219,469.75 851.9219,469.75 852.375,469.2656 C852.5625,469.0781 852.7656,469 852.9844,469 C853.4531,469 853.8438,469.3906 853.8438,469.8438 C853.8438,470.2344 853.5156,470.6875 852.9375,471.0938 C852.1875,471.6406 851.0313,471.9375 849.8125,471.9375 C846.9219,471.9375 844.8125,470.0469 844.8125,467.4688 L844.8125,466.3438 C844.8125,463.625 846.8125,461.5469 849.4375,461.5469 C850.3125,461.5469 850.9063,461.6875 851.8438,462.125 Z "/><text fill="#000000" font-family="sans-serif" font-size="12" lengthAdjust="spacingAndGlyphs" textLength="111" x="863.5" y="470.6074">BaseServiceClient</text><line style="stroke: #A80036; stroke-width: 1.5;" x1="835.5" x2="976.5" y1="482.4531" y2="482.4531"/><line style="stroke: #A80036; stroke-width: 1.5;" x1="835.5" x2="976.5" y1="490.4531" y2="490.4531"/><!--MD5=[717d15024881c8f926f8fb51b6a4858a]
reverse link WithAddress to Signer--><path d="M863.952,883.3661 C867.531,903.1231 871.533,925.2171 874.646,942.3971 " fill="none" id="WithAddress&lt;-Signer" style="stroke: #A80036; stroke-width: 1.0;"/><polygon fill="none" points="857.04,884.4851,860.363,863.5571,870.816,881.9891,857.04,884.4851" style="stroke: #A80036; stroke-width: 1.0;"/><!--MD5=[12dce411975b147db466b4eb70af8e26]
reverse link Signer to PrivateKeyIdentity--><path d="M880,1023.6551 C880,1041.6621 880,1061.1491 880,1075.7871 " fill="none" id="Signer&lt;-PrivateKeyIdentity" style="stroke: #A80036; stroke-width: 1.0; stroke-dasharray: 7.0,7.0;"/><polygon fill="none" points="873,1023.5761,880,1003.5761,887,1023.5761,873,1023.5761" style="stroke: #A80036; stroke-width: 1.0;"/><!--MD5=[70d2d8ea03716a1c981ea3b57f74daf2]
reverse link PrivateKeyIdentity to MnemonicIdentity--><path d="M880,1144.1231 C880,1164.5281 880,1188.0841 880,1205.1051 " fill="none" id="PrivateKeyIdentity&lt;-MnemonicIdentity" style="stroke: #A80036; stroke-width: 1.0;"/><polygon fill="none" points="873,1144.0421,880,1124.0421,887,1144.0421,873,1144.0421" style="stroke: #A80036; stroke-width: 1.0;"/><!--MD5=[71e65807e472cdd22e4afb5f3f077edb]
reverse link MetadataStorage to IpfsMetadataStorage--><path d="M2060.61,1515.7931 C2062.09,1531.8261 2063.66,1548.8218 2064.87,1561.9525 " fill="none" id="MetadataStorage&lt;-IpfsMetadataStorage" style="stroke: #A80036; stroke-width: 1.0; stroke-dasharray: 7.0,7.0;"/><polygon fill="none" points="2053.62,1516.2341,2058.75,1495.6751,2067.56,1514.9461,2053.62,1516.2341" style="stroke: #A80036; stroke-width: 1.0;"/><!--MD5=[2a4a970764f918ae0badbe6919defd20]
reverse link MetadataProvider to RegistryMetadataProvider--><path d="M2262,1280.0601 C2262,1293.8291 2262,1308.1381 2262,1319.6221 " fill="none" id="MetadataProvider&lt;-RegistryMetadataProvider" style="stroke: #A80036; stroke-width: 1.0; stroke-dasharray: 7.0,7.0;"/><polygon fill="none" points="2255,1280.0111,2262,1260.0111,2269,1280.0111,2255,1280.0111" style="stroke: #A80036; stroke-width: 1.0;"/><!--MD5=[020c7b64572ad0d5dd83b48937953d6f]
reverse link RegistryMetadataProvider to RegistryContract--><path d="M2303.92,1376.1281 C2325.26,1392.0021 2351.32,1411.3851 2373.52,1427.8991 " fill="none" id="RegistryMetadataProvider&lt;-RegistryContract" style="stroke: #A80036; stroke-width: 1.0;"/><polygon fill="#A80036" points="2293.23,1368.1801,2295.6578,1374.9703,2302.8594,1375.3408,2300.4316,1368.5507,2293.23,1368.1801" style="stroke: #A80036; stroke-width: 1.0;"/><!--MD5=[d47a745ee1ad0799f82e44bd048299bb]
reverse link RegistryMetadataProvider to MetadataStorage--><path d="M2210.16,1374.9011 C2178.61,1393.1241 2138.48,1416.3041 2107.08,1434.4471 " fill="none" id="RegistryMetadataProvider&lt;-MetadataStorage" style="stroke: #A80036; stroke-width: 1.0;"/><polygon fill="#A80036" points="2221.79,1368.1801,2214.5938,1367.7164,2211.398,1374.1806,2218.5941,1374.6444,2221.79,1368.1801" style="stroke: #A80036; stroke-width: 1.0;"/><!--MD5=[2e8d45d7b6efb88c2a093f23e9ecb5bc]
reverse link DaemonConnection to FirstEndpointDaemonConnection--><path d="M2111.89,1035.9601 C2115.06,1050.1161 2118.24,1064.3061 2120.77,1075.6251 " fill="none" id="DaemonConnection&lt;-FirstEndpointDaemonConnection" style="stroke: #A80036; stroke-width: 1.0; stroke-dasharray: 7.0,7.0;"/><polygon fill="none" points="2105.02,1037.3191,2107.48,1016.2721,2118.68,1034.2591,2105.02,1037.3191" style="stroke: #A80036; stroke-width: 1.0;"/><!--MD5=[afb6adc7960e2860438bfeb6846dfc89]
reverse link FirstEndpointDaemonConnection to MetadataProvider--><path d="M2160.35,1133.1541 C2181.86,1153.3231 2209.38,1179.1251 2230.36,1198.7941 " fill="none" id="FirstEndpointDaemonConnection&lt;-MetadataProvider" style="stroke: #A80036; stroke-width: 1.0;"/><polygon fill="#FFFFFF" points="2150.63,1124.0421,2152.2737,1131.0634,2159.3871,1132.2466,2157.7434,1125.2253,2150.63,1124.0421" style="stroke: #A80036; stroke-width: 1.0;"/><!--MD5=[19f1c5719f03e3dbc601566ba7115d43]
reverse link PaymentChannelStateService to Signer--><path d="M1973.89,867.2281 C1939.01,877.3101 1899.62,887.4301 1863,893.9531 C1542.56,951.0301 1155.89,966.3501 978.117,970.4551 " fill="none" id="PaymentChannelStateService&lt;-Signer" style="stroke: #A80036; stroke-width: 1.0;"/><polygon fill="#FFFFFF" points="1986.52,863.5221,1979.637,861.3717,1975.0047,866.8981,1981.8877,869.0486,1986.52,863.5221" style="stroke: #A80036; stroke-width: 1.0;"/><!--MD5=[18e29076eb626ade2b5bddfb0a0f2f05]
link PaymentChannelStateService to DaemonConnection--><path d="M2081.51,863.5571 C2084.45,882.8821 2088.33,908.4051 2091.59,929.8311 " fill="none" id="PaymentChannelStateService-DaemonConnection" style="stroke: #A80036; stroke-width: 1.0;"/><!--MD5=[1cd7eb9beedbb9f2782e52a9536ee1b7]
reverse link PaymentChannelProvider to AskDaemonFirstPaymentChannelProvider--><path d="M1239.34,634.2531 C1253.65,649.5791 1269.12,666.1521 1281.22,679.1221 " fill="none" id="PaymentChannelProvider&lt;-AskDaemonFirstPaymentChannelProvider" style="stroke: #A80036; stroke-width: 1.0; stroke-dasharray: 7.0,7.0;"/><polygon fill="none" points="1234.12,638.9131,1225.59,619.5131,1244.35,629.3531,1234.12,638.9131" style="stroke: #A80036; stroke-width: 1.0;"/><!--MD5=[a423174016401f42057dff165ffb576c]
reverse link AskDaemonFirstPaymentChannelProvider to MultiPartyEscrowContract--><path d="M1303,740.7581 C1303,757.9171 1303,778.3541 1303,795.5291 " fill="none" id="AskDaemonFirstPaymentChannelProvider&lt;-MultiPartyEscrowContract" style="stroke: #A80036; stroke-width: 1.0;"/><polygon fill="#A80036" points="1303,727.5421,1299,733.5421,1303,739.5421,1307,733.5421,1303,727.5421" style="stroke: #A80036; stroke-width: 1.0;"/><!--MD5=[46c699d0e4e8b327f5eae6508979f714]
reverse link AskDaemonFirstPaymentChannelProvider to PaymentChannelStateService--><path d="M1460.91,710.3211 C1573.92,716.8521 1729.11,730.5981 1863,759.4531 C1910.74,769.7421 1962.66,787.1711 2003.4,802.3611 " fill="none" id="AskDaemonFirstPaymentChannelProvider&lt;-PaymentChannelStateService" style="stroke: #A80036; stroke-width: 1.0;"/><polygon fill="#A80036" points="1447.69,709.5781,1453.4564,713.9081,1459.6711,710.2506,1453.9047,705.9207,1447.69,709.5781" style="stroke: #A80036; stroke-width: 1.0;"/><!--MD5=[61803ff263b7a7dadfe80ad85fadee10]
link EscrowPaymentlol347136 to EscrowPayment--><path d="M1407.33,588.9531 C1418.88,588.9531 1430.43,588.9531 1441.98,588.9531 " fill="none" id="EscrowPaymentlol347136-EscrowPayment" style="stroke: #A80036; stroke-width: 1.0;"/><!--MD5=[5dcd64b477b3d04b728a939cc64b9017]
reverse link Configuration to JsonConfiguration--><path d="M189,410.9431 C189,425.5031 189,439.4031 189,450.3731 " fill="none" id="Configuration&lt;-JsonConfiguration" style="stroke: #A80036; stroke-width: 1.0; stroke-dasharray: 7.0,7.0;"/><polygon fill="none" points="182,410.8831,189,390.8831,196,410.8831,182,410.8831" style="stroke: #A80036; stroke-width: 1.0;"/><!--MD5=[1742506f867320e7ba4ab5301cd79a0c]
reverse link DependencyFactory to ConfigurationDependencyFactory--><path d="M494,397.9531 C494,417.0931 494,436.2231 494,450.4431 " fill="none" id="DependencyFactory&lt;-ConfigurationDependencyFactory" style="stroke: #A80036; stroke-width: 1.0; stroke-dasharray: 7.0,7.0;"/><polygon fill="none" points="487,397.8231,494,377.8231,501,397.8231,487,397.8231" style="stroke: #A80036; stroke-width: 1.0;"/><!--MD5=[7f59f6dcd19536ad3c7e4ba41aebc012]
reverse link PaymentStrategy to FixedPaymentChannelPaymentStrategy--><path d="M589,639.5631 C589,653.3291 589,667.6381 589,679.1221 " fill="none" id="PaymentStrategy&lt;-FixedPaymentChannelPaymentStrategy" style="stroke: #A80036; stroke-width: 1.0; stroke-dasharray: 7.0,7.0;"/><polygon fill="none" points="582,639.5131,589,619.5131,596,639.5131,582,639.5131" style="stroke: #A80036; stroke-width: 1.0;"/><!--MD5=[959240fecb5b0486cb7559d2b7d506db]
link Sdk to Configuration--><path d="M402.076,192.6031 C370.767,211.3931 335.391,232.6231 302.588,252.3031 " fill="none" id="Sdk-Configuration" style="stroke: #A80036; stroke-width: 1.0;"/><!--MD5=[44ca6029f689837145a834a0e7728181]
link Sdk to ServiceClient--><path d="M590.143,192.6031 C630.319,215.6531 676.899,242.3731 717.054,265.4131 " fill="none" id="Sdk-ServiceClient" style="stroke: #A80036; stroke-width: 1.0;"/><!--MD5=[f1e16a21a2bf7a887235661116c6ef9f]
link Sdk to DependencyFactory--><path d="M494,192.8531 C494,215.7931 494,242.3231 494,265.2431 " fill="none" id="Sdk-DependencyFactory" style="stroke: #A80036; stroke-width: 1.0;"/><!--MD5=[3dd61a7060afbecf34cd84d0ea871382]
reverse link ServiceClient to BaseServiceClient--><path d="M857.631,394.9131 C870.031,415.0531 882.609,435.4731 891.829,450.4431 " fill="none" id="ServiceClient&lt;-BaseServiceClient" style="stroke: #A80036; stroke-width: 1.0; stroke-dasharray: 7.0,7.0;"/><polygon fill="none" points="851.63,398.5231,847.102,377.8231,863.55,391.1831,851.63,398.5231" style="stroke: #A80036; stroke-width: 1.0;"/><!--MD5=[f1810e1cc92e9d243ab972feb76830f3]
reverse link BaseServiceClient to DaemonConnection--><path d="M990.96,477.5231 C1147.61,481.8131 1476.17,493.2131 1588,515.4531 C1912.38,579.9731 2099.28,489.9631 2291,759.4531 C2325.65,808.1621 2324.42,844.3931 2291,893.9531 C2281.2,908.4851 2268.18,920.3101 2253.53,929.9331 " fill="none" id="BaseServiceClient&lt;-DaemonConnection" style="stroke: #A80036; stroke-width: 1.0;"/><polygon fill="#A80036" points="977.71,477.1631,983.6002,481.3232,989.7057,477.4861,983.8155,473.3261,977.71,477.1631" style="stroke: #A80036; stroke-width: 1.0;"/><!--MD5=[fee83ce824a62f471aff6274595972c2]
reverse link BaseServiceClient to MetadataProvider--><path d="M990.879,475.4631 C1197.69,476.0331 1723.24,480.9631 1895,515.4531 C2128.84,562.4131 2398,463.9531 2398,702.4531 C2398,702.4531 2398,702.4531 2398,973.9531 C2398,1064.3781 2330.39,1153.8111 2290.51,1198.6971 " fill="none" id="BaseServiceClient&lt;-MetadataProvider" style="stroke: #A80036; stroke-width: 1.0;"/><polygon fill="#A80036" points="977.725,475.4331,983.7153,479.4476,989.725,475.4621,983.7347,471.4476,977.725,475.4331" style="stroke: #A80036; stroke-width: 1.0;"/><!--MD5=[8bbdb97ec44eedb7ed3952fd20525ba8]
reverse link BaseServiceClient to PaymentChannelProvider--><path d="M978.025,503.2031 C1021.55,519.9731 1077,541.3331 1121.33,558.4131 " fill="none" id="BaseServiceClient&lt;-PaymentChannelProvider" style="stroke: #A80036; stroke-width: 1.0;"/><polygon fill="#A80036" points="965.795,498.4931,969.9552,504.3832,976.9922,502.8085,972.8321,496.9184,965.795,498.4931" style="stroke: #A80036; stroke-width: 1.0;"/><!--MD5=[42a8c2d7d8694453bdc05839364c455e]
reverse link BaseServiceClient to PaymentStrategy--><path d="M828.718,502.8831 C781.33,519.6931 720.671,541.2231 672.229,558.4131 " fill="none" id="BaseServiceClient&lt;-PaymentStrategy" style="stroke: #A80036; stroke-width: 1.0;"/><polygon fill="#A80036" points="841.085,498.4931,834.0922,496.7321,829.7771,502.5096,836.7699,504.2707,841.085,498.4931" style="stroke: #A80036; stroke-width: 1.0;"/><!--MD5=[2b6c76311f7f0b8298b7fb2c12f1ca74]
reverse link BaseServiceClient to Signer--><path d="M939.36,509.7331 C940.363,511.5931 941.253,513.5031 942,515.4531 C1002.268,672.5091 997.434,735.1271 942,893.9531 C935.73,911.9191 923.401,928.8461 911.378,942.3111 " fill="none" id="BaseServiceClient&lt;-Signer" style="stroke: #A80036; stroke-width: 1.0;"/><polygon fill="#A80036" points="932.047,498.8931,932.0874,506.1041,938.7593,508.8402,938.7189,501.6293,932.047,498.8931" style="stroke: #A80036; stroke-width: 1.0;"/><!--MD5=[d1d81291223106e426c10d75aae80382]
@startuml
title SingularityNet Java SDK

package io.singularitynet.sdk.ethereum {

    interface WithAddress {
        Address getAddress();
    }

    interface Signer {
        Signature sign(byte[] message);
    }
    WithAddress <|- - Signer

    class PrivateKeyIdentity
    Signer <|.. PrivateKeyIdentity

    class MnemonicIdentity
    PrivateKeyIdentity <|- - MnemonicIdentity

}


package io.singularitynet.sdk.registry {

    interface MetadataStorage {
        byte[] get(URI uri);
    }
    class IpfsMetadataStorage
    MetadataStorage <|.. IpfsMetadataStorage

    class RegistryContract {
        Optional<OrganizationRegistration> getOrganizationById(String orgId);
        Optional<ServiceRegistration> getServiceRegistrationById(String orgId, String serviceId);
    }

    interface MetadataProvider {
        ServiceMetadata getServiceMetadata();
    }
    class RegistryMetadataProvider
    MetadataProvider <|.. RegistryMetadataProvider
    RegistryMetadataProvider *- - RegistryContract
    RegistryMetadataProvider *- - MetadataStorage

}

package io.singularitynet.sdk.daemon {
    
    interface DaemonConnection {
        <T> T getGrpcStub(Function<Channel, T> constructor);
        void setClientCallsInterceptor(ClientInterceptor interceptor);
        void shutdownNow();
    }

    class FirstEndpointDaemonConnection
    DaemonConnection <|.. FirstEndpointDaemonConnection
    FirstEndpointDaemonConnection o- - MetadataProvider

    class PaymentChannelStateService {
        PaymentChannelStateReply getChannelState(BigInteger channelId);
    }
    PaymentChannelStateService o- - Signer
    PaymentChannelStateService - - DaemonConnection

    interface Payment {
        void toMetadata(Metadata headers);
    }

}

package io.singularitynet.sdk.mpe {
    class MultiPartyEscrowContract {
        Optional<PaymentChannel> getChannelById(BigInteger channelId);
        Address getContractAddress();
    }

    interface PaymentChannelProvider {
        PaymentChannel getChannelById(BigInteger channelId);
    }

    class AskDaemonFirstPaymentChannelProvider
    PaymentChannelProvider <|.. AskDaemonFirstPaymentChannelProvider
    AskDaemonFirstPaymentChannelProvider *- - MultiPartyEscrowContract
    AskDaemonFirstPaymentChannelProvider *- - PaymentChannelStateService

    class EscrowPayment
    Payment ()- EscrowPayment

}

package io.singularitynet.sdk.client {

    interface Configuration {
        String getEthereumJsonRpcEndpoint();
        URL getIpfsUrl();
        SignerType getSignerType();
        String getSignerMnemonic();
        byte[] getSignerPrivateKey();
        Optional<Address> getRegistryAddress();
        Optional<Address> getMultiPartyEscrowAddress();
    }

    class JsonConfiguration
    Configuration <|.. JsonConfiguration

    interface DependencyFactory {
        Web3j getWeb3j();
        IPFS getIpfs();
        Signer getSigner();
        Registry getRegistry();
        MultiPartyEscrow getMultiPartyEscrow();
    }

    class ConfigurationDependencyFactory
    DependencyFactory <|.. ConfigurationDependencyFactory

    interface PaymentStrategy {
        <ReqT, RespT> Payment getPayment(GrpcCallParameters<ReqT, RespT> parameters, ServiceClient serviceClient);
    }

    class FixedPaymentChannelPaymentStrategy
    PaymentStrategy <|.. FixedPaymentChannelPaymentStrategy

    class Sdk {
        Sdk(Configuration config);
        Sdk(DependencyFactory factory);

        ServiceClient newServiceClient(String orgId, String serviceId, String endpointGroupName, PaymentStrategy paymentStrategy);
        void shutdown();
    }
    Sdk - - Configuration
    Sdk - - ServiceClient
    Sdk - - DependencyFactory

    interface ServiceClient {
        MetadataProvider getMetadataProvider();
        PaymentChannelProvider getPaymentChannelProvider();
        Signer getSigner();
        T getGrpcStub(Function<Channel, T> constructor);
        void shutdownNow();
    }

    class BaseServiceClient
    ServiceClient <|.. BaseServiceClient
    BaseServiceClient *- - DaemonConnection
    BaseServiceClient *- - MetadataProvider
    BaseServiceClient *- - PaymentChannelProvider
    BaseServiceClient *- - PaymentStrategy
    BaseServiceClient *- - Signer

}
@enduml

PlantUML version 1.2019.13(Tue Dec 10 17:18:29 UTC 2019)
(GPL source distribution)
Java Runtime: Java(TM) SE Runtime Environment
JVM: Java HotSpot(TM) 64-Bit Server VM
Java Version: 1.7.0_25-b15
Operating System: Linux
Default Encoding: UTF-8
Language: en
Country: US
--></g></svg>